<svg width="501" height="500" viewBox="0 0 501 500" fill="none" xmlns="http://www.w3.org/2000/svg">
<g clip-path="url(#clip0_233_28650)">
<path d="M469.288 177.89L343.024 44.7734L289.154 95.847L415.418 228.964L469.288 177.89Z" fill="white"/>
<path d="M393.904 134.928C393.83 134.929 393.756 134.914 393.688 134.886C393.614 134.857 393.546 134.814 393.489 134.759C393.431 134.705 393.385 134.639 393.353 134.566C393.321 134.493 393.304 134.415 393.303 134.336C393.301 134.256 393.316 134.178 393.345 134.104C394.055 132.304 394.13 130.316 393.557 128.468C392.983 126.62 391.797 125.023 390.192 123.941C388.588 122.86 386.662 122.357 384.734 122.518C382.806 122.679 380.99 123.493 379.587 124.826C378.645 125.714 377.92 126.807 377.469 128.021C377.444 128.099 377.404 128.171 377.351 128.234C377.298 128.296 377.232 128.346 377.159 128.383C377.085 128.419 377.005 128.439 376.923 128.443C376.841 128.447 376.76 128.435 376.683 128.406C376.606 128.377 376.536 128.333 376.477 128.276C376.418 128.22 376.371 128.151 376.339 128.076C376.307 128 376.291 127.919 376.292 127.837C376.293 127.755 376.31 127.674 376.343 127.599C376.919 126.057 377.877 124.687 379.128 123.617C380.38 122.547 381.883 121.813 383.496 121.485C385.11 121.156 386.78 121.243 388.35 121.738C389.921 122.233 391.339 123.12 392.472 124.314C393.738 125.656 394.597 127.329 394.95 129.14C395.303 130.951 395.134 132.824 394.464 134.543C394.42 134.656 394.344 134.753 394.244 134.822C394.144 134.891 394.026 134.928 393.904 134.928Z" fill="#2B3A4F"/>
<path d="M372.077 153.357C370.721 153.355 369.381 153.069 368.143 152.517C366.905 151.965 365.796 151.159 364.889 150.152C363.981 149.145 363.295 147.959 362.875 146.671C362.454 145.382 362.309 144.02 362.447 142.672C362.464 142.514 362.542 142.369 362.665 142.269C362.788 142.169 362.946 142.121 363.103 142.136C363.262 142.151 363.409 142.229 363.51 142.352C363.612 142.475 363.66 142.633 363.645 142.792C363.473 144.514 363.832 146.247 364.672 147.76C365.513 149.272 366.795 150.493 368.348 151.257C369.901 152.021 371.65 152.293 373.362 152.036C375.074 151.779 376.666 151.006 377.926 149.82C378.928 148.867 379.683 147.686 380.129 146.378C380.154 146.303 380.194 146.233 380.246 146.174C380.298 146.114 380.361 146.065 380.432 146.03C380.503 145.994 380.581 145.974 380.66 145.968C380.739 145.963 380.818 145.973 380.893 145.999C380.969 146.024 381.038 146.064 381.098 146.116C381.158 146.168 381.207 146.231 381.242 146.302C381.277 146.373 381.298 146.45 381.303 146.53C381.308 146.609 381.298 146.688 381.272 146.763C380.619 148.683 379.381 150.351 377.732 151.533C376.083 152.714 374.105 153.35 372.077 153.351V153.357Z" fill="#2B3A4F"/>
<path d="M360.828 154.278C360.707 154.279 360.589 154.243 360.488 154.175C360.388 154.108 360.31 154.012 360.265 153.899C360.221 153.787 360.211 153.663 360.237 153.545C360.263 153.427 360.325 153.32 360.413 153.237L396.625 118.905C396.743 118.809 396.893 118.761 397.044 118.77C397.196 118.78 397.339 118.847 397.443 118.958C397.548 119.068 397.606 119.214 397.607 119.366C397.609 119.518 397.552 119.665 397.449 119.777L361.244 154.109C361.132 154.217 360.983 154.277 360.828 154.278Z" fill="#2B3A4F"/>
<path d="M380.081 142.232C379.943 142.236 379.809 142.193 379.699 142.11C379.59 142.027 379.512 141.908 379.479 141.775L376.933 131.486C376.902 131.334 376.931 131.175 377.014 131.044C377.096 130.912 377.227 130.818 377.378 130.78C377.529 130.743 377.689 130.766 377.824 130.843C377.958 130.921 378.058 131.048 378.101 131.197L380.647 141.486C380.685 141.641 380.66 141.805 380.578 141.941C380.495 142.078 380.362 142.176 380.207 142.214L380.081 142.232Z" fill="#2B3A4F"/>
<path d="M415.462 229.543C415.383 229.541 415.305 229.523 415.233 229.491C415.161 229.459 415.095 229.413 415.041 229.356L288.748 96.2695C288.692 96.2136 288.647 96.1471 288.617 96.0737C288.586 96.0004 288.57 95.9218 288.57 95.8423C288.57 95.7629 288.586 95.6843 288.617 95.611C288.647 95.5376 288.692 95.4711 288.748 95.4151L342.611 44.3381C342.669 44.2838 342.737 44.2415 342.812 44.2136C342.886 44.1857 342.965 44.1728 343.045 44.1757C343.124 44.1776 343.202 44.195 343.274 44.227C343.346 44.259 343.412 44.305 343.466 44.3622L469.764 177.449C469.821 177.505 469.866 177.571 469.896 177.645C469.927 177.718 469.942 177.797 469.942 177.876C469.942 177.955 469.927 178.034 469.896 178.107C469.866 178.181 469.821 178.247 469.764 178.303L415.901 229.38C415.843 229.435 415.774 229.478 415.698 229.506C415.623 229.534 415.542 229.546 415.462 229.543ZM290.036 95.8604L415.486 228.093L468.477 177.84L343.027 45.6077L290.036 95.8604Z" fill="#2B3A4F"/>
<path d="M319.194 67.3886C322.167 70.5195 325.728 73.0343 329.673 74.7892C333.618 76.5442 337.871 77.505 342.187 77.6167C346.504 77.7285 350.8 76.989 354.831 75.4405C358.862 73.892 362.548 71.5649 365.679 68.592L343.051 44.7412L319.194 67.3886Z" fill="#DFEDFF"/>
<path d="M313.068 73.2129L289.212 95.8362L311.84 119.687C318.167 113.687 321.85 105.42 322.081 96.7041C322.311 87.9887 319.069 79.5388 313.068 73.2129V73.2129Z" fill="#DFEDFF"/>
<path d="M439.318 206.318C433.313 199.996 425.042 196.318 416.325 196.092C407.607 195.866 399.157 199.112 392.833 205.114L415.462 228.965L439.318 206.318Z" fill="#DFEDFF"/>
<path d="M446.703 154.031C440.38 160.035 436.701 168.304 436.475 177.019C436.249 185.734 439.495 194.183 445.499 200.505L469.355 177.882L446.703 154.031Z" fill="#DFEDFF"/>
<path d="M415.462 229.543C415.383 229.541 415.305 229.523 415.233 229.491C415.161 229.459 415.095 229.413 415.041 229.356L288.748 96.2695C288.692 96.2136 288.647 96.1471 288.617 96.0737C288.586 96.0004 288.57 95.9218 288.57 95.8423C288.57 95.7629 288.586 95.6843 288.617 95.611C288.647 95.5376 288.692 95.4711 288.748 95.4151L342.611 44.3381C342.669 44.2838 342.737 44.2415 342.812 44.2136C342.886 44.1857 342.965 44.1728 343.045 44.1757C343.124 44.1776 343.202 44.195 343.274 44.227C343.346 44.259 343.412 44.305 343.466 44.3622L469.764 177.449C469.821 177.505 469.866 177.571 469.896 177.645C469.927 177.718 469.942 177.797 469.942 177.876C469.942 177.955 469.927 178.034 469.896 178.107C469.866 178.181 469.821 178.247 469.764 178.303L415.901 229.38C415.843 229.435 415.774 229.478 415.698 229.506C415.623 229.534 415.542 229.546 415.462 229.543ZM290.036 95.8604L415.486 228.093L468.477 177.84L343.027 45.6077L290.036 95.8604Z" fill="#2B3A4F"/>
<path d="M299.033 97.2746C298.951 97.2751 298.87 97.2589 298.794 97.2268C298.719 97.1947 298.651 97.1475 298.594 97.0881C298.538 97.0322 298.493 96.9656 298.462 96.8923C298.432 96.819 298.416 96.7403 298.416 96.6609C298.416 96.5815 298.432 96.5028 298.462 96.4295C298.493 96.3562 298.538 96.2897 298.594 96.2337L342.93 54.194C343.043 54.0819 343.196 54.019 343.355 54.019C343.514 54.019 343.666 54.0819 343.779 54.194L375.796 87.9425C375.892 88.0603 375.94 88.2101 375.93 88.3619C375.921 88.5137 375.854 88.6562 375.743 88.7606C375.633 88.8651 375.486 88.9238 375.334 88.9249C375.182 88.9261 375.035 88.8696 374.923 88.7668L343.346 55.4816L299.443 97.1062C299.333 97.2122 299.186 97.2725 299.033 97.2746V97.2746Z" fill="#2B3A4F"/>
<path d="M414.908 219.416C414.829 219.414 414.751 219.397 414.679 219.365C414.606 219.333 414.541 219.287 414.487 219.23L379.846 182.713C379.736 182.598 379.676 182.443 379.68 182.283C379.684 182.124 379.751 181.972 379.867 181.862C379.982 181.752 380.137 181.692 380.297 181.696C380.457 181.7 380.608 181.767 380.718 181.883L414.944 217.984L458.877 176.354C458.99 176.242 459.142 176.179 459.301 176.179C459.46 176.179 459.613 176.242 459.726 176.354C459.782 176.41 459.827 176.476 459.857 176.549C459.888 176.623 459.904 176.701 459.904 176.781C459.904 176.86 459.888 176.939 459.857 177.012C459.827 177.086 459.782 177.152 459.726 177.208L415.323 219.254C415.211 219.359 415.062 219.417 414.908 219.416Z" fill="#2B3A4F"/>
<path d="M350.218 145.71H350.17C350.091 145.704 350.014 145.682 349.943 145.646C349.872 145.61 349.809 145.561 349.758 145.5C349.707 145.44 349.667 145.37 349.643 145.294C349.619 145.219 349.61 145.139 349.616 145.06C350.345 136.318 355.195 127.082 363.019 119.735C371.264 111.913 381.609 107.431 390.703 107.702C390.862 107.702 391.015 107.765 391.128 107.878C391.241 107.991 391.305 108.144 391.305 108.303C391.305 108.463 391.241 108.616 391.128 108.729C391.015 108.842 390.862 108.905 390.703 108.905C381.922 108.61 371.902 112.984 363.892 120.59C356.327 127.756 351.59 136.715 350.886 145.162C350.879 145.243 350.857 145.321 350.819 145.392C350.782 145.463 350.73 145.526 350.668 145.577C350.606 145.629 350.534 145.667 350.457 145.689C350.379 145.712 350.298 145.719 350.218 145.71Z" fill="#2B3A4F"/>
<path d="M369.477 166.005C369.317 166.005 369.164 165.942 369.051 165.829C368.938 165.716 368.875 165.563 368.875 165.403C368.875 165.244 368.938 165.091 369.051 164.978C369.164 164.865 369.317 164.802 369.477 164.802C377.95 164.549 387.152 160.289 394.711 153.123C402.74 145.518 407.596 135.74 407.777 126.956C407.777 126.796 407.84 126.643 407.953 126.53C408.066 126.417 408.219 126.354 408.379 126.354C408.538 126.354 408.691 126.417 408.804 126.53C408.917 126.643 408.98 126.796 408.98 126.956C408.794 136.047 403.763 146.137 395.518 153.959C387.748 161.324 378.263 165.704 369.495 165.993L369.477 166.005Z" fill="#2B3A4F"/>
<path d="M473.675 131.508L319.244 32.4263L279.147 94.8934L433.578 193.976L473.675 131.508Z" fill="white"/>
<path d="M390.041 107.846H389.957C389.799 107.825 389.656 107.743 389.559 107.616C389.462 107.49 389.419 107.33 389.439 107.172C389.644 106.036 389.615 104.87 389.354 103.746C389.093 102.621 388.606 101.562 387.922 100.632C387.238 99.7015 386.372 98.9203 385.376 98.3358C384.381 97.7512 383.276 97.3755 382.131 97.2315C380.985 97.0875 379.822 97.1783 378.713 97.4983C377.603 97.8182 376.571 98.3608 375.678 99.0927C374.785 99.8247 374.051 100.731 373.52 101.756C372.988 102.781 372.672 103.903 372.588 105.054C372.57 105.214 372.489 105.36 372.363 105.46C372.237 105.559 372.077 105.605 371.917 105.587C371.758 105.569 371.612 105.488 371.512 105.362C371.412 105.236 371.366 105.076 371.385 104.916C371.512 103.626 371.896 102.375 372.515 101.237C373.133 100.098 373.974 99.0946 374.986 98.2858C375.999 97.477 377.163 96.8791 378.411 96.5274C379.658 96.1757 380.963 96.0773 382.249 96.238C383.535 96.3988 384.776 96.8153 385.899 97.4632C387.021 98.1111 388.003 98.9771 388.785 100.01C389.567 101.043 390.135 102.223 390.454 103.479C390.773 104.734 390.837 106.042 390.643 107.323C390.624 107.468 390.552 107.602 390.441 107.698C390.331 107.795 390.188 107.847 390.041 107.846Z" fill="#2B3A4F"/>
<path d="M371.053 131.234C368.715 131.227 366.458 130.378 364.695 128.842C362.933 127.306 361.784 125.185 361.46 122.87C361.438 122.711 361.48 122.549 361.577 122.42C361.674 122.292 361.818 122.207 361.978 122.184C362.137 122.162 362.299 122.204 362.428 122.301C362.556 122.398 362.641 122.542 362.664 122.702C362.949 124.775 363.989 126.669 365.585 128.022C367.181 129.376 369.22 130.093 371.312 130.036C373.404 129.98 375.401 129.153 376.922 127.715C378.442 126.278 379.378 124.33 379.551 122.245C379.557 122.166 379.58 122.089 379.616 122.018C379.653 121.948 379.703 121.885 379.763 121.834C379.824 121.783 379.894 121.744 379.97 121.72C380.045 121.696 380.125 121.687 380.204 121.694C380.283 121.701 380.36 121.723 380.43 121.759C380.501 121.796 380.563 121.846 380.614 121.906C380.665 121.967 380.704 122.037 380.728 122.113C380.752 122.188 380.761 122.268 380.754 122.347C380.618 123.919 380.102 125.435 379.25 126.763C378.562 127.834 377.668 128.757 376.62 129.48C375.573 130.203 374.393 130.711 373.147 130.975C372.461 131.136 371.758 131.223 371.053 131.234Z" fill="#2B3A4F"/>
<path d="M362.544 134.537C362.429 134.538 362.316 134.507 362.219 134.446C362.152 134.404 362.094 134.348 362.048 134.283C362.003 134.217 361.971 134.144 361.954 134.066C361.937 133.988 361.936 133.908 361.95 133.83C361.965 133.751 361.995 133.677 362.038 133.61L388.988 91.6245C389.078 91.4995 389.213 91.4138 389.364 91.3851C389.515 91.3563 389.672 91.3868 389.802 91.4701C389.931 91.5534 390.024 91.6832 390.061 91.8329C390.097 91.9825 390.075 92.1405 389.999 92.2743L363.049 134.26C362.995 134.345 362.92 134.414 362.832 134.463C362.744 134.511 362.645 134.537 362.544 134.537Z" fill="#2B3A4F"/>
<path d="M378.359 118.243C378.25 118.242 378.143 118.212 378.05 118.154C377.956 118.097 377.88 118.015 377.83 117.918L372.901 108.538C372.862 108.468 372.837 108.391 372.829 108.311C372.82 108.231 372.827 108.151 372.85 108.074C372.873 107.997 372.911 107.925 372.962 107.863C373.013 107.802 373.076 107.75 373.147 107.713C373.218 107.676 373.296 107.653 373.376 107.646C373.456 107.639 373.536 107.649 373.613 107.673C373.689 107.698 373.759 107.738 373.82 107.79C373.881 107.843 373.931 107.907 373.966 107.978L378.895 117.359C378.944 117.451 378.968 117.554 378.966 117.658C378.963 117.762 378.933 117.864 378.879 117.953C378.825 118.042 378.748 118.116 378.657 118.167C378.566 118.218 378.464 118.244 378.359 118.243Z" fill="#2B3A4F"/>
<path d="M433.583 194.573C433.467 194.572 433.354 194.539 433.258 194.476L278.824 95.3971C278.691 95.3099 278.598 95.1736 278.565 95.018C278.531 94.8631 278.559 94.701 278.643 94.5667L318.743 32.0998C318.829 31.966 318.965 31.8718 319.121 31.838C319.276 31.8041 319.439 31.8334 319.573 31.9193L474.007 130.999C474.14 131.086 474.233 131.222 474.266 131.378C474.3 131.533 474.272 131.695 474.187 131.829L434.094 194.296C434.039 194.382 433.963 194.452 433.874 194.5C433.785 194.549 433.684 194.574 433.583 194.573V194.573ZM279.967 94.7051L433.432 193.141L472.851 131.685L319.429 33.2551L279.967 94.7051Z" fill="#2B3A4F"/>
<path d="M301.488 60.0903C308.828 64.7986 317.737 66.3996 326.257 64.5412C334.777 62.6829 342.209 57.5172 346.92 50.1805L319.236 32.4248L301.488 60.0903Z" fill="#DFEDFF"/>
<path d="M296.909 67.2202L279.149 94.8977L306.833 112.647C309.165 109.013 310.759 104.955 311.522 100.706C312.286 96.4557 312.204 92.0971 311.283 87.8787C310.361 83.6603 308.618 79.6647 306.151 76.12C303.685 72.5754 300.545 69.5513 296.909 67.2202V67.2202Z" fill="#DFEDFF"/>
<path d="M451.343 166.306C444.003 161.597 435.094 159.996 426.574 161.855C418.054 163.713 410.622 168.879 405.911 176.216L433.595 193.971L451.343 166.306Z" fill="#DFEDFF"/>
<path d="M446.004 113.749C441.295 121.087 439.695 129.995 441.555 138.513C443.415 147.031 448.583 154.461 455.922 159.17L473.682 131.492L446.004 113.749Z" fill="#DFEDFF"/>
<path d="M433.583 194.573C433.467 194.572 433.354 194.539 433.258 194.476L278.824 95.3971C278.691 95.3099 278.598 95.1736 278.565 95.018C278.531 94.8631 278.559 94.701 278.643 94.5667L318.743 32.0998C318.829 31.966 318.965 31.8718 319.121 31.838C319.276 31.8041 319.439 31.8334 319.573 31.9193L474.007 130.999C474.14 131.086 474.233 131.222 474.266 131.378C474.3 131.533 474.272 131.695 474.187 131.829L434.094 194.296C434.039 194.382 433.963 194.452 433.874 194.5C433.785 194.549 433.684 194.574 433.583 194.573V194.573ZM279.967 94.7051L433.432 193.141L472.851 131.685L319.429 33.2551L279.967 94.7051Z" fill="#2B3A4F"/>
<path d="M288.91 93.9533C288.795 93.953 288.682 93.9196 288.585 93.857C288.451 93.7707 288.357 93.6348 288.323 93.4791C288.289 93.3235 288.319 93.1608 288.405 93.0267L321.403 41.6127C321.445 41.5451 321.5 41.4866 321.565 41.4405C321.63 41.3945 321.704 41.3619 321.782 41.3445C321.86 41.3272 321.94 41.3254 322.019 41.3395C322.097 41.3535 322.172 41.383 322.239 41.4262L361.394 66.5525C361.519 66.6426 361.604 66.7772 361.633 66.9285C361.662 67.0799 361.631 67.2365 361.548 67.3661C361.465 67.4957 361.335 67.5884 361.185 67.6251C361.036 67.6618 360.878 67.6397 360.744 67.5634L322.095 42.7679L289.416 93.6765C289.361 93.7612 289.287 93.831 289.198 93.8793C289.11 93.9277 289.011 93.9531 288.91 93.9533V93.9533Z" fill="#2B3A4F"/>
<path d="M430.622 184.874C430.507 184.871 430.394 184.838 430.297 184.777L387.935 157.593C387.864 157.553 387.802 157.498 387.752 157.433C387.703 157.368 387.668 157.293 387.648 157.214C387.629 157.135 387.626 157.052 387.639 156.972C387.653 156.891 387.682 156.814 387.726 156.745C387.771 156.676 387.828 156.617 387.896 156.572C387.964 156.526 388.04 156.495 388.12 156.479C388.201 156.464 388.283 156.465 388.363 156.483C388.443 156.501 388.518 156.535 388.584 156.582L430.423 183.436L463.102 132.533C463.143 132.462 463.197 132.4 463.262 132.351C463.328 132.302 463.402 132.266 463.482 132.247C463.561 132.227 463.643 132.224 463.724 132.238C463.805 132.251 463.882 132.281 463.95 132.325C464.019 132.369 464.078 132.427 464.124 132.495C464.169 132.562 464.201 132.639 464.216 132.719C464.231 132.799 464.23 132.882 464.212 132.962C464.195 133.041 464.161 133.117 464.113 133.183L431.133 184.597C431.046 184.73 430.91 184.823 430.754 184.856C430.711 184.868 430.667 184.874 430.622 184.874V184.874Z" fill="#2B3A4F"/>
<path d="M350.195 128.761C350.049 128.762 349.909 128.711 349.798 128.617C349.687 128.523 349.615 128.393 349.593 128.249C348.209 119.591 350.736 109.458 356.52 100.445C362.658 90.8845 371.631 84.0493 380.532 82.1661C380.682 82.1478 380.833 82.1863 380.956 82.274C381.078 82.3617 381.163 82.4921 381.194 82.6395C381.225 82.7869 381.2 82.9406 381.123 83.0702C381.046 83.1998 380.923 83.2958 380.779 83.3393C372.191 85.1444 363.501 91.799 357.537 101.095C351.904 109.862 349.442 119.693 350.778 128.063C350.803 128.22 350.764 128.38 350.67 128.509C350.577 128.637 350.436 128.723 350.279 128.748L350.195 128.761Z" fill="#2B3A4F"/>
<path d="M373.744 143.863C373.608 143.868 373.476 143.827 373.366 143.748C373.257 143.668 373.178 143.554 373.142 143.424C373.121 143.347 373.115 143.268 373.125 143.189C373.135 143.111 373.16 143.035 373.199 142.966C373.238 142.898 373.29 142.837 373.353 142.789C373.415 142.74 373.487 142.704 373.563 142.684C381.73 140.409 389.638 134.073 395.265 125.307C401.235 116.011 403.648 105.349 401.722 96.7871C401.702 96.709 401.698 96.6277 401.71 96.548C401.721 96.4683 401.749 96.3918 401.791 96.323C401.833 96.2542 401.889 96.1945 401.954 96.1475C402.02 96.1005 402.094 96.0672 402.172 96.0494C402.251 96.0317 402.332 96.0299 402.412 96.0442C402.491 96.0586 402.567 96.0887 402.634 96.1328C402.702 96.1769 402.76 96.2341 402.805 96.301C402.85 96.3679 402.881 96.4432 402.896 96.5223C404.894 105.391 402.42 116.378 396.276 125.957C390.492 134.982 382.326 141.486 373.876 143.839C373.833 143.853 373.789 143.861 373.744 143.863V143.863Z" fill="#2B3A4F"/>
<path d="M467.439 83.7776L294.705 21.876L269.654 91.7468L442.389 153.648L467.439 83.7776Z" fill="white"/>
<path d="M362.381 81.3421C362.233 81.343 362.089 81.2888 361.978 81.1899C361.866 81.091 361.796 80.9544 361.779 80.8066C361.594 79.1682 361.829 77.5096 362.462 75.9872C363.095 74.4647 364.106 73.1287 365.399 72.1052C366.692 71.0816 368.225 70.4043 369.852 70.1371C371.479 69.8699 373.148 70.0216 374.701 70.578C376.434 71.2084 377.953 72.3176 379.081 73.7767C380.209 75.2358 380.9 76.985 381.074 78.821C381.081 78.9001 381.073 78.9799 381.05 79.0557C381.026 79.1316 380.988 79.202 380.937 79.263C380.886 79.324 380.823 79.3743 380.753 79.411C380.682 79.4477 380.605 79.4701 380.526 79.4769C380.368 79.4903 380.212 79.4409 380.09 79.3396C379.968 79.2382 379.892 79.093 379.876 78.9354C379.721 77.3252 379.112 75.7921 378.121 74.5141C377.129 73.236 375.795 72.2655 374.273 71.7151C372.916 71.2284 371.457 71.0951 370.033 71.3279C368.61 71.5606 367.269 72.1517 366.138 73.0454C365.006 73.9392 364.12 75.1062 363.564 76.4366C363.008 77.767 362.8 79.2171 362.959 80.6501C362.968 80.7292 362.962 80.8094 362.94 80.8859C362.918 80.9624 362.881 81.0338 362.831 81.0959C362.781 81.1581 362.719 81.2097 362.649 81.2478C362.579 81.2859 362.503 81.3098 362.423 81.318L362.381 81.3421Z" fill="#2B3A4F"/>
<path d="M365.21 106.763C363.251 106.758 361.34 106.16 359.728 105.047C358.117 103.934 356.881 102.359 356.182 100.53C356.138 100.384 356.15 100.228 356.217 100.091C356.283 99.9547 356.399 99.8484 356.541 99.7936C356.682 99.7387 356.84 99.7395 356.981 99.7957C357.122 99.8519 357.236 99.9593 357.302 100.096C358.053 102.039 359.492 103.639 361.345 104.591C363.198 105.543 365.336 105.782 367.354 105.263C369.371 104.743 371.128 103.501 372.29 101.773C373.453 100.044 373.94 97.9487 373.659 95.8847C373.637 95.7251 373.679 95.5632 373.776 95.4345C373.873 95.3059 374.017 95.2211 374.177 95.1987C374.336 95.1764 374.498 95.2184 374.627 95.3154C374.756 95.4124 374.84 95.5566 374.863 95.7162C375.059 97.0938 374.956 98.4974 374.562 99.8319C374.167 101.166 373.491 102.4 372.577 103.45C371.664 104.5 370.536 105.342 369.269 105.917C368.002 106.493 366.625 106.79 365.234 106.787L365.21 106.763Z" fill="#2B3A4F"/>
<path d="M359.697 111.673C359.627 111.673 359.558 111.661 359.493 111.637C359.343 111.583 359.22 111.471 359.153 111.327C359.085 111.182 359.077 111.017 359.131 110.867L375.983 63.8992C376.037 63.7493 376.148 63.627 376.293 63.5593C376.437 63.4916 376.603 63.484 376.753 63.5382C376.828 63.5645 376.897 63.6053 376.956 63.6583C377.015 63.7113 377.062 63.7754 377.097 63.847C377.131 63.9186 377.15 63.9962 377.154 64.0754C377.158 64.1545 377.147 64.2337 377.12 64.3084L360.269 111.276C360.227 111.393 360.149 111.494 360.046 111.565C359.944 111.637 359.822 111.674 359.697 111.673V111.673Z" fill="#2B3A4F"/>
<path d="M371.445 92.2382C371.358 92.2382 371.272 92.2194 371.193 92.183C371.114 92.1467 371.044 92.0936 370.987 92.0276L364.091 83.9951C364.031 83.9368 363.984 83.8668 363.953 83.7894C363.922 83.7121 363.907 83.6291 363.909 83.5457C363.912 83.4624 363.932 83.3805 363.968 83.3052C364.004 83.23 364.055 83.163 364.118 83.1086C364.182 83.0542 364.255 83.0135 364.335 82.9891C364.415 82.9648 364.499 82.9573 364.582 82.9671C364.665 82.9769 364.745 83.0038 364.816 83.0461C364.888 83.0884 364.951 83.1452 364.999 83.2129L371.908 91.2454C371.96 91.3054 371.999 91.375 372.023 91.4502C372.048 91.5253 372.057 91.6045 372.051 91.6833C372.045 91.7621 372.023 91.8389 371.987 91.9093C371.951 91.9797 371.902 92.0424 371.842 92.0938C371.731 92.1883 371.59 92.2396 371.445 92.2382Z" fill="#2B3A4F"/>
<path d="M442.405 154.23C442.335 154.23 442.266 154.218 442.2 154.194L269.477 92.2987C269.327 92.2459 269.203 92.1356 269.134 91.9919C269.104 91.9185 269.088 91.8398 269.088 91.7602C269.088 91.6807 269.104 91.602 269.134 91.5286L294.146 21.661C294.2 21.511 294.312 21.3887 294.456 21.321C294.601 21.2533 294.766 21.2458 294.916 21.3L467.639 83.1953C467.788 83.2494 467.909 83.3596 467.976 83.5021C468.037 83.6486 468.037 83.8129 467.976 83.9594L442.971 153.833C442.929 153.949 442.852 154.05 442.751 154.121C442.649 154.192 442.529 154.23 442.405 154.23V154.23ZM270.434 91.3722L442.038 152.858L466.713 84.1219L295.079 22.6357L270.434 91.3722Z" fill="#2B3A4F"/>
<path d="M283.62 52.8099C291.83 55.7515 300.872 55.3122 308.758 51.5885C316.644 47.8649 322.727 41.162 325.669 32.9543L294.712 21.8652L283.62 52.8099Z" fill="#DFEDFF"/>
<path d="M280.762 60.77L269.664 91.7147L300.622 102.804C303.562 94.5966 303.122 85.558 299.397 77.6754C295.673 69.7929 288.97 63.712 280.762 60.77V60.77Z" fill="#DFEDFF"/>
<path d="M453.497 122.684C449.433 121.227 445.121 120.585 440.808 120.795C436.496 121.005 432.266 122.062 428.362 123.905C424.458 125.749 420.956 128.344 418.054 131.541C415.153 134.738 412.911 138.475 411.454 142.539L442.406 153.628L453.497 122.684Z" fill="#DFEDFF"/>
<path d="M436.495 72.6655C433.553 80.8734 433.993 89.9136 437.717 97.7975C441.441 105.681 448.146 111.763 456.356 114.705L467.453 83.7606L436.495 72.6655Z" fill="#DFEDFF"/>
<path d="M442.405 154.23C442.335 154.23 442.266 154.218 442.2 154.194L269.477 92.2987C269.327 92.2459 269.203 92.1356 269.134 91.9919C269.104 91.9185 269.088 91.8398 269.088 91.7602C269.088 91.6807 269.104 91.602 269.134 91.5286L294.146 21.661C294.2 21.511 294.312 21.3887 294.456 21.321C294.601 21.2533 294.766 21.2458 294.916 21.3L467.639 83.1953C467.788 83.2494 467.909 83.3596 467.976 83.5021C468.037 83.6486 468.037 83.8129 467.976 83.9594L442.971 153.833C442.929 153.949 442.852 154.05 442.751 154.121C442.649 154.192 442.529 154.23 442.405 154.23V154.23ZM270.434 91.3722L442.038 152.858L466.713 84.1219L295.079 22.6357L270.434 91.3722Z" fill="#2B3A4F"/>
<path d="M278.83 88.6462C278.76 88.6462 278.691 88.634 278.625 88.6101C278.475 88.5558 278.353 88.4442 278.285 88.2998C278.218 88.1554 278.21 87.99 278.264 87.84L298.877 30.331C298.904 30.2559 298.945 30.187 298.999 30.1281C299.053 30.0692 299.117 30.0216 299.19 29.988C299.336 29.9278 299.501 29.9278 299.647 29.988L343.448 45.6799C343.524 45.7052 343.595 45.7454 343.655 45.7984C343.716 45.8513 343.765 45.9159 343.8 45.9883C343.836 46.0606 343.856 46.1393 343.86 46.2196C343.864 46.2999 343.852 46.3803 343.825 46.456C343.798 46.5316 343.755 46.601 343.701 46.66C343.646 46.7191 343.58 46.7666 343.507 46.7997C343.433 46.8328 343.354 46.8509 343.274 46.8528C343.193 46.8548 343.113 46.8406 343.038 46.8111L299.828 31.2876L279.414 88.2251C279.375 88.3488 279.297 88.4566 279.192 88.5325C279.087 88.6084 278.96 88.6483 278.83 88.6462V88.6462Z" fill="#2B3A4F"/>
<path d="M437.338 145.439C437.271 145.438 437.204 145.428 437.14 145.409L389.752 128.424C389.673 128.401 389.599 128.363 389.536 128.31C389.472 128.258 389.42 128.194 389.382 128.12C389.344 128.047 389.322 127.967 389.317 127.885C389.311 127.803 389.323 127.721 389.35 127.643C389.378 127.566 389.421 127.495 389.477 127.434C389.534 127.374 389.601 127.326 389.677 127.293C389.752 127.261 389.834 127.244 389.916 127.243C389.998 127.243 390.08 127.26 390.156 127.293L436.977 144.068L457.391 87.1301C457.414 87.051 457.452 86.9773 457.504 86.9136C457.557 86.85 457.621 86.7977 457.694 86.7601C457.768 86.7224 457.848 86.7002 457.93 86.6947C458.012 86.6892 458.094 86.7006 458.172 86.7283C458.249 86.7559 458.32 86.7991 458.381 86.8553C458.441 86.9115 458.489 86.9794 458.522 87.0548C458.554 87.1303 458.572 87.2116 458.572 87.2939C458.572 87.3762 458.555 87.4577 458.523 87.5332L437.91 145.042C437.866 145.165 437.784 145.269 437.675 145.341C437.567 145.412 437.438 145.447 437.308 145.439H437.338Z" fill="#2B3A4F"/>
<path d="M346.361 108.803C346.242 108.802 346.126 108.767 346.028 108.7C345.929 108.634 345.852 108.54 345.807 108.43C342.515 100.301 342.702 89.8559 346.313 79.7777C350.146 69.0797 357.362 60.4095 365.607 56.5587C365.679 56.519 365.759 56.4946 365.841 56.487C365.923 56.4793 366.006 56.4887 366.084 56.5144C366.163 56.5401 366.235 56.5816 366.297 56.6364C366.358 56.6911 366.408 56.758 366.443 56.8328C366.477 56.9076 366.496 56.9887 366.498 57.0711C366.501 57.1535 366.486 57.2355 366.455 57.3119C366.424 57.3883 366.377 57.4575 366.319 57.5153C366.26 57.5731 366.19 57.6181 366.113 57.6477C358.151 61.3481 351.175 69.7656 347.456 80.1628C343.942 89.9702 343.749 100.103 346.933 107.961C346.992 108.108 346.991 108.273 346.929 108.42C346.867 108.567 346.749 108.683 346.602 108.743C346.526 108.779 346.444 108.8 346.361 108.803V108.803Z" fill="#2B3A4F"/>
<path d="M372.708 118.243C372.574 118.244 372.444 118.2 372.337 118.118C372.231 118.036 372.155 117.92 372.122 117.79C372.089 117.66 372.1 117.523 372.154 117.4C372.208 117.277 372.301 117.176 372.419 117.112C379.87 113.063 386.159 105.121 389.674 95.3131C393.399 84.916 393.357 73.9834 389.559 66.0652C389.519 65.9934 389.493 65.9139 389.484 65.8317C389.475 65.7496 389.484 65.6665 389.508 65.5876C389.533 65.5088 389.574 65.4359 389.628 65.3734C389.682 65.311 389.748 65.2604 389.823 65.2248C389.898 65.1892 389.979 65.1693 390.061 65.1664C390.144 65.1635 390.226 65.1776 390.303 65.2079C390.38 65.2382 390.45 65.284 390.508 65.3425C390.567 65.401 390.612 65.4708 390.643 65.5477C394.579 73.7427 394.639 85.0243 390.805 95.7162C387.194 105.8 380.701 113.983 372.991 118.171C372.904 118.218 372.807 118.243 372.708 118.243V118.243Z" fill="#2B3A4F"/>
<path d="M442.983 442.305H145.568L202.711 243.43H500.12L442.983 442.305Z" fill="white"/>
<path d="M442.983 442.906H145.569C145.477 442.905 145.386 442.883 145.303 442.841C145.221 442.8 145.149 442.74 145.093 442.666C145.036 442.591 144.997 442.505 144.98 442.413C144.962 442.321 144.966 442.226 144.991 442.136L202.164 243.261C202.202 243.132 202.281 243.02 202.391 242.941C202.5 242.863 202.632 242.823 202.766 242.828H500.121C500.214 242.828 500.306 242.85 500.39 242.892C500.473 242.933 500.546 242.994 500.602 243.069C500.657 243.143 500.694 243.229 500.711 243.319C500.728 243.41 500.723 243.503 500.698 243.592L443.561 442.467C443.526 442.593 443.45 442.704 443.346 442.784C443.242 442.863 443.114 442.906 442.983 442.906ZM146.369 441.703H442.526L499.32 244.031H203.163L146.369 441.703Z" fill="#2B3A4F"/>
<path d="M433.456 441.775H154.626L202.712 274.429H481.542L433.456 441.775Z" fill="#DFEDFF"/>
<path d="M8.48535 442.305H433.546C432.76 450.011 429.141 457.152 423.391 462.345C417.641 467.538 410.169 470.414 402.42 470.415H39.6056C31.858 470.412 24.3871 467.536 18.6384 462.343C12.8897 457.15 9.27202 450.01 8.48535 442.305V442.305Z" fill="white"/>
<path d="M402.42 471.017H39.6055C31.7017 471.037 24.0736 468.114 18.2088 462.817C12.3439 457.519 8.66288 450.228 7.88345 442.365C7.87564 442.281 7.88553 442.196 7.91249 442.116C7.93944 442.036 7.98286 441.963 8.03992 441.901C8.09619 441.839 8.16488 441.789 8.24158 441.755C8.31828 441.721 8.40129 441.703 8.48527 441.703H433.546C433.63 441.703 433.713 441.721 433.79 441.755C433.867 441.789 433.935 441.839 433.992 441.901C434.048 441.964 434.09 442.037 434.116 442.117C434.142 442.197 434.151 442.281 434.142 442.365C433.363 450.228 429.682 457.519 423.817 462.817C417.952 468.114 410.324 471.037 402.42 471.017V471.017ZM9.14728 442.906C10.0463 450.34 13.6427 457.186 19.2545 462.146C24.8664 467.105 32.1034 469.834 39.5935 469.813H402.42C409.91 469.832 417.148 467.104 422.76 462.145C428.373 457.185 431.971 450.34 432.872 442.906H9.14728Z" fill="#2B3A4F"/>
<path d="M338.73 260.652C339.268 257.336 337.016 254.212 333.699 253.673C330.382 253.135 327.256 255.387 326.718 258.703C326.18 262.019 328.432 265.144 331.749 265.682C335.066 266.22 338.191 263.969 338.73 260.652Z" fill="white"/>
<path d="M332.711 266.348C331.388 266.349 330.095 265.958 328.995 265.224C327.894 264.49 327.036 263.447 326.529 262.226C326.022 261.004 325.889 259.66 326.146 258.363C326.404 257.066 327.04 255.874 327.975 254.939C328.91 254.003 330.101 253.366 331.398 253.107C332.695 252.849 334.04 252.981 335.262 253.487C336.484 253.993 337.529 254.849 338.264 255.949C338.999 257.048 339.391 258.341 339.391 259.663C339.389 261.435 338.685 263.133 337.433 264.386C336.181 265.639 334.483 266.345 332.711 266.348V266.348ZM332.711 254.182C331.626 254.181 330.566 254.501 329.663 255.103C328.761 255.704 328.057 256.56 327.641 257.561C327.225 258.563 327.116 259.665 327.327 260.729C327.538 261.793 328.059 262.77 328.826 263.537C329.592 264.304 330.569 264.827 331.633 265.039C332.697 265.251 333.799 265.143 334.802 264.728C335.804 264.313 336.66 263.611 337.263 262.709C337.866 261.808 338.187 260.748 338.187 259.663C338.186 258.211 337.609 256.819 336.582 255.791C335.555 254.764 334.163 254.185 332.711 254.182V254.182Z" fill="#2B3A4F"/>
<path d="M390.456 442.305H365.751L367.286 436.564H388.921L390.456 442.305Z" fill="white"/>
<path d="M390.456 442.906H365.752C365.657 442.909 365.564 442.891 365.478 442.851C365.393 442.812 365.318 442.753 365.259 442.679C365.201 442.605 365.16 442.519 365.141 442.427C365.122 442.334 365.125 442.239 365.15 442.148L366.678 436.408C366.714 436.277 366.792 436.161 366.902 436.08C367.011 436 367.144 435.958 367.28 435.963H388.898C389.033 435.958 389.167 436 389.276 436.08C389.385 436.161 389.464 436.277 389.499 436.408L391.034 442.148C391.059 442.239 391.061 442.334 391.042 442.427C391.023 442.519 390.983 442.605 390.924 442.679C390.866 442.753 390.791 442.812 390.705 442.851C390.62 442.891 390.526 442.909 390.432 442.906H390.456ZM366.54 441.703H389.674L388.47 437.166H367.75L366.54 441.703Z" fill="#2B3A4F"/>
<path d="M364.74 442.305H340.041L341.57 436.564H363.211L364.74 442.305Z" fill="white"/>
<path d="M364.74 442.906H340.065C339.973 442.906 339.883 442.885 339.8 442.844C339.718 442.803 339.646 442.744 339.59 442.672C339.533 442.599 339.493 442.513 339.474 442.422C339.456 442.332 339.458 442.238 339.482 442.148L341.016 436.408C341.051 436.277 341.13 436.161 341.239 436.08C341.349 436 341.482 435.958 341.618 435.963H363.284C363.42 435.958 363.553 436 363.662 436.08C363.772 436.161 363.85 436.277 363.885 436.408L365.42 442.148C365.444 442.237 365.448 442.331 365.43 442.422C365.412 442.513 365.374 442.598 365.318 442.672C365.252 442.76 365.164 442.828 365.062 442.869C364.96 442.911 364.849 442.924 364.74 442.906V442.906ZM340.824 441.703H363.958L362.754 437.166H342.033L340.824 441.703Z" fill="#2B3A4F"/>
<path d="M339.03 442.305H314.325L315.86 436.564H337.495L339.03 442.305Z" fill="white"/>
<path d="M339.031 442.906H314.356C314.262 442.909 314.168 442.891 314.083 442.851C313.997 442.812 313.922 442.753 313.864 442.679C313.805 442.605 313.765 442.519 313.746 442.427C313.727 442.334 313.73 442.239 313.754 442.148L315.283 436.408C315.318 436.277 315.397 436.161 315.506 436.08C315.615 436 315.749 435.958 315.885 435.963H337.55C337.686 435.958 337.82 436 337.929 436.08C338.038 436.161 338.117 436.277 338.152 436.408L339.687 442.148C339.711 442.239 339.714 442.334 339.695 442.427C339.676 442.519 339.636 442.605 339.577 442.679C339.519 442.753 339.444 442.812 339.358 442.851C339.273 442.891 339.179 442.909 339.085 442.906H339.031ZM315.108 441.703H338.248L337.045 437.166H316.324L315.108 441.703Z" fill="#2B3A4F"/>
<path d="M313.314 442.305H288.615L290.144 436.564H311.785L313.314 442.305Z" fill="white"/>
<path d="M313.315 442.906H288.64C288.546 442.909 288.453 442.891 288.367 442.851C288.282 442.812 288.207 442.753 288.148 442.679C288.089 442.605 288.049 442.519 288.03 442.427C288.011 442.334 288.014 442.239 288.038 442.148L289.573 436.408C289.608 436.277 289.687 436.161 289.796 436.08C289.906 436 290.039 435.958 290.175 435.963H311.84C311.976 435.958 312.11 436 312.219 436.08C312.328 436.161 312.407 436.277 312.442 436.408L313.977 442.148C314.001 442.237 314.005 442.331 313.987 442.422C313.969 442.513 313.931 442.598 313.875 442.672C313.81 442.757 313.725 442.823 313.626 442.865C313.528 442.906 313.421 442.92 313.315 442.906ZM289.398 441.703H312.533L311.329 437.166H290.608L289.398 441.703Z" fill="#2B3A4F"/>
<path d="M287.604 442.305H262.899L264.434 436.564H286.07L287.604 442.305Z" fill="white"/>
<path d="M287.605 442.906H262.9C262.806 442.909 262.712 442.891 262.627 442.851C262.541 442.812 262.466 442.753 262.408 442.679C262.349 442.605 262.309 442.519 262.29 442.427C262.271 442.334 262.274 442.239 262.298 442.148L263.827 436.408C263.862 436.277 263.941 436.161 264.05 436.08C264.159 436 264.293 435.958 264.429 435.963H286.064C286.2 435.958 286.333 436 286.443 436.08C286.552 436.161 286.631 436.277 286.666 436.408L288.201 442.148C288.225 442.239 288.228 442.334 288.209 442.427C288.19 442.519 288.149 442.605 288.091 442.679C288.032 442.753 287.957 442.812 287.872 442.851C287.786 442.891 287.693 442.909 287.599 442.906H287.605ZM263.682 441.703H286.822L285.619 437.166H264.922L263.682 441.703Z" fill="#2B3A4F"/>
<path d="M261.889 442.305H237.19L238.719 436.564H260.361L261.889 442.305Z" fill="white"/>
<path d="M261.913 442.906H237.238C237.144 442.909 237.05 442.891 236.965 442.851C236.879 442.812 236.804 442.753 236.746 442.679C236.687 442.605 236.647 442.519 236.628 442.427C236.609 442.334 236.611 442.239 236.636 442.148L238.171 436.408C238.206 436.277 238.285 436.161 238.394 436.08C238.503 436 238.637 435.958 238.772 435.963H260.438C260.574 435.958 260.707 436 260.817 436.08C260.926 436.161 261.005 436.277 261.04 436.408L262.575 442.148C262.599 442.237 262.602 442.331 262.585 442.422C262.567 442.513 262.528 442.598 262.472 442.672C262.408 442.757 262.323 442.823 262.224 442.865C262.126 442.906 262.018 442.92 261.913 442.906ZM237.996 441.703H261.13L259.927 437.166H239.182L237.996 441.703Z" fill="#2B3A4F"/>
<path d="M236.179 442.305H211.475L213.009 436.564H234.645L236.179 442.305Z" fill="white"/>
<path d="M236.179 442.906H211.474C211.38 442.909 211.287 442.891 211.201 442.851C211.116 442.812 211.041 442.753 210.982 442.679C210.923 442.605 210.883 442.519 210.864 442.427C210.845 442.334 210.848 442.239 210.872 442.148L212.401 436.408C212.436 436.277 212.515 436.161 212.624 436.08C212.733 436 212.867 435.958 213.003 435.963H234.638C234.774 435.958 234.908 436 235.017 436.08C235.126 436.161 235.205 436.277 235.24 436.408L236.769 442.148C236.793 442.239 236.796 442.334 236.777 442.427C236.758 442.519 236.718 442.605 236.659 442.679C236.601 442.753 236.526 442.812 236.44 442.851C236.355 442.891 236.261 442.909 236.167 442.906H236.179ZM212.257 441.703H235.397L234.193 437.166H213.472L212.257 441.703Z" fill="#2B3A4F"/>
<path d="M210.463 442.305H185.765L187.293 436.564H208.935L210.463 442.305Z" fill="white"/>
<path d="M210.463 442.906H185.789C185.696 442.907 185.604 442.886 185.52 442.845C185.437 442.805 185.364 442.745 185.307 442.672C185.251 442.598 185.213 442.513 185.195 442.422C185.177 442.331 185.18 442.237 185.205 442.148L186.739 436.408C186.775 436.277 186.853 436.161 186.963 436.08C187.072 436 187.205 435.958 187.341 435.963H209.007C209.143 435.958 209.276 436 209.385 436.08C209.495 436.161 209.573 436.277 209.609 436.408L211.143 442.148C211.168 442.237 211.171 442.331 211.153 442.422C211.136 442.513 211.097 442.598 211.041 442.672C210.975 442.76 210.887 442.828 210.785 442.869C210.683 442.911 210.572 442.924 210.463 442.906V442.906ZM186.547 441.703H209.681L208.477 437.166H187.757L186.547 441.703Z" fill="#2B3A4F"/>
<path d="M184.754 442.305H160.049L161.583 436.564H183.219L184.754 442.305Z" fill="white"/>
<path d="M184.753 442.906H160.048C159.954 442.909 159.861 442.891 159.775 442.851C159.69 442.812 159.615 442.753 159.556 442.679C159.498 442.605 159.457 442.519 159.438 442.427C159.419 442.334 159.422 442.239 159.447 442.148L160.975 436.408C161.01 436.277 161.089 436.161 161.198 436.08C161.308 436 161.441 435.958 161.577 435.963H183.213C183.348 435.958 183.482 436 183.591 436.08C183.7 436.161 183.779 436.277 183.814 436.408L185.343 442.148C185.368 442.239 185.37 442.334 185.351 442.427C185.332 442.519 185.292 442.605 185.233 442.679C185.175 442.753 185.1 442.812 185.014 442.851C184.929 442.891 184.835 442.909 184.741 442.906H184.753ZM160.831 441.703H183.971L182.767 437.166H162.046L160.831 441.703Z" fill="#2B3A4F"/>
<path d="M159.038 442.305H134.339L135.867 436.564H157.509L159.038 442.305Z" fill="white"/>
<path d="M159.037 442.906H134.327C134.234 442.907 134.142 442.886 134.058 442.845C133.975 442.805 133.902 442.745 133.845 442.672C133.789 442.598 133.751 442.513 133.733 442.422C133.715 442.331 133.719 442.237 133.743 442.148L135.278 436.408C135.313 436.277 135.391 436.161 135.501 436.08C135.61 436 135.743 435.958 135.879 435.963H157.545C157.681 435.958 157.814 436 157.924 436.08C158.033 436.161 158.111 436.277 158.147 436.408L159.681 442.148C159.706 442.237 159.709 442.331 159.691 442.422C159.674 442.513 159.635 442.598 159.579 442.672C159.517 442.754 159.434 442.819 159.339 442.86C159.244 442.901 159.14 442.917 159.037 442.906V442.906ZM135.121 441.703H158.255L157.051 437.166H136.331L135.121 441.703Z" fill="#2B3A4F"/>
<path d="M133.328 442.305H108.623L110.158 436.564H131.793L133.328 442.305Z" fill="white"/>
<path d="M133.327 442.906H108.623C108.529 442.909 108.435 442.891 108.349 442.851C108.264 442.812 108.189 442.753 108.13 442.679C108.072 442.605 108.031 442.519 108.012 442.427C107.993 442.334 107.996 442.239 108.021 442.148L109.549 436.408C109.585 436.277 109.663 436.161 109.773 436.08C109.882 436 110.015 435.958 110.151 435.963H131.787C131.923 435.958 132.056 436 132.165 436.08C132.275 436.161 132.353 436.277 132.389 436.408L133.917 442.148C133.942 442.239 133.945 442.334 133.926 442.427C133.907 442.519 133.866 442.605 133.808 442.679C133.749 442.753 133.674 442.812 133.589 442.851C133.503 442.891 133.409 442.909 133.315 442.906H133.327ZM109.405 441.703H132.521L131.317 437.166H110.621L109.405 441.703Z" fill="#2B3A4F"/>
<path d="M107.612 442.305H82.9131L84.4417 436.564H106.083L107.612 442.305Z" fill="white"/>
<path d="M107.612 442.906H82.937C82.8441 442.907 82.7522 442.886 82.6687 442.845C82.5852 442.805 82.5122 442.745 82.4555 442.672C82.3994 442.598 82.3609 442.513 82.3432 442.422C82.3255 442.331 82.3289 442.237 82.3532 442.148L83.8879 436.408C83.9231 436.277 84.0018 436.161 84.1111 436.08C84.2204 436 84.3538 435.958 84.4897 435.963H106.155C106.291 435.958 106.425 436 106.534 436.08C106.643 436.161 106.722 436.277 106.757 436.408L108.292 442.148C108.316 442.237 108.32 442.331 108.302 442.422C108.284 442.513 108.246 442.598 108.189 442.672C108.124 442.76 108.035 442.828 107.933 442.869C107.832 442.911 107.72 442.924 107.612 442.906V442.906ZM83.6953 441.703H106.829L105.626 437.166H84.905L83.6953 441.703Z" fill="#2B3A4F"/>
<path d="M204.902 198.466L48.3498 291.775L1.87109 171.336L148.698 93.0747L204.902 198.466Z" fill="#304056"/>
<path d="M41.646 149.489C41.5361 149.489 41.4281 149.46 41.3336 149.404C41.2392 149.348 41.162 149.267 41.1103 149.17L32.0168 132.142C31.4328 131.033 31.3126 129.737 31.6826 128.539C32.0526 127.341 32.8827 126.339 33.9908 125.752L92.199 94.7111C93.306 94.1218 94.6018 93.9962 95.8014 94.3617C97.0011 94.7273 98.0064 95.5542 98.5964 96.6606L107.69 113.718C107.764 113.859 107.779 114.024 107.732 114.176C107.686 114.327 107.583 114.455 107.443 114.531L41.9348 149.428C41.845 149.472 41.7458 149.493 41.646 149.489V149.489ZM94.4198 95.3369C93.8441 95.3357 93.2773 95.4785 92.7708 95.7521L34.5565 126.799C33.731 127.241 33.1141 127.991 32.8412 128.887C32.5682 129.782 32.6613 130.749 33.1001 131.576L41.8987 148.069L106.348 113.718L97.5492 97.2262C97.2476 96.6601 96.7975 96.1869 96.2472 95.8572C95.697 95.5276 95.0673 95.3539 94.4258 95.3549L94.4198 95.3369Z" fill="#2B3A4F"/>
<path d="M46.7014 147.166C46.6413 147.172 46.5809 147.172 46.5208 147.166C46.3698 147.116 46.2432 147.01 46.1658 146.871L37.2588 130.163C37.1841 130.022 37.1682 129.858 37.2144 129.705C37.2607 129.553 37.3653 129.426 37.5055 129.35L94.2393 99.1096C94.3095 99.0719 94.3866 99.0486 94.4659 99.0409C94.5452 99.0332 94.6253 99.0414 94.7014 99.0649C94.7775 99.0884 94.8482 99.1268 94.9094 99.1778C94.9706 99.2289 95.021 99.2916 95.0578 99.3623L103.965 116.065C104.039 116.206 104.054 116.37 104.007 116.522C103.961 116.674 103.857 116.802 103.718 116.877L46.9842 147.094C46.8973 147.141 46.8002 147.166 46.7014 147.166ZM38.637 130.108L46.9782 145.752L102.647 116.077L94.3055 100.433L38.637 130.108Z" fill="#2B3A4F"/>
<path d="M148.696 93.0853L1.8623 171.337L58.0566 276.733L204.89 198.481L148.696 93.0853Z" fill="white"/>
<path d="M58.0693 277.329C58.0099 277.328 57.9509 277.318 57.8947 277.299C57.7429 277.253 57.6154 277.149 57.5397 277.01L1.32344 171.619C1.28577 171.548 1.26242 171.471 1.25475 171.392C1.24708 171.313 1.25523 171.233 1.27875 171.157C1.30226 171.081 1.34067 171.01 1.39173 170.949C1.44279 170.888 1.5055 170.837 1.5762 170.8L148.421 92.5392C148.491 92.5016 148.568 92.4782 148.647 92.4706C148.727 92.4629 148.807 92.471 148.883 92.4946C148.959 92.5181 149.03 92.5565 149.091 92.6075C149.152 92.6586 149.203 92.7213 149.239 92.7919L205.437 198.177C205.475 198.247 205.499 198.324 205.507 198.403C205.515 198.482 205.508 198.561 205.485 198.638C205.462 198.714 205.424 198.784 205.374 198.846C205.323 198.907 205.261 198.958 205.191 198.995L58.3521 277.256C58.2652 277.303 58.168 277.328 58.0693 277.329ZM2.70161 171.583L58.316 275.909L204.083 198.213L148.451 93.8629L2.70161 171.583Z" fill="#2B3A4F"/>
<path d="M167.578 157.1L44.523 222.69L1.32422 170.313L148.157 92.0518L167.578 157.1Z" fill="white"/>
<path d="M44.5226 223.291C44.4332 223.293 44.3446 223.274 44.2634 223.236C44.1822 223.199 44.1104 223.144 44.0532 223.075L0.860393 170.692C0.803662 170.624 0.762897 170.543 0.741041 170.457C0.719185 170.37 0.716784 170.28 0.73401 170.193C0.751151 170.105 0.787587 170.022 0.840675 169.951C0.893762 169.879 0.962171 169.82 1.04094 169.778L147.886 91.5165C147.966 91.479 148.053 91.4595 148.141 91.4595C148.23 91.4595 148.317 91.479 148.397 91.5165C148.48 91.5505 148.555 91.6028 148.615 91.6694C148.676 91.7361 148.721 91.8154 148.746 91.9016L168.167 156.95C168.207 157.083 168.199 157.226 168.145 157.354C168.092 157.483 167.995 157.589 167.872 157.654L44.8055 223.225C44.718 223.27 44.6209 223.293 44.5226 223.291ZM2.25662 170.494L44.655 221.932L166.825 156.799L147.789 92.9245L2.25662 170.494Z" fill="#2B3A4F"/>
<path d="M68.9091 195.717L57.2891 201.91L68.8988 223.685L80.5188 217.492L68.9091 195.717Z" fill="white"/>
<path d="M68.9024 224.278C68.8446 224.287 68.7857 224.287 68.7279 224.278C68.6522 224.255 68.5819 224.217 68.521 224.166C68.46 224.116 68.4097 224.053 68.3728 223.983L56.7637 202.166C56.689 202.026 56.6731 201.861 56.7193 201.709C56.7656 201.557 56.8702 201.429 57.0104 201.354L68.6256 195.163C68.7657 195.087 68.9301 195.069 69.083 195.114C69.1586 195.138 69.229 195.176 69.2899 195.227C69.3508 195.277 69.4012 195.339 69.438 195.409L81.0532 217.208C81.1274 217.35 81.1424 217.514 81.095 217.667C81.0476 217.819 80.9417 217.946 80.8004 218.021L69.1853 224.212C69.0978 224.257 69.0007 224.28 68.9024 224.278V224.278ZM58.1057 202.166L69.1492 222.864L79.7051 217.238L68.6617 196.522L58.1057 202.166Z" fill="#2B3A4F"/>
<path d="M140.226 157.712L128.605 163.904L140.215 185.679L151.835 179.486L140.226 157.712Z" fill="white"/>
<path d="M140.218 186.264C140.11 186.263 140.003 186.233 139.91 186.177C139.816 186.121 139.74 186.041 139.689 185.945L128.08 164.17C128.004 164.03 127.986 163.865 128.031 163.712C128.082 163.561 128.187 163.435 128.326 163.357L139.942 157.166C140.011 157.128 140.088 157.104 140.167 157.096C140.246 157.088 140.326 157.096 140.402 157.119C140.478 157.142 140.549 157.18 140.611 157.23C140.672 157.28 140.723 157.343 140.76 157.413L152.381 179.188C152.455 179.329 152.47 179.493 152.423 179.645C152.378 179.797 152.274 179.924 152.134 180L140.513 186.197C140.422 186.244 140.321 186.267 140.218 186.264ZM129.422 164.14L140.471 184.85L151.021 179.224L139.978 158.514L129.422 164.14Z" fill="#2B3A4F"/>
<path d="M85.7503 95.8795L39.2754 120.647L44.5947 130.624L91.0697 105.856L85.7503 95.8795Z" fill="white"/>
<path d="M44.6005 131.221C44.4906 131.222 44.3826 131.193 44.2881 131.137C44.1937 131.08 44.1165 130.999 44.0648 130.902L38.7447 120.939C38.6708 120.798 38.6556 120.633 38.7026 120.481C38.7484 120.33 38.8522 120.202 38.9915 120.126L85.4702 95.355C85.6108 95.2803 85.7751 95.2644 85.9274 95.3106C86.0796 95.3569 86.2074 95.4615 86.2827 95.6016L91.5968 105.566C91.6727 105.706 91.6901 105.87 91.6449 106.023C91.6215 106.098 91.5835 106.169 91.5329 106.23C91.4823 106.291 91.4201 106.341 91.35 106.378L44.8833 131.167C44.7948 131.208 44.6977 131.226 44.6005 131.221ZM40.0928 120.89L44.8472 129.807L90.2607 105.602L85.5063 96.6847L40.0928 120.89Z" fill="#2B3A4F"/>
<path d="M292.199 407.154L260.814 404.072L255.574 457.408L286.959 460.49L292.199 407.154Z" fill="#FFDEA4"/>
<path d="M288.994 440.073L292.226 407.136L260.841 404.056L258.795 424.928L288.994 440.073Z" fill="#304056"/>
<path d="M247.145 480.325L332.808 488.749L333.879 480.692C334.111 478.347 333.487 475.997 332.122 474.075C330.757 472.153 328.744 470.789 326.453 470.235L313.213 467.028C311.111 466.513 309.172 465.479 307.574 464.019L300.785 458.917C298.161 456.944 295.985 454.437 294.4 451.562C292.815 448.688 291.857 445.51 291.589 442.238L291.433 440.307L254.932 436.727L247.145 480.325Z" fill="#FFC14F"/>
<path d="M326.452 470.217L313.471 467.07L311.545 486.643L332.807 488.73L333.879 480.674C334.11 478.328 333.486 475.978 332.121 474.057C330.757 472.135 328.743 470.771 326.452 470.217Z" fill="#4891FF"/>
<path d="M243.533 477.689L242.228 490.644L267.793 493.153L268.244 488.562L287.238 490.427L286.786 495.018L337.592 500L338.862 487.046L243.533 477.689Z" fill="#2D3E54"/>
<path d="M333.331 487.1H333.234C333.156 487.087 333.081 487.06 333.013 487.018C332.946 486.976 332.887 486.922 332.841 486.858C332.794 486.793 332.761 486.721 332.743 486.643C332.725 486.566 332.722 486.486 332.735 486.408L333.475 481.685C333.846 479.388 333.34 477.036 332.058 475.095C330.776 473.154 328.812 471.765 326.554 471.203L310.66 467.172C310.609 467.157 310.555 467.158 310.505 467.174C310.454 467.19 310.41 467.221 310.377 467.262L300.82 479.085C300.772 479.15 300.711 479.204 300.641 479.244C300.572 479.285 300.494 479.311 300.414 479.321C300.334 479.331 300.253 479.325 300.176 479.303C300.098 479.281 300.026 479.244 299.963 479.194C299.9 479.143 299.848 479.081 299.809 479.01C299.771 478.939 299.748 478.861 299.74 478.781C299.732 478.7 299.741 478.619 299.765 478.543C299.79 478.466 299.829 478.395 299.881 478.333L309.456 466.51C309.634 466.289 309.871 466.124 310.14 466.034C310.409 465.944 310.698 465.934 310.973 466.005L326.855 470.03C329.405 470.665 331.623 472.233 333.072 474.424C334.521 476.616 335.094 479.271 334.679 481.865L333.939 486.594C333.915 486.738 333.841 486.868 333.729 486.961C333.618 487.054 333.476 487.103 333.331 487.1Z" fill="#2D3E54"/>
<path d="M295.482 467.539C295.344 467.54 295.211 467.494 295.103 467.408C294.995 467.322 294.921 467.201 294.891 467.067C294.861 466.932 294.879 466.792 294.94 466.669C295.002 466.546 295.104 466.447 295.229 466.39L304.539 462.118C304.611 462.085 304.689 462.067 304.768 462.064C304.847 462.062 304.926 462.074 305 462.102C305.074 462.13 305.142 462.172 305.2 462.226C305.257 462.279 305.304 462.344 305.337 462.416C305.37 462.488 305.388 462.566 305.391 462.645C305.394 462.724 305.381 462.802 305.353 462.876C305.325 462.95 305.283 463.018 305.23 463.076C305.176 463.134 305.111 463.18 305.039 463.213L295.729 467.509C295.65 467.536 295.565 467.547 295.482 467.539Z" fill="#2D3E54"/>
<path d="M263.893 480.145C263.37 476.108 261.897 472.254 259.595 468.897C257.294 465.539 254.229 462.775 250.653 460.831L247.367 478.135C246.868 478.063 263.893 480.145 263.893 480.145Z" fill="#304056"/>
<path d="M143.095 365.095L132.879 339.52L91.3917 356.085L101.608 381.66L143.095 365.095Z" fill="#FFDEA4"/>
<path d="M108.791 403.779C106.991 402.817 105.584 401.257 104.813 399.368L103.555 391.913C103.43 391.179 103.492 390.425 103.735 389.72C103.978 389.016 104.394 388.384 104.945 387.882L113.515 380.06L101.298 348.604L65.5078 362.816L82.7741 407.34C83.5438 409.321 84.7193 411.119 86.2253 412.618C87.7313 414.118 89.5343 415.286 91.5186 416.047L115.327 427.13L115.754 426.005C120.954 412.413 113.172 406.137 108.791 403.779Z" fill="#FFC14F"/>
<path d="M108.791 403.779L108.646 403.694L91.5186 416.029L115.381 426.931L115.742 425.987C120.954 412.413 113.172 406.137 108.791 403.779Z" fill="#4891FF"/>
<path d="M71.6945 378.773C75.0529 375.764 77.6444 371.997 79.2534 367.786C80.5862 364.328 80.9806 360.579 80.3969 356.919L65.5078 362.816L71.6945 378.773Z" fill="#304056"/>
<path d="M91.2906 408.183C91.131 408.205 90.969 408.163 90.8403 408.066C90.7117 407.969 90.6269 407.825 90.6045 407.666C90.5822 407.506 90.6241 407.344 90.7212 407.215C90.8183 407.087 90.9625 407.002 91.1221 406.98L106.601 402.389C106.677 402.367 106.756 402.36 106.835 402.368C106.913 402.377 106.99 402.401 107.059 402.439C107.128 402.477 107.189 402.528 107.239 402.59C107.288 402.651 107.325 402.722 107.347 402.798C107.369 402.874 107.376 402.953 107.368 403.032C107.359 403.11 107.335 403.186 107.297 403.256C107.259 403.325 107.208 403.386 107.146 403.436C107.085 403.485 107.014 403.522 106.938 403.544L91.4651 408.135C91.4097 408.16 91.3509 408.176 91.2906 408.183V408.183Z" fill="#2D3E54"/>
<path d="M91.1936 399.098C91.034 399.098 90.8809 399.035 90.7681 398.922C90.6552 398.809 90.5918 398.656 90.5918 398.496C90.5918 398.337 90.6552 398.183 90.7681 398.071C90.8809 397.958 91.034 397.894 91.1936 397.894L103.712 397.491C103.871 397.486 104.026 397.544 104.143 397.652C104.26 397.761 104.329 397.912 104.334 398.072C104.34 398.231 104.282 398.387 104.173 398.504C104.064 398.62 103.913 398.689 103.754 398.695L91.2297 399.098H91.1936Z" fill="#2D3E54"/>
<path d="M115.67 427.93L91.278 416.571C89.2288 415.776 87.3677 414.563 85.8134 413.009C84.2592 411.455 83.0458 409.594 82.2507 407.545L64.7979 362.503L101.708 347.828L114.226 380.265L105.355 388.328C104.875 388.76 104.514 389.307 104.303 389.917C104.093 390.528 104.04 391.181 104.151 391.817L105.397 399.2C106.115 400.928 107.404 402.358 109.05 403.249C113.052 405.385 121.772 411.895 116.272 426.204L115.67 427.93ZM66.3205 363.177L83.3761 407.1C84.1143 409.002 85.2427 410.728 86.6886 412.168C88.1346 413.607 89.866 414.728 91.7715 415.457L115.032 426.288L115.231 425.764C120.184 412.84 113.166 406.769 108.544 404.302C106.622 403.275 105.119 401.608 104.295 399.591L104.259 399.459L103.002 392.01C102.858 391.176 102.927 390.319 103.203 389.518C103.478 388.718 103.951 388 104.578 387.431L112.841 379.898L100.997 349.392L66.3205 363.177Z" fill="#2D3E54"/>
<path d="M91.5191 416.029C89.5366 415.27 87.7346 414.105 86.2288 412.608C84.7229 411.112 83.5464 409.318 82.7746 407.341L64.064 359.14L53.833 363.219L62.746 385.439L67.3439 383.598L75.1014 403.574L70.7201 405.325L74.0903 413.749C75.2185 416.557 76.9148 419.103 79.0731 421.225C81.2313 423.348 83.8048 425.002 86.6323 426.083L116.808 437.635L120.78 427.274L91.5191 416.029Z" fill="#304056"/>
<path d="M112.444 377.323L143.095 365.084L132.876 339.507L115.688 346.372L112.444 377.323Z" fill="#304056"/>
<path d="M279.642 214.02L237.581 224.699L267.72 318.201L257.182 424.79L294.207 428.448L304.407 325.217C305.044 318.792 304.559 312.306 302.975 306.047L279.642 214.02Z" fill="#4891FF"/>
<path d="M267.51 242.569L232.502 216.378L202.056 300.987L113.588 341.829L129.181 375.596L218.251 333.899C227.108 329.753 234.106 322.461 237.882 313.442L267.51 242.569Z" fill="#4891FF"/>
<path d="M129.181 376.197C129.111 376.197 129.042 376.185 128.977 376.161C128.827 376.106 128.706 375.993 128.64 375.848L113.04 342.082C113.007 342.01 112.988 341.932 112.985 341.853C112.982 341.774 112.994 341.695 113.021 341.621C113.049 341.546 113.091 341.478 113.145 341.42C113.198 341.362 113.263 341.315 113.335 341.282L201.574 300.548L231.936 216.173C231.968 216.085 232.021 216.005 232.089 215.941C232.157 215.876 232.24 215.828 232.33 215.802C232.42 215.775 232.515 215.769 232.608 215.786C232.7 215.802 232.788 215.84 232.863 215.897L267.871 242.088C267.979 242.169 268.056 242.283 268.091 242.413C268.126 242.542 268.116 242.68 268.064 242.804L238.442 313.658C234.619 322.824 227.514 330.234 218.516 334.44L129.446 376.143C129.363 376.18 129.272 376.198 129.181 376.197V376.197ZM114.388 342.124L129.476 374.795L218.01 333.333C226.739 329.255 233.632 322.068 237.341 313.177L266.77 242.78L232.797 217.353L202.622 301.191C202.595 301.266 202.553 301.335 202.5 301.394C202.446 301.453 202.381 301.501 202.309 301.534L114.388 342.124Z" fill="#2B3A4F"/>
<path d="M279.642 214.02L252.801 220.819L251.513 226.721L251.044 226.667L250.568 226.607C249.647 226.5 248.721 226.449 247.794 226.456C241.866 226.366 236.6 227.924 231.214 229.513L229.679 229.838L229.733 228.033L228.313 227.991L218.684 254.766H228.945L229.215 245.512L231.292 246.354C234.546 247.905 237.881 249.281 241.282 250.476L242.341 251.757C244.905 254.994 247.378 258.442 250.267 261.342L251.17 262.431C252.235 263.686 253.53 264.725 254.986 265.494L259.319 267.696L259.595 267.834C260.661 268.633 261.856 269.244 263.128 269.639C264.254 269.868 265.62 269.675 266.294 268.538L266.853 267.515C267.046 267.088 267.257 265.62 266.318 264.856C265.216 263.987 263.977 263.306 262.653 262.84L261.606 262.317L259.114 261.077C258.873 260.957 258.651 260.819 258.416 260.68C258.321 260.603 258.231 260.52 258.145 260.433C258.205 260.464 258.265 260.482 258.326 260.506C258.524 260.59 258.729 260.674 258.927 260.746C259.126 260.819 259.234 260.861 259.391 260.909C259.547 260.957 259.86 261.053 260.101 261.113L260.492 261.216C260.853 261.294 261.226 261.366 261.594 261.408L269.417 262.371L270.169 262.467H270.2C270.793 262.533 271.392 262.409 271.91 262.113C272.428 261.817 272.839 261.363 273.082 260.819C273.14 260.683 273.19 260.544 273.233 260.403L273.299 260.163C273.48 259.494 273.407 258.782 273.095 258.163C272.783 257.545 272.253 257.063 271.608 256.811C271.379 256.723 271.141 256.662 270.898 256.631L267.419 256.234L263.935 255.843C262.256 255.643 260.637 255.098 259.18 254.242L257.098 252.979V252.93L259.156 254.134C259.445 254.302 259.758 254.453 260.047 254.597C261.227 255.165 262.491 255.539 263.79 255.704L264.585 255.807L275.766 257.19C275.947 257.208 276.128 257.208 276.308 257.19C276.714 257.163 277.11 257.05 277.47 256.859L291.275 259.868L279.642 214.02Z" fill="#304056"/>
<path d="M277.061 179.031L304.642 117.13L284.18 97.6172L256.803 146.745C255.119 149.768 252.806 152.395 250.021 154.45C247.236 156.505 244.043 157.94 240.657 158.658L225.43 161.889C211.71 164.804 199.158 171.712 189.357 181.745L150.293 221.721L167.704 242.003L212.269 203.766L219.105 236.149L286.106 222.022L277.031 179.013L277.061 179.031Z" fill="#FFC14F"/>
<path d="M167.704 242.605C167.617 242.605 167.531 242.587 167.452 242.55C167.373 242.514 167.303 242.461 167.246 242.395L149.836 222.112C149.734 222.001 149.678 221.856 149.678 221.706C149.678 221.556 149.734 221.411 149.836 221.3L188.888 181.318C198.762 171.191 211.422 164.224 225.262 161.3L233.928 159.465C234.088 159.432 234.254 159.464 234.39 159.554C234.526 159.643 234.621 159.783 234.653 159.943C234.686 160.103 234.654 160.269 234.564 160.405C234.475 160.541 234.335 160.635 234.175 160.668L225.545 162.455C211.935 165.327 199.486 172.177 189.778 182.136L151.111 221.721L167.77 241.131L211.877 203.285C211.999 203.181 212.157 203.129 212.316 203.141C212.476 203.152 212.624 203.227 212.729 203.349C212.834 203.47 212.886 203.628 212.874 203.787C212.862 203.947 212.787 204.095 212.666 204.2L168.095 242.479C167.983 242.566 167.845 242.611 167.704 242.605V242.605Z" fill="#2B3A4F"/>
<path d="M218.834 83.6466L147.934 55.0966L178.235 0.602051L218.834 83.6466Z" fill="#2D3E54"/>
<path d="M178.243 0.611016L153.329 51.771L218.84 83.6589L243.754 32.4989L178.243 0.611016Z" fill="white"/>
<path d="M218.834 84.236C218.742 84.2363 218.652 84.2157 218.569 84.1758L153.055 52.2865C152.913 52.2165 152.804 52.0931 152.752 51.9433C152.7 51.7934 152.709 51.6292 152.778 51.4863L177.693 0.343047C177.727 0.271836 177.774 0.208309 177.833 0.156513C177.892 0.104716 177.962 0.0657871 178.037 0.0422048C178.183 -0.0179745 178.347 -0.0179745 178.494 0.0422048L244.008 31.9315C244.079 31.9662 244.143 32.0145 244.196 32.0738C244.248 32.1332 244.288 32.2023 244.314 32.2772C244.34 32.3521 244.351 32.4313 244.346 32.5103C244.341 32.5894 244.32 32.6667 244.285 32.7378L219.376 83.881C219.329 83.9856 219.253 84.0746 219.157 84.1375C219.061 84.2004 218.949 84.2346 218.834 84.236V84.236ZM154.126 51.4863L218.581 82.8461L242.961 32.7618L178.566 1.40803L154.126 51.4863Z" fill="#2B3A4F"/>
<path d="M243.389 74.7415L238.929 50.1446C238.623 48.4513 237.836 46.8818 236.662 45.623C235.488 44.3643 233.977 43.4693 232.309 43.0447L224.528 41.0411C222.561 40.537 220.508 40.4631 218.51 40.8245L213.881 41.6608C213.411 41.7428 212.962 41.917 212.56 42.1736C212.157 42.4302 211.81 42.7639 211.537 43.1556C211.265 43.5472 211.073 43.989 210.972 44.4554C210.871 44.9217 210.864 45.4034 210.951 45.8726L211.041 46.372C211.214 47.3176 211.754 48.1563 212.543 48.7053C213.332 49.2543 214.307 49.4688 215.254 49.3022L218.263 48.7547C220.221 48.4002 222.233 48.472 224.161 48.9653L228.211 50.0242C229.078 50.2478 229.864 50.7151 230.474 51.3709C231.084 52.0267 231.493 52.8435 231.653 53.7246L235.716 76.1313L243.389 74.7415Z" fill="#FFDEA4"/>
<path d="M241.264 62.9304L236.889 39.1699C236.568 37.492 235.884 35.9045 234.885 34.5189L232.592 31.2878C232.119 30.6313 231.404 30.1891 230.606 30.0583C229.807 29.9275 228.989 30.1186 228.331 30.5899L227.988 30.8366C227.662 31.0697 227.386 31.3648 227.174 31.705C226.963 32.0451 226.821 32.4236 226.756 32.8187C226.691 33.2139 226.705 33.6179 226.796 34.0078C226.888 34.3976 227.056 34.7655 227.29 35.0905L228.812 37.2084C229.785 38.5637 230.452 40.1135 230.768 41.7511L234.512 62.2565L241.264 62.9304Z" fill="#FFDEA4"/>
<path d="M239.2 52.431C239.058 52.4333 238.919 52.385 238.809 52.2946C238.698 52.2043 238.624 52.0778 238.598 51.9376L236.287 39.3022C235.983 37.7148 235.338 36.2122 234.398 34.8979L232.099 31.6969C231.912 31.4355 231.675 31.2135 231.403 31.0436C231.13 30.8736 230.827 30.7591 230.51 30.7066C230.193 30.654 229.869 30.6645 229.556 30.7374C229.243 30.8103 228.947 30.9441 228.686 31.1313L228.337 31.378C228.074 31.5642 227.851 31.8013 227.682 32.0752C227.512 32.3491 227.4 32.6542 227.35 32.9725C227.298 33.2867 227.31 33.608 227.383 33.9178C227.456 34.2277 227.59 34.5199 227.777 34.7775L229.276 36.8714C230.297 38.2977 230.999 39.9271 231.334 41.6488L231.473 42.4009C231.487 42.4799 231.486 42.561 231.469 42.6396C231.453 42.7182 231.421 42.7927 231.375 42.8589C231.283 42.9927 231.142 43.0844 230.982 43.1139C230.823 43.1434 230.658 43.1083 230.524 43.0164C230.39 42.9244 230.299 42.7831 230.269 42.6235L230.131 41.8714C229.826 40.3219 229.194 38.8553 228.277 37.5694L226.772 35.4755C226.21 34.6884 225.983 33.7105 226.141 32.7562C226.299 31.8019 226.829 30.9492 227.615 30.3852L227.958 30.1385C228.745 29.5753 229.724 29.3471 230.68 29.5039C231.635 29.6606 232.489 30.1896 233.055 30.9749L235.354 34.1819C236.403 35.6379 237.122 37.3052 237.461 39.0676L239.772 51.7029C239.8 51.8592 239.765 52.0203 239.675 52.1511C239.585 52.2818 239.446 52.3716 239.29 52.4009L239.2 52.431Z" fill="#2D3E54"/>
<path d="M236.461 69.1036L233.88 54.8677C233.573 53.1744 232.786 51.6049 231.612 50.3462C230.438 49.0874 228.928 48.1924 227.259 47.7678L219.478 45.7642C217.511 45.2602 215.458 45.1863 213.46 45.5476L208.832 46.384C208.362 46.4659 207.912 46.6402 207.51 46.8968C207.108 47.1533 206.76 47.4871 206.488 47.8787C206.215 48.2704 206.023 48.7122 205.922 49.1785C205.821 49.6449 205.814 50.1266 205.901 50.5958L205.991 51.0952C206.164 52.0407 206.704 52.8795 207.493 53.4285C208.283 53.9774 209.257 54.192 210.204 54.0254L213.213 53.4778C215.171 53.1233 217.183 53.1952 219.111 53.6884L223.173 54.7534C224.041 54.9769 224.826 55.4443 225.436 56.1C226.046 56.7558 226.455 57.5726 226.616 58.4538L228.8 70.4875L236.461 69.1036Z" fill="#FFDEA4"/>
<path d="M232.291 74.0075L229.71 59.7656C229.403 58.0723 228.616 56.5028 227.442 55.244C226.268 53.9853 224.758 53.0903 223.09 52.6657L215.308 50.6621C213.34 50.1608 211.288 50.087 209.29 50.4455L204.662 51.2878C204.192 51.3698 203.742 51.5441 203.34 51.8006C202.938 52.0572 202.59 52.3909 202.318 52.7826C202.045 53.1742 201.853 53.616 201.752 54.0824C201.652 54.5488 201.644 55.0305 201.731 55.4996L201.821 55.999C201.903 56.4691 202.077 56.9182 202.334 57.3204C202.591 57.7227 202.925 58.0701 203.316 58.3426C203.708 58.6151 204.15 58.8072 204.616 58.9079C205.083 59.0086 205.565 59.0158 206.034 58.9292L209.043 58.3817C211.001 58.0257 213.014 58.0996 214.941 58.5983L218.979 59.6332C219.847 59.8567 220.632 60.3241 221.242 60.9798C221.852 61.6356 222.261 62.4524 222.422 63.3336L224.606 75.3673L232.291 74.0075Z" fill="#FFDEA4"/>
<path d="M220.387 80.3129L234.867 88.2612L246.416 68.0506L244.111 66.7871C243.407 66.4152 242.798 65.8882 242.329 65.2461C241.86 64.6039 241.543 63.8634 241.402 63.0807L240.078 55.8003L221.639 59.1396L224.1 72.7197L220.387 80.3129Z" fill="#FFDEA4"/>
<path d="M224.113 73.1708C223.97 73.1731 223.832 73.1248 223.721 73.0345C223.611 72.9441 223.537 72.8176 223.511 72.6774L221.844 63.4656C221.703 62.6969 221.345 61.9846 220.811 61.413C220.278 60.8415 219.592 60.4347 218.835 60.2406L214.803 59.2057C212.958 58.7293 211.032 58.6595 209.158 59.0011L206.148 59.5487C205.041 59.7486 203.899 59.5011 202.974 58.8604C202.049 58.2196 201.416 57.238 201.214 56.1311L201.123 55.6317C200.925 54.5253 201.173 53.3854 201.814 52.4617C202.455 51.5381 203.436 50.906 204.542 50.7039L209.17 49.8675C211.262 49.4884 213.411 49.5664 215.471 50.0962L223.252 52.0938C225.027 52.5553 226.633 53.514 227.882 54.857C229.13 56.2 229.969 57.8716 230.3 59.675L230.715 61.9614C230.73 62.0397 230.729 62.1201 230.712 62.198C230.695 62.2759 230.664 62.3497 230.618 62.4152C230.573 62.4807 230.515 62.5365 230.448 62.5795C230.381 62.6224 230.306 62.6516 230.227 62.6654C230.15 62.6792 230.07 62.6776 229.992 62.6606C229.915 62.6436 229.842 62.6116 229.777 62.5663C229.712 62.5211 229.657 62.4635 229.615 62.3968C229.572 62.3302 229.543 62.2559 229.529 62.178L229.114 59.8856C228.822 58.3108 228.088 56.8518 226.996 55.6795C225.905 54.5073 224.502 53.6704 222.951 53.2671L215.17 51.2635C213.279 50.7819 211.307 50.7101 209.386 51.0529L204.74 51.8892C203.955 52.0438 203.263 52.501 202.812 53.1619C202.362 53.8227 202.19 54.6343 202.333 55.4211L202.423 55.9145C202.491 56.3078 202.636 56.6838 202.85 57.0206C203.064 57.3573 203.343 57.6481 203.671 57.876C203.998 58.1039 204.368 58.2644 204.758 58.348C205.149 58.4317 205.552 58.4369 205.944 58.3633L208.953 57.8158C210.997 57.4465 213.097 57.5224 215.11 58.0384L219.184 59.0733C220.162 59.3278 221.048 59.8566 221.735 60.5976C222.423 61.3385 222.885 62.2605 223.066 63.255L224.739 72.4608C224.753 72.5386 224.751 72.6184 224.734 72.6956C224.717 72.7729 224.685 72.846 224.64 72.9108C224.594 72.9756 224.537 73.0309 224.47 73.0734C224.404 73.116 224.329 73.145 224.251 73.1588L224.113 73.1708Z" fill="#2D3E54"/>
<path d="M234.644 59.6751C234.501 59.6775 234.363 59.6291 234.252 59.5388C234.142 59.4484 234.068 59.3219 234.042 59.1818L233.284 54.97C232.992 53.3952 232.258 51.9361 231.166 50.7639C230.075 49.5916 228.671 48.7548 227.121 48.3514L219.346 46.3298C217.455 45.8482 215.483 45.7764 213.562 46.1192L208.952 46.9736C208.16 47.1185 207.457 47.5716 206.998 48.2336C206.539 48.8956 206.361 49.7125 206.503 50.5055L206.563 50.8364C206.577 50.9154 206.575 50.9964 206.557 51.0747C206.54 51.1529 206.507 51.227 206.461 51.2927C206.415 51.3583 206.356 51.4143 206.289 51.4573C206.221 51.5003 206.145 51.5295 206.066 51.5434C205.987 51.5572 205.906 51.5553 205.828 51.5379C205.75 51.5204 205.676 51.4877 205.61 51.4416C205.544 51.3955 205.488 51.3369 205.445 51.2692C205.402 51.2015 205.373 51.126 205.359 51.047L205.299 50.7221C205.101 49.6156 205.349 48.4758 205.99 47.5521C206.631 46.6285 207.611 45.9964 208.717 45.7943L213.345 44.9519C215.438 44.579 217.586 44.657 219.646 45.1805L227.428 47.1842C229.201 47.6448 230.806 48.6017 232.055 49.9424C233.303 51.2832 234.143 52.9521 234.475 54.7534L235.234 58.9651C235.262 59.1215 235.227 59.2826 235.137 59.4133C235.047 59.5441 234.908 59.6338 234.752 59.6631C234.717 59.6731 234.68 59.6771 234.644 59.6751Z" fill="#2D3E54"/>
<path d="M235.12 89.0495L218.118 79.6692C216.789 78.9464 215.639 77.9342 214.753 76.7074C213.868 75.4806 213.27 74.0705 213.003 72.5813L211.697 65.3611C211.601 64.8491 211.608 64.3232 211.718 63.8139C211.827 63.3047 212.037 62.8223 212.335 62.3948C212.935 61.5322 213.852 60.9417 214.886 60.7522L215.181 60.7041C215.693 60.6104 216.218 60.6186 216.727 60.7282C217.236 60.8379 217.718 61.0468 218.145 61.3431C218.573 61.6393 218.938 62.0171 219.219 62.4546C219.501 62.8922 219.693 63.381 219.785 63.893L220.573 68.2312C220.69 68.8816 220.952 69.4976 221.338 70.0339C221.724 70.5701 222.226 71.013 222.806 71.3298L227.145 73.5862C227.221 73.6189 227.29 73.6669 227.346 73.7273C227.403 73.7876 227.446 73.8589 227.474 73.9368C227.502 74.0147 227.513 74.0974 227.507 74.1799C227.502 74.2623 227.479 74.3428 227.441 74.4161C227.403 74.4895 227.35 74.5542 227.286 74.6062C227.221 74.6582 227.147 74.6964 227.068 74.7185C226.988 74.7405 226.904 74.7459 226.823 74.7344C226.741 74.7228 226.662 74.6944 226.592 74.6511L222.241 72.3888C221.499 71.9869 220.858 71.4235 220.364 70.7402C219.871 70.057 219.537 69.2714 219.388 68.4418L218.6 64.1096C218.541 63.7469 218.41 63.3999 218.213 63.0896C218.017 62.7792 217.759 62.5122 217.456 62.3046C217.159 62.0973 216.823 61.9508 216.469 61.8733C216.115 61.7959 215.749 61.7891 215.392 61.8533L215.103 61.9075C214.383 62.0393 213.745 62.4506 213.328 63.0516C212.91 63.6525 212.748 64.3942 212.876 65.1144L214.188 72.3347C214.424 73.6474 214.951 74.8905 215.732 75.9724C216.512 77.0543 217.525 77.9475 218.696 78.5862L234.662 87.3948L245.609 68.2372L243.689 67.2143C242.907 66.8005 242.229 66.2136 241.708 65.4983C241.186 64.783 240.835 63.9583 240.68 63.0868L238.345 50.1987C238.054 48.6239 237.319 47.1648 236.228 45.9926C235.136 44.8204 233.733 43.9835 232.183 43.5801L224.401 41.5765C222.51 41.0949 220.538 41.0231 218.618 41.3659L213.99 42.2083C213.596 42.2756 213.219 42.4208 212.882 42.6353C212.544 42.8498 212.253 43.1293 212.025 43.4576C211.797 43.7858 211.637 44.1562 211.553 44.5471C211.47 44.938 211.466 45.3415 211.54 45.7342C211.569 45.8938 211.533 46.0582 211.44 46.1914C211.348 46.3245 211.206 46.4154 211.047 46.4442C210.887 46.4729 210.723 46.437 210.589 46.3445C210.456 46.252 210.365 46.1104 210.336 45.9508C210.152 44.85 210.409 43.7209 211.051 42.8078C211.693 41.8947 212.669 41.2708 213.767 41.0711L218.395 40.2288C220.488 39.8559 222.636 39.9338 224.696 40.4574L232.478 42.461C234.252 42.9221 235.857 43.8799 237.105 45.2218C238.354 46.5636 239.193 48.2339 239.525 50.0362L241.86 62.9243C241.983 63.6195 242.264 64.2772 242.682 64.8467C243.099 65.4163 243.641 65.8825 244.267 66.2095L247.276 67.81L235.12 89.0495Z" fill="#2D3E54"/>
<path d="M177.892 55.4095C175.671 55.4095 173.5 54.751 171.653 53.5173C169.806 52.2836 168.367 50.5301 167.517 48.4786C166.667 46.427 166.445 44.1696 166.878 41.9917C167.311 39.8138 168.381 37.8132 169.951 36.243C171.522 34.6728 173.523 33.6035 175.701 33.1703C177.88 32.7371 180.138 32.9595 182.19 33.8092C184.242 34.659 185.996 36.0981 187.23 37.9444C188.463 39.7907 189.122 41.9615 189.122 44.182C189.119 47.1588 187.935 50.0126 185.829 52.1175C183.724 54.2224 180.87 55.4063 177.892 55.4095V55.4095ZM177.892 34.164C175.909 34.164 173.97 34.752 172.321 35.8538C170.672 36.9555 169.387 38.5214 168.628 40.3534C167.87 42.1854 167.671 44.2012 168.059 46.1459C168.446 48.0905 169.402 49.8766 170.805 51.2783C172.207 52.6799 173.994 53.6341 175.94 54.0202C177.885 54.4063 179.901 54.207 181.733 53.4474C183.565 52.6877 185.131 51.402 186.232 49.7527C187.333 48.1035 187.92 46.1649 187.918 44.182C187.915 41.525 186.858 38.9778 184.978 37.0996C183.098 35.2214 180.55 34.1656 177.892 34.164Z" fill="#4891FF"/>
<path d="M177.892 51.39C181.874 51.39 185.102 48.1628 185.102 44.1818C185.102 40.2008 181.874 36.9736 177.892 36.9736C173.911 36.9736 170.683 40.2008 170.683 44.1818C170.683 48.1628 173.911 51.39 177.892 51.39Z" fill="#4891FF"/>
<path d="M300.429 126.721L307.128 111.444C308.927 107.351 309.033 102.712 307.422 98.5411C305.812 94.37 302.617 91.0053 298.534 89.1817L245.23 65.373L232.917 89.1155L300.429 126.721Z" fill="#FFC14F"/>
<path d="M242.937 172.81C242.937 172.81 247.108 198.827 240.753 209.549C234.398 220.271 218.684 211.354 218.684 211.354L205.203 216.396L214.736 228.959C214.736 228.959 251.718 236.703 254.974 217.708C258.23 198.712 253.897 186.613 245.345 172.034L242.937 172.81Z" fill="#2D3E54"/>
<path d="M235.077 170.626L246.428 166.059V177.972L235.077 170.626Z" fill="#304056"/>
<path d="M321.326 210.458L256.782 196.436L246.437 244.031L310.981 258.054L321.326 210.458Z" fill="white"/>
<path d="M310.973 258.665H310.847L246.301 244.645C246.146 244.611 246.01 244.516 245.925 244.382C245.839 244.248 245.81 244.085 245.844 243.929L256.189 196.33C256.222 196.174 256.315 196.038 256.448 195.951C256.515 195.908 256.59 195.879 256.669 195.866C256.747 195.853 256.828 195.855 256.905 195.873L321.445 209.892C321.522 209.908 321.596 209.94 321.661 209.985C321.727 210.03 321.782 210.087 321.825 210.154C321.868 210.22 321.898 210.295 321.912 210.373C321.926 210.451 321.925 210.531 321.908 210.608L311.563 258.189C311.526 258.345 311.431 258.48 311.298 258.568C311.201 258.631 311.089 258.664 310.973 258.665ZM247.144 243.574L310.516 257.347L320.602 210.921L257.237 197.154L247.144 243.574Z" fill="#2B3A4F"/>
<path d="M256.834 196.45L321.379 210.475L288.526 232.25C287.664 232.82 286.697 233.212 285.682 233.402C284.666 233.592 283.623 233.577 282.613 233.358C281.604 233.139 280.648 232.72 279.803 232.125C278.958 231.531 278.241 230.774 277.693 229.898L256.834 196.45Z" fill="#DFEDFF"/>
<path d="M310.973 258.063L246.428 244.037L281.773 224.741C282.61 224.284 283.585 224.144 284.518 224.346C285.45 224.548 286.279 225.079 286.852 225.842L310.973 258.063Z" fill="white"/>
<path d="M310.974 258.665H310.847L246.302 244.645C246.181 244.62 246.071 244.558 245.986 244.469C245.901 244.379 245.846 244.265 245.829 244.143C245.811 244.02 245.831 243.896 245.887 243.785C245.942 243.675 246.03 243.585 246.139 243.526L281.472 224.23C282.438 223.709 283.559 223.55 284.632 223.783C285.705 224.016 286.659 224.625 287.322 225.5L311.455 257.72C311.522 257.809 311.563 257.916 311.573 258.027C311.583 258.138 311.562 258.25 311.512 258.35C311.462 258.45 311.385 258.534 311.29 258.593C311.195 258.651 311.085 258.683 310.974 258.683V258.665ZM248.137 243.791L309.523 257.13L286.359 226.234C285.871 225.589 285.168 225.14 284.377 224.969C283.587 224.798 282.761 224.916 282.05 225.301L248.137 243.791Z" fill="#2B3A4F"/>
<path d="M321.319 210.464L256.779 196.438L292.106 177.142C292.944 176.684 293.92 176.544 294.853 176.748C295.786 176.951 296.614 177.484 297.186 178.249L321.319 210.464Z" fill="white"/>
<path d="M321.319 211.065H321.192L256.647 197.028C256.526 197.002 256.417 196.94 256.333 196.849C256.249 196.759 256.195 196.645 256.178 196.523C256.161 196.401 256.181 196.276 256.237 196.167C256.293 196.057 256.382 195.967 256.491 195.909L291.818 176.613C292.784 176.092 293.906 175.934 294.978 176.168C296.051 176.402 297.005 177.012 297.667 177.888L321.8 210.102C321.867 210.192 321.908 210.298 321.918 210.409C321.928 210.521 321.907 210.633 321.857 210.733C321.807 210.832 321.73 210.917 321.635 210.975C321.54 211.034 321.431 211.065 321.319 211.065ZM258.483 196.191L319.868 209.531L296.704 178.61C296.218 177.963 295.515 177.513 294.724 177.34C293.933 177.168 293.107 177.286 292.395 177.672L258.483 196.191Z" fill="#2B3A4F"/>
<path d="M277.921 245.433L265.746 243.923C264.11 243.719 262.533 243.183 261.112 242.346L247.054 234.085L250.063 228.941L262.978 236.546C264.669 237.54 266.548 238.171 268.497 238.399L278.667 239.603C279.055 239.648 279.429 239.776 279.762 239.979C280.096 240.182 280.382 240.454 280.601 240.777C280.82 241.101 280.966 241.467 281.03 241.852C281.094 242.237 281.075 242.632 280.972 243.008L280.852 243.46C280.679 244.084 280.288 244.625 279.751 244.987C279.214 245.349 278.565 245.507 277.921 245.433V245.433Z" fill="#955B50"/>
<path d="M275.755 251.089L263.778 249.603C262.142 249.404 260.564 248.87 259.144 248.033L248.998 242.154L248.125 234.657L261.395 242.479C262.853 243.338 264.475 243.883 266.156 244.08L276.465 245.283C277.24 245.376 277.946 245.774 278.428 246.387C278.91 247.001 279.128 247.781 279.035 248.556C278.941 249.331 278.544 250.037 277.93 250.519C277.316 251 276.536 251.219 275.761 251.125L275.755 251.089Z" fill="#955B50"/>
<path d="M273.293 254.314C273.116 254.969 272.709 255.538 272.146 255.917C271.584 256.296 270.904 256.46 270.23 256.378L261.63 255.319C259.995 255.115 258.419 254.58 256.996 253.749L242.938 245.488L245.947 240.343L259.217 248.165C260.674 249.021 262.293 249.566 263.971 249.766L270.94 250.542C271.343 250.588 271.732 250.72 272.079 250.93C272.427 251.139 272.725 251.421 272.953 251.756C273.182 252.092 273.335 252.472 273.403 252.872C273.471 253.272 273.452 253.682 273.348 254.074L273.293 254.314Z" fill="#955B50"/>
<path d="M266.294 262.443C265.905 262.997 265.328 263.393 264.671 263.557C264.013 263.722 263.319 263.645 262.714 263.339L254.986 259.41C253.519 258.66 252.22 257.618 251.171 256.348L240.783 243.785L245.381 239.982L255.191 251.859C256.269 253.16 257.605 254.224 259.115 254.982L265.386 258.123C265.749 258.303 266.069 258.56 266.324 258.875C266.579 259.191 266.763 259.558 266.863 259.951C266.963 260.344 266.977 260.754 266.904 261.153C266.83 261.552 266.672 261.93 266.439 262.262L266.294 262.443Z" fill="#955B50"/>
<path d="M278.692 239.591L268.521 238.388C266.573 238.159 264.693 237.528 263.002 236.534L251.911 230.006C251.407 229.604 251.008 229.086 250.749 228.496L249.503 227.124L249.588 226.956L251.044 220.566L250.569 220.506C248.222 220.227 245.846 220.333 243.533 220.818L228.596 223.965L227.513 238.719L240.783 243.773L251.17 256.336C252.22 257.606 253.518 258.648 254.986 259.399L262.713 263.328C263.318 263.633 264.013 263.71 264.671 263.546C265.328 263.381 265.904 262.985 266.294 262.431L266.439 262.232C266.672 261.9 266.83 261.522 266.903 261.123C266.977 260.724 266.963 260.314 266.863 259.921C266.763 259.528 266.579 259.161 266.324 258.845C266.069 258.53 265.749 258.273 265.385 258.093L259.114 254.97C258.59 254.706 258.085 254.404 257.604 254.068C258.863 254.713 260.226 255.133 261.63 255.307L270.23 256.366C270.903 256.447 271.584 256.284 272.146 255.905C272.709 255.526 273.116 254.957 273.293 254.302L273.36 254.062C273.464 253.67 273.483 253.26 273.415 252.86C273.347 252.46 273.194 252.08 272.965 251.744C272.737 251.409 272.439 251.127 272.091 250.918C271.744 250.708 271.355 250.576 270.952 250.53L263.989 249.741C262.311 249.542 260.692 248.997 259.235 248.141L257.098 246.883V246.835L259.157 248.039C260.577 248.876 262.154 249.41 263.791 249.609L275.767 251.095C276.523 251.175 277.28 250.959 277.881 250.493C278.481 250.026 278.878 249.346 278.987 248.594C279.097 247.842 278.911 247.076 278.469 246.458C278.027 245.84 277.363 245.416 276.615 245.277L277.927 245.439C278.576 245.519 279.232 245.362 279.775 244.997C280.318 244.632 280.711 244.085 280.882 243.454L281.003 243.003C281.106 242.625 281.126 242.23 281.062 241.843C280.998 241.457 280.851 241.09 280.632 240.766C280.412 240.441 280.125 240.169 279.79 239.966C279.455 239.763 279.081 239.635 278.692 239.591V239.591ZM266.156 244.037C265.294 243.928 264.447 243.726 263.628 243.436C264.319 243.653 265.028 243.808 265.746 243.899L275.436 245.102L266.156 244.037Z" fill="#FFDEA4"/>
<path d="M278.054 246.029C277.464 246.014 276.877 245.953 276.297 245.849L275.623 245.752C274.521 245.614 273.414 245.487 272.306 245.361C270.122 245.108 267.865 244.85 265.686 244.519C262.388 244.025 259.488 242.22 256.659 240.469C255.973 240.048 255.293 239.627 254.619 239.23C254.488 239.147 254.394 239.016 254.357 238.865C254.32 238.715 254.343 238.555 254.421 238.421C254.498 238.287 254.625 238.188 254.774 238.144C254.923 238.101 255.083 238.117 255.221 238.189C255.901 238.592 256.587 239.019 257.279 239.453C259.981 241.131 262.78 242.876 265.825 243.327C268.021 243.652 270.266 243.929 272.445 244.164C273.552 244.296 274.666 244.423 275.773 244.561C276.002 244.561 276.242 244.627 276.483 244.663C277.645 244.844 278.848 245.024 279.649 244.32C279.991 244.045 280.245 243.675 280.38 243.257C280.515 242.839 280.524 242.391 280.407 241.968C280.274 241.506 280.013 241.091 279.654 240.771C279.295 240.452 278.853 240.241 278.379 240.163C276.471 239.808 274.485 239.621 272.559 239.441C271.229 239.32 269.857 239.188 268.509 239.007C263.827 238.37 251.056 230.812 248.986 227.455C248.93 227.321 248.926 227.171 248.972 227.033C249.018 226.896 249.113 226.78 249.238 226.706C249.364 226.633 249.512 226.608 249.654 226.635C249.797 226.662 249.925 226.739 250.015 226.853C251.772 229.711 263.977 237.202 268.671 237.846C269.989 238.027 271.356 238.153 272.674 238.273C274.623 238.46 276.64 238.646 278.596 239.007C279.291 239.131 279.938 239.447 280.463 239.919C280.989 240.391 281.372 241.001 281.569 241.679C281.712 242.207 281.729 242.762 281.618 243.298C281.506 243.834 281.269 244.336 280.927 244.764C280.584 245.191 280.145 245.531 279.646 245.756C279.146 245.981 278.601 246.085 278.054 246.059V246.029Z" fill="#2D3E54"/>
<path d="M276.122 251.715C275.977 251.714 275.832 251.704 275.689 251.685L263.718 250.205C261.999 249.992 260.342 249.429 258.85 248.55L253.548 245.433C253.417 245.35 253.323 245.219 253.286 245.069C253.249 244.918 253.272 244.759 253.349 244.624C253.427 244.49 253.554 244.391 253.703 244.348C253.852 244.304 254.012 244.32 254.149 244.392L259.451 247.515C260.8 248.308 262.298 248.816 263.851 249.007L275.833 250.493C276.392 250.558 276.956 250.421 277.423 250.107C277.89 249.792 278.229 249.321 278.379 248.779C278.466 248.463 278.485 248.133 278.435 247.809C278.385 247.486 278.268 247.176 278.09 246.901C277.912 246.627 277.679 246.392 277.405 246.213C277.132 246.034 276.824 245.914 276.501 245.86C276.341 245.834 276.199 245.745 276.105 245.614C276.01 245.483 275.972 245.319 275.998 245.159C276.025 245 276.113 244.857 276.245 244.763C276.376 244.669 276.54 244.631 276.7 244.657C277.573 244.811 278.357 245.286 278.897 245.989C279.437 246.692 279.695 247.572 279.62 248.455C279.544 249.338 279.141 250.161 278.489 250.762C277.838 251.363 276.984 251.699 276.098 251.703L276.122 251.715Z" fill="#2D3E54"/>
<path d="M250.099 227.756H250.027L246.368 227.317C246.289 227.307 246.212 227.282 246.143 227.243C246.074 227.204 246.013 227.152 245.964 227.09C245.914 227.027 245.878 226.955 245.856 226.879C245.835 226.802 245.829 226.722 245.838 226.643C245.848 226.564 245.873 226.487 245.912 226.418C245.951 226.349 246.003 226.288 246.066 226.238C246.128 226.189 246.2 226.153 246.277 226.131C246.353 226.11 246.433 226.104 246.512 226.113L250.171 226.547C250.331 226.556 250.48 226.629 250.586 226.748C250.692 226.868 250.747 227.025 250.737 227.184C250.728 227.344 250.655 227.493 250.535 227.599C250.416 227.706 250.259 227.76 250.099 227.75V227.756Z" fill="#2D3E54"/>
<path d="M264.068 264.248C263.712 264.244 263.357 264.206 263.008 264.134C261.645 263.723 260.364 263.077 259.223 262.226C258.513 261.738 257.773 261.294 257.008 260.897C251.339 258.279 247.421 253.207 243.63 248.309C242.763 247.184 241.866 246.023 240.97 244.922C237.446 243.672 233.99 242.236 230.618 240.62L227.272 239.104L226.911 238.947V238.556C226.96 236.142 227.139 233.731 227.447 231.336C227.756 228.977 227.933 226.603 227.976 224.224V223.773L228.416 223.646L231.16 222.846C237.78 220.891 244.015 219.044 251.622 220.066C251.701 220.077 251.777 220.103 251.846 220.143C251.915 220.183 251.975 220.237 252.024 220.3C252.072 220.363 252.107 220.436 252.128 220.513C252.148 220.59 252.153 220.67 252.143 220.749C252.132 220.828 252.106 220.904 252.066 220.973C252.026 221.042 251.972 221.103 251.909 221.151C251.845 221.199 251.773 221.235 251.696 221.255C251.619 221.275 251.539 221.28 251.459 221.27C244.111 220.283 237.991 222.094 231.509 224.007L229.186 224.693C229.156 226.968 228.897 229.26 228.65 231.48C228.404 233.701 228.151 235.969 228.127 238.201L231.136 239.561C234.528 241.184 238.006 242.622 241.553 243.869L241.716 243.923L241.824 244.062C242.769 245.217 243.714 246.432 244.623 247.605C248.318 252.419 252.146 257.347 257.568 259.844C258.381 260.266 259.166 260.739 259.921 261.258C260.944 262.025 262.089 262.613 263.309 262.997C264.856 263.309 265.175 262.816 265.717 262.01C265.932 261.657 266.184 261.329 266.469 261.029C266.643 260.806 266.343 259.627 265.933 259.224C264.982 258.267 263.64 257.768 262.214 257.238C260.655 256.637 259.036 256.035 257.761 254.832C257.704 254.776 257.659 254.709 257.629 254.636C257.598 254.563 257.583 254.484 257.583 254.405C257.583 254.325 257.598 254.246 257.629 254.173C257.659 254.1 257.704 254.033 257.761 253.977C257.873 253.865 258.026 253.802 258.185 253.802C258.344 253.802 258.496 253.865 258.609 253.977C259.698 255.054 261.191 255.608 262.635 256.143C264.08 256.679 265.644 257.263 266.788 258.4C267.48 259.092 268.178 261.053 267.317 261.914C267.089 262.154 266.888 262.418 266.716 262.702C266.198 263.37 265.614 264.248 264.068 264.248Z" fill="#2D3E54"/>
<path d="M270.567 256.998C270.431 257.007 270.294 257.007 270.158 256.998L261.558 255.939C259.838 255.73 258.181 255.169 256.689 254.29L252.127 251.45C251.999 251.363 251.909 251.23 251.877 251.078C251.844 250.926 251.872 250.768 251.953 250.636C252.035 250.504 252.164 250.409 252.314 250.37C252.464 250.331 252.624 250.352 252.759 250.427L257.315 253.261C258.66 254.052 260.153 254.558 261.702 254.747L270.302 255.806C270.831 255.868 271.365 255.739 271.807 255.44C272.249 255.142 272.569 254.696 272.709 254.182L272.775 253.941C272.858 253.633 272.873 253.312 272.82 252.997C272.767 252.683 272.646 252.384 272.467 252.121C272.287 251.858 272.053 251.636 271.78 251.472C271.508 251.307 271.202 251.203 270.886 251.167L270.356 251.107C270.277 251.098 270.201 251.074 270.132 251.035C270.063 250.997 270.002 250.945 269.953 250.883C269.903 250.821 269.867 250.75 269.845 250.674C269.824 250.598 269.817 250.518 269.827 250.439C269.836 250.361 269.86 250.285 269.898 250.215C269.937 250.146 269.989 250.085 270.051 250.036C270.113 249.987 270.184 249.95 270.26 249.929C270.336 249.907 270.416 249.901 270.495 249.91L271.024 249.97C271.514 250.025 271.986 250.185 272.408 250.439C272.83 250.694 273.192 251.037 273.469 251.444C273.746 251.852 273.931 252.315 274.012 252.801C274.092 253.287 274.067 253.785 273.937 254.26L273.871 254.495C273.668 255.215 273.235 255.849 272.639 256.3C272.042 256.752 271.315 256.997 270.567 256.998V256.998Z" fill="#2D3E54"/>
<path d="M148.247 223.622L152.526 219.675L229.734 221.962L228.945 248.683L158.087 248.761C144.877 248.779 138.539 232.569 148.247 223.622Z" fill="#FFC14F"/>
<path d="M158.062 249.362C155.024 249.362 152.058 248.446 149.549 246.734C147.041 245.021 145.108 242.591 144.002 239.763C142.897 236.934 142.671 233.838 143.354 230.879C144.037 227.92 145.598 225.235 147.831 223.177L152.11 219.236C152.167 219.177 152.235 219.129 152.311 219.097C152.387 219.066 152.469 219.049 152.551 219.05C152.633 219.051 152.714 219.069 152.79 219.102C152.865 219.136 152.932 219.184 152.988 219.245C153.044 219.306 153.086 219.377 153.113 219.455C153.14 219.532 153.151 219.615 153.145 219.697C153.139 219.779 153.116 219.859 153.078 219.932C153.039 220.005 152.986 220.069 152.922 220.12L148.643 224.061C146.588 225.956 145.152 228.426 144.523 231.15C143.895 233.873 144.103 236.723 145.12 239.326C146.138 241.93 147.918 244.165 150.226 245.741C152.535 247.317 155.266 248.16 158.062 248.159V248.159L228.337 248.081L229.095 222.545L172.927 220.885C172.767 220.885 172.614 220.821 172.501 220.708C172.389 220.595 172.325 220.442 172.325 220.283C172.325 220.123 172.389 219.97 172.501 219.857C172.614 219.745 172.767 219.681 172.927 219.681L229.697 221.36C229.856 221.36 230.01 221.423 230.122 221.536C230.235 221.649 230.299 221.802 230.299 221.962L229.51 248.682C229.51 248.842 229.447 248.995 229.334 249.108C229.221 249.221 229.068 249.284 228.908 249.284L158.05 249.362H158.062Z" fill="#2B3A4F"/>
<path d="M230.648 163.135L242.227 167.425L238.153 148.111L227.928 150.265L230.648 163.135Z" fill="#FFDEA4"/>
<path d="M228.746 154.14L227.928 150.265L238.159 148.111L239.964 156.661C238.411 157.33 236.712 157.589 235.029 157.413C232.61 157.11 230.38 155.949 228.746 154.14V154.14Z" fill="#2D3E54"/>
<path d="M225.803 147.792C226.845 152.738 231.322 155.987 235.806 155.042C240.289 154.098 243.07 149.32 242.023 144.368C240.975 139.417 236.504 136.174 232.02 137.118C227.537 138.063 224.726 142.84 225.803 147.792Z" fill="#FFDEA4"/>
<path d="M233.44 155.933C231.686 155.909 229.99 155.297 228.626 154.194C228.561 154.147 228.507 154.089 228.465 154.022C228.423 153.954 228.395 153.879 228.382 153.801C228.369 153.723 228.372 153.643 228.39 153.566C228.408 153.489 228.441 153.416 228.487 153.351C228.533 153.287 228.592 153.232 228.659 153.19C228.727 153.149 228.802 153.121 228.88 153.108C228.958 153.095 229.038 153.097 229.115 153.116C229.193 153.134 229.265 153.167 229.33 153.213C231.677 154.904 233.23 154.958 235.625 154.452C239.771 153.58 242.353 149.109 241.378 144.494C240.403 139.88 236.239 136.829 232.092 137.707C230.754 138.013 229.526 138.68 228.54 139.634C227.555 140.589 226.849 141.796 226.501 143.123C226.484 143.204 226.45 143.281 226.402 143.349C226.353 143.416 226.292 143.473 226.22 143.516C226.148 143.558 226.069 143.585 225.986 143.596C225.904 143.606 225.82 143.599 225.74 143.575C225.661 143.551 225.587 143.511 225.523 143.457C225.46 143.404 225.408 143.337 225.372 143.263C225.335 143.188 225.314 143.106 225.311 143.023C225.308 142.94 225.322 142.857 225.352 142.78C225.772 141.251 226.596 139.865 227.74 138.766C228.883 137.668 230.301 136.899 231.845 136.54C236.66 135.529 241.444 138.989 242.558 144.254C243.671 149.519 240.668 154.633 235.872 155.644C235.073 155.824 234.259 155.921 233.44 155.933Z" fill="#2D3E54"/>
<path d="M232.165 150.663C232.825 151.054 233.574 151.268 234.341 151.284C235.108 151.299 235.865 151.117 236.541 150.753C237.216 150.39 237.786 149.858 238.195 149.21C238.604 148.561 238.838 147.818 238.875 147.052L232.165 150.663Z" fill="white"/>
<path d="M236.492 135.764C236.64 136.471 236.576 137.206 236.307 137.877C236.038 138.547 235.576 139.123 234.98 139.531C234.383 139.939 233.68 140.161 232.957 140.168C232.235 140.176 231.526 139.97 230.921 139.575C230.316 139.181 229.841 138.616 229.557 137.951C229.274 137.287 229.193 136.554 229.326 135.844C229.459 135.134 229.8 134.479 230.305 133.963C230.81 133.446 231.457 133.091 232.164 132.943C232.634 132.844 233.118 132.838 233.59 132.927C234.061 133.015 234.511 133.195 234.913 133.458C235.314 133.72 235.661 134.058 235.932 134.454C236.202 134.85 236.393 135.295 236.492 135.764V135.764Z" fill="#2D3E54"/>
<path d="M230.323 138.899C230.443 139.466 230.391 140.056 230.176 140.594C229.96 141.132 229.59 141.594 229.112 141.921C228.633 142.249 228.069 142.427 227.489 142.434C226.909 142.441 226.341 142.275 225.855 141.959C225.369 141.643 224.989 141.189 224.761 140.656C224.533 140.124 224.468 139.535 224.574 138.965C224.681 138.396 224.954 137.87 225.359 137.456C225.764 137.041 226.283 136.756 226.851 136.637C227.611 136.476 228.404 136.625 229.055 137.049C229.707 137.473 230.163 138.139 230.323 138.899V138.899Z" fill="#2D3E54"/>
<path d="M238.592 140.138C240.35 140.138 241.775 138.713 241.775 136.955C241.775 135.197 240.35 133.772 238.592 133.772C236.834 133.772 235.408 135.197 235.408 136.955C235.408 138.713 236.834 140.138 238.592 140.138Z" fill="#2D3E54"/>
<path d="M238.749 132.551C238.898 133.25 238.837 133.978 238.572 134.642C238.307 135.306 237.851 135.877 237.262 136.282C236.673 136.686 235.976 136.907 235.261 136.916C234.546 136.924 233.845 136.721 233.246 136.331C232.647 135.94 232.177 135.381 231.897 134.724C231.616 134.066 231.537 133.34 231.669 132.638C231.801 131.935 232.139 131.288 232.64 130.778C233.141 130.267 233.782 129.917 234.482 129.772C235.416 129.577 236.389 129.76 237.189 130.281C237.988 130.802 238.549 131.618 238.749 132.551V132.551Z" fill="#2D3E54"/>
<path d="M232.989 133.658C233.151 134.415 233.085 135.203 232.799 135.922C232.512 136.641 232.019 137.259 231.382 137.698C230.744 138.137 229.99 138.377 229.216 138.387C228.442 138.397 227.683 138.178 227.033 137.756C226.384 137.335 225.875 136.73 225.569 136.019C225.264 135.308 225.176 134.522 225.318 133.761C225.459 133.001 225.824 132.299 226.364 131.745C226.905 131.191 227.598 130.81 228.355 130.65C229.369 130.436 230.426 130.632 231.294 131.196C232.163 131.76 232.772 132.646 232.989 133.658Z" fill="#2D3E54"/>
<path d="M228.024 137.701C228.181 138.437 228.117 139.203 227.839 139.902C227.561 140.602 227.081 141.203 226.462 141.629C225.842 142.056 225.109 142.289 224.357 142.3C223.604 142.31 222.866 142.097 222.234 141.687C221.603 141.278 221.107 140.69 220.81 139.999C220.513 139.308 220.428 138.544 220.565 137.804C220.702 137.064 221.056 136.382 221.581 135.843C222.106 135.304 222.78 134.933 223.516 134.777C224.501 134.57 225.529 134.762 226.373 135.309C227.218 135.857 227.811 136.717 228.024 137.701Z" fill="#2D3E54"/>
<path d="M228.499 143.604C228.641 144.287 228.578 144.996 228.317 145.642C228.057 146.289 227.611 146.844 227.036 147.238C226.46 147.632 225.781 147.846 225.084 147.855C224.387 147.863 223.703 147.666 223.118 147.286C222.533 146.907 222.074 146.363 221.797 145.723C221.521 145.084 221.44 144.376 221.565 143.69C221.69 143.005 222.015 142.371 222.499 141.87C222.984 141.368 223.605 141.021 224.287 140.873C224.743 140.774 225.214 140.766 225.673 140.85C226.132 140.934 226.57 141.108 226.961 141.362C227.353 141.616 227.69 141.945 227.954 142.33C228.218 142.714 228.403 143.148 228.499 143.604V143.604Z" fill="#2D3E54"/>
<path d="M228.319 149.495C228.475 150.238 228.407 151.01 228.125 151.715C227.842 152.419 227.356 153.024 226.73 153.453C226.103 153.881 225.363 154.115 224.604 154.123C223.845 154.132 223.1 153.915 222.464 153.5C221.828 153.085 221.329 152.492 221.031 151.794C220.732 151.096 220.648 150.325 220.787 149.579C220.927 148.832 221.285 148.144 221.815 147.601C222.346 147.059 223.026 146.685 223.769 146.529C224.263 146.424 224.772 146.417 225.268 146.51C225.764 146.602 226.237 146.792 226.66 147.067C227.083 147.343 227.447 147.699 227.732 148.116C228.016 148.532 228.216 149.001 228.319 149.495V149.495Z" fill="#2D3E54"/>
<path d="M225.533 144.615C225.707 145.442 225.633 146.302 225.319 147.086C225.004 147.871 224.465 148.545 223.767 149.022C223.07 149.5 222.247 149.76 221.402 149.77C220.557 149.78 219.727 149.539 219.019 149.077C218.311 148.616 217.756 147.955 217.423 147.178C217.091 146.401 216.997 145.543 217.152 144.713C217.307 143.882 217.706 143.116 218.297 142.512C218.887 141.908 219.644 141.492 220.471 141.318C221.02 141.202 221.587 141.195 222.138 141.297C222.69 141.4 223.216 141.611 223.686 141.917C224.156 142.223 224.561 142.619 224.878 143.082C225.195 143.545 225.417 144.066 225.533 144.615V144.615Z" fill="#2D3E54"/>
<path d="M224.293 138.743C224.419 139.344 224.363 139.97 224.134 140.541C223.904 141.111 223.51 141.601 223.002 141.948C222.495 142.295 221.895 142.483 221.28 142.49C220.665 142.496 220.062 142.32 219.547 141.984C219.032 141.648 218.628 141.167 218.386 140.602C218.144 140.036 218.076 139.412 218.189 138.807C218.302 138.203 218.592 137.646 219.021 137.206C219.451 136.766 220.002 136.463 220.604 136.336C221.004 136.251 221.417 136.246 221.819 136.322C222.221 136.397 222.605 136.551 222.947 136.774C223.29 136.998 223.585 137.287 223.816 137.624C224.047 137.962 224.209 138.342 224.293 138.743V138.743Z" fill="#2D3E54"/>
<path d="M224.377 138.658C226.135 138.658 227.561 137.233 227.561 135.475C227.561 133.718 226.135 132.292 224.377 132.292C222.619 132.292 221.193 133.718 221.193 135.475C221.193 137.233 222.619 138.658 224.377 138.658Z" fill="#2D3E54"/>
</g>
<defs>
<clipPath id="clip0_233_28650">
<rect width="500" height="500" fill="white" transform="translate(0.72168)"/>
</clipPath>
</defs>
</svg>
