<svg width="501" height="500" viewBox="0 0 501 500" fill="none" xmlns="http://www.w3.org/2000/svg">
<g clip-path="url(#clip0_233_29076)">
<path d="M46.0887 34.133C51.1648 34.1257 56.1204 35.6771 60.2841 38.5771L68.7291 26.9928C62.8696 22.8738 55.9955 20.4307 48.8481 19.9271C41.7007 19.4234 34.5513 20.8783 28.1709 24.1349L35 36.7319C38.4442 35.0177 42.2406 34.1279 46.0887 34.133Z" fill="#9CAFC6"/>
<path d="M22.73 90.075L31.175 78.4908C28.1024 76.1971 25.6087 73.2181 23.8928 69.7914C22.1768 66.3647 21.2861 62.585 21.2914 58.7536C21.2968 54.9222 22.1983 51.145 23.9239 47.7231C25.6495 44.3012 28.1515 41.3293 31.2306 39.0442L24.3505 26.3594C19.1285 29.8119 14.8176 34.4719 11.7838 39.9438C8.74995 45.4157 7.08274 51.538 6.92369 57.7909C6.76464 64.0438 8.11844 70.2428 10.8702 75.8615C13.6219 81.4803 17.6903 86.3529 22.73 90.0658V90.075Z" fill="#4891FF"/>
<path d="M85.0395 54.647C84.0083 45.0352 79.4235 36.1535 72.1822 29.7397L63.6816 41.4119C67.7261 45.447 70.2332 50.766 70.7701 56.4506L85.0395 54.647Z" fill="#FFC14F"/>
<path d="M70.7795 60.8855C70.4172 64.9079 69.076 68.781 66.8729 72.1675C64.6698 75.5541 61.6714 78.3516 58.1386 80.3164C54.6059 82.2813 50.646 83.354 46.6034 83.4412C42.5609 83.5284 38.5582 82.6275 34.9439 80.8169L26.4248 92.489C32.3999 95.9445 39.1837 97.7601 46.0881 97.7516C67.6358 97.7516 85.1184 80.4515 85.2573 59.0542L70.7795 60.8855Z" fill="#FCB503"/>
<path d="M52.5956 65.2935C56.1919 61.7015 56.1919 55.8776 52.5956 52.2856C48.9993 48.6935 43.1686 48.6935 39.5722 52.2856C35.9759 55.8776 35.9759 61.7015 39.5722 65.2935C43.1686 68.8856 48.9993 68.8856 52.5956 65.2935Z" fill="white"/>
<path d="M46.0882 68.5896C44.1478 68.5896 42.251 68.0149 40.6376 66.9382C39.0242 65.8614 37.7667 64.331 37.0241 62.5404C36.2816 60.7498 36.0873 58.7795 36.4659 56.8787C36.8444 54.9778 37.7788 53.2318 39.1509 51.8613C40.5229 50.4909 42.2711 49.5576 44.1742 49.1795C46.0773 48.8014 48.0499 48.9955 49.8426 49.7371C51.6353 50.4788 53.1675 51.7348 54.2456 53.3463C55.3236 54.9577 55.899 56.8523 55.899 58.7904C55.8965 61.3886 54.8621 63.8796 53.0228 65.7168C51.1834 67.554 48.6894 68.5872 46.0882 68.5896ZM46.0882 50.1936C44.3857 50.1927 42.7211 50.6961 41.3051 51.6402C39.8891 52.5842 38.7852 53.9266 38.133 55.4973C37.4808 57.0681 37.3097 58.7968 37.6413 60.4647C37.9729 62.1327 38.7923 63.6649 39.9958 64.8677C41.1993 66.0704 42.733 66.8897 44.4027 67.2217C46.0724 67.5538 47.8032 67.3839 49.3762 66.7333C50.9492 66.0828 52.2937 64.9809 53.2397 63.5671C54.1857 62.1532 54.6906 60.4909 54.6906 58.7904C54.6881 56.5119 53.7812 54.3274 52.1686 52.7159C50.556 51.1043 48.3693 50.1972 46.0882 50.1936V50.1936Z" fill="#2D3E54"/>
<path d="M122.158 41.3379C125.45 37.4783 129.852 34.724 134.765 33.4486L131.431 19.5059C124.489 21.2804 118.164 24.9146 113.138 30.0162C108.112 35.1178 104.576 41.4933 102.911 48.4549L116.94 51.4469C117.871 47.7187 119.657 44.2579 122.158 41.3379V41.3379Z" fill="#FCB503"/>
<path d="M149.572 95.4114L146.243 81.478C142.501 82.3207 138.614 82.2789 134.891 81.3559C131.168 80.4329 127.712 78.6541 124.8 76.1614C121.887 73.6687 119.597 70.5309 118.112 66.998C116.628 63.4651 115.991 59.6348 116.25 55.8123L102.134 52.8018C101.368 59.01 102.114 65.3111 104.308 71.1698C106.502 77.0286 110.079 82.2719 114.735 86.4545C119.392 90.6371 124.99 93.6354 131.055 95.1948C137.12 96.7541 143.472 96.8284 149.572 95.4114V95.4114Z" fill="#FFC14F"/>
<path d="M163.077 25.083C155.09 19.6191 145.349 17.3301 135.761 18.6643L139.15 32.7133C144.848 32.2626 150.526 33.8131 155.202 37.0973L163.077 25.083Z" fill="#4891FF"/>
<path d="M158.568 39.9645C161.394 42.8531 163.471 46.3877 164.617 50.2607C165.763 54.1337 165.945 58.2279 165.146 62.187C164.347 66.1461 162.591 69.8502 160.032 72.977C157.472 76.1038 154.187 78.5586 150.461 80.1278L153.818 94.1815C160.327 91.8885 166.113 87.9157 170.587 82.6666C184.584 66.3053 182.769 41.7911 166.573 27.7837L158.568 39.9645Z" fill="#9CAFC6"/>
<path d="M148.382 62.7545C151.366 58.6411 150.447 52.89 146.329 49.9092C142.211 46.9283 136.453 47.8464 133.468 51.9598C130.484 56.0732 131.403 61.8242 135.521 64.8051C139.64 67.786 145.397 66.8679 148.382 62.7545Z" fill="white"/>
<path d="M140.914 67.1561C139.041 67.1531 137.207 66.6144 135.631 65.6037C134.054 64.593 132.8 63.1526 132.017 61.4527C131.234 59.7528 130.955 57.8646 131.212 56.0112C131.469 54.1577 132.253 52.4166 133.469 50.9937C134.517 49.7685 135.851 48.8204 137.354 48.2334C138.857 47.6464 140.481 47.4385 142.083 47.6282C143.685 47.8179 145.216 48.3993 146.539 49.321C147.863 50.2426 148.938 51.476 149.67 52.912C150.402 54.3479 150.769 55.9421 150.737 57.5532C150.705 59.1643 150.276 60.7428 149.487 62.1486C148.699 63.5545 147.575 64.7444 146.216 65.6131C144.857 66.4817 143.305 67.0021 141.696 67.1284C141.437 67.1469 141.173 67.1561 140.914 67.1561ZM140.937 48.7693C138.919 48.7705 136.965 49.4807 135.419 50.7757C133.872 52.0707 132.831 53.8678 132.477 55.8525C132.124 57.8371 132.48 59.8828 133.485 61.6311C134.489 63.3795 136.078 64.7193 137.972 65.4157C139.866 66.1122 141.944 66.1209 143.844 65.4405C145.744 64.7601 147.343 63.4338 148.363 61.694C149.382 59.9541 149.756 57.9116 149.419 55.924C149.083 53.9364 148.057 52.1306 146.521 50.8226C144.964 49.4948 142.984 48.7665 140.937 48.7693V48.7693Z" fill="#2D3E54"/>
<path d="M20.3922 161.176H9.56738V191.188H20.3922V161.176Z" fill="#4891FF"/>
<path d="M40.606 156.491H29.7812V191.188H40.606V156.491Z" fill="#4891FF"/>
<path d="M60.8258 161.176H50.001V191.188H60.8258V161.176Z" fill="#4891FF"/>
<path d="M81.0396 147.376H70.2148V191.188H81.0396V147.376Z" fill="#4891FF"/>
<path d="M101.253 136.421H90.4287V191.188H101.253V136.421Z" fill="#4891FF"/>
<path d="M121.468 118.15H110.644V191.188H121.468V118.15Z" fill="#4891FF"/>
<path d="M13.8593 154.785C13.7152 154.786 13.5754 154.735 13.4654 154.642C13.3555 154.549 13.2827 154.42 13.2603 154.277C13.2378 154.135 13.2673 153.99 13.3432 153.867C13.4192 153.745 13.5366 153.654 13.6741 153.61L35.0135 146.803C35.1251 146.769 35.2445 146.769 35.3561 146.803L55.2926 152.288L115.709 109.391C115.839 109.299 116 109.262 116.158 109.288C116.316 109.315 116.456 109.402 116.549 109.532C116.642 109.662 116.679 109.824 116.652 109.981C116.626 110.139 116.538 110.279 116.408 110.372L55.7556 153.435C55.683 153.487 55.5994 153.522 55.5111 153.537C55.4228 153.553 55.3323 153.548 55.2463 153.523L35.2079 148.006L14.0399 154.757C13.9814 154.775 13.9206 154.785 13.8593 154.785V154.785Z" fill="#2D3E54"/>
<path d="M113.685 115.69C113.587 115.689 113.49 115.665 113.403 115.62C113.262 115.545 113.157 115.417 113.11 115.264C113.063 115.112 113.079 114.947 113.152 114.806L115.597 110.219L110.337 111.144C110.259 111.159 110.178 111.159 110.099 111.143C110.02 111.127 109.946 111.096 109.88 111.051C109.813 111.005 109.757 110.947 109.713 110.88C109.67 110.813 109.64 110.737 109.626 110.658C109.612 110.579 109.614 110.498 109.632 110.42C109.65 110.342 109.684 110.268 109.73 110.203C109.777 110.138 109.837 110.083 109.905 110.041C109.974 110 110.05 109.972 110.129 109.96L116.611 108.808C116.723 108.787 116.838 108.798 116.943 108.841C117.048 108.884 117.139 108.956 117.204 109.049C117.27 109.14 117.309 109.247 117.317 109.359C117.326 109.471 117.302 109.583 117.25 109.682L114.227 115.361C114.176 115.461 114.099 115.545 114.003 115.603C113.907 115.661 113.797 115.691 113.685 115.69V115.69Z" fill="#2D3E54"/>
<path d="M129.219 220.345H63.8255C63.6659 220.345 63.5128 220.282 63.3999 220.169C63.287 220.057 63.2236 219.904 63.2236 219.744C63.2236 219.585 63.287 219.432 63.3999 219.319C63.5128 219.206 63.6659 219.143 63.8255 219.143H129.219C129.378 219.143 129.531 219.206 129.644 219.319C129.757 219.432 129.821 219.585 129.821 219.744C129.821 219.904 129.757 220.057 129.644 220.169C129.531 220.282 129.378 220.345 129.219 220.345Z" fill="#2D3E54"/>
<path d="M129.219 253.202H63.8255C63.6659 253.202 63.5128 253.139 63.3999 253.026C63.287 252.914 63.2236 252.761 63.2236 252.601C63.2236 252.442 63.287 252.289 63.3999 252.176C63.5128 252.063 63.6659 252 63.8255 252H129.219C129.378 252 129.531 252.063 129.644 252.176C129.757 252.289 129.821 252.442 129.821 252.601C129.821 252.761 129.757 252.914 129.644 253.026C129.531 253.139 129.378 253.202 129.219 253.202V253.202Z" fill="#2D3E54"/>
<path d="M146.442 236.772H63.8255C63.6659 236.772 63.5128 236.708 63.3999 236.596C63.287 236.483 63.2236 236.33 63.2236 236.171C63.2236 236.011 63.287 235.858 63.3999 235.745C63.5128 235.633 63.6659 235.569 63.8255 235.569H146.442C146.602 235.569 146.755 235.633 146.868 235.745C146.98 235.858 147.044 236.011 147.044 236.171C147.044 236.33 146.98 236.483 146.868 236.596C146.755 236.708 146.602 236.772 146.442 236.772Z" fill="#2D3E54"/>
<path d="M349.178 301.19C432.282 301.19 499.651 233.901 499.651 150.896C499.651 67.8903 432.282 0.601074 349.178 0.601074C266.074 0.601074 198.705 67.8903 198.705 150.896C198.705 233.901 266.074 301.19 349.178 301.19Z" fill="white"/>
<path d="M306.291 175.729L291.475 169.162L284.9 155.367H277.025L273.418 148.13H266.506L262.89 145.818H246.778L238.013 152.389L240.643 157.532L238.888 165.194L232.971 170.448L233.846 176.358L231.656 179.891L245.791 201.163L255.329 208.387L256.315 231.537L258.45 239.084L256.973 248.606L262.394 259.769L267.163 275.534L271.33 279.529C273.367 280.762 275.435 281.948 277.534 283.085H286.058L286.553 279.968L280.826 278.174L276.881 272.754L279.345 267.339L276.386 264.384L280.826 251.57L285.919 249.258L297.424 228.239V221.673L300.383 218.718H310.249L313.537 197.043L319.125 184.557L312.865 175.729H306.291Z" fill="#E6E6E6"/>
<path d="M199.599 134.469L207.983 138.631L212.09 137.808L216.697 142.895L223.929 145.027L225.406 149.79L231.656 154.225L236.749 156.852V150.428H233.138L231.661 147.455L232.318 136.472H224.262L227.712 126.622H220.146L218.341 131.709L210.775 130.562L209.627 121.364L211.942 117.262V113.65L219.35 110.034L225.596 112.008L231.679 108.72L236.772 110.69V118.575L241.518 117.461L241.055 106.732L252.236 99.9479L260.343 87.4619L265.168 86.5879L272.182 80.2385L273.937 82.6478L284.896 78.0234L279.636 75.6187L282.701 69.2693L290.373 69.4866L288.623 73.1862L298.925 75.3736L300.272 69.3155L297.642 68.0022L298.299 58.3695L293.466 57.7128L293.026 48.5148L285.794 51.7935L284.919 47.6315L275.381 44.7875L269.793 55.2942L263.658 59.2342L260.806 65.3663L257.301 64.2795L259.931 57.9301L249.19 53.7681L247.657 49.1437L260.366 43.4695L272.404 43.0348L279.641 32.7454L284.461 32.5234L287.965 35.8068L283.363 39.0948L277.446 40.8428L290.378 46.1008L301.994 36.9028L291.808 25.1382H275.381L271.988 28.0932V31.6494L268.478 32.1951L267.492 27.3903L260.917 29.7996V33.846L254.172 34.3501C223.505 59.2547 203.897 95.2259 199.599 134.469V134.469Z" fill="#E6E6E6"/>
<path d="M231.104 124.374L236.035 122.298L241.406 123.334L249.189 128.425L247.434 130.946L243.161 129.41L240.147 126.016L236.035 125.359L231.104 127.112V124.374Z" fill="#FFC14F"/>
<path d="M252.037 129.628H257.301L261.135 132.694L256.588 134.558L249.189 134.007L252.037 129.628Z" fill="#FFC14F"/>
<path d="M303.109 17.4294H311.656L323.055 12.6107L359.442 10.4233L374.345 12.8327L365.799 16.3334L364.044 23.5568L358.344 26.6228L357.469 31.8762L348.7 35.1595H343.223L337.741 39.3215H331.824L320.865 50.0502L317.356 47.6409L312.536 43.7009L312.754 34.9422L318.013 32.7548L315.606 27.9361L316.041 23.1221L310.124 21.1521L304.647 22.0261L303.109 17.4294Z" fill="#E6E6E6"/>
<path d="M354.617 37.3516H366.016L366.896 40.1956L359.659 43.0443H354.617L351.279 37.3516H354.617Z" fill="#FFC14F"/>
<path d="M469.037 194.98L465.309 201.987L460.05 203.3V210.963L457.638 214.463L458.735 222.348L462.462 223.879L465.527 221.691L472.106 202.204L469.037 194.98Z" fill="#FFC14F"/>
<path d="M474.079 145.832L473.2 152.403L467.065 163.89L460.708 167.396L454.569 175.932L452.379 181.625L454.791 191.697V202.426L445.147 209.432V219.939L440.98 223.005L438.79 229.571L429.178 238.547L414.353 242.488L411.608 233.733V229.571L407.223 225.849L406.13 215.999L401.964 206.805L403.061 197.607L405.691 194.981L403.501 183.378L396.704 173.306V162.577L391.662 161.046L388.157 157.324L378.513 161.046L372.374 159.294L366.896 161.486L356.812 154.48L349.141 140.907L351.331 134.775L351.113 124.268L355.937 114.853L360.975 110.913L365.799 103.689L372.374 97.7746H377.855L382.235 95.8046L400.649 94.2739V100.841L407.223 103.25L414.353 107.629L417.529 103.028L428.049 106.316L437.693 105.659L440.98 115.727L446.897 124.703L448.434 131.052L452.161 138.498L460.708 148.13L474.079 145.832Z" fill="#E6E6E6"/>
<path d="M470.518 113.156L477.75 116.111L481.037 115.292L482.352 117.752L488.269 119.889L496.242 119.006C488.982 85.6366 470.558 55.7329 444.007 34.2209L441.201 35.3909L419.904 29.0415L409.218 30.2439L401.527 40.1957L390.619 45.9994L394.259 52.7187L400.009 50.0365L402.324 53.7037L402.653 57.6437L409.232 55.6737L409.394 52.062L412.519 50.0365L409.889 45.0005L415.806 38.5956L419.918 40.1818L414.362 44.3438L415.616 47.9555L419.894 52.062L416.112 54.032L413.482 59.6137H398.666L399.49 54.032L395.555 55.0309L395.884 60.2843L390.791 62.4161L385.202 68.3308H380.762L374.35 71.4477L380.929 77.1959L380.762 81.3024L369.586 81.6307L365.146 89.3489L366.9 94.274L371.887 96.0775L379.609 94.274L382.077 90.0056L386.846 87.1292L388.652 81.3024L393.092 82.9441L397.694 79.8226L401.477 85.7326L407.639 88.3639V91.1386L402.625 92.2901L408.296 96.0636L409.222 92.9468L412.672 87.5269L406.259 83.2585L403.944 78.1716L414.362 85.2332L417.098 92.7849L421.538 95.5596L422.853 86.6945L425.631 87.6795V92.7664L430.891 96.5446L434.673 95.5596L438.289 96.7064L442.563 96.2162L440.919 107.874L449.304 122.816L451.276 128.726L461.962 144.324L474.074 138.414L484.815 131.519L487.278 124.624L480.209 118.381L476.593 120.351L472.486 119.861L469.361 115.264L464.592 109.516L468.374 108.693L470.518 113.156Z" fill="#E6E6E6"/>
<path d="M380.374 52.3488L381.689 57.8195L385.856 62.9665L381.582 66.7956L375.554 67.3459L377.855 59.845L374.346 54.5362L377.198 50.8135L380.374 52.3488Z" fill="#FFC14F"/>
<path d="M375.115 59.082H369.744L366.896 65.8106L373.471 64.3909L375.115 59.082Z" fill="#FFC14F"/>
<path d="M349.178 301.791C319.3 301.791 290.093 292.941 265.25 276.362C240.407 259.782 221.044 236.217 209.61 208.647C198.176 181.076 195.183 150.738 201.011 121.468C206.839 92.1987 221.225 65.3126 242.351 44.2095C270.786 16.423 309.045 0.959266 348.824 1.17508C388.603 1.39089 426.692 17.2688 454.822 45.3623C482.953 73.4557 498.854 111.497 499.076 151.229C499.297 190.961 483.82 229.177 456.004 257.582C442.009 271.64 425.361 282.786 407.024 290.374C388.688 297.963 369.026 301.843 349.178 301.791V301.791ZM349.178 1.20217C266.538 1.20217 199.307 68.3538 199.307 150.896C199.307 233.437 266.538 300.589 349.178 300.589C431.817 300.589 499.048 233.437 499.048 150.896C499.048 68.3538 431.813 1.20217 349.178 1.20217V1.20217Z" fill="#2D3E54"/>
<path d="M265.867 176.552L230.98 116.855C222.433 92.4886 240.624 67.0218 266.473 67.1652C292.322 67.3085 310.231 92.9742 301.415 117.243L265.867 176.552Z" fill="#DFEDFF"/>
<path d="M265.871 177.153C265.766 177.154 265.663 177.127 265.572 177.075C265.481 177.023 265.405 176.948 265.352 176.857L234.017 123.241C229.275 115.139 227.678 105.579 229.53 96.3781C231.348 87.1968 236.593 79.0497 244.203 73.5888C250.706 68.9814 258.493 66.5269 266.466 66.5709C274.439 66.6149 282.198 69.155 288.65 73.8339C296.199 79.3781 301.354 87.5836 303.068 96.785C304.826 106.008 303.125 115.555 298.29 123.607L266.343 176.871C266.292 176.952 266.223 177.02 266.141 177.069C266.059 177.118 265.966 177.147 265.871 177.153V177.153ZM266.26 67.7666C258.603 67.7351 251.131 70.1154 244.906 74.5692C229.905 85.3025 225.577 106.418 235.054 122.636L265.875 175.354L297.276 122.959C306.934 106.848 302.832 85.6863 287.956 74.7865C281.721 70.2306 274.198 67.7722 266.473 67.7666H266.26Z" fill="#2D3E54"/>
<path d="M266.264 127.468C278.819 127.468 288.997 117.302 288.997 104.762C288.997 92.222 278.819 82.0562 266.264 82.0562C253.709 82.0562 243.531 92.222 243.531 104.762C243.531 117.302 253.709 127.468 266.264 127.468Z" fill="white"/>
<path d="M266.269 128.07H266.135C259.946 128.053 254.017 125.582 249.653 121.199C245.288 116.816 242.846 110.881 242.862 104.7C242.879 98.5185 245.353 92.5968 249.741 88.2375C254.129 83.8783 260.071 81.4386 266.26 81.4552H266.394C272.583 81.4717 278.512 83.9432 282.876 88.3258C287.24 92.7085 289.683 98.6434 289.666 104.825C289.65 111.006 287.175 116.928 282.788 121.287C278.4 125.646 272.458 128.086 266.269 128.07V128.07ZM266.269 82.6621C260.454 82.7296 254.9 85.0801 250.807 89.2055C246.713 93.3309 244.41 98.8996 244.395 104.708C244.38 110.516 246.654 116.097 250.725 120.243C254.797 124.39 260.339 126.769 266.153 126.867H266.278C272.093 126.8 277.647 124.449 281.741 120.324C285.834 116.199 288.137 110.63 288.152 104.822C288.168 99.0136 285.893 93.4329 281.822 89.2862C277.75 85.1395 272.208 82.76 266.394 82.6621H266.269Z" fill="#2D3E54"/>
<path d="M188.778 91.638L250.43 81.4365L283.141 28.0796L221.354 38.3736L188.778 91.638Z" fill="#2D3E54"/>
<path d="M230.008 96.7111L272.367 68.132L259.556 49.1348L217.201 77.7139L230.008 96.7111Z" fill="#2D3E54"/>
<path d="M183.62 125.526L196.565 125.813L191.218 98.7505L183.62 125.526Z" fill="#FFDEA4"/>
<path d="M196.418 126.409L182.843 126.109L190.63 98.6579L190.825 89.8715C190.83 89.714 190.896 89.5647 191.009 89.455C191.122 89.3454 191.274 89.2841 191.431 89.2842V89.2842C191.591 89.289 191.741 89.3562 191.852 89.4713C191.962 89.5864 192.022 89.7401 192.019 89.8992L191.797 98.8938L184.412 124.92L196.45 125.188C196.61 125.188 196.763 125.252 196.876 125.364C196.989 125.477 197.052 125.63 197.052 125.79C197.052 125.949 196.989 126.102 196.876 126.215C196.763 126.327 196.61 126.391 196.45 126.391L196.418 126.409Z" fill="#2D3E54"/>
<path d="M185.055 120.36L196.565 125.813L183.62 125.526L185.055 120.36Z" fill="#2D3E54"/>
<path d="M219.382 81.5567C219.284 81.5567 219.187 81.5326 219.1 81.4867C219.013 81.4408 218.938 81.3743 218.882 81.2931L216.28 77.4641L259.704 48.3301L262.306 52.1545C262.383 52.2869 262.406 52.4433 262.372 52.5924C262.338 52.7414 262.249 52.872 262.122 52.958C261.996 53.044 261.841 53.0791 261.69 53.0561C261.539 53.0332 261.402 52.9539 261.306 52.8343L259.38 49.9995L217.956 77.8063L219.882 80.6365C219.94 80.7268 219.973 80.831 219.977 80.9381C219.981 81.0453 219.956 81.1515 219.905 81.2459C219.854 81.3402 219.778 81.4192 219.687 81.4747C219.595 81.5302 219.49 81.5601 219.382 81.5614V81.5567Z" fill="white"/>
<path d="M444.559 183.591L421.793 144.63C420.501 140.945 420.115 137.004 420.666 133.139C421.217 129.274 422.689 125.597 424.959 122.419C427.23 119.241 430.231 116.654 433.711 114.877C437.191 113.099 441.048 112.182 444.957 112.204C448.866 112.226 452.712 113.185 456.172 115.001C459.632 116.817 462.605 119.437 464.84 122.64C467.074 125.843 468.506 129.536 469.014 133.407C469.522 137.278 469.092 141.214 467.759 144.884L444.559 183.591Z" fill="#DFEDFF"/>
<path d="M444.558 184.196C444.454 184.196 444.351 184.168 444.26 184.117C444.169 184.065 444.093 183.99 444.04 183.9L423.59 148.907C417.149 137.883 420.094 123.528 430.298 116.226C434.578 113.188 439.706 111.569 444.957 111.597C450.207 111.625 455.317 113.299 459.564 116.384C469.69 123.783 472.477 138.188 465.912 149.138L445.077 183.905C445.023 183.994 444.947 184.068 444.856 184.119C444.765 184.17 444.663 184.197 444.558 184.196V184.196ZM444.813 112.804C439.861 112.783 435.028 114.322 431.002 117.202C421.279 124.139 418.501 137.804 424.631 148.297L444.568 182.411L464.879 148.519C471.125 138.095 468.481 124.407 458.86 117.355C454.831 114.405 449.966 112.812 444.971 112.804H444.813Z" fill="#2D3E54"/>
<path d="M445.045 151.579C453.236 151.45 459.773 144.713 459.644 136.531C459.515 128.349 452.77 121.82 444.579 121.949C436.387 122.077 429.85 128.815 429.979 136.997C430.108 145.179 436.853 151.707 445.045 151.579Z" fill="white"/>
<path d="M444.822 152.144H444.725C440.676 152.064 436.821 150.399 433.99 147.507C431.159 144.615 429.579 140.728 429.59 136.683C429.601 132.638 431.202 128.76 434.049 125.883C436.895 123.007 440.759 121.362 444.808 121.304H444.896C446.924 121.309 448.931 121.714 450.802 122.494C452.673 123.274 454.372 124.414 455.802 125.85C457.232 127.286 458.365 128.99 459.136 130.863C459.907 132.736 460.301 134.743 460.295 136.768C460.29 138.793 459.885 140.798 459.104 142.667C458.323 144.536 457.181 146.233 455.743 147.661C454.306 149.089 452.6 150.221 450.725 150.991C448.85 151.761 446.841 152.154 444.813 152.149L444.822 152.144ZM444.822 122.506C441.047 122.496 437.423 123.983 434.747 126.642C432.07 129.3 430.561 132.912 430.55 136.682C430.54 140.453 432.029 144.072 434.691 146.746C437.353 149.419 440.969 150.927 444.743 150.937H444.827C446.696 150.942 448.547 150.579 450.276 149.869C452.005 149.159 453.576 148.116 454.901 146.8C456.226 145.483 457.279 143.919 457.999 142.196C458.718 140.473 459.091 138.625 459.096 136.759C459.101 134.892 458.738 133.042 458.027 131.316C457.316 129.589 456.272 128.019 454.954 126.696C453.636 125.372 452.069 124.321 450.344 123.602C448.62 122.883 446.77 122.511 444.901 122.506H444.822Z" fill="#2D3E54"/>
<path d="M394.245 128.176L434.484 121.516L455.832 86.6943L415.506 93.4137L394.245 128.176Z" fill="#2D3E54"/>
<path d="M421.154 131.487L448.799 112.832L440.442 100.434L412.797 119.089L421.154 131.487Z" fill="#2D3E54"/>
<path d="M390.879 150.29L399.329 150.479L395.838 132.814L390.879 150.29Z" fill="#FFDEA4"/>
<path d="M399.231 151.076L390.092 150.873L395.24 132.722L395.365 127.024C395.369 126.867 395.434 126.718 395.546 126.608C395.659 126.498 395.81 126.437 395.967 126.437V126.437C396.046 126.439 396.124 126.456 396.196 126.488C396.269 126.52 396.334 126.566 396.389 126.623C396.443 126.68 396.486 126.747 396.515 126.821C396.543 126.895 396.557 126.973 396.555 127.052L396.407 132.976L391.657 149.703L399.231 149.869C399.391 149.869 399.544 149.932 399.657 150.045C399.77 150.158 399.833 150.311 399.833 150.47C399.833 150.63 399.77 150.783 399.657 150.895C399.544 151.008 399.391 151.071 399.231 151.071V151.076Z" fill="#2D3E54"/>
<path d="M391.819 146.918L399.329 150.479L390.879 150.29L391.819 146.918Z" fill="#2D3E54"/>
<path d="M414.223 121.803C414.124 121.804 414.027 121.78 413.94 121.734C413.853 121.688 413.778 121.621 413.723 121.54L411.903 118.848L440.609 99.5874L442.419 102.256C442.509 102.388 442.544 102.55 442.514 102.707C442.485 102.864 442.394 103.003 442.262 103.093C442.13 103.183 441.967 103.217 441.81 103.187C441.653 103.158 441.514 103.067 441.424 102.935L440.271 101.275L413.579 119.19L414.718 120.864C414.763 120.93 414.795 121.003 414.811 121.081C414.827 121.158 414.828 121.238 414.814 121.316C414.799 121.393 414.769 121.468 414.726 121.534C414.682 121.6 414.626 121.657 414.561 121.702C414.461 121.768 414.343 121.803 414.223 121.803Z" fill="white"/>
<path d="M371.383 109.687L345.751 65.8242C339.473 47.923 352.835 29.2124 371.827 29.3188C390.819 29.4252 403.982 48.2791 397.5 66.1294L371.383 109.687Z" fill="#DFEDFF"/>
<path d="M371.383 110.288C371.278 110.287 371.175 110.258 371.084 110.205C370.993 110.153 370.918 110.078 370.864 109.988L347.844 70.5968C340.607 58.2217 343.918 42.1055 355.368 33.9064C360.175 30.4927 365.935 28.6736 371.833 28.706C377.731 28.7384 383.47 30.6205 388.24 34.0867C399.607 42.4107 402.736 58.5639 395.366 70.8603L371.915 109.992C371.861 110.085 371.783 110.161 371.689 110.213C371.595 110.265 371.49 110.291 371.383 110.288V110.288ZM371.67 29.9201C366.078 29.8972 360.622 31.635 356.076 34.8868C345.117 42.7483 341.959 58.1431 348.881 69.991L371.387 108.503L394.319 70.2407C401.371 58.4714 398.384 43.0165 387.513 35.0579C382.962 31.7249 377.466 29.9254 371.822 29.9201H371.67Z" fill="#2D3E54"/>
<path d="M388.385 57.6233C388.76 48.4186 381.593 40.6531 372.377 40.2786C363.162 39.904 355.387 47.0623 355.012 56.267C354.637 65.4717 361.804 73.2372 371.019 73.6117C380.235 73.9863 388.01 66.828 388.385 57.6233Z" fill="white"/>
<path d="M371.674 74.2224H371.572C366.983 74.2101 362.587 72.3776 359.351 69.128C356.115 65.8784 354.304 61.4779 354.316 56.8946C354.329 52.3112 356.163 47.9204 359.417 44.6882C362.67 41.4559 367.076 39.647 371.665 39.6592H371.762C376.351 39.6715 380.747 41.504 383.983 44.7536C387.219 48.0032 389.03 52.4037 389.018 56.9871C389.006 61.5704 387.171 65.9612 383.917 69.1934C380.664 72.4257 376.258 74.2346 371.669 74.2224H371.674ZM371.674 40.8616C367.405 40.8481 363.305 42.5292 360.276 45.5351C357.247 48.541 355.538 52.6255 355.525 56.8899C355.511 61.1544 357.194 65.2496 360.204 68.2746C363.213 71.2995 367.303 73.0065 371.572 73.02H371.66C375.93 73.0317 380.029 71.3488 383.056 68.3416C386.084 65.3344 387.791 61.2492 387.802 56.9847C387.814 52.7203 386.129 48.6258 383.118 45.6022C380.108 42.5785 376.018 40.8732 371.748 40.8616H371.674Z" fill="#2D3E54"/>
<path d="M314.744 47.2988L360.039 39.8025L384.068 0.601074L338.676 8.16667L314.744 47.2988Z" fill="#2D3E54"/>
<path d="M345.034 51.026L376.156 30.0264L366.744 16.0698L335.626 37.0694L345.034 51.026Z" fill="#2D3E54"/>
<path d="M310.953 72.1922L320.468 72.4049L316.537 52.5244L310.953 72.1922Z" fill="#FFDEA4"/>
<path d="M320.356 73.0062L310.17 72.7796L315.943 52.432L316.087 46.0133C316.091 45.8559 316.155 45.706 316.268 45.5955C316.38 45.485 316.531 45.4225 316.689 45.4214C316.768 45.4232 316.846 45.4405 316.918 45.4724C316.99 45.5043 317.056 45.5501 317.11 45.6072C317.165 45.6643 317.208 45.7317 317.236 45.8053C317.265 45.8789 317.279 45.9575 317.277 46.0364L317.11 52.6864L311.739 71.6096L320.365 71.7992C320.516 71.8125 320.657 71.8818 320.759 71.9935C320.862 72.1052 320.919 72.2512 320.919 72.4027C320.919 72.5542 320.862 72.7003 320.759 72.812C320.657 72.9237 320.516 72.993 320.365 73.0062H320.356Z" fill="#2D3E54"/>
<path d="M312.009 68.3999L320.468 72.4047L310.953 72.1919L312.009 68.3999Z" fill="#2D3E54"/>
<path d="M337.228 40.0524C337.129 40.0516 337.033 40.0272 336.946 39.9813C336.859 39.9355 336.784 39.8695 336.728 39.7888L334.728 36.8384L366.896 15.2607L368.896 18.2019C368.941 18.2675 368.972 18.3412 368.988 18.4187C369.004 18.4963 369.004 18.5762 368.989 18.6539C368.974 18.7317 368.944 18.8057 368.9 18.8717C368.856 18.9378 368.8 18.9946 368.734 19.0389C368.669 19.0832 368.595 19.1142 368.517 19.1301C368.44 19.1459 368.36 19.1464 368.282 19.1313C368.204 19.1163 368.13 19.0861 368.064 19.0425C367.998 18.9989 367.941 18.9426 367.896 18.8771L366.572 16.9255L336.385 37.1668L337.709 39.1136C337.754 39.1788 337.785 39.2521 337.801 39.3293C337.817 39.4066 337.817 39.4862 337.802 39.5636C337.787 39.641 337.757 39.7147 337.713 39.7803C337.669 39.846 337.613 39.9023 337.547 39.946C337.454 40.0126 337.342 40.0496 337.228 40.0524V40.0524Z" fill="white"/>
<path d="M436.234 384.518H169.369L220.641 206.236H487.505L436.234 384.518Z" fill="white"/>
<path d="M436.239 385.119H169.37C169.277 385.119 169.185 385.098 169.101 385.056C169.017 385.015 168.945 384.954 168.889 384.88C168.833 384.805 168.794 384.719 168.778 384.627C168.761 384.536 168.765 384.441 168.791 384.352L220.063 206.07C220.099 205.945 220.175 205.834 220.28 205.756C220.384 205.678 220.511 205.635 220.642 205.635H487.506C487.597 205.637 487.685 205.66 487.766 205.702C487.846 205.744 487.916 205.803 487.969 205.876C488.026 205.95 488.065 206.036 488.082 206.128C488.098 206.219 488.093 206.314 488.066 206.403L436.818 384.68C436.782 384.806 436.706 384.917 436.602 384.996C436.497 385.075 436.37 385.118 436.239 385.119V385.119ZM170.171 383.912H435.785L486.714 206.838H221.1L170.171 383.912Z" fill="#2D3E54"/>
<path d="M427.692 384.042H177.495L220.641 234.025H470.838L427.692 384.042Z" fill="#DFEDFF"/>
<path d="M420.103 384.042H291.553L299.826 262.313L391.156 258.655L420.103 384.042Z" fill="white"/>
<path d="M420.863 384.643H290.91L299.244 261.734L391.616 258.035L391.727 258.525L420.863 384.643ZM292.197 383.44H419.349L390.685 259.274L300.402 262.895L292.197 383.44Z" fill="#2D3E54"/>
<path d="M298.202 286.253L299.36 269.18L402.255 273.476L298.202 286.253Z" fill="#2D3E54"/>
<path d="M191.87 217.543L182.708 208.382L157.618 232.564L167.897 242.839L191.87 217.543Z" fill="#FFDEA4"/>
<path d="M187.959 213.724L191.871 217.543L167.897 242.839L160.508 235.546L187.959 213.724Z" fill="#2D3E54"/>
<path d="M128.645 187.72L138.252 181.921C139.233 181.329 140.325 180.945 141.461 180.794C142.597 180.643 143.753 180.727 144.854 181.042L157.304 184.589C158.594 184.953 159.837 185.466 161.008 186.115L161.235 186.24C167.358 189.631 172.65 194.34 176.727 200.026L182.718 208.382L157.624 232.563L136.835 211.679L154.781 189.944L148.299 188.095C146.946 187.711 145.529 187.609 144.135 187.795C142.741 187.981 141.401 188.451 140.197 189.177L132.326 193.838C131.559 194.298 130.64 194.435 129.772 194.22C128.904 194.004 128.157 193.452 127.696 192.687L127.497 192.354C127.036 191.586 126.899 190.668 127.114 189.8C127.329 188.932 127.879 188.184 128.645 187.72V187.72Z" fill="#FFDEA4"/>
<path d="M191.871 218.149C191.792 218.148 191.713 218.132 191.64 218.101C191.567 218.07 191.501 218.025 191.445 217.968L182.218 208.72L176.227 200.377C172.2 194.771 166.983 190.124 160.948 186.767L160.684 186.619C159.577 186.009 158.404 185.525 157.188 185.176L144.688 181.62C143.664 181.33 142.592 181.252 141.537 181.393C140.483 181.534 139.469 181.89 138.557 182.439L128.964 188.215C128.652 188.404 128.38 188.654 128.164 188.949C127.949 189.243 127.793 189.578 127.707 189.933C127.621 190.288 127.606 190.656 127.663 191.017C127.72 191.377 127.847 191.723 128.038 192.035L128.242 192.368C128.622 192.998 129.236 193.451 129.951 193.629C130.665 193.807 131.421 193.694 132.052 193.316L140.951 187.947C141.088 187.864 141.252 187.84 141.407 187.878C141.562 187.917 141.695 188.016 141.778 188.152C141.86 188.289 141.884 188.453 141.846 188.608C141.807 188.762 141.709 188.896 141.572 188.978L132.668 194.365C132.22 194.635 131.723 194.814 131.206 194.891C130.689 194.969 130.162 194.944 129.654 194.817C129.147 194.691 128.669 194.466 128.249 194.155C127.829 193.844 127.474 193.454 127.205 193.006L127.001 192.673C126.459 191.767 126.297 190.683 126.551 189.658C126.805 188.633 127.455 187.751 128.358 187.202L137.965 181.408C139.018 180.777 140.19 180.369 141.408 180.21C142.626 180.051 143.864 180.144 145.044 180.483L157.545 184.039C158.848 184.411 160.104 184.929 161.29 185.583L161.554 185.731C167.75 189.173 173.107 193.94 177.241 199.693L183.204 208.017L192.334 217.145C192.39 217.201 192.435 217.267 192.465 217.34C192.495 217.413 192.511 217.492 192.511 217.571C192.511 217.65 192.495 217.728 192.465 217.801C192.435 217.874 192.39 217.94 192.334 217.996C192.273 218.053 192.199 218.097 192.119 218.123C192.039 218.149 191.955 218.158 191.871 218.149V218.149Z" fill="#2D3E54"/>
<path d="M183.408 250.571L140.502 196.682L146.701 193.575L192.616 242.608L183.408 250.571Z" fill="#2D3E54"/>
<path d="M72.9092 109.317L192.616 242.608L187.097 247.117L72.9092 109.317Z" fill="white"/>
<path d="M187.014 247.963L186.634 247.5L72.4463 109.692L73.3723 108.906L193.487 242.673L187.014 247.963ZM92.6837 132.259L187.181 246.298L191.746 242.566L92.6837 132.259Z" fill="#2D3E54"/>
<path d="M181.564 232.374L178.097 235.352L181.564 232.374Z" fill="white"/>
<path d="M178.097 235.953C178.009 235.954 177.922 235.936 177.843 235.9C177.763 235.864 177.691 235.811 177.634 235.745C177.53 235.623 177.479 235.466 177.491 235.306C177.503 235.147 177.578 234.999 177.699 234.894L181.171 231.916C181.294 231.812 181.453 231.762 181.613 231.775C181.693 231.782 181.77 231.804 181.841 231.84C181.911 231.877 181.974 231.927 182.026 231.988C182.077 232.048 182.116 232.119 182.14 232.194C182.164 232.27 182.173 232.35 182.167 232.429C182.16 232.508 182.138 232.585 182.101 232.656C182.065 232.727 182.015 232.79 181.954 232.841L178.504 235.81C178.391 235.906 178.246 235.957 178.097 235.953V235.953Z" fill="#2D3E54"/>
<path d="M170.846 219.745L167.374 222.723L170.846 219.745Z" fill="white"/>
<path d="M167.392 223.328C167.269 223.329 167.148 223.292 167.047 223.222C166.945 223.152 166.868 223.052 166.825 222.936C166.782 222.821 166.775 222.695 166.807 222.575C166.838 222.456 166.905 222.349 166.999 222.269L170.471 219.287C170.594 219.182 170.753 219.131 170.914 219.144C171.075 219.157 171.224 219.233 171.328 219.356C171.432 219.479 171.484 219.638 171.471 219.798C171.458 219.959 171.381 220.107 171.258 220.211L167.786 223.194C167.675 223.284 167.535 223.331 167.392 223.328Z" fill="#2D3E54"/>
<path d="M160.119 207.12L156.415 210.283L160.119 207.12Z" fill="white"/>
<path d="M156.433 210.875C156.31 210.876 156.189 210.838 156.088 210.768C155.986 210.698 155.909 210.599 155.866 210.483C155.823 210.367 155.816 210.241 155.848 210.122C155.879 210.003 155.946 209.896 156.04 209.816L159.744 206.653C159.867 206.549 160.026 206.498 160.186 206.512C160.346 206.525 160.494 206.602 160.598 206.724C160.702 206.847 160.753 207.006 160.739 207.166C160.726 207.326 160.649 207.474 160.526 207.578L156.846 210.741C156.729 210.834 156.583 210.882 156.433 210.875V210.875Z" fill="#2D3E54"/>
<path d="M167.911 243.426C167.832 243.427 167.754 243.411 167.68 243.381C167.607 243.351 167.541 243.306 167.485 243.25L139.182 214.903C139.069 214.79 139.006 214.637 139.006 214.477C139.006 214.318 139.069 214.165 139.182 214.052C139.295 213.939 139.448 213.875 139.608 213.875C139.768 213.875 139.921 213.939 140.034 214.052L168.318 242.4C168.403 242.484 168.46 242.591 168.483 242.708C168.507 242.824 168.495 242.945 168.449 243.055C168.404 243.165 168.326 243.259 168.227 243.325C168.128 243.391 168.012 243.426 167.892 243.426H167.911Z" fill="#2D3E54"/>
<path d="M131.047 210.061L141.21 215.148C141.583 215.334 141.99 215.444 142.406 215.473C142.822 215.501 143.24 215.448 143.636 215.315C144.031 215.182 144.397 214.973 144.712 214.699C145.026 214.425 145.284 214.092 145.469 213.719L145.525 213.613C145.9 212.858 145.96 211.986 145.693 211.187C145.426 210.388 144.853 209.727 144.099 209.349L133.936 204.262C133.166 203.879 132.276 203.818 131.46 204.091C130.645 204.364 129.972 204.95 129.589 205.719C129.205 206.488 129.144 207.377 129.417 208.192C129.691 209.006 130.277 209.678 131.047 210.061Z" fill="#FFDEA4"/>
<path d="M142.627 216.077C142.042 216.077 141.464 215.939 140.942 215.675L130.779 210.588C129.87 210.132 129.178 209.334 128.855 208.37C128.532 207.405 128.605 206.352 129.057 205.441C129.281 204.989 129.592 204.586 129.973 204.254C130.353 203.922 130.796 203.669 131.275 203.509C131.754 203.349 132.259 203.285 132.763 203.32C133.267 203.356 133.759 203.49 134.21 203.716L144.373 208.803C145.273 209.253 145.957 210.042 146.274 210.996C146.592 211.95 146.518 212.991 146.067 213.89L146.012 214.001C145.791 214.445 145.484 214.842 145.109 215.167C144.734 215.493 144.298 215.741 143.826 215.897C143.439 216.023 143.034 216.083 142.627 216.077ZM131.316 209.52L141.479 214.607C142.09 214.91 142.797 214.96 143.444 214.744C144.092 214.528 144.627 214.065 144.933 213.455L144.989 213.344C145.291 212.733 145.339 212.026 145.123 211.379C144.906 210.732 144.441 210.196 143.831 209.89L133.668 204.803C133.359 204.648 133.023 204.556 132.678 204.532C132.333 204.507 131.987 204.551 131.659 204.661C131.331 204.77 131.028 204.943 130.768 205.17C130.507 205.397 130.294 205.673 130.14 205.982C129.828 206.607 129.776 207.331 129.997 207.994C130.217 208.657 130.692 209.206 131.316 209.52V209.52Z" fill="#2D3E54"/>
<path d="M136.529 205.557L150.923 212.752C151.693 213.135 152.583 213.198 153.398 212.925C154.214 212.653 154.887 212.068 155.271 211.3C155.655 210.532 155.717 209.643 155.444 208.828C155.172 208.014 154.586 207.341 153.817 206.958L139.423 199.776C138.653 199.393 137.763 199.33 136.948 199.603C136.133 199.875 135.459 200.46 135.075 201.228C134.691 201.996 134.629 202.886 134.902 203.7C135.174 204.514 135.76 205.187 136.529 205.57V205.557Z" fill="#FFDEA4"/>
<path d="M152.364 213.695C151.77 213.695 151.185 213.556 150.656 213.288L136.261 206.097C135.363 205.645 134.677 204.86 134.35 203.91C134.023 202.959 134.081 201.919 134.511 201.011L134.543 200.946C134.768 200.495 135.079 200.092 135.46 199.762C135.84 199.431 136.282 199.178 136.76 199.019C137.239 198.859 137.744 198.795 138.247 198.83C138.75 198.866 139.241 199 139.692 199.226L154.086 206.417C154.998 206.871 155.692 207.668 156.016 208.633C156.341 209.598 156.269 210.651 155.818 211.564C155.596 212.017 155.285 212.422 154.904 212.753C154.523 213.085 154.08 213.338 153.6 213.497C153.202 213.63 152.784 213.697 152.364 213.695V213.695ZM135.636 201.45V201.487C135.324 202.112 135.273 202.835 135.495 203.497C135.716 204.16 136.191 204.707 136.817 205.02L151.188 212.211C151.497 212.366 151.834 212.458 152.179 212.483C152.525 212.507 152.871 212.463 153.199 212.354C153.528 212.244 153.831 212.071 154.092 211.844C154.353 211.617 154.567 211.341 154.721 211.032C155.033 210.406 155.084 209.682 154.862 209.019C154.641 208.356 154.166 207.808 153.54 207.494L139.15 200.303C138.53 199.994 137.814 199.941 137.155 200.155C136.497 200.37 135.949 200.835 135.631 201.45H135.636Z" fill="#2D3E54"/>
<path d="M137.455 182.314L148.127 187.646C150.239 188.704 152.659 188.974 154.952 188.409L155.878 188.183C158.171 187.616 160.591 187.885 162.702 188.941L166.351 190.763L160.281 202.944L133.779 189.7C132.842 189.231 132.13 188.41 131.798 187.418C131.466 186.425 131.543 185.341 132.011 184.405L132.173 184.081C132.403 183.618 132.723 183.205 133.113 182.866C133.503 182.526 133.957 182.267 134.447 182.103C134.938 181.939 135.456 181.873 135.972 181.91C136.489 181.946 136.993 182.083 137.455 182.314Z" fill="#FFDEA4"/>
<path d="M153.641 200.238C153.548 200.238 153.457 200.218 153.373 200.178L133.506 190.245C132.427 189.704 131.607 188.759 131.226 187.616C130.844 186.472 130.931 185.224 131.468 184.145L131.631 183.822C131.895 183.287 132.263 182.81 132.713 182.418C133.164 182.026 133.687 181.727 134.253 181.538C134.819 181.349 135.418 181.274 136.013 181.316C136.609 181.359 137.19 181.519 137.724 181.787L148.409 187.11C150.394 188.1 152.668 188.353 154.822 187.822L155.748 187.595C156.844 187.327 157.975 187.235 159.1 187.322C159.181 187.325 159.261 187.344 159.334 187.379C159.408 187.413 159.473 187.462 159.528 187.523C159.582 187.583 159.623 187.654 159.649 187.731C159.675 187.807 159.685 187.889 159.679 187.969C159.673 188.05 159.65 188.129 159.613 188.201C159.575 188.273 159.523 188.336 159.461 188.388C159.398 188.439 159.325 188.478 159.248 188.5C159.17 188.523 159.088 188.53 159.007 188.52C158.011 188.441 157.009 188.524 156.04 188.765L155.114 188.992C152.681 189.592 150.114 189.307 147.872 188.187L137.182 182.851C136.79 182.655 136.363 182.538 135.926 182.507C135.489 182.477 135.05 182.533 134.634 182.672C134.218 182.811 133.835 183.031 133.504 183.319C133.174 183.606 132.904 183.957 132.709 184.349L132.547 184.673C132.152 185.467 132.088 186.384 132.368 187.226C132.648 188.067 133.25 188.763 134.043 189.163L153.914 199.092C154.035 199.153 154.132 199.253 154.189 199.376C154.246 199.498 154.26 199.637 154.228 199.768C154.196 199.9 154.121 200.017 154.015 200.101C153.908 200.184 153.777 200.23 153.641 200.229V200.238Z" fill="#2D3E54"/>
<path d="M139.418 199.776L153.812 206.967C154.583 207.35 155.474 207.411 156.29 207.137C157.106 206.864 157.779 206.278 158.162 205.508C158.545 204.738 158.607 203.848 158.333 203.033C158.059 202.219 157.472 201.546 156.701 201.163L142.312 193.972C141.541 193.589 140.65 193.527 139.833 193.8C139.017 194.074 138.343 194.659 137.959 195.429C137.576 196.199 137.514 197.089 137.787 197.904C138.061 198.719 138.647 199.393 139.418 199.776V199.776Z" fill="#FFDEA4"/>
<path d="M155.253 207.897C154.66 207.897 154.075 207.759 153.545 207.495L139.15 200.299C138.238 199.844 137.543 199.047 137.22 198.081C136.897 197.115 136.971 196.061 137.425 195.15C137.88 194.238 138.679 193.545 139.646 193.222C140.613 192.899 141.669 192.973 142.581 193.427L156.975 200.623C157.428 200.849 157.831 201.162 158.162 201.544C158.494 201.927 158.746 202.37 158.906 202.85C159.065 203.33 159.129 203.836 159.092 204.34C159.056 204.844 158.92 205.336 158.693 205.788C158.374 206.426 157.883 206.963 157.275 207.339C156.668 207.715 155.968 207.914 155.253 207.915V207.897ZM140.868 194.227C140.585 194.226 140.303 194.271 140.034 194.361C139.54 194.527 139.106 194.836 138.787 195.247C138.468 195.659 138.278 196.156 138.241 196.676C138.204 197.195 138.321 197.714 138.578 198.167C138.836 198.62 139.222 198.987 139.687 199.221L154.082 206.417C154.391 206.572 154.728 206.665 155.074 206.689C155.419 206.714 155.766 206.67 156.095 206.56C156.423 206.45 156.726 206.276 156.987 206.048C157.248 205.82 157.461 205.543 157.614 205.233C157.925 204.607 157.975 203.884 157.754 203.221C157.533 202.558 157.058 202.01 156.434 201.695L142.044 194.504C141.679 194.323 141.276 194.228 140.868 194.227V194.227Z" fill="#2D3E54"/>
<path d="M273.385 289.768L233.396 252.569L292.539 200.507C295.239 197.592 298.488 195.238 302.101 193.58C305.714 191.922 309.618 190.993 313.591 190.846C317.564 190.699 321.527 191.337 325.253 192.724C328.978 194.11 332.393 196.217 335.301 198.925L353.122 215.499L273.385 289.768Z" fill="#4891FF"/>
<path d="M279.663 282.919L267.862 295.627C264.537 299.216 260.536 302.114 256.087 304.155C251.639 306.196 246.83 307.34 241.938 307.521C237.046 307.701 232.167 306.916 227.579 305.209C222.992 303.502 218.787 300.907 215.206 297.574L162.721 248.735L199.867 208.683L279.663 282.919Z" fill="#4891FF"/>
<path d="M264.894 269.781C264.741 269.78 264.594 269.722 264.482 269.619L239.304 246.191C239.242 246.139 239.191 246.074 239.154 246.002C239.117 245.929 239.096 245.849 239.091 245.768C239.086 245.687 239.098 245.605 239.125 245.528C239.153 245.452 239.196 245.381 239.251 245.322C239.307 245.262 239.374 245.214 239.449 245.182C239.523 245.149 239.604 245.131 239.686 245.13C239.767 245.13 239.848 245.145 239.923 245.177C239.999 245.208 240.067 245.254 240.124 245.313L265.306 268.736C265.422 268.845 265.489 268.996 265.495 269.155C265.5 269.315 265.442 269.47 265.334 269.587C265.278 269.648 265.21 269.697 265.134 269.731C265.059 269.764 264.977 269.781 264.894 269.781V269.781Z" fill="#2D3E54"/>
<path d="M404.407 273.476H290.877L298.688 205.598C298.685 203.661 299.065 201.742 299.805 199.952C300.545 198.161 301.631 196.533 303 195.162C304.37 193.79 305.997 192.701 307.788 191.958C309.579 191.214 311.499 190.83 313.439 190.828L385.846 190.587L404.407 273.476Z" fill="#4891FF"/>
<path d="M441.799 262.313L393.005 286.822L351.377 203.605L370.212 194.153C374.147 192.18 378.433 191.001 382.825 190.685C387.216 190.37 391.627 190.922 395.805 192.312C399.982 193.702 403.844 195.901 407.169 198.784C410.494 201.667 413.217 205.177 415.182 209.113L441.799 262.313Z" fill="#4891FF"/>
<path d="M439.905 258.655L442.998 264.833C448.663 276.157 449.603 289.262 445.611 301.277C441.618 313.291 433.02 323.235 421.7 328.928L366.988 356.392L342.533 307.526L439.905 258.655Z" fill="#4891FF"/>
<path d="M349.969 237.854H318.874V257.462H349.969V237.854Z" fill="white"/>
<path d="M349.964 258.067H318.874C318.715 258.067 318.562 258.004 318.449 257.891C318.336 257.778 318.272 257.625 318.272 257.466V237.854C318.272 237.694 318.336 237.541 318.449 237.429C318.562 237.316 318.715 237.252 318.874 237.252H349.964C350.124 237.252 350.278 237.316 350.392 237.428C350.505 237.541 350.57 237.694 350.571 237.854V257.466C350.57 257.626 350.505 257.779 350.392 257.891C350.278 258.004 350.124 258.067 349.964 258.067V258.067ZM319.476 256.865H349.349V238.455H319.476V256.865Z" fill="#2D3E54"/>
<path d="M334.459 228.614C334.414 228.619 334.369 228.619 334.325 228.614C334.211 228.589 334.108 228.532 334.026 228.45C333.944 228.368 333.887 228.265 333.862 228.152L326.606 190.356C326.592 190.278 326.592 190.198 326.608 190.121C326.624 190.043 326.655 189.97 326.7 189.904C326.744 189.839 326.801 189.783 326.867 189.739C326.934 189.696 327.008 189.666 327.086 189.651C327.163 189.636 327.243 189.637 327.321 189.653C327.399 189.669 327.472 189.7 327.538 189.744C327.603 189.789 327.66 189.845 327.703 189.912C327.747 189.978 327.777 190.052 327.792 190.13L334.792 226.593L362.225 190.31C362.271 190.244 362.33 190.187 362.399 190.144C362.468 190.102 362.544 190.073 362.624 190.06C362.704 190.048 362.786 190.052 362.865 190.071C362.943 190.091 363.017 190.126 363.082 190.175C363.146 190.224 363.2 190.286 363.24 190.356C363.281 190.426 363.306 190.504 363.316 190.584C363.325 190.664 363.318 190.746 363.295 190.823C363.273 190.901 363.234 190.973 363.183 191.036L334.94 228.401C334.881 228.471 334.807 228.526 334.724 228.563C334.641 228.6 334.55 228.617 334.459 228.614Z" fill="#2D3E54"/>
<path d="M334.38 237.863C334.301 237.862 334.223 237.846 334.151 237.815C334.078 237.785 334.012 237.74 333.956 237.684C333.901 237.627 333.857 237.561 333.827 237.487C333.798 237.414 333.783 237.336 333.783 237.257L333.862 228.008C333.864 227.85 333.929 227.699 334.041 227.587C334.154 227.476 334.305 227.413 334.464 227.412V227.412C334.543 227.412 334.621 227.428 334.694 227.459C334.767 227.49 334.833 227.535 334.888 227.591C334.944 227.647 334.987 227.714 335.017 227.787C335.047 227.86 335.062 227.938 335.061 228.017L334.982 237.266C334.982 237.345 334.967 237.423 334.936 237.496C334.906 237.568 334.862 237.634 334.806 237.69C334.75 237.745 334.683 237.789 334.61 237.819C334.537 237.849 334.459 237.863 334.38 237.863V237.863Z" fill="#2D3E54"/>
<path d="M290.882 274.077H290.803C290.724 274.067 290.648 274.042 290.579 274.003C290.511 273.964 290.45 273.911 290.402 273.848C290.354 273.785 290.319 273.713 290.298 273.637C290.278 273.56 290.273 273.48 290.284 273.402L295.072 236.675C293.094 235.612 291.527 233.921 290.62 231.869C289.712 229.818 289.516 227.522 290.061 225.346C290.607 223.17 291.864 221.238 293.632 219.856C295.401 218.474 297.581 217.72 299.827 217.714C299.986 217.714 300.139 217.778 300.252 217.89C300.365 218.003 300.429 218.156 300.429 218.316C300.429 218.475 300.365 218.628 300.252 218.741C300.139 218.853 299.986 218.917 299.827 218.917C297.817 218.923 295.869 219.609 294.3 220.863C292.731 222.118 291.634 223.867 291.189 225.824C290.743 227.781 290.975 229.832 291.847 231.64C292.719 233.449 294.179 234.909 295.989 235.782C296.102 235.837 296.196 235.927 296.255 236.038C296.315 236.149 296.339 236.277 296.322 236.402L291.474 273.555C291.456 273.699 291.386 273.832 291.277 273.928C291.168 274.024 291.027 274.077 290.882 274.077V274.077Z" fill="#2D3E54"/>
<path d="M330.626 201.205H354.22V190.587H330.626V201.205Z" fill="#2D3E54"/>
<path d="M288.414 352.901L282.312 374.834C282.031 375.842 282.162 376.921 282.676 377.833C283.189 378.744 284.044 379.416 285.053 379.699L285.478 379.815C285.977 379.954 286.499 379.993 287.013 379.931C287.527 379.868 288.024 379.705 288.475 379.45C288.925 379.195 289.321 378.854 289.64 378.446C289.958 378.038 290.193 377.571 290.331 377.073L296.438 355.157C297.118 352.697 298.175 350.357 299.572 348.221L312.48 328.539L304.461 326.301L291.553 345.982C290.158 348.114 289.099 350.448 288.414 352.901V352.901Z" fill="#FFDEA4"/>
<path d="M296.437 355.157L291.011 374.58C290.73 375.587 290.861 376.664 291.374 377.575C291.887 378.486 292.74 379.157 293.747 379.44L294.173 379.561C294.672 379.7 295.194 379.739 295.709 379.676C296.223 379.614 296.72 379.451 297.171 379.196C297.623 378.941 298.019 378.6 298.338 378.192C298.657 377.784 298.892 377.317 299.03 376.818L304.438 357.377C305.118 354.917 306.175 352.577 307.572 350.44L320.481 330.759L312.462 328.521L299.572 348.221C298.175 350.357 297.117 352.697 296.437 355.157V355.157Z" fill="#FFDEA4"/>
<path d="M304.438 357.377L301.031 369.623C300.749 370.63 300.879 371.707 301.392 372.618C301.905 373.53 302.759 374.2 303.767 374.483L304.193 374.603C304.693 374.745 305.217 374.786 305.733 374.724C306.249 374.663 306.749 374.5 307.202 374.245C307.655 373.99 308.053 373.648 308.373 373.239C308.694 372.83 308.93 372.362 309.068 371.861L312.476 359.602C312.797 358.452 313.373 357.39 314.162 356.494C314.951 355.598 315.932 354.891 317.032 354.427L322.259 352.216C325.338 350.916 328.083 348.938 330.288 346.429C332.494 343.92 334.103 340.945 334.996 337.728L335.746 335.032L320.5 330.777L307.591 350.459C306.189 352.589 305.126 354.923 304.438 357.377Z" fill="#FFDEA4"/>
<path d="M305.725 320.742C299.697 322.898 294.537 326.957 291.025 332.304L283.534 343.731C282.135 345.867 281.076 348.207 280.395 350.667L276.519 364.61C276.246 365.586 276.372 366.631 276.869 367.515C277.367 368.398 278.195 369.048 279.172 369.322L279.83 369.507C280.807 369.775 281.85 369.646 282.731 369.146C283.612 368.647 284.259 367.819 284.529 366.844L288.409 352.901C289.089 350.441 290.146 348.101 291.544 345.964L303.896 327.124L334.315 339.675L354.622 331.836L343.913 307.479L305.725 320.742Z" fill="#FFDEA4"/>
<path d="M295.252 380.315C294.838 380.315 294.425 380.257 294.026 380.144L293.6 380.028C292.439 379.7 291.455 378.927 290.863 377.876C290.271 376.826 290.12 375.585 290.442 374.423L295.854 355.001C296.553 352.488 297.637 350.098 299.068 347.916L308.79 333.118C308.879 332.985 309.017 332.892 309.173 332.859C309.33 332.826 309.494 332.856 309.628 332.942C309.695 332.985 309.752 333.041 309.797 333.106C309.841 333.171 309.873 333.245 309.888 333.322C309.904 333.4 309.905 333.48 309.89 333.557C309.874 333.635 309.844 333.709 309.8 333.774L300.077 348.573C298.719 350.644 297.691 352.914 297.03 355.301L291.618 374.747C291.38 375.6 291.49 376.512 291.924 377.285C292.358 378.057 293.08 378.626 293.933 378.867L294.359 378.988C295.212 379.224 296.123 379.113 296.895 378.68C297.666 378.247 298.234 377.526 298.475 376.675L303.883 357.253C304.581 354.74 305.665 352.35 307.096 350.168L317.087 334.935C317.177 334.807 317.314 334.719 317.467 334.69C317.621 334.661 317.78 334.693 317.911 334.779C318.041 334.865 318.133 334.998 318.167 335.151C318.201 335.304 318.174 335.463 318.092 335.596L308.096 350.792C306.733 352.87 305.701 355.146 305.036 357.539L299.623 376.985C299.358 377.94 298.787 378.782 297.998 379.383C297.209 379.985 296.245 380.312 295.252 380.315V380.315Z" fill="#2D3E54"/>
<path d="M286.544 380.564C286.129 380.564 285.717 380.508 285.317 380.398L284.891 380.278C283.733 379.946 282.754 379.171 282.166 378.121C281.578 377.071 281.429 375.832 281.752 374.673L287.854 352.739C288.554 350.226 289.637 347.837 291.067 345.654L301.054 330.421C301.143 330.288 301.281 330.195 301.438 330.163C301.595 330.131 301.758 330.162 301.892 330.25C301.959 330.293 302.016 330.349 302.06 330.414C302.105 330.48 302.136 330.553 302.152 330.631C302.168 330.708 302.168 330.788 302.153 330.866C302.138 330.943 302.108 331.017 302.063 331.083L292.077 346.316C290.714 348.393 289.681 350.669 289.016 353.063L282.896 374.996C282.657 375.849 282.767 376.762 283.201 377.534C283.635 378.306 284.358 378.875 285.211 379.117L285.636 379.237C286.058 379.355 286.5 379.389 286.935 379.337C287.37 379.285 287.79 379.147 288.172 378.932C288.554 378.718 288.89 378.43 289.16 378.085C289.431 377.741 289.63 377.347 289.748 376.925L295.85 354.991C296.55 352.478 297.633 350.089 299.063 347.906L308.786 333.108C308.875 332.975 309.012 332.882 309.169 332.849C309.326 332.816 309.489 332.846 309.624 332.932C309.691 332.975 309.748 333.031 309.792 333.097C309.837 333.162 309.868 333.235 309.884 333.313C309.9 333.39 309.9 333.47 309.885 333.548C309.87 333.625 309.839 333.699 309.795 333.765L300.073 348.563C298.717 350.639 297.691 352.912 297.031 355.301L290.928 377.235C290.663 378.19 290.092 379.032 289.303 379.633C288.514 380.234 287.55 380.561 286.558 380.564H286.544Z" fill="#2D3E54"/>
<path d="M305.277 375.352C304.862 375.352 304.449 375.295 304.05 375.181L303.624 375.061C302.463 374.734 301.479 373.961 300.888 372.912C300.296 371.862 300.144 370.622 300.466 369.461L303.874 357.215C304.573 354.702 305.657 352.313 307.087 350.131L317.078 334.898C317.168 334.77 317.305 334.682 317.459 334.653C317.612 334.624 317.771 334.655 317.902 334.741C318.033 334.827 318.125 334.961 318.158 335.114C318.192 335.266 318.165 335.426 318.083 335.559L308.096 350.792C306.734 352.87 305.701 355.146 305.036 357.539L301.628 369.78C301.39 370.633 301.5 371.546 301.934 372.319C302.368 373.092 303.09 373.662 303.943 373.905L304.369 374.02C304.791 374.139 305.232 374.173 305.668 374.12C306.103 374.068 306.523 373.931 306.905 373.716C307.287 373.501 307.623 373.213 307.893 372.869C308.163 372.524 308.363 372.13 308.481 371.708L311.893 359.449C312.237 358.214 312.856 357.074 313.704 356.113C314.553 355.151 315.608 354.395 316.791 353.899L322.023 351.689C324.701 350.551 327.121 348.887 329.141 346.795C331.161 344.703 332.738 342.227 333.779 339.513L333.88 339.254L354.178 332.169L342.825 308.034L305.934 321.306C300.031 323.432 294.977 327.413 291.531 332.65L284.039 344.059C282.675 346.137 281.643 348.415 280.979 350.81L277.122 364.767C276.895 365.59 277.003 366.469 277.422 367.213C277.841 367.957 278.537 368.505 279.358 368.739L280.016 368.924C280.424 369.037 280.85 369.069 281.269 369.018C281.689 368.966 282.095 368.832 282.463 368.624C282.831 368.416 283.155 368.137 283.415 367.803C283.675 367.47 283.867 367.089 283.979 366.681L287.859 352.739C288.558 350.226 289.642 347.836 291.072 345.654L299.063 333.469C299.107 333.402 299.162 333.345 299.228 333.301C299.293 333.256 299.366 333.225 299.444 333.208C299.521 333.192 299.601 333.191 299.679 333.206C299.756 333.22 299.831 333.25 299.897 333.293C299.963 333.336 300.02 333.392 300.065 333.457C300.11 333.522 300.141 333.595 300.157 333.673C300.174 333.75 300.175 333.83 300.16 333.907C300.146 333.985 300.116 334.059 300.073 334.125L292.081 346.315C290.719 348.393 289.686 350.669 289.021 353.062L285.141 367.005C284.827 368.135 284.076 369.093 283.054 369.67C282.032 370.247 280.823 370.394 279.692 370.08L279.034 369.9C277.904 369.581 276.946 368.828 276.37 367.805C275.794 366.783 275.647 365.574 275.96 364.443L279.84 350.501C280.538 347.987 281.622 345.598 283.053 343.416L290.544 331.989C294.137 326.534 299.401 322.389 305.55 320.173L343.474 306.531L355.831 332.835L334.811 340.179C333.693 342.986 332.028 345.544 329.914 347.705C327.801 349.867 325.279 351.588 322.495 352.771L317.264 354.977C316.243 355.406 315.334 356.062 314.606 356.894C313.878 357.727 313.349 358.714 313.06 359.782L309.647 372.037C309.383 372.992 308.812 373.836 308.023 374.438C307.234 375.04 306.27 375.367 305.277 375.371V375.352Z" fill="#2D3E54"/>
<path d="M334.384 340.202C334.331 340.209 334.276 340.209 334.222 340.202C334.146 340.181 334.075 340.145 334.012 340.097C333.949 340.048 333.897 339.988 333.858 339.919C333.819 339.851 333.794 339.775 333.784 339.696C333.774 339.618 333.78 339.538 333.801 339.462L336.047 331.392C336.068 331.316 336.104 331.245 336.153 331.183C336.202 331.12 336.262 331.068 336.331 331.029C336.4 330.99 336.476 330.966 336.555 330.956C336.634 330.947 336.713 330.953 336.79 330.974C336.866 330.995 336.937 331.031 337 331.08C337.062 331.129 337.114 331.189 337.153 331.258C337.192 331.327 337.217 331.403 337.226 331.482C337.236 331.56 337.23 331.64 337.209 331.716L334.963 339.786C334.923 339.907 334.845 340.013 334.741 340.088C334.637 340.163 334.512 340.202 334.384 340.202V340.202Z" fill="#2D3E54"/>
<path d="M342.14 307.715L345.857 335.564L355.465 332.761L343.769 307.008L342.14 307.715Z" fill="#2D3E54"/>
<path d="M441.799 262.914C441.686 262.914 441.576 262.884 441.48 262.825C441.384 262.766 441.307 262.681 441.257 262.581L414.63 209.372C411.956 203.999 407.856 199.462 402.778 196.256C397.7 193.05 391.839 191.297 385.832 191.189L362.705 191.249C362.546 191.249 362.393 191.185 362.28 191.073C362.167 190.96 362.104 190.807 362.104 190.648C362.102 190.569 362.117 190.49 362.146 190.417C362.176 190.344 362.22 190.277 362.275 190.221C362.331 190.165 362.397 190.121 362.47 190.091C362.544 190.061 362.622 190.046 362.701 190.046L385.851 189.986C392.079 190.096 398.159 191.912 403.425 195.236C408.692 198.56 412.944 203.264 415.718 208.836L442.34 262.045C442.411 262.188 442.423 262.353 442.373 262.504C442.322 262.656 442.214 262.781 442.072 262.854C441.987 262.894 441.893 262.915 441.799 262.914V262.914Z" fill="#2D3E54"/>
<path d="M391.156 283.719C391.045 283.719 390.935 283.688 390.841 283.629C390.746 283.57 390.669 283.486 390.619 283.386L373.072 248.333C373.037 248.262 373.016 248.185 373.01 248.106C373.005 248.028 373.015 247.948 373.04 247.873C373.065 247.798 373.105 247.729 373.157 247.67C373.209 247.61 373.272 247.561 373.343 247.526C373.414 247.491 373.491 247.47 373.57 247.464C373.649 247.459 373.728 247.469 373.803 247.494C373.878 247.519 373.947 247.559 374.007 247.611C374.067 247.663 374.115 247.726 374.151 247.797L391.698 282.864C391.734 282.934 391.755 283.011 391.76 283.09C391.766 283.169 391.755 283.248 391.73 283.323C391.705 283.398 391.665 283.467 391.612 283.526C391.56 283.586 391.496 283.634 391.425 283.668C391.341 283.708 391.249 283.725 391.156 283.719V283.719Z" fill="#2D3E54"/>
<path d="M366.989 357.007C366.923 357.007 366.858 356.998 366.794 356.98C366.644 356.926 366.52 356.817 366.447 356.674L341.996 307.789C341.926 307.647 341.914 307.482 341.964 307.332C342.015 307.181 342.123 307.056 342.265 306.985L404.088 275.955C404.159 275.919 404.236 275.898 404.316 275.892C404.395 275.886 404.474 275.896 404.549 275.921C404.624 275.946 404.694 275.985 404.754 276.037C404.814 276.089 404.863 276.152 404.899 276.223C404.934 276.294 404.956 276.371 404.961 276.45C404.967 276.529 404.957 276.608 404.932 276.683C404.907 276.758 404.868 276.828 404.816 276.888C404.764 276.947 404.701 276.997 404.63 277.032L343.33 307.789L367.244 355.583L421.414 328.396C444.642 316.738 454.069 288.334 442.429 265.073L439.35 258.923C439.315 258.852 439.294 258.775 439.288 258.696C439.283 258.617 439.293 258.538 439.318 258.463C439.343 258.388 439.383 258.319 439.435 258.259C439.487 258.2 439.55 258.151 439.621 258.116C439.692 258.081 439.769 258.06 439.848 258.054C439.927 258.049 440.006 258.059 440.081 258.084C440.156 258.109 440.225 258.149 440.285 258.201C440.345 258.252 440.394 258.316 440.429 258.386L443.522 264.518C455.453 288.371 445.786 317.505 421.969 329.455L367.257 356.929C367.176 356.978 367.084 357.005 366.989 357.007V357.007Z" fill="#2D3E54"/>
<path d="M321.421 185.829H369.081L367.271 181.061C366.894 180.069 366.315 179.167 365.571 178.411C364.827 177.654 363.933 177.061 362.947 176.668C361.578 176.117 360.397 175.183 359.546 173.979C358.694 172.775 358.208 171.352 358.146 169.879V169.606C358.077 168.015 357.514 166.484 356.534 165.228C355.554 163.971 354.206 163.051 352.678 162.596L347.645 159.081L331.815 166.323L329.537 168.381C328.614 169.217 327.954 170.302 327.636 171.505C327.318 172.709 327.356 173.978 327.745 175.16C328.143 176.366 328.174 177.663 327.836 178.886C327.497 180.11 326.804 181.206 325.842 182.037L321.421 185.829Z" fill="#2D3E54"/>
<path d="M336.732 201.205L351.071 190.587V172.765L336.732 173.727V201.205Z" fill="#FFDEA4"/>
<path d="M352.459 171.346C353.456 165.083 349.678 159.278 344.021 158.38C338.364 157.482 332.971 161.831 331.974 168.094C330.978 174.357 334.756 180.162 340.412 181.06C346.069 181.958 351.463 177.609 352.459 171.346Z" fill="#FFDEA4"/>
<path d="M341.894 181.778C341.351 181.776 340.809 181.731 340.274 181.643C334.301 180.668 330.315 174.526 331.389 167.95C331.734 165.777 332.628 163.727 333.986 161.994C334.029 161.919 334.088 161.853 334.159 161.803C334.23 161.753 334.311 161.718 334.397 161.702C334.482 161.686 334.57 161.688 334.655 161.709C334.739 161.731 334.818 161.77 334.886 161.824C334.954 161.879 335.009 161.947 335.048 162.025C335.086 162.103 335.108 162.189 335.11 162.275C335.113 162.362 335.096 162.449 335.062 162.529C335.028 162.609 334.977 162.68 334.912 162.739C333.682 164.311 332.873 166.169 332.56 168.14C331.592 174.064 335.134 179.586 340.431 180.46C341.639 180.647 342.873 180.592 344.06 180.297C345.247 180.002 346.363 179.474 347.343 178.744C347.408 178.697 347.48 178.664 347.557 178.646C347.634 178.627 347.714 178.624 347.793 178.637C347.871 178.649 347.946 178.677 348.013 178.718C348.081 178.76 348.14 178.814 348.186 178.878C348.233 178.942 348.266 179.015 348.284 179.092C348.303 179.169 348.306 179.248 348.293 179.327C348.281 179.405 348.253 179.48 348.212 179.547C348.17 179.615 348.116 179.673 348.052 179.72C346.267 181.035 344.112 181.755 341.894 181.778V181.778Z" fill="#2D3E54"/>
<path d="M336.704 175.063C337.117 175.706 337.69 176.231 338.366 176.587C339.043 176.942 339.8 177.117 340.564 177.094C341.328 177.071 342.073 176.85 342.727 176.454C343.38 176.057 343.92 175.499 344.293 174.832L336.704 175.063Z" fill="white"/>
<path d="M341.997 157.721C348.942 157.398 353.169 163.303 353.169 169.518C353.169 170.078 352.585 170.623 352.511 171.164L341.358 161.855L331.815 166.313C333.144 161.652 336.492 157.976 341.997 157.721Z" fill="#2D3E54"/>
<path d="M46.3613 384.514H427.77C427.069 391.425 423.825 397.831 418.665 402.489C413.505 407.147 406.798 409.726 399.843 409.726H74.2891C67.334 409.726 60.6266 407.147 55.4668 402.489C50.307 397.831 47.0622 391.425 46.3613 384.514V384.514Z" fill="white"/>
<path d="M399.842 410.323H74.2887C67.1811 410.34 60.3218 407.713 55.0481 402.953C49.7745 398.194 46.4646 391.643 45.7637 384.579C45.7554 384.495 45.7646 384.41 45.7907 384.33C45.8168 384.25 45.8593 384.177 45.9155 384.114C45.9717 384.052 46.0403 384.001 46.117 383.967C46.1937 383.932 46.2768 383.913 46.361 383.913H427.77C427.854 383.913 427.937 383.932 428.014 383.967C428.091 384.001 428.159 384.052 428.215 384.114C428.272 384.177 428.314 384.25 428.34 384.33C428.366 384.41 428.376 384.495 428.367 384.579C427.666 391.643 424.356 398.194 419.083 402.953C413.809 407.713 406.95 410.34 399.842 410.323V410.323ZM47.0416 385.12C47.8631 391.755 51.0892 397.86 56.1103 402.281C61.1313 406.702 67.5997 409.134 74.2934 409.116H399.842C406.536 409.134 413.004 406.702 418.025 402.281C423.046 397.86 426.272 391.755 427.094 385.12H47.0416Z" fill="#2D3E54"/>
<path d="M389.106 384.518H366.942L368.313 379.371H387.731L389.106 384.518Z" fill="white"/>
<path d="M389.106 385.12H366.942C366.85 385.119 366.759 385.098 366.677 385.057C366.594 385.016 366.522 384.956 366.466 384.883C366.41 384.81 366.372 384.724 366.354 384.634C366.336 384.543 366.34 384.45 366.364 384.361L367.753 379.219C367.783 379.088 367.857 378.971 367.962 378.887C368.067 378.803 368.197 378.757 368.331 378.756H387.731C387.866 378.758 387.996 378.804 388.102 378.888C388.208 378.971 388.282 379.088 388.314 379.219L389.703 384.361C389.726 384.45 389.729 384.544 389.711 384.634C389.692 384.725 389.653 384.81 389.597 384.883C389.541 384.956 389.469 385.015 389.386 385.056C389.303 385.097 389.212 385.119 389.12 385.12H389.106ZM367.725 383.913H388.323L387.268 379.973H368.794L367.725 383.913Z" fill="#2D3E54"/>
<path d="M366.035 384.518H343.867L345.242 379.371H364.66L366.035 384.518Z" fill="white"/>
<path d="M366.016 385.12H343.867C343.777 385.117 343.689 385.094 343.609 385.054C343.529 385.013 343.459 384.955 343.404 384.884C343.347 384.811 343.308 384.725 343.29 384.635C343.272 384.544 343.276 384.45 343.302 384.361L344.691 379.219C344.723 379.088 344.797 378.971 344.903 378.888C345.009 378.804 345.139 378.758 345.274 378.756H364.692C364.827 378.757 364.957 378.803 365.062 378.887C365.167 378.971 365.241 379.088 365.271 379.219L366.66 384.361C366.684 384.45 366.687 384.543 366.67 384.634C366.652 384.724 366.614 384.81 366.558 384.883C366.502 384.956 366.43 385.016 366.347 385.057C366.264 385.098 366.173 385.119 366.081 385.12H366.016ZM344.635 383.913H365.229L364.178 379.973H345.705L344.635 383.913Z" fill="#2D3E54"/>
<path d="M342.959 384.518H320.796L322.171 379.371H341.589L342.959 384.518Z" fill="white"/>
<path d="M342.96 385.119H320.796C320.704 385.119 320.613 385.097 320.53 385.056C320.447 385.015 320.375 384.956 320.319 384.883C320.263 384.809 320.224 384.724 320.205 384.634C320.187 384.544 320.19 384.45 320.213 384.361L321.569 379.205C321.601 379.074 321.676 378.957 321.782 378.873C321.887 378.79 322.018 378.744 322.153 378.742H341.571C341.705 378.744 341.835 378.79 341.94 378.874C342.045 378.958 342.119 379.074 342.15 379.205L343.539 384.347C343.561 384.436 343.564 384.529 343.547 384.62C343.529 384.71 343.491 384.796 343.437 384.87C343.382 384.945 343.31 385.006 343.227 385.05C343.145 385.093 343.053 385.117 342.96 385.119V385.119ZM321.569 383.912H342.168L341.117 379.972H322.634L321.569 383.912Z" fill="#2D3E54"/>
<path d="M319.888 384.518H297.725L299.1 379.371H318.513L319.888 384.518Z" fill="white"/>
<path d="M319.888 385.12H297.725C297.635 385.118 297.546 385.096 297.466 385.055C297.386 385.014 297.316 384.956 297.262 384.884C297.205 384.811 297.166 384.725 297.148 384.635C297.129 384.544 297.132 384.451 297.155 384.361L298.544 379.219C298.576 379.088 298.651 378.971 298.757 378.888C298.862 378.804 298.993 378.758 299.128 378.756H318.513C318.648 378.758 318.779 378.804 318.884 378.888C318.99 378.971 319.065 379.088 319.097 379.219L320.486 384.361C320.509 384.451 320.511 384.544 320.493 384.635C320.475 384.725 320.436 384.811 320.379 384.884C320.322 384.959 320.248 385.02 320.162 385.061C320.077 385.102 319.983 385.122 319.888 385.12ZM298.507 383.913H319.106L318.05 379.973H299.563L298.507 383.913Z" fill="#2D3E54"/>
<path d="M296.818 384.518H274.649L276.025 379.371H295.442L296.818 384.518Z" fill="white"/>
<path d="M296.818 385.12H274.649C274.557 385.119 274.466 385.098 274.384 385.057C274.301 385.016 274.229 384.956 274.173 384.883C274.117 384.81 274.079 384.724 274.061 384.634C274.043 384.543 274.047 384.45 274.071 384.361L275.46 379.219C275.49 379.088 275.564 378.971 275.669 378.887C275.774 378.803 275.904 378.757 276.038 378.756H295.456C295.591 378.758 295.722 378.804 295.828 378.888C295.933 378.971 296.008 379.088 296.04 379.219L297.429 384.361C297.452 384.45 297.455 384.544 297.436 384.634C297.418 384.725 297.379 384.81 297.323 384.883C297.266 384.956 297.194 385.015 297.111 385.056C297.029 385.097 296.938 385.119 296.845 385.12H296.818ZM275.437 383.913H296.031L294.98 379.973H276.488L275.437 383.913Z" fill="#2D3E54"/>
<path d="M273.746 384.518H251.578L252.953 379.371H272.371L273.746 384.518Z" fill="white"/>
<path d="M273.747 385.12H251.579C251.489 385.117 251.401 385.094 251.321 385.054C251.241 385.013 251.171 384.955 251.116 384.884C251.059 384.811 251.02 384.725 251.002 384.635C250.984 384.544 250.988 384.45 251.014 384.361L252.403 379.219C252.435 379.088 252.509 378.971 252.615 378.888C252.721 378.804 252.851 378.758 252.986 378.756H272.404C272.539 378.757 272.669 378.803 272.774 378.887C272.879 378.971 272.953 379.088 272.983 379.219L274.372 384.361C274.396 384.45 274.399 384.543 274.382 384.634C274.364 384.724 274.326 384.81 274.27 384.883C274.214 384.956 274.142 385.016 274.059 385.057C273.976 385.098 273.885 385.119 273.793 385.12H273.747ZM252.366 383.913H272.955L271.904 379.973H253.417L252.366 383.913Z" fill="#2D3E54"/>
<path d="M250.671 384.518H228.508L229.883 379.371H249.296L250.671 384.518Z" fill="white"/>
<path d="M250.671 385.12H228.507C228.415 385.119 228.324 385.097 228.241 385.056C228.158 385.015 228.086 384.956 228.03 384.883C227.974 384.81 227.935 384.725 227.916 384.634C227.898 384.544 227.901 384.45 227.924 384.361L229.313 379.219C229.345 379.088 229.419 378.971 229.525 378.888C229.631 378.804 229.761 378.758 229.896 378.756H249.296C249.431 378.758 249.561 378.804 249.667 378.888C249.772 378.971 249.847 379.088 249.879 379.219L251.268 384.361C251.291 384.451 251.294 384.544 251.275 384.635C251.257 384.725 251.218 384.811 251.161 384.884C251.105 384.959 251.03 385.02 250.945 385.061C250.859 385.102 250.765 385.122 250.671 385.12ZM229.29 383.913H249.888L248.833 379.973H230.359L229.29 383.913Z" fill="#2D3E54"/>
<path d="M227.6 384.518H205.437L206.807 379.371H226.225L227.6 384.518Z" fill="white"/>
<path d="M227.581 385.12H205.436C205.344 385.12 205.252 385.099 205.169 385.058C205.086 385.017 205.013 384.958 204.957 384.885C204.9 384.811 204.861 384.726 204.843 384.635C204.825 384.544 204.829 384.451 204.853 384.361L206.242 379.219C206.272 379.088 206.346 378.971 206.451 378.887C206.556 378.803 206.686 378.757 206.821 378.756H226.239C226.374 378.758 226.504 378.804 226.61 378.888C226.715 378.971 226.79 379.088 226.822 379.219L228.211 384.361C228.234 384.45 228.237 384.544 228.218 384.634C228.2 384.725 228.161 384.81 228.105 384.883C228.049 384.956 227.976 385.015 227.894 385.056C227.811 385.097 227.72 385.119 227.628 385.12H227.581ZM206.2 383.913H226.799L225.743 379.973H207.27L206.2 383.913Z" fill="#2D3E54"/>
<path d="M204.529 384.518H182.361L183.736 379.371H203.154L204.529 384.518Z" fill="white"/>
<path d="M204.529 385.119H182.361C182.271 385.117 182.183 385.094 182.103 385.053C182.023 385.013 181.953 384.955 181.898 384.883C181.841 384.811 181.802 384.725 181.784 384.634C181.767 384.544 181.771 384.45 181.796 384.361L183.134 379.205C183.166 379.074 183.241 378.957 183.346 378.873C183.452 378.79 183.583 378.744 183.717 378.742H203.135C203.27 378.744 203.401 378.79 203.506 378.873C203.612 378.957 203.687 379.074 203.719 379.205L205.108 384.347C205.133 384.436 205.137 384.53 205.119 384.62C205.102 384.711 205.063 384.797 205.006 384.87C204.951 384.945 204.879 385.007 204.797 385.05C204.714 385.094 204.622 385.117 204.529 385.119V385.119ZM183.134 383.912H203.728L202.677 379.972H184.199L183.134 383.912Z" fill="#2D3E54"/>
<path d="M181.458 384.518H159.29L160.665 379.371H180.083L181.458 384.518Z" fill="white"/>
<path d="M181.454 385.12H159.29C159.198 385.119 159.107 385.097 159.024 385.056C158.942 385.015 158.869 384.956 158.813 384.883C158.757 384.81 158.718 384.725 158.7 384.634C158.681 384.544 158.684 384.45 158.707 384.361L160.096 379.219C160.128 379.088 160.203 378.971 160.308 378.888C160.414 378.804 160.545 378.758 160.679 378.756H180.097C180.232 378.757 180.362 378.803 180.467 378.887C180.572 378.971 180.646 379.088 180.676 379.219L182.065 384.361C182.089 384.451 182.093 384.544 182.075 384.635C182.057 384.726 182.018 384.811 181.961 384.885C181.905 384.958 181.832 385.017 181.749 385.058C181.666 385.099 181.574 385.12 181.482 385.12H181.454ZM160.073 383.913H180.671L179.62 379.973H161.129L160.073 383.913Z" fill="#2D3E54"/>
<path d="M158.382 384.518H136.219L137.594 379.371H157.007L158.382 384.518Z" fill="white"/>
<path d="M158.382 385.12H136.219C136.129 385.118 136.04 385.096 135.96 385.055C135.88 385.014 135.81 384.956 135.756 384.884C135.699 384.811 135.661 384.725 135.642 384.635C135.624 384.544 135.626 384.451 135.649 384.361L137.038 379.219C137.07 379.088 137.145 378.971 137.251 378.888C137.356 378.804 137.487 378.758 137.622 378.756H157.035C157.17 378.758 157.301 378.804 157.406 378.888C157.512 378.971 157.587 379.088 157.619 379.219L159.007 384.361C159.031 384.451 159.033 384.544 159.015 384.635C158.996 384.725 158.957 384.811 158.901 384.884C158.841 384.963 158.763 385.027 158.672 385.068C158.581 385.109 158.482 385.127 158.382 385.12V385.12ZM137.001 383.913H157.6L156.544 379.973H138.057L137.001 383.913Z" fill="#2D3E54"/>
<path d="M135.312 384.518H113.148L114.519 379.371H133.937L135.312 384.518Z" fill="white"/>
<path d="M135.312 385.12H113.148C113.056 385.12 112.964 385.099 112.881 385.058C112.798 385.017 112.725 384.958 112.669 384.885C112.612 384.811 112.573 384.726 112.555 384.635C112.537 384.544 112.541 384.451 112.565 384.361L113.954 379.219C113.984 379.088 114.058 378.971 114.163 378.887C114.268 378.803 114.398 378.757 114.533 378.756H133.951C134.085 378.758 134.216 378.804 134.322 378.888C134.427 378.971 134.502 379.088 134.534 379.219L135.923 384.361C135.946 384.45 135.949 384.544 135.93 384.634C135.912 384.725 135.873 384.81 135.817 384.883C135.761 384.956 135.688 385.015 135.606 385.056C135.523 385.097 135.432 385.119 135.34 385.12H135.312ZM113.931 383.913H134.52L133.464 379.973H114.982L113.931 383.913Z" fill="#2D3E54"/>
<path d="M209.922 459.703H44.7451L55.8569 353.294H158.683C186.981 353.294 209.922 376.042 209.922 404.098V459.703Z" fill="#FFC14F"/>
<path d="M209.923 459.702H39.1807L58.7792 353.308H158.684C186.982 353.308 209.923 376.055 209.923 404.112V459.702Z" fill="#FFC14F"/>
<path d="M209.923 460.304H39.1803C39.0922 460.304 39.0052 460.285 38.9254 460.247C38.8455 460.21 38.7749 460.156 38.7184 460.088C38.6619 460.021 38.6209 459.942 38.5983 459.857C38.5757 459.772 38.572 459.683 38.5876 459.596L58.1861 353.183C58.2121 353.045 58.2855 352.921 58.3938 352.831C58.502 352.742 58.6382 352.693 58.7787 352.693H158.683C187.269 352.693 210.539 375.755 210.539 404.098V459.703C210.539 459.783 210.523 459.862 210.491 459.936C210.46 460.01 210.415 460.077 210.357 460.133C210.3 460.189 210.232 460.233 210.157 460.262C210.083 460.291 210.003 460.306 209.923 460.304V460.304ZM39.9072 459.101H209.321V404.098C209.321 376.416 186.602 353.895 158.683 353.895H59.2834L39.9072 459.101Z" fill="#2D3E54"/>
<path d="M177.116 413.962C176.98 413.962 176.848 413.917 176.741 413.833C176.634 413.749 176.559 413.632 176.528 413.499L171.055 387.603C171.022 387.446 171.052 387.283 171.139 387.149C171.226 387.015 171.362 386.92 171.518 386.886C171.674 386.854 171.837 386.885 171.971 386.971C172.105 387.057 172.2 387.193 172.236 387.348L177.704 413.245C177.737 413.401 177.706 413.563 177.62 413.697C177.533 413.83 177.397 413.924 177.241 413.957L177.116 413.962Z" fill="#2D3E54"/>
<path d="M177.115 499.399H78.1828C75.011 499.404 71.8939 498.574 69.1451 496.994C66.3962 495.413 64.1127 493.137 62.5244 490.395H177.115V499.399Z" fill="#2D3E54"/>
<path d="M7.24316 467.693V413.361H48.7042V447.253C48.7078 448.295 48.917 449.326 49.3197 450.287C49.7224 451.249 50.3107 452.121 51.0511 452.855C51.7915 453.589 52.6694 454.17 53.6347 454.565C54.6 454.96 55.6338 455.161 56.6769 455.157H124.867V492.203H31.9624C28.7278 492.216 25.5224 491.592 22.5293 490.367C19.5362 489.142 16.8141 487.34 14.5186 485.064C12.223 482.788 10.3989 480.082 9.15058 477.102C7.90224 474.121 7.25409 470.924 7.24316 467.693V467.693Z" fill="#FFDEA4"/>
<path d="M165.883 466.657L169.939 471C170.932 472.06 171.524 473.433 171.613 474.882C171.703 476.331 171.284 477.766 170.43 478.94L166.448 484.42L156.799 473.742H96.1797V461.164H153.216C155.592 461.162 157.942 461.649 160.122 462.594C162.301 463.539 164.262 464.922 165.883 466.657Z" fill="#FFDEA4"/>
<path d="M164.017 458.81L166.332 461.266C167.326 462.326 167.918 463.698 168.008 465.148C168.098 466.597 167.679 468.032 166.823 469.206L162.841 474.69L153.193 464.013H96.1797V455.263H105.852C109.852 455.263 116.991 451.434 126.02 451.434H146.993C150.186 451.432 153.344 452.085 156.273 453.354C159.202 454.623 161.838 456.48 164.017 458.81V458.81Z" fill="#FFDEA4"/>
<path d="M167.299 475.111L172.166 480.323C173.158 481.383 173.75 482.756 173.84 484.205C173.929 485.654 173.511 487.089 172.656 488.263L168.675 493.743L159.026 483.065H121.468V470.487H156.627C158.629 470.486 160.609 470.896 162.445 471.691C164.28 472.487 165.933 473.651 167.299 475.111V475.111Z" fill="#FFDEA4"/>
<path d="M165.541 484.272L170.634 489.706C171.546 490.679 172.091 491.939 172.176 493.269C172.26 494.6 171.879 495.918 171.097 496.999C170.583 497.698 169.92 498.275 169.155 498.687C168.39 499.099 167.544 499.335 166.676 499.379C165.809 499.424 164.942 499.275 164.139 498.943C163.337 498.611 162.618 498.105 162.036 497.461L159.286 494.414C158.635 493.687 157.839 493.106 156.949 492.708C156.058 492.309 155.094 492.103 154.119 492.101H122.533C114.292 492.101 108.486 491.639 100.541 479.514H154.66C156.704 479.516 158.725 479.94 160.598 480.759C162.47 481.578 164.153 482.774 165.541 484.272Z" fill="#FFDEA4"/>
<path d="M7.24316 443.535V403.053H48.7042V434.416C45.9262 434.3 42.1343 433.953 39.1897 433.07C34.7774 431.724 30.453 431.1 26.2259 436.853C20.6237 444.409 13.5028 445.214 7.24316 443.535Z" fill="#2D3E54"/>
<path d="M170.43 479.555C170.303 479.555 170.18 479.515 170.078 479.44C169.949 479.345 169.863 479.204 169.837 479.047C169.812 478.889 169.85 478.728 169.944 478.598C170.709 477.534 171.081 476.237 170.997 474.929C170.912 473.621 170.376 472.383 169.481 471.426L165.425 467.079C163.857 465.408 161.963 464.076 159.86 463.166C157.757 462.255 155.489 461.785 153.197 461.784H142.039C141.888 461.77 141.747 461.701 141.645 461.589C141.542 461.478 141.485 461.332 141.485 461.18C141.485 461.029 141.542 460.883 141.645 460.771C141.747 460.659 141.888 460.59 142.039 460.577H153.197C155.655 460.578 158.087 461.084 160.343 462.061C162.598 463.039 164.629 464.468 166.309 466.26L170.36 470.602C171.445 471.767 172.091 473.271 172.189 474.858C172.287 476.445 171.83 478.017 170.897 479.306C170.844 479.38 170.774 479.442 170.693 479.485C170.612 479.529 170.522 479.553 170.43 479.555V479.555Z" fill="#2D3E54"/>
<path d="M171.096 490.996C170.971 490.996 170.848 490.957 170.744 490.885C170.616 490.791 170.529 490.65 170.504 490.492C170.479 490.335 170.517 490.173 170.61 490.044L172.161 487.907C172.927 486.842 173.299 485.545 173.215 484.236C173.131 482.927 172.595 481.688 171.698 480.73L166.832 475.523C165.521 474.124 163.936 473.009 162.176 472.247C160.416 471.484 158.519 471.089 156.6 471.088H141.923C141.764 471.088 141.61 471.025 141.498 470.912C141.385 470.799 141.321 470.646 141.321 470.487C141.321 470.327 141.385 470.175 141.498 470.062C141.61 469.949 141.764 469.886 141.923 469.886H156.6C158.683 469.889 160.743 470.318 162.654 471.146C164.565 471.974 166.286 473.183 167.712 474.7L172.573 479.912C173.658 481.076 174.304 482.58 174.402 484.167C174.5 485.754 174.044 487.326 173.11 488.615L171.564 490.751C171.509 490.824 171.439 490.884 171.358 490.927C171.277 490.969 171.188 490.993 171.096 490.996V490.996Z" fill="#2D3E54"/>
<path d="M166.318 500C165.419 500.001 164.528 499.813 163.706 499.448C162.884 499.084 162.147 498.55 161.545 497.882L158.79 494.835C158.194 494.176 157.465 493.65 156.653 493.29C155.84 492.93 154.961 492.744 154.072 492.744H119.19C116.11 492.747 113.076 492 110.35 490.566C107.625 489.132 105.291 487.056 103.551 484.517C103.46 484.385 103.426 484.223 103.456 484.066C103.485 483.909 103.576 483.77 103.708 483.68C103.84 483.59 104.002 483.556 104.16 483.586C104.317 483.615 104.456 483.706 104.546 483.838C106.175 486.215 108.361 488.159 110.913 489.502C113.465 490.844 116.306 491.545 119.19 491.542H154.072C155.13 491.542 156.176 491.763 157.142 492.191C158.109 492.62 158.975 493.246 159.684 494.03L162.439 497.077C162.962 497.653 163.607 498.106 164.327 498.402C165.047 498.698 165.824 498.83 166.601 498.789C167.379 498.748 168.137 498.534 168.822 498.164C169.507 497.793 170.1 497.275 170.559 496.647C171.26 495.681 171.602 494.501 171.529 493.31C171.456 492.119 170.97 490.991 170.157 490.118L165.064 484.684C163.728 483.259 162.114 482.123 160.322 481.346C158.529 480.569 156.596 480.167 154.642 480.166H142.447C142.287 480.166 142.134 480.102 142.021 479.99C141.908 479.877 141.845 479.724 141.845 479.565C141.845 479.405 141.908 479.252 142.021 479.139C142.134 479.027 142.287 478.963 142.447 478.963H154.66C156.779 478.964 158.876 479.399 160.819 480.242C162.763 481.084 164.514 482.316 165.962 483.861L171.055 489.294C171.882 490.184 172.438 491.29 172.657 492.484C172.876 493.678 172.748 494.91 172.289 496.034C171.83 497.158 171.059 498.128 170.067 498.829C169.075 499.53 167.903 499.933 166.689 499.991L166.318 500Z" fill="#2D3E54"/>
<path d="M31.953 492.8C28.633 492.811 25.3434 492.167 22.2727 490.906C19.202 489.645 16.4106 487.792 14.0584 485.451C11.7044 483.131 9.83696 480.366 8.56504 477.317C7.29313 474.268 6.64226 470.997 6.65047 467.694V412.76H49.3292V447.254C49.3278 448.214 49.5179 449.165 49.8883 450.051C50.2587 450.937 50.8021 451.74 51.4867 452.414C52.1718 453.095 52.9844 453.634 53.8782 454C54.7719 454.367 55.7292 454.554 56.6954 454.551H104.041C107.606 454.551 110.449 453.774 113.458 452.955C117.093 451.961 121.213 450.833 127.422 450.833H146.993C150.267 450.834 153.506 451.507 156.51 452.808C159.514 454.109 162.219 456.012 164.457 458.398L166.749 460.859C167.692 461.858 168.311 463.119 168.524 464.475C168.737 465.832 168.535 467.221 167.943 468.461C167.875 468.606 167.752 468.718 167.602 468.772C167.451 468.826 167.285 468.818 167.14 468.75C166.995 468.682 166.883 468.559 166.829 468.409C166.775 468.258 166.783 468.093 166.851 467.948C167.338 466.926 167.505 465.78 167.33 464.661C167.155 463.542 166.646 462.502 165.869 461.677L163.577 459.208C161.452 456.941 158.884 455.133 156.031 453.897C153.178 452.661 150.102 452.023 146.993 452.021H127.422C121.376 452.021 117.338 453.127 113.773 454.102C110.685 454.944 107.754 455.744 104.05 455.744H56.6722C55.5485 455.748 54.4351 455.53 53.3958 455.103C52.3566 454.676 51.412 454.049 50.6163 453.256C49.8189 452.471 49.1859 451.535 48.7543 450.503C48.3227 449.47 48.101 448.363 48.1022 447.244V413.948H7.84499V467.68C7.83844 470.824 8.45947 473.939 9.67178 476.841C10.8841 479.743 12.6634 482.375 14.9056 484.582C17.1479 486.809 19.8074 488.574 22.7325 489.774C25.6575 490.975 28.7907 491.588 31.953 491.579H131.233C131.312 491.579 131.39 491.594 131.463 491.625C131.536 491.655 131.602 491.699 131.658 491.755C131.714 491.811 131.758 491.877 131.789 491.95C131.819 492.023 131.835 492.101 131.835 492.18C131.835 492.259 131.819 492.337 131.789 492.41C131.758 492.483 131.714 492.549 131.658 492.605C131.602 492.661 131.536 492.705 131.463 492.735C131.39 492.766 131.312 492.781 131.233 492.781H31.953V492.8Z" fill="#2D3E54"/>
<path d="M59.3851 353.308V421.662H0.853516V411.751C0.857199 396.249 7.02567 381.383 18.0022 370.423C28.9787 359.463 43.8644 353.306 59.3851 353.308V353.308Z" fill="#FFC14F"/>
<path d="M59.3854 422.263H0.853844C0.694213 422.263 0.541119 422.2 0.428243 422.087C0.315366 421.974 0.251953 421.821 0.251953 421.662L0.251953 411.326C0.251953 378.997 26.7768 352.693 59.3854 352.693C59.545 352.693 59.6981 352.756 59.811 352.869C59.9239 352.982 59.9873 353.135 59.9873 353.294C59.9873 353.453 59.9239 353.606 59.811 353.719C59.6981 353.832 59.545 353.895 59.3854 353.895C27.4435 353.895 1.45573 379.667 1.45573 411.326V421.038H58.7835V402.817C58.7835 402.658 58.8469 402.505 58.9598 402.392C59.0727 402.279 59.2258 402.216 59.3854 402.216C59.545 402.216 59.6981 402.279 59.811 402.392C59.9239 402.505 59.9873 402.658 59.9873 402.817V421.662C59.9873 421.741 59.9717 421.819 59.9415 421.892C59.9112 421.965 59.8669 422.031 59.811 422.087C59.7551 422.143 59.6888 422.187 59.6157 422.217C59.5427 422.248 59.4645 422.263 59.3854 422.263V422.263Z" fill="#2D3E54"/>
<path d="M304.831 499.399H143.154L182.101 392.801H343.783L304.831 499.399Z" fill="white"/>
<path d="M304.832 500H143.155C143.057 500 142.961 499.976 142.875 499.931C142.789 499.886 142.715 499.821 142.659 499.741C142.604 499.662 142.569 499.57 142.556 499.474C142.544 499.379 142.556 499.281 142.59 499.191L181.537 392.616C181.58 392.5 181.658 392.4 181.76 392.33C181.861 392.26 181.982 392.222 182.106 392.223H343.792C343.889 392.224 343.984 392.247 344.07 392.291C344.156 392.335 344.231 392.399 344.288 392.477C344.343 392.557 344.378 392.649 344.391 392.746C344.403 392.843 344.391 392.941 344.357 393.032L305.406 499.625C305.361 499.74 305.281 499.837 305.178 499.904C305.076 499.971 304.954 500.005 304.832 500V500ZM144.016 498.798H304.41L342.922 393.402H182.527L144.016 498.798Z" fill="#2D3E54"/>
<path d="M257.863 439.816C259.284 435.893 258.216 431.911 255.478 430.922C252.741 429.933 249.37 432.312 247.949 436.234C246.529 440.157 247.596 444.139 250.334 445.128C253.072 446.117 256.443 443.739 257.863 439.816Z" fill="white"/>
<path d="M252.005 447.059C251.509 447.059 251.017 446.975 250.551 446.81C249.945 446.584 249.391 446.238 248.923 445.793C248.454 445.348 248.08 444.813 247.824 444.22C246.898 442.278 246.898 439.642 247.768 437.172C249.291 432.936 253.018 430.374 256.07 431.456C256.674 431.683 257.226 432.028 257.694 432.473C258.162 432.917 258.535 433.45 258.792 434.041C259.718 435.988 259.718 438.624 258.848 441.094C257.56 444.673 254.704 447.059 252.005 447.059ZM254.579 432.386C252.393 432.386 250.014 434.472 248.902 437.561C248.12 439.734 248.125 442.028 248.902 443.688C249.094 444.136 249.374 444.541 249.724 444.879C250.075 445.217 250.49 445.482 250.944 445.658C253.375 446.518 256.408 444.271 257.704 440.668C258.486 438.495 258.482 436.201 257.704 434.541C257.513 434.093 257.235 433.688 256.885 433.35C256.535 433.012 256.121 432.747 255.667 432.571C255.317 432.448 254.949 432.385 254.579 432.386Z" fill="#2D3E54"/>
<path d="M103.439 353.294L122.742 369.845V329.191H103.439V353.294Z" fill="#FFDEA4"/>
<path d="M132.441 326.389C138.88 326.389 144.1 321.213 144.1 314.828C144.1 308.443 138.88 303.267 132.441 303.267C126.003 303.267 120.783 308.443 120.783 314.828C120.783 321.213 126.003 326.389 132.441 326.389Z" fill="#2D3E54"/>
<path d="M98.5683 331.846C105.007 331.846 110.226 326.67 110.226 320.285C110.226 313.9 105.007 308.724 98.5683 308.724C92.1297 308.724 86.9102 313.9 86.9102 320.285C86.9102 326.67 92.1297 331.846 98.5683 331.846Z" fill="#2D3E54"/>
<path d="M99.7539 316.973C106.192 316.973 111.412 311.797 111.412 305.412C111.412 299.027 106.192 293.851 99.7539 293.851C93.3152 293.851 88.0957 299.027 88.0957 305.412C88.0957 311.797 93.3152 316.973 99.7539 316.973Z" fill="#2D3E54"/>
<path d="M113.088 309.464C119.526 309.464 124.746 304.287 124.746 297.902C124.746 291.517 119.526 286.341 113.088 286.341C106.649 286.341 101.43 291.517 101.43 297.902C101.43 304.287 106.649 309.464 113.088 309.464Z" fill="#2D3E54"/>
<path d="M124.594 314.227C131.032 314.227 136.252 309.051 136.252 302.666C136.252 296.281 131.032 291.104 124.594 291.104C118.155 291.104 112.936 296.281 112.936 302.666C112.936 309.051 118.155 314.227 124.594 314.227Z" fill="#2D3E54"/>
<path d="M103.439 336.443V329.191H122.742V345.206C119.68 345.817 116.513 345.636 113.542 344.679C109.293 343.234 105.707 340.311 103.439 336.443V336.443Z" fill="#2D3E54"/>
<path d="M115.796 340.72C124.255 340.72 131.112 333.204 131.112 323.933C131.112 314.662 124.255 307.146 115.796 307.146C107.338 307.146 100.48 314.662 100.48 323.933C100.48 333.204 107.338 340.72 115.796 340.72Z" fill="#FFDEA4"/>
<path d="M115.796 341.321C110.875 341.321 107.638 340.521 103.62 336.16C103.512 336.043 103.455 335.887 103.462 335.727C103.469 335.568 103.539 335.417 103.657 335.309C103.775 335.202 103.931 335.145 104.09 335.152C104.25 335.159 104.401 335.229 104.509 335.346C108.245 339.402 111.125 340.114 115.796 340.114C123.913 340.114 130.51 332.854 130.51 323.929C130.51 315.004 123.913 307.743 115.796 307.743C110.592 307.743 105.874 310.68 103.185 315.605C103.107 315.747 102.975 315.852 102.819 315.898C102.663 315.944 102.496 315.925 102.353 315.847C102.211 315.77 102.105 315.638 102.06 315.483C102.014 315.327 102.032 315.16 102.11 315.017C104.972 309.792 110.208 306.545 115.778 306.545C124.575 306.545 131.696 314.347 131.696 323.933C131.696 333.52 124.575 341.321 115.796 341.321Z" fill="#2D3E54"/>
<path d="M115.796 307.146C107.337 307.146 100.48 314.661 100.48 323.933C100.482 324.753 100.538 325.572 100.647 326.384L114.565 313.921L130.473 319.133C128.589 312.201 122.732 307.146 115.796 307.146Z" fill="#2D3E54"/>
<path d="M111.042 330.648C111.932 332.164 113.29 333.35 114.913 334.028C116.719 334.78 118.734 334.867 120.6 334.275C122.465 333.682 124.059 332.448 125.098 330.791L111.042 330.648Z" fill="white"/>
<path d="M473.135 467.435H446.651V401.148C446.651 397.64 448.046 394.276 450.53 391.796C453.013 389.315 456.381 387.922 459.893 387.922C463.405 387.922 466.773 389.315 469.256 391.796C471.739 394.276 473.135 397.64 473.135 401.148V467.435Z" fill="#1EC15F"/>
<path d="M482.793 408.774V418.707H454.323V436.086H485.747C489.575 436.086 493.247 434.566 495.954 431.862C498.662 429.158 500.183 425.491 500.183 421.667V408.774C500.183 406.47 499.267 404.261 497.636 402.633C496.005 401.004 493.794 400.089 491.488 400.089C489.182 400.089 486.97 401.004 485.339 402.633C483.709 404.261 482.793 406.47 482.793 408.774V408.774Z" fill="#1EC15F"/>
<path d="M436.761 444.266H438.303V410.327C438.303 408.102 437.418 405.969 435.843 404.395C434.268 402.822 432.132 401.938 429.905 401.938C427.677 401.938 425.541 402.822 423.966 404.395C422.391 405.969 421.506 408.102 421.506 410.327V429.024C421.511 433.064 423.119 436.937 425.979 439.795C428.839 442.652 432.717 444.26 436.761 444.266V444.266Z" fill="#1EC15F"/>
<path d="M421.506 429.838V434.509C421.506 441.404 426.965 446.995 433.715 446.995H463.56V429.838H421.506Z" fill="#1EC15F"/>
<path d="M465.393 465.876C465.233 465.876 465.08 465.813 464.967 465.7C464.854 465.587 464.791 465.434 464.791 465.275V390.081C464.791 389.922 464.854 389.769 464.967 389.656C465.08 389.543 465.233 389.48 465.393 389.48C465.553 389.48 465.706 389.543 465.819 389.656C465.931 389.769 465.995 389.922 465.995 390.081V465.275C465.995 465.434 465.931 465.587 465.819 465.7C465.706 465.813 465.553 465.876 465.393 465.876Z" fill="#DFEDFF"/>
<path d="M473.134 436.234C472.974 436.234 472.821 436.17 472.709 436.057C472.596 435.945 472.532 435.792 472.532 435.632V419.035C472.532 418.876 472.596 418.723 472.709 418.61C472.821 418.497 472.974 418.434 473.134 418.434C473.294 418.434 473.447 418.497 473.56 418.61C473.673 418.723 473.736 418.876 473.736 419.035V435.623C473.737 435.703 473.723 435.782 473.693 435.856C473.663 435.93 473.619 435.997 473.563 436.054C473.507 436.111 473.44 436.156 473.367 436.187C473.293 436.218 473.214 436.234 473.134 436.234V436.234Z" fill="#DFEDFF"/>
<path d="M454.323 465.876C454.163 465.876 454.01 465.813 453.897 465.7C453.784 465.587 453.721 465.434 453.721 465.275V390.081C453.734 389.93 453.803 389.79 453.915 389.687C454.027 389.585 454.173 389.528 454.325 389.528C454.477 389.528 454.623 389.585 454.735 389.687C454.846 389.79 454.916 389.93 454.929 390.081V465.275C454.928 465.435 454.863 465.588 454.75 465.7C454.636 465.813 454.483 465.876 454.323 465.876V465.876Z" fill="#DFEDFF"/>
<path d="M446.35 447.101C446.19 447.101 446.037 447.038 445.924 446.925C445.811 446.812 445.748 446.659 445.748 446.5V430.536C445.748 430.377 445.811 430.224 445.924 430.111C446.037 429.998 446.19 429.935 446.35 429.935C446.51 429.935 446.663 429.998 446.776 430.111C446.888 430.224 446.952 430.377 446.952 430.536V446.509C446.949 446.667 446.885 446.817 446.772 446.928C446.66 447.039 446.508 447.101 446.35 447.101V447.101Z" fill="#DFEDFF"/>
<path d="M463.652 381.753C463.652 387.58 459.893 392.301 459.893 392.301C459.893 392.301 456.138 387.58 456.138 381.753C456.138 375.926 459.893 371.2 459.893 371.2C459.893 371.2 463.652 375.926 463.652 381.753Z" fill="#FFC14F"/>
<path d="M468.481 386.752C465.24 390.969 459.893 392.301 459.893 392.301C459.893 392.301 459.8 386.798 463.041 382.59C466.282 378.382 471.63 377.041 471.63 377.041C471.63 377.041 471.722 382.534 468.481 386.752Z" fill="#FFC14F"/>
<path d="M451.304 386.752C454.545 390.969 459.892 392.301 459.892 392.301C459.892 392.301 459.985 386.798 456.744 382.59C453.503 378.382 448.156 377.041 448.156 377.041C448.156 377.041 448.068 382.534 451.304 386.752Z" fill="#FFC14F"/>
<path d="M480.315 499.214H440.558L436.238 465.178H484.635L480.315 499.214Z" fill="#FFDEA4"/>
<path d="M480.315 499.214H440.558L436.238 465.178H484.635L480.315 499.214Z" fill="white"/>
<path d="M480.311 499.815H440.558C440.411 499.815 440.27 499.761 440.16 499.664C440.05 499.567 439.979 499.433 439.961 499.288L435.641 465.252C435.631 465.169 435.638 465.085 435.663 465.005C435.688 464.926 435.729 464.852 435.785 464.79C435.843 464.724 435.914 464.672 435.994 464.637C436.074 464.602 436.16 464.584 436.248 464.586H484.635C484.72 464.587 484.804 464.605 484.882 464.641C484.959 464.676 485.028 464.727 485.084 464.791C485.141 464.854 485.183 464.929 485.209 465.01C485.234 465.091 485.242 465.177 485.232 465.261L480.913 499.297C480.892 499.441 480.819 499.573 480.708 499.668C480.598 499.763 480.457 499.816 480.311 499.815V499.815ZM441.091 498.613H479.783L483.95 465.779H436.919L441.091 498.613Z" fill="#2D3E54"/>
</g>
<defs>
<clipPath id="clip0_233_29076">
<rect width="500" height="500" fill="white" transform="translate(0.251953)"/>
</clipPath>
</defs>
</svg>
