<svg width="177" height="177" viewBox="0 0 177 177" fill="none" xmlns="http://www.w3.org/2000/svg">
<circle cx="88.5" cy="88.5" r="88.5" fill="#4891FF"/>
<path d="M74.3748 93.2084C84.7762 93.2084 93.2082 84.7764 93.2082 74.3751C93.2082 63.9737 84.7762 55.5417 74.3748 55.5417C63.9735 55.5417 55.5415 63.9737 55.5415 74.3751C55.5415 84.7764 63.9735 93.2084 74.3748 93.2084Z" stroke="white" stroke-width="9.41667" stroke-linecap="round" stroke-linejoin="round"/>
<path d="M102.625 93.2084C105.772 93.2082 108.869 92.4195 111.632 90.9142C114.396 89.4089 116.738 87.2351 118.445 84.5914C120.152 81.9477 121.17 78.9183 121.405 75.7801C121.639 72.6419 121.084 69.4949 119.789 66.6266C118.495 63.7583 116.502 61.2602 113.993 59.3604C111.484 57.4607 108.539 56.22 105.427 55.7515C102.315 55.2831 99.1354 55.602 96.1785 56.679C93.2215 57.756 90.5816 59.5568 88.4998 61.9168M107.333 121.458C107.333 105.855 92.5773 93.2084 74.3748 93.2084C56.1724 93.2084 41.4165 105.855 41.4165 121.458H107.333Z" stroke="white" stroke-width="9.41667" stroke-linecap="round" stroke-linejoin="round"/>
<path d="M135.583 121.458C135.583 105.854 120.827 93.2079 102.625 93.2079C98.8254 93.2079 92.7234 91.8283 88.5 87.3931" stroke="white" stroke-width="9.41667" stroke-linecap="round" stroke-linejoin="round"/>
</svg>
