<svg width="177" height="177" viewBox="0 0 177 177" fill="none" xmlns="http://www.w3.org/2000/svg">
<circle cx="88.5" cy="88.5" r="88.5" fill="#FFC227"/>
<g clip-path="url(#clip0_224_31502)">
<path d="M123.114 60.8258H107.914V56.8916C107.914 53.6728 106.811 50.9606 104.605 48.7551C102.4 46.5495 99.6877 45.4468 96.4689 45.4468H81.0899C77.871 45.4468 75.1588 46.5495 72.9533 48.7551C70.7478 50.9606 69.645 53.6728 69.645 56.8916V60.8258H54.4448C51.226 60.8258 48.5138 61.8987 46.3083 64.0446C44.1028 66.1906 43 68.9325 43 72.2706V87.4708C43 89.9744 44.2518 91.2261 46.7553 91.2261V121.805C46.7553 123.832 47.5302 125.62 49.0801 127.17C50.6299 128.72 52.4181 129.495 54.4448 129.495H123.114C125.141 129.495 126.929 128.72 128.479 127.17C130.028 125.62 130.803 123.832 130.803 121.805V91.2261C133.307 91.2261 134.559 89.9744 134.559 87.4708V72.2706C134.559 68.9325 133.456 66.1906 131.25 64.0446C129.045 61.8987 126.333 60.8258 123.114 60.8258ZM77.3345 56.8916C77.3345 55.8187 77.6922 54.9245 78.4075 54.2092C79.1228 53.4939 80.0169 53.1363 81.0899 53.1363H96.4689C97.5418 53.1363 98.4359 53.4939 99.1512 54.2092C99.8666 54.9245 100.224 55.8187 100.224 56.8916V60.8258H77.3345V56.8916ZM54.4448 121.805V91.2261H77.3345V102.671C77.3345 104.817 78.0796 106.635 79.5698 108.125C81.0601 109.615 82.8781 110.36 85.024 110.36H92.5347C94.6806 110.36 96.4987 109.615 97.9889 108.125C99.4791 106.635 100.224 104.817 100.224 102.671V91.2261H123.114V121.805H54.4448ZM85.024 102.671V91.2261H92.5347V102.671H85.024ZM126.869 83.7155H50.6895V72.2706C50.6895 69.6478 51.9413 68.3365 54.4448 68.3365H123.114C125.617 68.3365 126.869 69.6478 126.869 72.2706V83.7155Z" fill="white"/>
</g>
<defs>
<clipPath id="clip0_224_31502">
<rect width="91.5587" height="88.6975" fill="white" transform="translate(43 44.5525)"/>
</clipPath>
</defs>
</svg>
