<svg width="177" height="177" viewBox="0 0 177 177" fill="none" xmlns="http://www.w3.org/2000/svg">
<circle cx="88.5" cy="88.5" r="88.5" fill="#FF006E"/>
<g clip-path="url(#clip0_224_31501)">
<path d="M139.197 77.1127C139.199 75.7253 138.834 74.362 138.138 73.1616C137.443 71.9611 136.442 70.9663 135.237 70.2782L92.1861 44.7289C90.9454 44.005 89.5347 43.6235 88.0982 43.6235C86.6618 43.6235 85.251 44.005 84.0103 44.7289L40.8957 70.2782C39.7043 70.9852 38.7174 71.99 38.0318 73.1939C37.3463 74.3977 36.9858 75.7593 36.9858 77.1446C36.9858 78.53 37.3463 79.8915 38.0318 81.0954C38.7174 82.2993 39.7043 83.3041 40.8957 84.011L53.1594 91.1649V109.113C53.1668 110.516 53.535 111.893 54.2285 113.113C54.9221 114.332 55.9177 115.352 57.1196 116.076L84.2658 131.725C85.4779 132.396 86.8405 132.748 88.226 132.748C89.6114 132.748 90.9741 132.396 92.1861 131.725L119.332 116.076C120.534 115.352 121.53 114.332 122.223 113.113C122.917 111.893 123.285 110.516 123.292 109.113V90.9732L131.213 86.3105V103.684H139.197V77.1127ZM115.372 109.049L88.0982 124.762L61.1436 109.113V95.8915L84.0103 109.497C85.2553 110.208 86.6643 110.582 88.0982 110.582C89.5321 110.582 90.9412 110.208 92.1861 109.497L115.308 95.6999L115.372 109.049ZM88.0982 102.598L44.9836 77.0488L88.0982 51.4356L131.213 76.985L88.0982 102.598Z" fill="white"/>
</g>
<defs>
<clipPath id="clip0_224_31501">
<rect width="102.198" height="102.198" fill="white" transform="translate(37 37)"/>
</clipPath>
</defs>
</svg>
