<svg width="501" height="500" viewBox="0 0 501 500" fill="none" xmlns="http://www.w3.org/2000/svg">
<g clip-path="url(#clip0_233_28818)">
<path d="M80.0962 454.572C109.7 454.572 133.699 430.523 133.699 400.856C133.699 371.189 109.7 347.139 80.0962 347.139C50.4921 347.139 26.4932 371.189 26.4932 400.856C26.4932 430.523 50.4921 454.572 80.0962 454.572Z" fill="white"/>
<path d="M80.1265 455.181C69.4118 455.175 58.9394 451.986 50.0333 446.016C41.1273 440.046 34.1875 431.564 30.0913 421.643C25.995 411.721 24.9264 400.805 27.0204 390.274C29.1143 379.744 34.2769 370.072 41.8555 362.482C49.434 354.891 59.0882 349.723 69.5975 347.63C80.1067 345.538 90.9992 346.615 100.898 350.725C110.796 354.836 119.256 361.795 125.208 370.723C131.161 379.652 134.338 390.148 134.338 400.885C134.315 415.284 128.596 429.086 118.433 439.264C108.27 449.443 94.4945 455.167 80.1265 455.181V455.181ZM80.1265 347.742C69.6499 347.748 59.4103 350.866 50.7023 356.703C41.9942 362.541 35.2087 370.834 31.2036 380.536C27.1985 390.237 26.1537 400.91 28.2012 411.207C30.2488 421.503 35.2967 430.96 42.7069 438.382C50.117 445.803 59.5567 450.857 69.8324 452.903C80.108 454.949 90.7584 453.896 100.437 449.876C110.115 445.857 118.388 439.053 124.207 430.323C130.027 421.593 133.134 411.33 133.134 400.831C133.111 386.753 127.518 373.257 117.582 363.305C107.645 353.353 94.1752 347.756 80.1265 347.742Z" fill="#2B3A4F"/>
<path d="M80.1261 404.487C65.3654 404.464 51.0914 409.776 39.9238 419.448C43.4694 427.144 49.1399 433.661 56.2649 438.229C63.3898 442.796 71.671 445.224 80.1291 445.224C88.5872 445.224 96.8685 442.796 103.993 438.229C111.118 433.661 116.789 427.144 120.334 419.448C109.164 409.776 94.8886 404.464 80.1261 404.487Z" fill="#FFDEA4"/>
<path d="M90.728 392.424C96.6008 386.539 96.6008 376.997 90.728 371.112C84.8552 365.227 75.3336 365.227 69.4608 371.112C63.588 376.997 63.588 386.539 69.4608 392.424C75.3336 398.31 84.8552 398.31 90.728 392.424Z" fill="#FFDEA4"/>
<path d="M360.188 98.1007C360.285 85.3718 364.141 72.9567 371.268 62.4203C378.396 51.884 388.477 43.6981 400.24 38.8944C412.003 34.0908 424.922 32.8845 437.369 35.4276C449.815 37.9707 461.231 44.1493 470.179 53.1846C479.126 62.2199 485.204 73.7075 487.647 86.1993C490.089 98.6911 488.787 111.628 483.904 123.379C479.02 135.13 470.775 145.169 460.207 152.232C449.639 159.294 437.221 163.063 424.518 163.063L360.188 98.1007Z" fill="white"/>
<path d="M424.518 163.666C424.358 163.666 424.205 163.602 424.092 163.489C423.979 163.376 423.916 163.223 423.916 163.063C423.916 162.903 423.979 162.749 424.092 162.636C424.205 162.523 424.358 162.459 424.518 162.459C441.313 162.296 457.365 155.495 469.184 143.535C481.003 131.576 487.633 115.424 487.633 98.5922C487.633 81.7603 481.003 65.6088 469.184 53.6491C457.365 41.6895 441.313 34.8886 424.518 34.725C389.637 34.725 361.048 63.158 360.789 98.1065C360.789 98.2665 360.726 98.42 360.613 98.5331C360.5 98.6463 360.347 98.7098 360.187 98.7098C360.027 98.7098 359.874 98.6463 359.761 98.5331C359.648 98.42 359.585 98.2665 359.585 98.1065C359.681 85.258 363.571 72.7256 370.764 62.0893C377.958 51.4529 388.132 43.1887 400.005 38.3385C411.878 33.4883 424.918 32.2692 437.482 34.8349C450.045 37.4006 461.57 43.6362 470.602 52.7557C479.634 61.8751 485.77 73.4702 488.236 86.0792C490.703 98.6882 489.389 111.747 484.46 123.608C479.531 135.47 471.209 145.604 460.541 152.733C449.874 159.861 437.34 163.666 424.518 163.666Z" fill="#2B3A4F"/>
<path d="M424.519 102.945C406.803 102.92 389.672 109.296 376.268 120.905C380.523 130.14 387.328 137.962 395.879 143.444C404.429 148.926 414.368 151.839 424.519 151.839C434.67 151.839 444.608 148.926 453.159 143.444C461.71 137.962 468.515 130.14 472.77 120.905C459.366 109.296 442.235 102.92 424.519 102.945V102.945Z" fill="#4891FF"/>
<path d="M424.518 93.7632C434.482 93.7632 442.56 85.6682 442.56 75.6826C442.56 65.697 434.482 57.6021 424.518 57.6021C414.553 57.6021 406.476 65.697 406.476 75.6826C406.476 85.6682 414.553 93.7632 424.518 93.7632Z" fill="#4891FF"/>
<path d="M304.772 64.4917L308.288 54.7124C308.858 53.1873 309.114 51.5625 309.04 49.9357C308.967 48.309 308.566 46.714 307.861 45.2467C303.839 36.5232 315.452 24.9642 317.318 14.9556C318.059 11.3781 319.179 5.74337 324.175 7.25159C325.303 7.49169 326.293 8.16433 326.933 9.12585C327.573 10.0874 327.813 11.2616 327.601 12.3976L324.759 27.6307L332.194 26.6292C339.665 25.8812 352.391 9.25451 358.887 5.8399C365.383 2.42528 365.985 8.65122 365.985 8.65122C365.985 8.65122 375.214 -2.75698 379.572 1.80992C380.394 2.64054 380.87 3.75229 380.906 4.92109C380.942 6.08988 380.534 7.2288 379.765 8.10826L335.132 58.6036L329.359 71.4174L304.772 64.4917Z" fill="#FFDEA4"/>
<path d="M340.911 36.565C340.79 36.5658 340.671 36.53 340.571 36.4622C340.47 36.3945 340.392 36.2979 340.348 36.1852C340.303 36.0725 340.293 35.9488 340.319 35.8304C340.345 35.712 340.407 35.6042 340.495 35.5213C343.382 32.7998 346.096 29.9004 348.622 26.84C349.869 25.3679 351.157 23.8235 352.77 22.0921L365.575 8.21644C365.69 8.1321 365.831 8.09143 365.973 8.10164C366.116 8.11186 366.25 8.17231 366.351 8.27224C366.453 8.37216 366.517 8.50507 366.53 8.64731C366.543 8.78955 366.506 8.93188 366.424 9.04898L353.625 22.9246C352.03 24.6561 350.748 26.1703 349.513 27.6363C346.968 30.7333 344.232 33.667 341.32 36.4202C341.206 36.5178 341.06 36.5694 340.911 36.565V36.565Z" fill="#2D3E54"/>
<path d="M322.044 41.693H321.923C321.846 41.6772 321.772 41.6462 321.707 41.6019C321.641 41.5575 321.585 41.5007 321.541 41.4345C321.498 41.3684 321.467 41.2944 321.452 41.2166C321.437 41.1388 321.438 41.0588 321.454 40.9811L324.169 27.5278C324.2 27.3678 324.293 27.2267 324.428 27.1356C324.563 27.0446 324.728 27.0109 324.888 27.0421C325.048 27.0733 325.188 27.1668 325.279 27.302C325.37 27.4372 325.404 27.6031 325.373 27.7631L322.658 41.2224C322.627 41.3606 322.548 41.4835 322.436 41.5695C322.324 41.6556 322.185 41.6993 322.044 41.693Z" fill="#2D3E54"/>
<path d="M329.677 72.1351L303.989 64.8956L307.74 54.507C308.282 53.053 308.523 51.5038 308.45 49.9535C308.376 48.4031 307.989 46.8839 307.312 45.4878C304.724 39.8712 308.276 33.1928 311.713 26.7376C313.838 22.7499 316.029 18.6294 316.74 14.8407V14.7382C317.294 12.0656 318.052 8.40365 320.442 6.97989C321.033 6.65314 321.687 6.45666 322.36 6.40359C323.032 6.35053 323.709 6.44211 324.343 6.67221C325.614 6.95786 326.724 7.72585 327.442 8.81483C328.159 9.90381 328.427 11.229 328.19 12.512L325.481 26.9246L332.103 26.0318C336.402 25.5974 342.783 19.3956 348.418 13.966C352.277 10.2316 355.925 6.7265 358.598 5.29671C360.885 4.09013 362.782 3.87898 364.226 4.69342C365.223 5.29351 365.958 6.24761 366.285 7.36599C368.164 5.21225 372.962 0.180816 376.869 -0.000170318C377.451 -0.0387842 378.034 0.0526793 378.576 0.267608C379.119 0.482537 379.607 0.815561 380.005 1.24261C380.929 2.18288 381.464 3.43844 381.504 4.75755C381.543 6.07667 381.083 7.36184 380.216 8.35539L335.667 58.9291L329.677 72.1351ZM305.561 64.0872L329.003 70.7234L334.68 58.2353L379.325 7.56508C379.989 6.79931 380.341 5.81046 380.31 4.79607C380.279 3.78169 379.867 2.81647 379.156 2.09324C378.876 1.7835 378.528 1.54247 378.14 1.38871C377.751 1.23495 377.333 1.17259 376.917 1.20641C372.6 1.39946 366.508 8.94661 366.448 9.04917L365.521 10.2075L365.376 8.72942C365.376 8.72942 365.148 6.55155 363.655 5.74918C362.583 5.14589 361.072 5.3872 359.164 6.38866C356.641 7.7159 353.059 11.215 349.26 14.8347C343.204 20.6987 336.949 26.7557 332.254 27.2263L324.012 28.3544L327.022 12.3009C327.205 11.3185 326.998 10.3035 326.446 9.47123C325.894 8.63893 325.041 8.05476 324.066 7.84259C323.582 7.64993 323.062 7.56576 322.542 7.59598C322.022 7.62621 321.515 7.77009 321.056 8.01754C319.124 9.16983 318.45 12.5301 317.92 14.9855V15.076C317.179 19.0336 314.91 23.2385 312.779 27.3047C309.323 33.7901 306.066 39.9134 308.402 44.9811C309.149 46.5221 309.575 48.1992 309.655 49.9105C309.734 51.6217 309.466 53.3313 308.866 54.9353L305.561 64.0872Z" fill="#2D3E54"/>
<path d="M283.112 178.936H10.4376L10.1787 148.59L67.7671 92.5325C79.225 81.3767 93.8458 74.0455 109.625 71.5441L159.483 63.6289L200.017 70.4461C215.675 73.094 230.144 80.4986 241.465 91.6577L304.676 153.99L283.112 178.936Z" fill="#FFC14F"/>
<path d="M10.1779 149.193C10.0576 149.194 9.93982 149.159 9.83978 149.092C9.73974 149.025 9.66203 148.929 9.61668 148.817C9.57132 148.706 9.5604 148.583 9.58532 148.465C9.61025 148.347 9.66987 148.239 9.75651 148.156L67.3449 92.0979C78.8775 80.8387 93.6156 73.4477 109.522 70.9466L137.642 66.4823C137.721 66.4696 137.801 66.4727 137.879 66.4913C137.957 66.5099 138.031 66.5437 138.096 66.5907C138.16 66.6378 138.215 66.6972 138.257 66.7655C138.299 66.8339 138.327 66.9098 138.34 66.989C138.353 67.0683 138.35 67.1492 138.331 67.2273C138.312 67.3053 138.279 67.3789 138.232 67.4439C138.185 67.5089 138.126 67.564 138.057 67.606C137.989 67.648 137.913 67.6762 137.834 67.6889L109.708 72.1532C94.0428 74.6086 79.5266 81.8843 68.1696 92.9727L10.5993 149.012C10.4882 149.126 10.3367 149.191 10.1779 149.193Z" fill="#2B3A4F"/>
<path d="M191.98 131.493L166.713 95.579L140.333 141.29L132.278 67.9483L157.755 65.1611L180.313 74.7353L191.98 131.493Z" fill="#2D3E54"/>
<path d="M190.463 116.797L166.713 95.5788L144.975 123.855L131.881 66.1987L157.755 60.938L180.993 66.1987L190.463 116.797Z" fill="white"/>
<path d="M260.464 140.349L289.427 54.0786L345.547 72.9978L316.584 159.268C314.014 166.641 308.647 172.702 301.647 176.135C294.647 179.569 286.579 180.098 279.192 177.607C271.805 175.117 265.697 169.809 262.191 162.834C258.685 155.858 258.064 147.779 260.464 140.349V140.349Z" fill="#FFC14F"/>
<path d="M260.464 140.952C260.401 140.964 260.335 140.964 260.272 140.952C260.196 140.927 260.127 140.887 260.067 140.835C260.007 140.783 259.958 140.719 259.923 140.648C259.888 140.577 259.867 140.5 259.862 140.42C259.856 140.341 259.867 140.261 259.892 140.186L267.454 117.641C267.479 117.566 267.519 117.496 267.571 117.437C267.623 117.377 267.686 117.328 267.757 117.292C267.828 117.257 267.906 117.236 267.985 117.231C268.064 117.226 268.143 117.236 268.218 117.261C268.293 117.286 268.363 117.326 268.422 117.379C268.482 117.431 268.531 117.494 268.566 117.566C268.601 117.637 268.622 117.714 268.628 117.793C268.633 117.873 268.623 117.952 268.597 118.027L261.03 140.566C260.986 140.681 260.908 140.779 260.807 140.848C260.706 140.917 260.587 140.953 260.464 140.952Z" fill="#2B3A4F"/>
<path d="M294.821 179.539H39.0024C38.8427 179.539 38.6896 179.475 38.5767 179.362C38.4638 179.249 38.4004 179.095 38.4004 178.935C38.4004 178.775 38.4638 178.622 38.5767 178.509C38.6896 178.396 38.8427 178.332 39.0024 178.332H294.821C294.981 178.332 295.134 178.396 295.247 178.509C295.359 178.622 295.423 178.775 295.423 178.935C295.423 179.095 295.359 179.249 295.247 179.362C295.134 179.475 294.981 179.539 294.821 179.539Z" fill="#2B3A4F"/>
<path d="M236.366 179.539C236.207 179.539 236.054 179.475 235.941 179.362C235.828 179.249 235.764 179.095 235.764 178.935L235.915 153.495C235.915 153.402 235.936 153.312 235.977 153.229C236.018 153.146 236.077 153.074 236.15 153.018C238.467 151.242 240.342 148.951 241.626 146.325C242.911 143.7 243.569 140.812 243.551 137.888C243.532 134.964 242.836 132.084 241.519 129.475C240.201 126.867 238.297 124.6 235.957 122.853C235.887 122.809 235.826 122.751 235.78 122.682C235.733 122.613 235.701 122.536 235.686 122.454C235.671 122.372 235.673 122.288 235.691 122.207C235.71 122.126 235.745 122.05 235.795 121.983C235.844 121.916 235.907 121.861 235.979 121.819C236.051 121.778 236.131 121.752 236.213 121.743C236.296 121.734 236.379 121.743 236.458 121.768C236.538 121.793 236.611 121.834 236.673 121.888C239.141 123.731 241.153 126.118 242.552 128.864C243.952 131.61 244.702 134.643 244.746 137.726C244.789 140.81 244.123 143.862 242.801 146.646C241.478 149.431 239.534 151.873 237.119 153.784L236.968 178.935C236.968 179.095 236.905 179.249 236.792 179.362C236.679 179.475 236.526 179.539 236.366 179.539Z" fill="#2B3A4F"/>
<path d="M87.1036 155.124C86.984 155.124 86.8669 155.089 86.7673 155.023C86.6676 154.957 86.5899 154.862 86.5441 154.752C86.4982 154.641 86.4863 154.519 86.5098 154.402C86.5333 154.284 86.5912 154.176 86.6761 154.092L103.37 137.23C103.426 137.174 103.492 137.129 103.565 137.099C103.638 137.068 103.716 137.052 103.795 137.052C103.874 137.051 103.953 137.067 104.026 137.097C104.099 137.127 104.166 137.171 104.222 137.227C104.278 137.283 104.322 137.349 104.353 137.422C104.384 137.496 104.399 137.574 104.4 137.653C104.4 137.733 104.385 137.811 104.355 137.884C104.325 137.958 104.28 138.024 104.225 138.081L87.531 154.943C87.4752 155 87.4087 155.045 87.3354 155.076C87.262 155.107 87.1832 155.123 87.1036 155.124Z" fill="#2B3A4F"/>
<path d="M172.288 124.386C174 124.386 175.388 122.995 175.388 121.279C175.388 119.563 174 118.172 172.288 118.172C170.576 118.172 169.188 119.563 169.188 121.279C169.188 122.995 170.576 124.386 172.288 124.386Z" fill="white"/>
<path d="M176.225 144.12C177.938 144.12 179.326 142.729 179.326 141.013C179.326 139.297 177.938 137.906 176.225 137.906C174.513 137.906 173.125 139.297 173.125 141.013C173.125 142.729 174.513 144.12 176.225 144.12Z" fill="white"/>
<path d="M239.382 99.8025L199.144 111.701L206.243 135.812L246.482 123.914L239.382 99.8025Z" fill="white"/>
<path d="M206.241 136.422C206.107 136.427 205.975 136.387 205.866 136.308C205.757 136.23 205.677 136.117 205.639 135.987L198.542 111.856C198.52 111.78 198.513 111.7 198.521 111.621C198.53 111.543 198.554 111.466 198.592 111.397C198.63 111.327 198.681 111.266 198.743 111.216C198.804 111.167 198.875 111.13 198.951 111.108L239.189 99.2048C239.265 99.1826 239.345 99.1756 239.423 99.1842C239.502 99.1928 239.578 99.2169 239.647 99.255C239.717 99.2931 239.778 99.3445 239.827 99.4063C239.877 99.468 239.914 99.539 239.936 99.615L247.034 123.747C247.057 123.823 247.064 123.904 247.056 123.984C247.048 124.063 247.024 124.141 246.985 124.211C246.91 124.351 246.782 124.455 246.63 124.501L206.386 136.398C206.339 136.412 206.29 136.42 206.241 136.422V136.422ZM199.89 112.115L206.651 135.04L245.733 123.481L238.979 100.556L199.89 112.115Z" fill="#2B3A4F"/>
<path d="M226.987 325.317L125.65 319.284L137.691 215.205L220.967 203.139L226.987 325.317Z" fill="#2D3E54"/>
<path d="M220.967 203.139H125.65V319.278H220.967V203.139Z" fill="#DFEDFF"/>
<path d="M177.592 209.8L188.139 232.345C188.624 233.381 188.679 234.569 188.29 235.646C187.902 236.723 187.103 237.601 186.068 238.088L185.629 238.293C185.117 238.534 184.563 238.671 183.998 238.697C183.433 238.722 182.869 238.637 182.337 238.444C181.806 238.251 181.317 237.955 180.9 237.573C180.482 237.191 180.144 236.731 179.904 236.218L169.356 213.673C168.175 211.151 166.611 208.827 164.721 206.783L147.263 187.9L155.498 184.033L172.957 202.91C174.847 204.953 176.411 207.277 177.592 209.8V209.8Z" fill="#FFDEA4"/>
<path d="M169.356 213.673L178.705 233.66C178.945 234.173 179.082 234.728 179.108 235.294C179.133 235.86 179.048 236.426 178.855 236.958C178.663 237.491 178.368 237.981 177.987 238.399C177.606 238.818 177.146 239.157 176.634 239.397L176.195 239.602C175.683 239.844 175.129 239.981 174.564 240.008C173.999 240.034 173.434 239.948 172.902 239.755C172.37 239.563 171.882 239.267 171.464 238.884C171.047 238.502 170.709 238.041 170.469 237.527L161.114 217.54C159.935 215.018 158.373 212.694 156.485 210.65L139.026 191.774L147.262 187.9L164.72 206.783C166.612 208.826 168.176 211.15 169.356 213.673V213.673Z" fill="#FFDEA4"/>
<path d="M161.115 217.54L167.003 230.125C167.488 231.161 167.542 232.349 167.153 233.426C166.765 234.503 165.966 235.381 164.932 235.868L164.498 236.073C163.463 236.557 162.279 236.611 161.205 236.222C160.131 235.833 159.254 235.033 158.767 233.998L152.873 221.407C152.322 220.223 151.51 219.18 150.499 218.356C149.487 217.531 148.303 216.947 147.034 216.647L141.014 215.217C137.465 214.375 134.153 212.74 131.324 210.434C128.494 208.129 126.222 205.212 124.675 201.903L123.381 199.134L139.033 191.773L156.491 210.65C158.378 212.694 159.937 215.018 161.115 217.54V217.54Z" fill="#FFDEA4"/>
<path d="M153.114 178.266C159.991 179.5 166.28 182.946 171.03 188.081L181.174 199.043C183.063 201.085 184.625 203.41 185.803 205.932L192.51 220.26C192.742 220.758 192.875 221.297 192.9 221.845C192.925 222.394 192.841 222.943 192.655 223.459C192.468 223.976 192.181 224.451 191.811 224.856C191.442 225.262 190.995 225.59 190.499 225.823L189.825 226.143C189.328 226.376 188.791 226.509 188.244 226.535C187.696 226.56 187.149 226.477 186.634 226.29C186.118 226.104 185.645 225.817 185.24 225.447C184.835 225.077 184.507 224.631 184.274 224.134L177.592 209.799C176.412 207.277 174.851 204.953 172.962 202.91L156.238 184.841L125.728 203.911L44.8965 189.432L82.8954 165.723L153.114 178.266Z" fill="#FFDEA4"/>
<path d="M115.163 202.337L103.797 199.9L111.822 170.888L117.661 171.931L115.163 202.337Z" fill="#2D3E54"/>
<path d="M183.811 239.3C182.877 239.302 181.961 239.037 181.172 238.536C180.383 238.035 179.753 237.318 179.356 236.471L168.809 213.926C167.656 211.461 166.128 209.19 164.282 207.193L151.164 192.986C151.068 192.867 151.02 192.716 151.031 192.564C151.041 192.411 151.109 192.269 151.221 192.165C151.333 192.06 151.479 192.003 151.632 192.003C151.785 192.003 151.931 192.061 152.043 192.165L165.191 206.373C167.122 208.46 168.718 210.835 169.922 213.413L180.47 235.958C180.884 236.853 181.636 237.547 182.561 237.886C183.486 238.225 184.507 238.183 185.4 237.768L185.84 237.563C186.282 237.358 186.679 237.067 187.009 236.708C187.339 236.349 187.595 235.929 187.763 235.47C187.93 235.012 188.006 234.525 187.986 234.038C187.966 233.55 187.85 233.071 187.646 232.628L177.05 210.059C175.898 207.586 174.369 205.309 172.517 203.308L158.99 188.709C158.881 188.591 158.824 188.435 158.83 188.275C158.836 188.115 158.906 187.964 159.023 187.855C159.14 187.746 159.296 187.689 159.456 187.695C159.615 187.701 159.766 187.771 159.875 187.888L173.396 202.5C175.327 204.591 176.925 206.967 178.134 209.546L188.681 232.091C188.954 232.676 189.11 233.309 189.139 233.955C189.168 234.6 189.07 235.245 188.85 235.852C188.631 236.46 188.294 237.018 187.859 237.494C187.424 237.971 186.899 238.357 186.315 238.631L185.882 238.836C185.234 239.143 184.527 239.302 183.811 239.3Z" fill="#2D3E54"/>
<path d="M174.376 240.616C173.443 240.616 172.528 240.35 171.739 239.849C170.95 239.348 170.32 238.633 169.922 237.786L160.572 217.787C159.419 215.321 157.892 213.047 156.045 211.049L142.524 196.437C142.428 196.318 142.38 196.167 142.391 196.015C142.402 195.863 142.47 195.72 142.581 195.616C142.693 195.511 142.84 195.454 142.992 195.454C143.145 195.454 143.292 195.512 143.403 195.617L156.924 210.228C158.857 212.317 160.456 214.694 161.662 217.275L171.029 237.274C171.444 238.169 172.196 238.862 173.121 239.201C174.045 239.541 175.066 239.498 175.96 239.084L176.393 238.878C176.836 238.674 177.235 238.384 177.566 238.024C177.897 237.665 178.154 237.243 178.321 236.784C178.489 236.325 178.565 235.837 178.544 235.349C178.523 234.86 178.406 234.38 178.199 233.937L168.808 213.926C167.655 211.461 166.128 209.19 164.281 207.194L151.163 192.986C151.067 192.867 151.019 192.717 151.03 192.564C151.041 192.412 151.109 192.269 151.22 192.165C151.332 192.061 151.479 192.003 151.631 192.003C151.784 192.003 151.93 192.061 152.042 192.166L165.19 206.373C167.122 208.459 168.719 210.835 169.922 213.414L179.277 233.401C179.829 234.583 179.89 235.937 179.447 237.164C179.003 238.392 178.091 239.393 176.911 239.946L176.477 240.151C175.82 240.459 175.102 240.618 174.376 240.616V240.616Z" fill="#2D3E54"/>
<path d="M162.674 237.092C161.74 237.094 160.826 236.829 160.038 236.328C159.249 235.827 158.621 235.11 158.225 234.263L152.331 221.666C151.82 220.567 151.067 219.597 150.128 218.83C149.19 218.064 148.091 217.519 146.913 217.238L140.893 215.808C137.684 215.043 134.658 213.646 131.992 211.699C129.326 209.752 127.072 207.294 125.361 204.467L43.2529 189.776L82.7749 165.09L153.21 177.674C160.219 178.939 166.63 182.447 171.481 187.671L181.625 198.633C183.558 200.72 185.156 203.095 186.363 205.673L193.069 220.007C193.596 221.158 193.65 222.471 193.22 223.661C192.789 224.852 191.91 225.825 190.77 226.372L190.095 226.692C188.946 227.221 187.635 227.276 186.445 226.845C185.256 226.414 184.283 225.531 183.738 224.387L177.05 210.059C175.898 207.586 174.368 205.309 172.517 203.308L161.68 191.623C161.626 191.564 161.584 191.495 161.557 191.421C161.529 191.346 161.517 191.266 161.52 191.187C161.524 191.107 161.543 191.029 161.576 190.957C161.61 190.884 161.658 190.819 161.717 190.766C161.834 190.658 161.989 190.601 162.148 190.608C162.308 190.615 162.457 190.685 162.565 190.802L173.402 202.488C175.333 204.579 176.931 206.955 178.139 209.534L184.84 223.862C185.249 224.717 185.977 225.376 186.866 225.698C187.755 226.021 188.735 225.981 189.596 225.588L190.27 225.268C191.121 224.856 191.778 224.127 192.099 223.236C192.419 222.345 192.379 221.363 191.986 220.502L185.285 206.174C184.132 203.707 182.603 201.436 180.752 199.441L170.614 188.479C165.944 183.438 159.767 180.051 153.012 178.827L83.0218 166.357L46.5459 189.137L126.084 203.363L126.222 203.604C127.843 206.35 129.998 208.74 132.56 210.634C135.122 212.528 138.038 213.885 141.134 214.626L147.154 216.056C148.512 216.374 149.78 216.997 150.862 217.878C151.945 218.759 152.813 219.875 153.403 221.141L159.297 233.738C159.501 234.181 159.791 234.579 160.149 234.91C160.508 235.241 160.927 235.497 161.385 235.665C161.842 235.833 162.328 235.91 162.814 235.889C163.301 235.869 163.779 235.753 164.221 235.548L164.66 235.343C165.102 235.138 165.5 234.847 165.83 234.488C166.16 234.129 166.416 233.709 166.584 233.25C166.751 232.792 166.827 232.305 166.807 231.817C166.787 231.33 166.671 230.851 166.466 230.408L160.573 217.787C159.42 215.32 157.893 213.047 156.046 211.048L142.524 196.437C142.428 196.318 142.381 196.167 142.392 196.015C142.402 195.862 142.47 195.72 142.582 195.615C142.693 195.511 142.84 195.453 142.993 195.453C143.145 195.454 143.292 195.512 143.403 195.616L156.925 210.228C158.858 212.317 160.456 214.694 161.662 217.274L167.55 229.853C168.101 231.034 168.162 232.386 167.72 233.612C167.277 234.838 166.367 235.838 165.19 236.393L164.751 236.598C164.104 236.916 163.394 237.085 162.674 237.092Z" fill="#2D3E54"/>
<path d="M125.65 204.412C125.535 204.413 125.422 204.38 125.325 204.318C125.228 204.256 125.151 204.167 125.102 204.062L121.225 195.773C121.161 195.629 121.156 195.465 121.211 195.317C121.265 195.169 121.376 195.048 121.519 194.981C121.662 194.914 121.825 194.906 121.974 194.958C122.123 195.01 122.245 195.119 122.315 195.261L126.192 203.55C126.26 203.695 126.267 203.86 126.213 204.011C126.159 204.161 126.047 204.284 125.903 204.352C125.825 204.392 125.738 204.413 125.65 204.412V204.412Z" fill="#2D3E54"/>
<path d="M22.7368 198.337L99.6496 219.416L115.904 162.369L39.0031 141.29C33.585 139.728 28.5642 141.013 23.4772 142.437C13.9053 145.115 5.33864 151.371 2.40685 161.681C0.256569 169.244 1.18995 177.352 5.00192 184.226C8.8139 191.099 15.1927 196.174 22.7368 198.337V198.337Z" fill="#FFC14F"/>
<path d="M99.6492 220.02H99.4927L22.5798 198.923C17.4005 197.439 12.7112 194.595 8.99731 190.685C5.28347 186.775 2.68021 181.941 1.45714 176.684C0.234063 171.427 0.435648 165.938 2.04102 160.785C3.64638 155.632 6.59716 151.003 10.5878 147.378C10.706 147.271 10.8618 147.215 11.0209 147.223C11.18 147.231 11.3295 147.302 11.4366 147.42C11.4903 147.479 11.5319 147.548 11.5589 147.623C11.5859 147.698 11.5978 147.777 11.5939 147.857C11.59 147.937 11.5703 148.015 11.5361 148.087C11.5019 148.159 11.4537 148.223 11.3944 148.276C7.56648 151.757 4.73616 156.199 3.19636 161.144C1.65656 166.088 1.46322 171.356 2.63636 176.4C3.80949 181.445 6.30648 186.083 9.86893 189.836C13.4314 193.589 17.9299 196.32 22.8989 197.746L99.2338 218.668L115.175 162.774L38.8461 141.87C38.6969 141.824 38.5713 141.722 38.4957 141.585C38.4202 141.448 38.4007 141.287 38.4413 141.136C38.4819 140.985 38.5795 140.855 38.7134 140.775C38.8473 140.695 39.0072 140.67 39.1592 140.705L116.078 161.784C116.155 161.805 116.228 161.842 116.291 161.892C116.354 161.941 116.406 162.003 116.445 162.074C116.523 162.213 116.543 162.378 116.499 162.532L100.233 219.597C100.194 219.721 100.116 219.829 100.011 219.906C99.9059 219.982 99.779 220.022 99.6492 220.02V220.02Z" fill="#2B3A4F"/>
<path d="M171.867 60.546H133.26C122.424 60.546 118.029 46.5738 126.902 40.3418L150.983 23.4497L169.778 33.5246L178.748 40.559C187.104 47.0986 182.468 60.546 171.867 60.546Z" fill="#2D3E54"/>
<path d="M148.388 65.4868L166.713 95.5789L164.666 40.752L147.937 41.0596L148.388 65.4868Z" fill="#FFDEA4"/>
<path d="M148.057 47.4183L147.937 41.0596L164.666 40.752L165.449 54.3441C163.944 54.6698 160.416 55.5506 156.943 54.4707C153.232 53.2645 150.078 50.7614 148.057 47.4183V47.4183Z" fill="#2D3E54"/>
<path d="M158.836 50.9654C166.169 50.8307 171.993 44.1376 171.845 36.0158C171.696 27.8941 165.631 21.4193 158.298 21.554C150.964 21.6887 145.14 28.3818 145.288 36.5036C145.437 44.6253 151.502 51.1001 158.836 50.9654Z" fill="#FFDEA4"/>
<path d="M158.212 51.569C154.269 51.569 151.542 50.8028 148.147 47.2193C148.09 47.1632 148.046 47.0965 148.015 47.0229C147.984 46.9494 147.969 46.8706 147.969 46.7909C147.969 46.7113 147.984 46.6324 148.015 46.5589C148.046 46.4854 148.09 46.4187 148.147 46.3626C148.26 46.2502 148.412 46.1872 148.571 46.1872C148.73 46.1872 148.883 46.2502 148.996 46.3626C152.283 49.8315 154.769 50.4046 158.802 50.3322C165.786 50.2055 171.36 43.7745 171.216 36.0041C171.183 32.3217 169.786 28.7827 167.297 26.074C166.158 24.8117 164.763 23.8074 163.206 23.1281C161.649 22.4488 159.965 22.11 158.267 22.1345C153.782 22.2129 149.766 24.8433 147.527 29.1689C147.45 29.3066 147.323 29.4089 147.173 29.4539C147.022 29.499 146.86 29.4831 146.72 29.4099C146.581 29.3366 146.476 29.2116 146.428 29.0618C146.379 28.9119 146.391 28.7489 146.461 28.6078C148.869 23.9625 153.384 21.0184 158.242 20.9279C160.115 20.903 161.972 21.278 163.689 22.0279C165.405 22.7779 166.943 23.8857 168.2 25.2776C170.897 28.1996 172.41 32.0241 172.444 36.0041C172.6 44.4502 166.496 51.4242 158.844 51.563L158.212 51.569Z" fill="#2D3E54"/>
<path d="M158.297 21.5554C150.965 21.7183 145.143 28.3545 145.288 36.5049C145.304 37.2221 145.366 37.9375 145.474 38.6466L157.334 27.5099L171.21 31.8174C169.465 25.7785 164.311 21.4408 158.297 21.5554Z" fill="#2D3E54"/>
<path d="M155.841 44.9508C156.947 45.4852 158.172 45.7236 159.397 45.6425C160.623 45.5615 161.806 45.1638 162.832 44.4883C163.859 43.8128 164.693 42.8824 165.254 41.7878C165.815 40.6932 166.083 39.4717 166.033 38.2422L155.841 44.9508Z" fill="white"/>
<path d="M266.939 338.303L312.892 391.709L233.839 460.019C227.385 465.596 218.983 468.375 210.484 467.746C201.984 467.116 194.082 463.128 188.517 456.659L163.549 427.642L266.939 338.303Z" fill="#4891FF"/>
<path d="M491.064 421.56L428.859 351.048C422.11 343.397 413.816 337.27 404.526 333.074C395.236 328.877 385.163 326.706 374.973 326.705H297.626C291.39 326.705 285.215 327.936 279.454 330.327C273.693 332.719 268.458 336.224 264.048 340.643C259.639 345.062 256.141 350.308 253.754 356.082C251.368 361.855 250.14 368.043 250.14 374.293V471.814H407.391V435.448L437.22 469.262C440.345 472.809 444.136 475.703 448.378 477.781C452.619 479.858 457.227 481.078 461.939 481.37C466.651 481.662 471.374 481.021 475.839 479.483C480.303 477.946 484.421 475.541 487.958 472.408C491.495 469.274 494.381 465.473 496.452 461.221C498.522 456.97 499.736 452.351 500.025 447.629C500.313 442.907 499.67 438.174 498.133 433.701C496.595 429.228 494.193 425.103 491.064 421.56V421.56Z" fill="#4891FF"/>
<path d="M474.021 480.646C473.886 480.651 473.754 480.611 473.644 480.531C473.535 480.451 473.456 480.337 473.419 480.206C473.377 480.052 473.397 479.888 473.474 479.749C473.552 479.61 473.682 479.508 473.835 479.464C478.903 478.02 483.58 475.448 487.519 471.941C494.53 465.715 498.792 456.956 499.367 447.586C499.943 438.216 496.786 428.999 490.589 421.958L428.407 351.446C421.713 343.862 413.487 337.79 404.276 333.63C395.064 329.47 385.076 327.317 374.973 327.314H333.621C333.461 327.314 333.308 327.251 333.195 327.138C333.082 327.025 333.019 326.871 333.019 326.711C333.019 326.551 333.082 326.398 333.195 326.285C333.308 326.171 333.461 326.108 333.621 326.108H374.973C385.245 326.112 395.398 328.302 404.763 332.532C414.127 336.763 422.488 342.939 429.292 350.65L491.516 421.162C497.923 428.443 501.187 437.973 500.591 447.663C499.995 457.352 495.588 466.409 488.337 472.846C484.266 476.472 479.43 479.13 474.19 480.622C474.136 480.64 474.079 480.648 474.021 480.646V480.646Z" fill="#2B3A4F"/>
<path d="M410.028 430.501C409.946 430.501 409.865 430.485 409.789 430.453C409.713 430.421 409.645 430.373 409.589 430.314L390.559 410.46C390.469 410.341 390.427 410.194 390.438 410.046C390.45 409.899 390.516 409.76 390.624 409.658C390.731 409.556 390.872 409.497 391.02 409.492C391.168 409.487 391.312 409.538 391.426 409.633L410.461 429.487C410.543 429.573 410.597 429.68 410.618 429.796C410.639 429.912 410.626 430.032 410.58 430.14C410.533 430.249 410.457 430.341 410.359 430.406C410.261 430.472 410.146 430.506 410.028 430.507V430.501Z" fill="#2B3A4F"/>
<path d="M250.14 456.032C249.98 456.032 249.827 455.969 249.714 455.855C249.602 455.742 249.538 455.589 249.538 455.429V391.993C249.538 391.833 249.602 391.679 249.714 391.566C249.827 391.453 249.98 391.39 250.14 391.39C250.3 391.39 250.453 391.453 250.566 391.566C250.679 391.679 250.742 391.833 250.742 391.993V455.429C250.742 455.589 250.679 455.742 250.566 455.855C250.453 455.969 250.3 456.032 250.14 456.032Z" fill="#2B3A4F"/>
<path d="M87.1217 299.834L116.289 285.192C119.053 283.804 122.174 283.292 125.235 283.726C128.077 284.13 130.779 285.219 133.108 286.9C135.438 288.582 137.324 290.805 138.606 293.379L140.026 296.221L127.204 294.405C125.336 294.151 123.436 294.466 121.749 295.31L83.6481 314.434L82.8174 312.775C81.6778 310.486 81.491 307.838 82.298 305.412C83.1051 302.986 84.8399 300.98 87.1217 299.834Z" fill="#FFDEA4"/>
<path d="M93.623 309.415L120.545 295.72C122.821 294.561 125.397 294.129 127.926 294.483L152.331 297.922C153.719 298.117 154.974 298.856 155.818 299.977C156.663 301.098 157.028 302.509 156.834 303.901L156.702 304.842C156.505 306.233 155.766 307.489 154.646 308.335C153.527 309.18 152.118 309.547 150.73 309.354L128.455 306.217C126.116 305.888 123.733 306.288 121.629 307.364L98.4813 319.14L93.623 309.415Z" fill="#FFDEA4"/>
<path d="M128.491 306.187L144.276 308.407C144.987 308.507 145.67 308.746 146.288 309.111C146.907 309.476 147.447 309.96 147.879 310.534C148.31 311.108 148.625 311.762 148.804 312.458C148.983 313.154 149.024 313.879 148.924 314.591L148.845 315.194C148.642 316.633 147.878 317.932 146.72 318.806C145.562 319.681 144.105 320.059 142.669 319.858L129.154 317.933C126.93 317.618 124.663 318 122.664 319.025L103.351 328.871L98.4932 319.14L121.665 307.327C123.768 306.25 126.153 305.851 128.491 306.187V306.187Z" fill="#FFDEA4"/>
<path d="M125.138 341.461L100.673 353.738L93.623 309.403L134.813 288.734L134.403 326.608C134.368 329.698 133.485 332.718 131.851 335.338C130.216 337.958 127.894 340.076 125.138 341.461V341.461Z" fill="#FFDEA4"/>
<path d="M83.6894 314.428L121.195 295.611L128.792 333.769L134.325 330.994L175.966 380.03L136.281 399.938L102.665 360.917C97.3313 354.256 92.7182 347.047 88.9028 339.41L80.7877 323.176C80.4047 322.41 80.1759 321.577 80.1145 320.723C80.053 319.869 80.1601 319.012 80.4296 318.199C80.6991 317.387 81.1257 316.636 81.685 315.988C82.2444 315.341 82.9255 314.811 83.6894 314.428V314.428Z" fill="#FFDEA4"/>
<path d="M145.902 344.611L175.966 380.018L136.282 399.932L106.964 365.907L145.902 344.611Z" fill="#2D3E54"/>
<path d="M136.113 400.686L102.214 361.31C96.8468 354.612 92.2053 347.362 88.3673 339.682L80.2462 323.447C79.8298 322.611 79.5834 321.701 79.5214 320.769C79.4594 319.837 79.583 318.902 79.885 318.018C80.4174 316.417 81.4988 315.058 82.9371 314.181L82.3652 313.035C81.1531 310.598 80.954 307.779 81.8116 305.195C82.6691 302.611 84.5134 300.473 86.9405 299.249L116.018 284.656C118.89 283.209 122.136 282.676 125.319 283.129C128.259 283.541 131.056 284.663 133.468 286.398C135.88 288.133 137.835 290.43 139.165 293.09L140.586 295.931C140.657 296.074 140.668 296.24 140.617 296.392C140.566 296.543 140.458 296.668 140.315 296.74C140.172 296.811 140.007 296.822 139.855 296.771C139.704 296.72 139.579 296.611 139.508 296.468L138.087 293.633C136.847 291.148 135.024 289.003 132.773 287.382C130.523 285.76 127.913 284.711 125.168 284.324C122.226 283.906 119.227 284.399 116.571 285.736L87.5004 300.329C86.4338 300.859 85.4823 301.595 84.7005 302.494C83.9187 303.394 83.3221 304.439 82.945 305.571C82.5679 306.702 82.4178 307.897 82.5032 309.087C82.5887 310.277 82.908 311.438 83.4428 312.504L84.5445 314.706L84.0027 314.971C82.6044 315.676 81.5396 316.904 81.0393 318.391C80.5389 319.877 80.6433 321.501 81.3298 322.91L89.4449 339.145C93.2455 346.741 97.8362 353.914 103.141 360.544L136.438 399.154L175.015 379.788L134.271 331.525L133.813 333.335C133.071 336.339 131.688 339.146 129.759 341.562C127.83 343.979 125.401 345.947 122.64 347.331C122.569 347.367 122.492 347.389 122.413 347.394C122.334 347.4 122.255 347.39 122.179 347.365C122.104 347.34 122.035 347.301 121.975 347.249C121.915 347.197 121.866 347.134 121.83 347.063C121.794 346.992 121.773 346.915 121.767 346.836C121.762 346.757 121.771 346.677 121.796 346.602C121.821 346.526 121.861 346.457 121.912 346.397C121.964 346.337 122.027 346.287 122.098 346.252C124.705 344.946 126.997 343.089 128.818 340.809C130.639 338.529 131.945 335.88 132.645 333.046L133.669 328.919L176.923 380.163L136.113 400.686Z" fill="#2D3E54"/>
<path d="M101.985 317.933C101.85 317.933 101.719 317.886 101.614 317.802C101.508 317.718 101.434 317.601 101.403 317.47C101.371 317.338 101.385 317.2 101.441 317.078C101.498 316.955 101.594 316.855 101.714 316.793L121.363 306.803C123.575 305.665 126.084 305.243 128.545 305.596L150.82 308.727C152.05 308.899 153.298 308.575 154.29 307.827C155.282 307.078 155.937 305.966 156.111 304.733L156.244 303.792C156.414 302.56 156.089 301.31 155.341 300.317C154.593 299.324 153.482 298.669 152.253 298.495L127.853 295.057C125.446 294.715 122.993 295.126 120.828 296.233L97.4094 308.148C97.3388 308.187 97.2611 308.211 97.1809 308.219C97.1008 308.228 97.0198 308.22 96.9428 308.196C96.8658 308.172 96.7943 308.133 96.7326 308.081C96.6709 308.029 96.6202 307.966 96.5836 307.894C96.5469 307.822 96.525 307.743 96.5192 307.663C96.5133 307.582 96.5237 307.501 96.5496 307.425C96.5755 307.349 96.6165 307.278 96.6701 307.218C96.7236 307.158 96.7887 307.109 96.8615 307.074L120.28 295.159C122.663 293.938 125.365 293.485 128.016 293.862L152.421 297.295C153.966 297.516 155.362 298.342 156.301 299.591C157.241 300.84 157.649 302.411 157.436 303.961L157.303 304.902C157.086 306.452 156.262 307.852 155.015 308.795C153.768 309.737 152.198 310.144 150.651 309.928L128.377 306.791C126.159 306.474 123.899 306.853 121.905 307.876L102.262 317.867C102.176 317.911 102.081 317.934 101.985 317.933Z" fill="#2D3E54"/>
<path d="M129.16 317.933L137.317 319.073C138.022 319.173 138.7 319.411 139.313 319.774C139.926 320.137 140.462 320.617 140.89 321.188C141.317 321.758 141.629 322.407 141.806 323.098C141.983 323.789 142.023 324.509 141.922 325.215L141.832 325.879C141.734 326.587 141.497 327.268 141.135 327.885C140.774 328.501 140.294 329.039 139.724 329.469C139.154 329.899 138.505 330.212 137.814 330.39C137.123 330.568 136.404 330.607 135.698 330.506L129.822 329.667C127.599 329.354 125.333 329.733 123.332 330.753L108.174 338.517L103.315 328.792L122.351 319.049C124.454 317.99 126.83 317.6 129.16 317.933V317.933Z" fill="#FFDEA4"/>
<path d="M111.678 337.347C111.542 337.348 111.411 337.302 111.304 337.219C111.198 337.135 111.122 337.018 111.09 336.886C111.058 336.755 111.072 336.616 111.128 336.493C111.184 336.369 111.28 336.269 111.401 336.207L123.05 330.216C125.161 329.137 127.554 328.737 129.901 329.07L135.776 329.908C136.405 329.999 137.046 329.963 137.662 329.804C138.277 329.644 138.855 329.365 139.362 328.98C139.869 328.596 140.295 328.115 140.616 327.565C140.937 327.015 141.145 326.407 141.23 325.776L141.321 325.112C141.492 323.849 141.158 322.569 140.391 321.551C139.624 320.534 138.487 319.862 137.227 319.683C137.067 319.66 136.923 319.575 136.826 319.446C136.729 319.317 136.687 319.155 136.709 318.995C136.732 318.835 136.817 318.69 136.945 318.593C137.074 318.496 137.236 318.454 137.396 318.476C138.179 318.587 138.932 318.852 139.614 319.255C140.295 319.658 140.89 320.191 141.365 320.825C141.84 321.459 142.186 322.18 142.383 322.948C142.58 323.715 142.624 324.515 142.513 325.299L142.422 325.963C142.313 326.749 142.05 327.507 141.648 328.191C141.246 328.875 140.713 329.473 140.08 329.951C139.447 330.429 138.726 330.776 137.958 330.974C137.191 331.171 136.392 331.215 135.608 331.103L129.732 330.264C127.631 329.968 125.489 330.326 123.598 331.29L111.955 337.281C111.868 337.322 111.774 337.345 111.678 337.347Z" fill="#2D3E54"/>
<path d="M106.855 327.7C106.72 327.699 106.59 327.653 106.484 327.569C106.379 327.485 106.304 327.368 106.273 327.237C106.242 327.105 106.256 326.967 106.312 326.845C106.369 326.722 106.464 326.622 106.584 326.56L122.387 318.488C124.497 317.403 126.89 316.998 129.238 317.33L142.735 319.242C144.013 319.419 145.309 319.082 146.339 318.304C147.369 317.526 148.049 316.371 148.231 315.092L148.31 314.488C148.399 313.855 148.363 313.21 148.203 312.591C148.044 311.971 147.764 311.389 147.38 310.878C146.996 310.367 146.515 309.937 145.965 309.613C145.415 309.288 144.806 309.075 144.174 308.986C144.016 308.964 143.873 308.879 143.777 308.752C143.681 308.624 143.64 308.463 143.662 308.305C143.685 308.147 143.768 308.005 143.894 307.909C144.02 307.813 144.179 307.771 144.336 307.792C145.126 307.902 145.886 308.167 146.572 308.572C147.259 308.977 147.86 309.514 148.339 310.151C148.819 310.789 149.169 311.515 149.368 312.288C149.568 313.061 149.613 313.866 149.502 314.657L149.423 315.26C149.198 316.856 148.35 318.298 147.066 319.268C145.782 320.238 144.166 320.659 142.573 320.437L129.069 318.536C126.967 318.238 124.825 318.599 122.935 319.568L107.132 327.64C107.046 327.682 106.951 327.703 106.855 327.7V327.7Z" fill="#2D3E54"/>
<path d="M233.802 460.014L219.684 472.375C212.264 478.784 202.608 481.977 192.839 481.252C183.07 480.526 173.989 475.943 167.592 468.508L102.575 392.928L155.871 346.891L232.983 436.522L233.802 460.014Z" fill="#4891FF"/>
<path d="M355.955 443.636L294.896 454.144L301.634 493.467L362.693 482.96L355.955 443.636Z" fill="#FFDEA4"/>
<path d="M360.525 480.906L346.504 483.319L350.158 439.792L353.806 441.758L360.525 480.906Z" fill="#2D3E54"/>
<path d="M256.269 449.45L263.354 454.463C265.735 456.15 268.425 457.349 271.268 457.993C274.112 458.637 277.055 458.713 279.928 458.216L308.367 453.305L310.606 466.396L277.165 472.176C271.561 473.144 265.803 471.842 261.157 468.556L248.912 459.887C242.326 455.205 249.683 444.775 256.269 449.45Z" fill="#FFDEA4"/>
<path d="M254.456 463.706L261.759 468.882C263.661 470.229 265.811 471.187 268.083 471.699C270.356 472.212 272.708 472.269 275.003 471.868L315.512 464.882L317.252 475.042L315.446 475.874C309.626 478.533 303.489 480.43 297.187 481.521L274.961 485.358C271.908 485.886 268.781 485.806 265.76 485.122C262.738 484.438 259.881 483.163 257.352 481.37L247.118 474.131C240.55 469.503 247.882 459.054 254.456 463.706Z" fill="#FFDEA4"/>
<path d="M258.7 480.906C259.676 481.388 265.088 486.842 273.913 485.316L330.737 475.512L332.507 485.834L326.95 486.794C312.141 489.346 308.288 492.857 296.85 494.83L273.853 498.799C270.801 499.327 267.675 499.247 264.653 498.564C261.632 497.881 258.774 496.608 256.244 494.817L251.326 491.33C244.595 486.564 252.012 476.176 258.7 480.906Z" fill="#FFDEA4"/>
<path d="M272.956 454.765C271.615 454.418 270.363 453.787 269.286 452.914C268.209 452.041 267.332 450.946 266.713 449.704C266.154 446.464 268.002 443.629 271.271 443.906C292.275 445.716 298.963 438.205 311.479 444.986L320.846 450.054L322.309 458.572L310.022 460.714C305.96 461.425 301.798 461.318 297.777 460.4C289.114 458.427 274.106 455.091 272.956 454.765Z" fill="#FFDEA4"/>
<path d="M273.474 473.081C268.943 473.076 264.526 471.662 260.832 469.033L248.569 460.364C244.999 457.836 245.155 453.643 247.16 450.808C249.165 447.972 253.048 446.422 256.618 448.944L263.703 453.963C266.019 455.604 268.635 456.769 271.403 457.39C274.17 458.011 277.032 458.077 279.825 457.583L284.214 456.823C284.373 456.795 284.537 456.833 284.669 456.927C284.801 457.021 284.891 457.163 284.918 457.323C284.945 457.483 284.908 457.648 284.814 457.78C284.72 457.912 284.578 458.002 284.418 458.029L280.03 458.789C277.079 459.308 274.054 459.234 271.132 458.572C268.209 457.91 265.447 456.674 263.005 454.934L255.913 449.933C252.855 447.767 249.737 449.227 248.135 451.502C246.534 453.776 246.197 457.215 249.255 459.381L261.5 468.044C263.731 469.634 266.255 470.764 268.925 471.369C271.596 471.974 274.359 472.041 277.056 471.567L286.05 470.011C286.209 469.983 286.373 470.021 286.505 470.115C286.638 470.209 286.727 470.351 286.754 470.511C286.781 470.671 286.744 470.836 286.65 470.968C286.556 471.1 286.414 471.19 286.254 471.217L277.26 472.768C276.009 472.979 274.743 473.084 273.474 473.081V473.081Z" fill="#2D3E54"/>
<path d="M270.861 486.311C265.882 486.309 261.026 484.755 256.967 481.865L246.733 474.626C243.344 472.212 243.392 468.424 244.927 465.721C246.546 462.904 250.032 460.895 253.566 462.506C253.638 462.539 253.702 462.586 253.756 462.644C253.81 462.703 253.852 462.771 253.879 462.846C253.906 462.92 253.919 462.999 253.916 463.079C253.913 463.158 253.894 463.236 253.861 463.308C253.827 463.38 253.78 463.445 253.722 463.499C253.664 463.553 253.596 463.595 253.521 463.622C253.447 463.649 253.368 463.662 253.289 463.659C253.21 463.656 253.132 463.637 253.06 463.604C250.05 462.228 247.275 464.05 245.974 466.324C244.77 468.388 244.457 471.543 247.413 473.642L257.647 480.882C260.111 482.632 262.896 483.875 265.842 484.541C268.788 485.207 271.836 485.282 274.811 484.761L287.543 482.565C287.622 482.551 287.703 482.554 287.781 482.572C287.859 482.589 287.933 482.623 287.999 482.669C288.064 482.716 288.12 482.775 288.162 482.843C288.205 482.911 288.234 482.986 288.247 483.066C288.261 483.145 288.259 483.226 288.241 483.304C288.223 483.383 288.19 483.457 288.144 483.522C288.097 483.588 288.038 483.644 287.97 483.686C287.903 483.729 287.827 483.758 287.748 483.772L275.015 485.968C273.643 486.201 272.253 486.316 270.861 486.311V486.311Z" fill="#2D3E54"/>
<path d="M269.717 499.644C267.185 499.673 264.664 499.294 262.252 498.522C258.089 497.01 254.249 494.724 250.934 491.783C249.806 490.778 248.999 489.461 248.615 487.998C248.232 486.535 248.289 484.991 248.779 483.56C249.223 482.289 250.047 481.186 251.14 480.402C252.232 479.618 253.54 479.192 254.883 479.18C255.043 479.18 255.196 479.244 255.309 479.357C255.422 479.47 255.485 479.623 255.485 479.783C255.485 479.943 255.422 480.097 255.309 480.21C255.196 480.323 255.043 480.387 254.883 480.387C253.784 480.389 252.713 480.734 251.819 481.374C250.925 482.014 250.252 482.917 249.893 483.958C249.48 485.163 249.431 486.462 249.752 487.694C250.074 488.926 250.751 490.036 251.699 490.884C254.893 493.716 258.592 495.918 262.601 497.375C268.621 499.372 275.003 498.154 281.173 496.965C282.377 496.736 283.581 496.507 284.755 496.301C286.158 496.06 287.573 495.831 288.969 495.596C294.851 494.636 300.937 493.641 306.638 491.735C319.521 487.427 343.403 483.361 359.206 480.664L364.022 479.85C364.101 479.836 364.182 479.839 364.26 479.856C364.338 479.874 364.412 479.907 364.478 479.954C364.543 480 364.599 480.059 364.641 480.127C364.684 480.196 364.713 480.271 364.726 480.351C364.74 480.43 364.737 480.511 364.72 480.589C364.702 480.668 364.669 480.742 364.622 480.807C364.576 480.873 364.517 480.928 364.449 480.971C364.381 481.014 364.306 481.043 364.227 481.056L359.411 481.877C343.644 484.561 319.81 488.622 307.036 492.899C301.238 494.836 295.104 495.837 289.174 496.808C287.759 497.038 286.351 497.267 284.96 497.508C283.756 497.713 282.594 497.942 281.396 498.172C277.585 498.92 273.636 499.644 269.717 499.644Z" fill="#2D3E54"/>
<path d="M289.8 458.198C282.022 458.198 274.34 457.124 267.484 452.273L267.393 452.195C266.589 451.42 266.06 450.402 265.888 449.297C265.716 448.192 265.911 447.061 266.442 446.078C266.999 445.075 267.86 444.277 268.9 443.799C269.941 443.32 271.106 443.186 272.227 443.417C278.32 444.624 284.213 443.779 290.45 442.898C295.363 442.199 300.438 441.481 305.579 441.867C307.897 442.217 309.913 443.333 311.87 444.413C313.826 445.493 315.626 446.494 317.661 446.826C322.477 446.79 330.905 445.215 339.051 443.695C344.944 442.591 350.489 441.547 354.101 441.227C354.261 441.214 354.419 441.264 354.542 441.368C354.664 441.471 354.74 441.619 354.754 441.779C354.768 441.939 354.717 442.098 354.614 442.221C354.511 442.344 354.363 442.42 354.203 442.434C350.694 442.754 345.173 443.785 339.291 444.883C331.062 446.422 322.556 448.014 317.619 448.038H317.529C315.259 447.695 313.236 446.578 311.286 445.493C309.335 444.407 307.499 443.399 305.446 443.079C300.474 442.711 295.465 443.423 290.619 444.111C284.557 444.968 278.29 445.854 271.993 444.618C271.122 444.436 270.217 444.538 269.408 444.909C268.6 445.28 267.932 445.901 267.502 446.681C267.094 447.429 266.944 448.291 267.075 449.133C267.205 449.975 267.609 450.75 268.224 451.338C277.453 457.842 288.415 457.251 299.011 456.671C300.985 456.563 303.026 456.454 304.995 456.394C305.074 456.392 305.153 456.405 305.227 456.433C305.301 456.461 305.368 456.504 305.426 456.558C305.483 456.612 305.53 456.677 305.562 456.75C305.595 456.822 305.613 456.9 305.615 456.979C305.617 457.058 305.604 457.137 305.576 457.211C305.548 457.286 305.506 457.353 305.451 457.411C305.397 457.469 305.332 457.515 305.26 457.548C305.188 457.58 305.11 457.598 305.031 457.601C303.074 457.661 301.046 457.769 299.077 457.878C296.001 458.029 292.894 458.198 289.8 458.198Z" fill="#2D3E54"/>
<path d="M490.523 447.206C491.822 455.111 489.935 463.209 485.277 469.72C480.619 476.23 473.572 480.621 465.684 481.925L359.965 499.421L350.158 439.797L455.877 422.302C459.784 421.657 463.779 421.789 467.635 422.691C471.491 423.594 475.131 425.249 478.348 427.561C481.566 429.874 484.297 432.799 486.386 436.17C488.475 439.541 489.881 443.291 490.523 447.206V447.206Z" fill="#4891FF"/>
<path d="M359.965 500C359.84 500.001 359.718 499.963 359.615 499.891C359.551 499.846 359.495 499.787 359.453 499.72C359.411 499.653 359.382 499.578 359.369 499.499L349.562 439.888C349.536 439.731 349.573 439.569 349.666 439.439C349.758 439.309 349.898 439.221 350.056 439.194L455.781 421.699C455.94 421.673 456.104 421.711 456.235 421.805C456.367 421.9 456.456 422.043 456.482 422.203C456.508 422.363 456.47 422.527 456.376 422.659C456.282 422.79 456.139 422.879 455.979 422.906L350.85 440.286L360.482 498.703L473.949 479.446C474.109 479.419 474.273 479.458 474.404 479.552C474.536 479.647 474.624 479.79 474.651 479.95C474.677 480.11 474.639 480.274 474.545 480.405C474.45 480.537 474.308 480.626 474.148 480.652L360.061 499.994L359.965 500Z" fill="#2B3A4F"/>
<path d="M307.181 279.769C307.181 283.518 308.667 287.113 311.312 289.764C313.957 292.415 317.545 293.904 321.286 293.904H327.649L347.371 297.759V291.207C347.37 287.781 346.439 284.418 344.677 281.481C342.916 278.544 340.39 276.142 337.371 274.532L325.933 268.457C323.987 267.426 321.807 266.917 319.606 266.978C317.405 267.039 315.257 267.67 313.37 268.808C311.484 269.946 309.923 271.553 308.838 273.473C307.754 275.394 307.183 277.562 307.181 279.769V279.769Z" fill="#2D3E54"/>
<path d="M344.559 327.357L326.228 356.954V303.563H344.559V327.357Z" fill="#FFDEA4"/>
<path d="M344.559 310.531V303.563H326.228V318.941C329.136 319.531 332.147 319.356 334.969 318.434C339.01 317.042 342.415 314.236 344.559 310.531V310.531Z" fill="#2D3E54"/>
<path d="M332.82 314.627C340.856 314.627 347.371 307.413 347.371 298.513C347.371 289.614 340.856 282.399 332.82 282.399C324.784 282.399 318.27 289.614 318.27 298.513C318.27 307.413 324.784 314.627 332.82 314.627Z" fill="#FFDEA4"/>
<path d="M332.82 315.237C324.464 315.237 317.667 307.738 317.667 298.514C317.667 289.289 324.464 281.796 332.82 281.796C338.123 281.796 343.114 284.921 345.835 289.947C345.877 290.016 345.904 290.093 345.915 290.173C345.927 290.254 345.922 290.335 345.901 290.413C345.88 290.492 345.844 290.565 345.795 290.629C345.745 290.693 345.683 290.746 345.612 290.785C345.542 290.823 345.466 290.847 345.387 290.855C345.308 290.863 345.228 290.856 345.152 290.833C345.075 290.81 345.005 290.772 344.943 290.721C344.882 290.671 344.831 290.608 344.794 290.538C342.247 285.832 337.774 283.021 332.838 283.021C325.15 283.021 318.889 289.983 318.889 298.532C318.889 307.08 325.15 314.048 332.838 314.048C337.268 314.048 340.002 313.366 343.541 309.481C343.653 309.404 343.788 309.368 343.923 309.377C344.058 309.386 344.187 309.441 344.287 309.533C344.387 309.624 344.454 309.747 344.476 309.881C344.498 310.015 344.474 310.153 344.408 310.272C340.592 314.471 337.509 315.237 332.82 315.237Z" fill="#2D3E54"/>
<path d="M332.82 282.399C340.856 282.399 347.37 289.639 347.37 298.513C347.37 299.302 347.318 300.09 347.214 300.872L337.786 293.904H318.877C320.671 287.25 326.234 282.399 332.82 282.399Z" fill="#2D3E54"/>
<path d="M337.425 305.783C336.432 306.686 335.223 307.318 333.916 307.618C332.609 307.919 331.246 307.877 329.96 307.498C328.673 307.119 327.505 306.415 326.568 305.453C325.631 304.491 324.956 303.305 324.608 302.006L337.425 305.783Z" fill="white"/>
<path d="M204.236 354.034L196.657 358.028L198.108 349.576L191.979 343.585L200.45 342.355L204.236 334.663L208.023 342.355L216.493 343.585L210.365 349.576L211.81 358.028L204.236 354.034Z" fill="white"/>
<path d="M211.81 358.631C211.711 358.631 211.614 358.606 211.527 358.559L204.236 354.734L196.916 358.559C196.817 358.611 196.705 358.634 196.593 358.626C196.482 358.618 196.375 358.579 196.284 358.513C196.193 358.447 196.123 358.357 196.08 358.254C196.038 358.15 196.025 358.036 196.043 357.925L197.434 349.781L191.534 344.02C191.453 343.941 191.395 343.842 191.368 343.732C191.34 343.623 191.344 343.508 191.379 343.4C191.413 343.293 191.477 343.197 191.563 343.124C191.649 343.051 191.754 343.004 191.865 342.988L200.022 341.781L203.671 334.379C203.721 334.279 203.797 334.194 203.893 334.135C203.988 334.076 204.097 334.045 204.209 334.045C204.321 334.045 204.431 334.076 204.526 334.135C204.621 334.194 204.698 334.279 204.748 334.379L208.396 341.781L216.554 342.988C216.665 343.004 216.77 343.051 216.856 343.124C216.942 343.197 217.006 343.293 217.04 343.4C217.075 343.508 217.078 343.623 217.051 343.732C217.023 343.842 216.966 343.941 216.885 344.02L210.985 349.781L212.382 357.925C212.403 358.039 212.392 358.155 212.349 358.262C212.307 358.369 212.234 358.462 212.141 358.529C212.042 358.593 211.927 358.628 211.81 358.631V358.631ZM204.236 353.431C204.333 353.431 204.429 353.456 204.513 353.503L211.009 356.924L209.769 349.685C209.753 349.589 209.761 349.49 209.791 349.398C209.822 349.305 209.874 349.221 209.944 349.154L215.199 344.02L207.933 342.964C207.836 342.949 207.745 342.912 207.666 342.854C207.588 342.796 207.524 342.72 207.481 342.632L204.236 336.032L200.986 342.626C200.943 342.714 200.879 342.79 200.801 342.848C200.722 342.906 200.631 342.943 200.534 342.958L193.304 344.008L198.56 349.142C198.628 349.21 198.679 349.294 198.709 349.386C198.738 349.479 198.745 349.577 198.728 349.672L197.488 356.912L203.954 353.528C204.038 353.472 204.136 353.439 204.236 353.431V353.431Z" fill="#2B3A4F"/>
<path d="M234.993 354.034L227.414 358.028L228.865 349.576L222.736 343.585L231.201 342.355L234.993 334.663L238.78 342.355L247.25 343.585L241.122 349.576L242.567 358.028L234.993 354.034Z" fill="white"/>
<path d="M242.567 358.631C242.468 358.631 242.371 358.606 242.284 358.559L234.994 354.734L227.697 358.577C227.598 358.629 227.486 358.652 227.375 358.644C227.263 358.636 227.156 358.597 227.065 358.531C226.974 358.465 226.904 358.375 226.861 358.272C226.819 358.168 226.806 358.054 226.824 357.944L228.215 349.799L222.315 344.038C222.234 343.959 222.177 343.86 222.149 343.75C222.122 343.641 222.125 343.526 222.16 343.418C222.194 343.311 222.258 343.215 222.344 343.142C222.43 343.07 222.535 343.022 222.646 343.006L230.804 341.8L234.452 334.397C234.502 334.297 234.579 334.212 234.674 334.153C234.769 334.094 234.879 334.063 234.991 334.063C235.103 334.063 235.212 334.094 235.307 334.153C235.403 334.212 235.48 334.297 235.529 334.397L239.178 341.8L247.335 343.006C247.446 343.022 247.551 343.07 247.637 343.142C247.723 343.215 247.787 343.311 247.822 343.418C247.856 343.526 247.86 343.641 247.832 343.75C247.805 343.86 247.747 343.959 247.666 344.038L241.766 349.799L243.157 357.944C243.179 358.056 243.169 358.173 243.127 358.279C243.086 358.386 243.014 358.479 242.922 358.547C242.814 358.609 242.691 358.638 242.567 358.631V358.631ZM234.994 353.431C235.091 353.431 235.186 353.456 235.271 353.503L241.766 356.924L240.526 349.685C240.51 349.588 240.518 349.49 240.548 349.398C240.579 349.305 240.631 349.221 240.701 349.154L245.956 344.02L238.69 342.964C238.594 342.949 238.502 342.912 238.423 342.854C238.345 342.796 238.281 342.72 238.239 342.632L234.994 336.032L231.743 342.626C231.7 342.714 231.637 342.79 231.558 342.848C231.479 342.906 231.388 342.943 231.291 342.958L224.007 344.008L229.256 349.142C229.326 349.209 229.378 349.293 229.409 349.386C229.439 349.478 229.447 349.576 229.431 349.672L228.191 356.912L234.711 353.527C234.795 353.472 234.893 353.439 234.994 353.431V353.431Z" fill="#2B3A4F"/>
<path d="M265.75 354.034L258.171 358.028L259.622 349.576L253.493 343.585L261.957 342.355L265.75 334.663L269.537 342.355L278.001 343.585L271.873 349.576L273.323 358.028L265.75 354.034Z" fill="white"/>
<path d="M258.17 358.631C258.043 358.628 257.92 358.588 257.815 358.517C257.723 358.449 257.652 358.356 257.61 358.249C257.568 358.142 257.558 358.026 257.58 357.913L258.971 349.769L253.071 344.007C252.99 343.929 252.932 343.83 252.905 343.72C252.877 343.611 252.881 343.496 252.916 343.388C252.95 343.281 253.014 343.185 253.1 343.112C253.186 343.039 253.291 342.992 253.402 342.976L261.56 341.769L265.208 334.367C265.258 334.266 265.335 334.182 265.43 334.123C265.525 334.064 265.635 334.033 265.747 334.033C265.858 334.033 265.968 334.064 266.063 334.123C266.159 334.182 266.235 334.266 266.285 334.367L269.933 341.769L278.091 342.976C278.202 342.992 278.307 343.039 278.393 343.112C278.479 343.185 278.543 343.281 278.577 343.388C278.612 343.496 278.616 343.611 278.588 343.72C278.561 343.83 278.503 343.929 278.422 344.007L272.522 349.769L273.913 357.913C273.931 358.024 273.918 358.138 273.876 358.241C273.833 358.345 273.763 358.435 273.672 358.501C273.581 358.567 273.474 358.606 273.362 358.614C273.251 358.622 273.139 358.599 273.04 358.547L265.75 354.734L258.453 358.577C258.365 358.618 258.268 358.636 258.17 358.631V358.631ZM265.75 353.431C265.847 353.431 265.942 353.455 266.026 353.503L272.522 356.924L271.282 349.684C271.266 349.588 271.274 349.49 271.304 349.397C271.335 349.305 271.387 349.221 271.457 349.153L276.712 344.019L269.446 342.964C269.349 342.949 269.258 342.911 269.179 342.854C269.101 342.796 269.037 342.72 268.994 342.632L265.75 336.032L262.499 342.626C262.456 342.714 262.392 342.79 262.314 342.848C262.235 342.905 262.144 342.943 262.047 342.958L254.787 344.013L260.036 349.147C260.106 349.215 260.158 349.299 260.189 349.391C260.219 349.484 260.227 349.582 260.211 349.678L258.971 356.918L265.467 353.527C265.551 353.472 265.649 353.439 265.75 353.431V353.431Z" fill="#2B3A4F"/>
<path d="M296.507 354.034L288.928 358.028L290.378 349.576L284.25 343.585L292.714 342.355L296.507 334.663L300.294 342.355L308.758 343.585L302.635 349.576L304.08 358.028L296.507 354.034Z" fill="white"/>
<path d="M304.074 358.631C303.975 358.631 303.878 358.606 303.791 358.559L296.506 354.734L289.21 358.577C289.111 358.629 288.999 358.652 288.887 358.644C288.776 358.636 288.669 358.597 288.578 358.531C288.487 358.465 288.417 358.375 288.374 358.272C288.332 358.168 288.319 358.054 288.337 357.944L289.728 349.799L283.828 344.038C283.747 343.959 283.689 343.86 283.662 343.75C283.634 343.641 283.638 343.526 283.672 343.418C283.707 343.311 283.771 343.215 283.857 343.142C283.943 343.07 284.048 343.022 284.159 343.006L292.316 341.8L295.965 334.397C296.014 334.297 296.091 334.212 296.187 334.153C296.282 334.094 296.391 334.063 296.503 334.063C296.615 334.063 296.725 334.094 296.82 334.153C296.915 334.212 296.992 334.297 297.042 334.397L300.69 341.8L308.848 343.006C308.959 343.022 309.064 343.07 309.15 343.142C309.236 343.215 309.3 343.311 309.334 343.418C309.369 343.526 309.372 343.641 309.345 343.75C309.317 343.86 309.26 343.959 309.179 344.038L303.279 349.799L304.67 357.944C304.692 358.056 304.681 358.173 304.64 358.279C304.598 358.386 304.527 358.479 304.435 358.547C304.325 358.61 304.2 358.64 304.074 358.631V358.631ZM285.532 344.008L290.787 349.142C290.857 349.209 290.909 349.293 290.94 349.386C290.97 349.478 290.978 349.576 290.962 349.672L289.722 356.912L296.247 353.527C296.334 353.482 296.43 353.458 296.527 353.458C296.625 353.458 296.721 353.482 296.807 353.527L303.303 356.948L302.063 349.709C302.047 349.613 302.055 349.514 302.085 349.422C302.116 349.329 302.168 349.246 302.238 349.178L307.493 344.044L300.227 342.988C300.13 342.973 300.039 342.936 299.96 342.878C299.882 342.82 299.818 342.744 299.775 342.656L296.506 336.032L293.237 342.62C293.195 342.708 293.131 342.784 293.053 342.842C292.974 342.899 292.882 342.937 292.786 342.952L285.532 344.008Z" fill="#2B3A4F"/>
<path d="M204.236 388.711L196.657 392.699L198.108 384.247L191.979 378.262L200.45 377.025L204.236 369.339L208.023 377.025L216.493 378.262L210.365 384.247L211.81 392.699L204.236 388.711Z" fill="white"/>
<path d="M211.81 393.302C211.712 393.301 211.615 393.278 211.527 393.236L204.237 389.393L196.916 393.236C196.817 393.287 196.705 393.31 196.593 393.302C196.482 393.293 196.375 393.254 196.284 393.187C196.191 393.12 196.118 393.028 196.076 392.921C196.033 392.814 196.022 392.697 196.043 392.584L197.434 384.446L191.534 378.684C191.457 378.607 191.402 378.51 191.375 378.404C191.349 378.297 191.352 378.186 191.384 378.081C191.418 377.975 191.481 377.88 191.566 377.808C191.651 377.735 191.755 377.688 191.865 377.671L200.023 376.464L203.671 369.056C203.721 368.955 203.798 368.871 203.893 368.812C203.988 368.753 204.098 368.722 204.21 368.722C204.321 368.722 204.431 368.753 204.526 368.812C204.622 368.871 204.698 368.955 204.748 369.056L208.421 376.452L216.578 377.659C216.689 377.675 216.794 377.721 216.88 377.794C216.966 377.867 217.031 377.962 217.065 378.069C217.097 378.174 217.099 378.286 217.071 378.392C217.043 378.499 216.987 378.596 216.909 378.672L211.009 384.434L212.406 392.572C212.427 392.685 212.416 392.802 212.373 392.909C212.331 393.016 212.258 393.108 212.165 393.175C212.063 393.255 211.939 393.299 211.81 393.302ZM204.237 388.108C204.333 388.107 204.428 388.13 204.514 388.174L211.009 391.595L209.769 384.355C209.752 384.258 209.759 384.159 209.79 384.065C209.82 383.971 209.873 383.887 209.944 383.818L215.199 378.69L207.933 377.629C207.837 377.615 207.746 377.578 207.667 377.521C207.589 377.464 207.525 377.389 207.481 377.303L204.237 370.709L200.986 377.303C200.942 377.389 200.878 377.464 200.8 377.521C200.721 377.578 200.63 377.615 200.534 377.629L193.304 378.684L198.56 383.812C198.629 383.881 198.681 383.966 198.71 384.06C198.74 384.153 198.746 384.253 198.728 384.349L197.488 391.589L203.984 388.168C204.063 388.132 204.149 388.111 204.237 388.108V388.108Z" fill="#2B3A4F"/>
<path d="M234.993 388.711L227.414 392.699L228.865 384.247L222.736 378.262L231.201 377.025L234.993 369.339L238.78 377.025L247.25 378.262L241.122 384.247L242.567 392.699L234.993 388.711Z" fill="white"/>
<path d="M242.567 393.302C242.469 393.301 242.372 393.278 242.284 393.236L234.994 389.393L227.697 393.236C227.598 393.288 227.486 393.31 227.374 393.302C227.263 393.293 227.156 393.254 227.065 393.188C226.972 393.121 226.899 393.028 226.857 392.921C226.814 392.814 226.803 392.697 226.824 392.584L228.221 384.458L222.321 378.697C222.244 378.619 222.189 378.522 222.163 378.416C222.136 378.31 222.139 378.198 222.171 378.093C222.205 377.987 222.269 377.892 222.354 377.82C222.439 377.747 222.542 377.7 222.652 377.683L230.81 376.476L234.458 369.068C234.508 368.968 234.585 368.883 234.68 368.824C234.775 368.765 234.885 368.734 234.997 368.734C235.109 368.734 235.218 368.765 235.313 368.824C235.409 368.883 235.486 368.968 235.535 369.068L239.178 376.452L247.335 377.659C247.446 377.675 247.551 377.722 247.637 377.794C247.723 377.867 247.788 377.962 247.822 378.069C247.854 378.174 247.856 378.286 247.828 378.393C247.8 378.499 247.744 378.596 247.666 378.672L241.766 384.434L243.157 392.572C243.172 392.66 243.168 392.749 243.144 392.835C243.121 392.92 243.079 392.999 243.021 393.067C242.964 393.134 242.892 393.188 242.812 393.225C242.731 393.261 242.643 393.279 242.555 393.278L242.567 393.302ZM234.994 388.108C235.09 388.107 235.185 388.13 235.271 388.174L241.766 391.595L240.526 384.355C240.509 384.258 240.516 384.159 240.547 384.065C240.577 383.972 240.63 383.887 240.701 383.819L245.956 378.691L238.69 377.629C238.594 377.615 238.503 377.578 238.424 377.521C238.346 377.465 238.282 377.39 238.238 377.303L234.994 370.709L231.743 377.303C231.699 377.39 231.635 377.465 231.557 377.521C231.478 377.578 231.387 377.615 231.291 377.629L224.007 378.685L229.256 383.812C229.327 383.881 229.38 383.966 229.41 384.059C229.441 384.153 229.448 384.252 229.431 384.349L228.191 391.589L234.687 388.168C234.783 388.124 234.888 388.104 234.994 388.108V388.108Z" fill="#2B3A4F"/>
<path d="M265.75 388.711L258.171 392.699L259.622 384.247L253.493 378.262L261.957 377.025L265.75 369.339L269.537 377.025L278.001 378.262L271.873 384.247L273.323 392.699L265.75 388.711Z" fill="white"/>
<path d="M258.171 393.302C258.044 393.302 257.919 393.262 257.816 393.187C257.724 393.12 257.652 393.027 257.611 392.92C257.569 392.813 257.559 392.697 257.581 392.584L258.972 384.446L253.072 378.684C252.994 378.608 252.938 378.511 252.91 378.405C252.882 378.298 252.884 378.186 252.916 378.081C252.95 377.974 253.015 377.879 253.101 377.806C253.187 377.734 253.292 377.687 253.403 377.671L261.56 376.464L265.209 369.056C265.259 368.955 265.335 368.871 265.431 368.812C265.526 368.753 265.635 368.722 265.747 368.722C265.859 368.722 265.969 368.753 266.064 368.812C266.159 368.871 266.236 368.955 266.286 369.056L269.934 376.452L278.092 377.659C278.203 377.675 278.308 377.721 278.394 377.794C278.48 377.867 278.544 377.962 278.579 378.069C278.61 378.174 278.612 378.286 278.585 378.392C278.557 378.499 278.501 378.596 278.423 378.672L272.523 384.434L273.914 392.572C273.936 392.685 273.925 392.801 273.884 392.908C273.842 393.015 273.771 393.108 273.679 393.175C273.588 393.243 273.48 393.283 273.367 393.291C273.254 393.3 273.141 393.276 273.041 393.224L265.75 389.381L258.454 393.224C258.367 393.27 258.27 393.297 258.171 393.302V393.302ZM265.75 388.108C265.847 388.107 265.942 388.13 266.027 388.174L272.523 391.595L271.283 384.355C271.266 384.258 271.273 384.159 271.304 384.065C271.334 383.971 271.387 383.887 271.457 383.818L276.713 378.69L269.447 377.629C269.351 377.615 269.26 377.578 269.181 377.521C269.103 377.464 269.039 377.389 268.995 377.303L265.75 370.709L262.5 377.303C262.456 377.389 262.392 377.464 262.314 377.521C262.235 377.578 262.144 377.615 262.048 377.629L254.788 378.69L260.037 383.818C260.108 383.887 260.161 383.971 260.191 384.065C260.222 384.159 260.229 384.258 260.212 384.355L258.972 391.595L265.467 388.174C265.556 388.132 265.652 388.109 265.75 388.108V388.108Z" fill="#2B3A4F"/>
<path d="M204.236 423.382L196.657 427.376L198.108 418.924L191.979 412.933L200.45 411.703L204.236 404.011L208.023 411.703L216.493 412.933L210.365 418.924L211.81 427.376L204.236 423.382Z" fill="white"/>
<path d="M211.81 427.979C211.711 427.979 211.614 427.954 211.527 427.907L204.237 424.064L196.916 427.907C196.819 427.957 196.711 427.979 196.602 427.972C196.494 427.965 196.389 427.928 196.3 427.867C196.21 427.805 196.139 427.72 196.094 427.621C196.049 427.521 196.031 427.412 196.043 427.304L197.434 419.165L191.534 413.398C191.457 413.32 191.402 413.223 191.375 413.117C191.349 413.011 191.352 412.899 191.384 412.794C191.418 412.688 191.481 412.593 191.566 412.521C191.651 412.448 191.755 412.401 191.865 412.384L200.023 411.178L203.671 403.769C203.721 403.669 203.798 403.584 203.893 403.525C203.988 403.466 204.098 403.435 204.21 403.435C204.321 403.435 204.431 403.466 204.526 403.525C204.622 403.584 204.698 403.669 204.748 403.769L208.397 411.178L216.554 412.384C216.665 412.4 216.77 412.447 216.856 412.519C216.942 412.592 217.006 412.687 217.041 412.794C217.073 412.9 217.074 413.012 217.047 413.118C217.019 413.224 216.963 413.321 216.885 413.398L210.985 419.165L212.382 427.304C212.403 427.417 212.392 427.534 212.349 427.64C212.307 427.747 212.234 427.84 212.141 427.907C212.039 427.96 211.925 427.985 211.81 427.979V427.979ZM204.237 422.779C204.334 422.779 204.429 422.803 204.514 422.851L211.009 426.272L209.769 419.032C209.752 418.935 209.759 418.836 209.79 418.742C209.82 418.649 209.873 418.564 209.944 418.496L215.199 413.362L207.933 412.306C207.837 412.291 207.745 412.253 207.666 412.196C207.588 412.138 207.524 412.062 207.481 411.974L204.237 405.38L200.986 411.974C200.943 412.062 200.879 412.138 200.801 412.196C200.722 412.253 200.631 412.291 200.534 412.306L193.304 413.355L198.56 418.489C198.629 418.559 198.681 418.643 198.71 418.737C198.74 418.831 198.746 418.93 198.728 419.026L197.488 426.266L203.984 422.845C204.062 422.805 204.149 422.782 204.237 422.779V422.779Z" fill="#2B3A4F"/>
<path d="M234.993 423.382L227.414 427.376L228.865 418.924L222.736 412.933L231.201 411.703L234.993 404.011L238.78 411.703L247.25 412.933L241.122 418.924L242.567 427.376L234.993 423.382Z" fill="white"/>
<path d="M242.567 427.979C242.468 427.979 242.371 427.954 242.284 427.907L234.994 424.064L227.697 427.907C227.6 427.956 227.492 427.979 227.384 427.972C227.275 427.965 227.17 427.928 227.081 427.866C226.991 427.805 226.92 427.72 226.875 427.62C226.83 427.521 226.812 427.412 226.824 427.303L228.221 419.135L222.321 413.367C222.244 413.29 222.189 413.193 222.163 413.087C222.136 412.98 222.139 412.869 222.171 412.764C222.205 412.658 222.269 412.563 222.354 412.491C222.439 412.418 222.542 412.371 222.652 412.354L230.81 411.147L234.458 403.739C234.508 403.639 234.585 403.554 234.68 403.495C234.775 403.436 234.885 403.405 234.997 403.405C235.109 403.405 235.218 403.436 235.313 403.495C235.409 403.554 235.486 403.639 235.535 403.739L239.184 411.147L247.341 412.354C247.452 412.37 247.557 412.417 247.643 412.489C247.729 412.562 247.794 412.657 247.828 412.764C247.86 412.869 247.862 412.981 247.834 413.088C247.806 413.194 247.75 413.291 247.672 413.367L241.772 419.135L243.163 427.273C243.185 427.386 243.175 427.502 243.133 427.609C243.092 427.716 243.02 427.809 242.928 427.877C242.821 427.946 242.695 427.982 242.567 427.979V427.979ZM234.994 422.779C235.091 422.778 235.186 422.803 235.271 422.851L241.766 426.272L240.526 419.032C240.509 418.935 240.516 418.836 240.547 418.742C240.577 418.649 240.63 418.564 240.701 418.495L245.956 413.361L238.69 412.306C238.594 412.291 238.502 412.253 238.423 412.196C238.345 412.138 238.281 412.062 238.238 411.974L234.994 405.38L231.743 411.974C231.7 412.062 231.637 412.138 231.558 412.196C231.479 412.253 231.388 412.291 231.291 412.306L224.007 413.355L229.256 418.489C229.327 418.558 229.38 418.643 229.41 418.736C229.441 418.83 229.448 418.929 229.431 419.026L228.191 426.266L234.687 422.845C234.781 422.796 234.887 422.773 234.994 422.779V422.779Z" fill="#2B3A4F"/>
<path d="M265.75 423.382L258.171 427.376L259.622 418.924L253.493 412.933L261.957 411.703L265.75 404.011L269.537 411.703L278.001 412.933L271.873 418.924L273.323 427.376L265.75 423.382Z" fill="white"/>
<path d="M273.324 427.979C273.225 427.979 273.128 427.954 273.041 427.907L265.75 424.064L258.454 427.907C258.357 427.957 258.249 427.979 258.14 427.972C258.032 427.965 257.927 427.928 257.838 427.867C257.748 427.805 257.677 427.72 257.632 427.621C257.587 427.521 257.569 427.412 257.581 427.304L258.972 419.165L253.072 413.398C252.994 413.321 252.938 413.224 252.91 413.118C252.882 413.012 252.884 412.9 252.916 412.794C252.95 412.687 253.015 412.592 253.101 412.519C253.187 412.447 253.292 412.4 253.403 412.384L261.56 411.178L265.209 403.769C265.259 403.669 265.335 403.584 265.431 403.525C265.526 403.466 265.635 403.435 265.747 403.435C265.859 403.435 265.969 403.466 266.064 403.525C266.159 403.584 266.236 403.669 266.286 403.769L269.934 411.178L278.092 412.384C278.203 412.4 278.308 412.447 278.394 412.519C278.48 412.592 278.544 412.687 278.579 412.794C278.61 412.9 278.612 413.012 278.585 413.118C278.557 413.224 278.501 413.321 278.423 413.398L272.523 419.165L273.914 427.304C273.936 427.416 273.925 427.533 273.884 427.639C273.842 427.746 273.771 427.839 273.679 427.907C273.57 427.965 273.447 427.99 273.324 427.979V427.979ZM254.788 413.355L260.037 418.489C260.108 418.558 260.161 418.643 260.191 418.736C260.222 418.83 260.229 418.929 260.212 419.026L258.972 426.266L265.467 422.845C265.554 422.8 265.65 422.776 265.747 422.776C265.845 422.776 265.941 422.8 266.027 422.845L272.523 426.266L271.283 419.026C271.266 418.929 271.273 418.83 271.304 418.736C271.334 418.643 271.387 418.558 271.457 418.489L276.713 413.355L269.447 412.3C269.35 412.285 269.259 412.247 269.18 412.19C269.101 412.132 269.038 412.056 268.995 411.968L265.75 405.374L262.5 411.968C262.457 412.056 262.393 412.132 262.315 412.19C262.236 412.247 262.144 412.285 262.048 412.3L254.788 413.355Z" fill="#2B3A4F"/>
<path d="M296.507 423.382L288.928 427.376L290.378 418.924L284.25 412.933L292.714 411.703L296.507 404.011L300.294 411.703L308.758 412.933L302.635 418.924L304.08 427.376L296.507 423.382Z" fill="white"/>
<path d="M288.927 427.979C288.8 427.977 288.676 427.937 288.572 427.864C288.479 427.797 288.408 427.704 288.367 427.597C288.325 427.49 288.315 427.374 288.337 427.261L289.728 419.123L283.828 413.355C283.749 413.278 283.693 413.182 283.666 413.075C283.638 412.969 283.64 412.857 283.671 412.752C283.706 412.645 283.77 412.549 283.857 412.477C283.943 412.404 284.048 412.358 284.159 412.342L292.316 411.135L295.964 403.727C296.014 403.626 296.091 403.542 296.186 403.483C296.282 403.424 296.391 403.393 296.503 403.393C296.615 403.393 296.725 403.424 296.82 403.483C296.915 403.542 296.992 403.626 297.042 403.727L300.69 411.135L308.847 412.342C308.959 412.358 309.064 412.404 309.15 412.477C309.236 412.549 309.3 412.645 309.335 412.752C309.366 412.857 309.368 412.969 309.341 413.075C309.313 413.182 309.257 413.278 309.179 413.355L303.279 419.123L304.676 427.273C304.688 427.381 304.67 427.491 304.625 427.59C304.58 427.689 304.508 427.774 304.419 427.836C304.329 427.898 304.225 427.934 304.116 427.942C304.008 427.949 303.899 427.926 303.803 427.876L296.512 424.033L289.216 427.876C289.13 427.935 289.03 427.97 288.927 427.979ZM296.506 422.779C296.603 422.78 296.698 422.805 296.783 422.851L303.279 426.272L302.039 419.032C302.022 418.935 302.029 418.836 302.059 418.742C302.09 418.648 302.143 418.564 302.213 418.495L307.469 413.361L300.203 412.306C300.106 412.291 300.015 412.253 299.936 412.195C299.857 412.138 299.794 412.062 299.751 411.974L296.506 405.38L293.237 411.968C293.195 412.056 293.131 412.132 293.052 412.189C292.974 412.247 292.882 412.285 292.786 412.299L285.52 413.355L290.775 418.489C290.846 418.558 290.899 418.642 290.929 418.736C290.959 418.83 290.967 418.929 290.95 419.026L289.71 426.266L296.247 422.851C296.327 422.808 296.416 422.783 296.506 422.779V422.779Z" fill="#2B3A4F"/>
<path d="M98.4936 124.295H22.3633V55.4541H110.534L98.4936 71.1818V124.295Z" fill="white"/>
<path d="M98.493 124.881H22.3628C22.2031 124.881 22.05 124.817 21.9371 124.704C21.8242 124.591 21.7607 124.438 21.7607 124.278V55.4544C21.7607 55.2944 21.8242 55.1409 21.9371 55.0278C22.05 54.9146 22.2031 54.8511 22.3628 54.8511H110.533C110.646 54.8513 110.756 54.8831 110.851 54.9427C110.946 55.0024 111.023 55.0876 111.072 55.1886C111.122 55.2897 111.142 55.4026 111.131 55.5146C111.12 55.6266 111.077 55.7332 111.009 55.8224L99.095 71.3872V124.278C99.095 124.438 99.0316 124.591 98.9187 124.704C98.8058 124.817 98.6527 124.881 98.493 124.881ZM22.9648 123.674H97.891V71.1881C97.8914 71.0549 97.9359 70.9254 98.0174 70.8201L109.311 56.0637H22.9648V123.674Z" fill="#2B3A4F"/>
<path d="M69.1151 74.7352C67.2304 74.754 65.3922 75.3233 63.8256 76.3735C62.2591 77.4236 61.0323 78.9089 60.2956 80.6474C59.3905 78.61 57.8121 76.9475 55.8264 75.9404C53.8408 74.9332 51.5694 74.6429 49.395 75.1183C47.2207 75.5938 45.2764 76.806 43.8899 78.5506C42.5035 80.2951 41.7596 82.4654 41.7838 84.6955C41.7838 88.1825 43.1443 90.3302 45.9978 93.4975L60.5485 108.67L74.8041 93.22C77.6155 89.9984 78.9038 87.8266 78.8737 84.3396C78.8482 81.7698 77.8064 79.3152 75.9768 77.5146C74.1472 75.7139 71.6794 74.7143 69.1151 74.7352V74.7352Z" fill="#FFDEA4"/>
<path d="M383.57 223.217C383.526 223.223 383.481 223.223 383.438 223.217L290.415 202.404C290.259 202.369 290.124 202.274 290.038 202.139C289.952 202.005 289.923 201.842 289.957 201.686L315.242 88.3396C315.276 88.1838 315.371 88.048 315.505 87.962C315.64 87.8761 315.802 87.847 315.958 87.8811L408.987 108.701C409.141 108.736 409.275 108.832 409.36 108.966C409.447 109.1 409.477 109.263 409.444 109.419L384.142 222.771C384.106 222.925 384.011 223.06 383.877 223.145C383.782 223.194 383.677 223.219 383.57 223.217V223.217ZM291.264 201.36L383.112 221.914L408.114 109.744L316.259 89.1903L291.264 201.36Z" fill="#2B3A4F"/>
<path d="M346.934 107.321L323.197 102.009L317.896 125.796L341.632 131.108L346.934 107.321Z" fill="white"/>
<path d="M341.633 131.704C341.59 131.71 341.545 131.71 341.501 131.704L317.764 126.389C317.609 126.353 317.475 126.258 317.39 126.124C317.306 125.989 317.278 125.826 317.312 125.671L322.61 101.883C322.646 101.729 322.741 101.594 322.875 101.509C322.942 101.466 323.017 101.436 323.095 101.421C323.174 101.407 323.254 101.408 323.332 101.425L347.064 106.74C347.219 106.775 347.355 106.87 347.44 107.004C347.526 107.139 347.555 107.302 347.521 107.458L342.223 131.246C342.191 131.377 342.115 131.494 342.008 131.578C341.901 131.661 341.769 131.705 341.633 131.704ZM318.619 125.333L341.176 130.383L346.215 107.772L323.657 102.722L318.619 125.333Z" fill="#2B3A4F"/>
<path d="M392.714 121.949H392.582L354.3 113.382C354.14 113.348 354.001 113.251 353.912 113.114C353.823 112.976 353.793 112.809 353.827 112.649C353.862 112.489 353.958 112.349 354.095 112.26C354.232 112.172 354.399 112.141 354.559 112.175L392.841 120.748C392.996 120.783 393.132 120.878 393.217 121.012C393.303 121.147 393.332 121.31 393.298 121.466C393.271 121.601 393.198 121.723 393.091 121.811C392.985 121.899 392.852 121.947 392.714 121.949V121.949Z" fill="#2B3A4F"/>
<path d="M379.253 126.974H379.126L352.59 121.031C352.434 120.997 352.299 120.902 352.213 120.767C352.127 120.633 352.098 120.47 352.132 120.314C352.149 120.236 352.181 120.162 352.227 120.097C352.273 120.032 352.331 119.976 352.398 119.933C352.465 119.891 352.54 119.862 352.618 119.849C352.697 119.835 352.777 119.837 352.855 119.855L379.385 125.791C379.545 125.809 379.691 125.889 379.791 126.015C379.892 126.141 379.938 126.301 379.921 126.461C379.903 126.621 379.823 126.768 379.698 126.868C379.572 126.969 379.412 127.016 379.253 126.998V126.974Z" fill="#2B3A4F"/>
<path d="M389.301 137.26C389.257 137.266 389.212 137.266 389.168 137.26L350.886 128.694C350.731 128.659 350.595 128.564 350.51 128.429C350.424 128.295 350.395 128.132 350.429 127.976C350.446 127.898 350.478 127.824 350.524 127.759C350.57 127.694 350.628 127.638 350.695 127.596C350.762 127.553 350.837 127.524 350.915 127.511C350.994 127.497 351.074 127.499 351.151 127.517L389.433 136.084C389.589 136.119 389.724 136.214 389.81 136.348C389.896 136.483 389.925 136.646 389.891 136.802C389.858 136.934 389.782 137.051 389.675 137.134C389.568 137.217 389.436 137.262 389.301 137.26Z" fill="#2B3A4F"/>
<path d="M386.152 151.389H386.019L324.235 137.55C324.075 137.514 323.936 137.417 323.848 137.279C323.76 137.141 323.73 136.974 323.765 136.814C323.801 136.654 323.898 136.514 324.035 136.426C324.173 136.338 324.34 136.308 324.5 136.343L386.284 150.219C386.444 150.236 386.59 150.317 386.69 150.442C386.791 150.568 386.838 150.728 386.82 150.888C386.802 151.048 386.722 151.195 386.597 151.295C386.472 151.396 386.311 151.443 386.152 151.425V151.389Z" fill="#2B3A4F"/>
<path d="M365.479 154.798H365.346L322.531 145.212C322.372 145.177 322.232 145.081 322.143 144.943C322.055 144.806 322.024 144.639 322.059 144.479C322.093 144.319 322.189 144.179 322.327 144.09C322.464 144.001 322.63 143.971 322.79 144.005L365.611 153.591C365.771 153.609 365.917 153.689 366.017 153.815C366.118 153.94 366.164 154.101 366.147 154.261C366.129 154.421 366.049 154.567 365.924 154.668C365.798 154.769 365.638 154.815 365.479 154.798V154.798Z" fill="#2B3A4F"/>
<path d="M382.739 166.695C382.695 166.701 382.65 166.701 382.607 166.695L320.822 152.855C320.668 152.819 320.534 152.724 320.449 152.589C320.365 152.455 320.336 152.293 320.371 152.137C320.405 151.982 320.5 151.846 320.634 151.76C320.769 151.674 320.931 151.645 321.087 151.679L382.871 165.506C383.031 165.524 383.177 165.604 383.278 165.73C383.378 165.856 383.425 166.016 383.407 166.176C383.39 166.336 383.309 166.482 383.184 166.583C383.059 166.684 382.899 166.731 382.739 166.713V166.695Z" fill="#2B3A4F"/>
<path d="M379.59 180.83H379.458L317.674 166.984C317.518 166.95 317.383 166.854 317.297 166.72C317.211 166.585 317.182 166.422 317.216 166.266C317.233 166.188 317.265 166.115 317.311 166.05C317.357 165.984 317.415 165.929 317.482 165.886C317.549 165.843 317.624 165.815 317.702 165.801C317.781 165.788 317.861 165.79 317.938 165.808L379.723 179.635C379.882 179.653 380.029 179.733 380.129 179.859C380.23 179.984 380.276 180.145 380.259 180.305C380.241 180.465 380.161 180.611 380.035 180.712C379.91 180.813 379.75 180.859 379.59 180.842V180.83Z" fill="#2B3A4F"/>
<path d="M358.923 184.238H358.791L315.97 174.652C315.81 174.618 315.671 174.521 315.582 174.384C315.493 174.246 315.463 174.079 315.497 173.919C315.531 173.759 315.628 173.619 315.765 173.53C315.902 173.442 316.069 173.411 316.229 173.445L359.05 183.026C359.209 183.042 359.356 183.122 359.457 183.247C359.558 183.372 359.605 183.532 359.588 183.692C359.572 183.852 359.492 183.999 359.367 184.1C359.243 184.202 359.083 184.249 358.923 184.232V184.238Z" fill="#2B3A4F"/>
<path d="M376.177 196.135H376.044L314.26 182.296C314.183 182.278 314.11 182.245 314.046 182.199C313.981 182.153 313.926 182.095 313.884 182.027C313.843 181.96 313.814 181.885 313.801 181.807C313.788 181.729 313.791 181.649 313.808 181.572C313.844 181.417 313.94 181.283 314.074 181.198C314.208 181.113 314.37 181.085 314.525 181.119L376.315 194.947C376.475 194.964 376.621 195.045 376.722 195.17C376.822 195.296 376.869 195.456 376.851 195.616C376.833 195.776 376.753 195.923 376.628 196.023C376.503 196.124 376.342 196.171 376.183 196.153L376.177 196.135Z" fill="#2B3A4F"/>
<path d="M496.212 247.807L402.906 317.704L335.144 194.886L422.435 158.773L496.212 247.807Z" fill="#2D3E54"/>
<path d="M426.042 137.058L335.144 194.888L405.31 305.644L496.208 247.814L426.042 137.058Z" fill="white"/>
<path d="M405.314 306.241C405.27 306.247 405.226 306.247 405.182 306.241C405.027 306.204 404.891 306.109 404.803 305.976L334.638 195.206C334.596 195.139 334.567 195.064 334.554 194.986C334.54 194.908 334.542 194.828 334.56 194.751C334.577 194.674 334.609 194.6 334.655 194.536C334.7 194.471 334.758 194.416 334.825 194.373L425.729 136.542C425.863 136.457 426.025 136.429 426.18 136.464C426.258 136.481 426.331 136.513 426.396 136.558C426.461 136.604 426.517 136.662 426.559 136.729L496.718 247.487C496.804 247.621 496.833 247.785 496.799 247.941C496.765 248.097 496.671 248.233 496.537 248.319L405.633 306.151C405.538 306.21 405.427 306.242 405.314 306.241V306.241ZM335.981 195.073L405.501 304.805L495.381 247.62L425.861 137.887L335.981 195.073Z" fill="#2B3A4F"/>
<path d="M375.031 185.03L351.84 199.784L366.563 223.024L389.754 208.27L375.031 185.03Z" fill="white"/>
<path d="M366.563 223.621C366.521 223.627 366.478 223.627 366.436 223.621C366.359 223.604 366.285 223.572 366.22 223.526C366.155 223.481 366.1 223.423 366.057 223.356L351.332 200.105C351.289 200.037 351.26 199.962 351.247 199.883C351.233 199.805 351.236 199.724 351.254 199.646C351.291 199.491 351.385 199.355 351.519 199.266L374.714 184.516C374.848 184.43 375.011 184.4 375.167 184.434C375.322 184.468 375.458 184.563 375.545 184.697L390.264 207.941C390.35 208.076 390.379 208.239 390.345 208.395C390.311 208.551 390.217 208.687 390.083 208.774L366.888 223.53C366.79 223.591 366.678 223.622 366.563 223.621ZM352.674 199.966L366.749 222.185L388.958 208.08L374.877 185.855L352.674 199.966Z" fill="#2B3A4F"/>
<path d="M385.376 184.003C385.244 184.005 385.116 183.963 385.01 183.885C384.904 183.807 384.827 183.696 384.79 183.569C384.753 183.442 384.758 183.307 384.806 183.184C384.853 183.061 384.939 182.957 385.051 182.887L422.46 159.087C422.592 159.007 422.751 158.981 422.902 159.014C423.054 159.048 423.186 159.139 423.272 159.268C423.315 159.335 423.343 159.41 423.357 159.488C423.37 159.566 423.368 159.646 423.351 159.723C423.334 159.801 423.301 159.874 423.256 159.939C423.21 160.003 423.152 160.059 423.086 160.101L385.677 183.901C385.588 183.963 385.484 183.999 385.376 184.003V184.003Z" fill="#2B3A4F"/>
<path d="M390.113 191.466C389.983 191.465 389.857 191.423 389.753 191.345C389.649 191.267 389.574 191.157 389.537 191.032C389.501 190.907 389.505 190.774 389.55 190.652C389.596 190.53 389.679 190.426 389.788 190.356L415.717 173.862C415.852 173.776 416.015 173.748 416.171 173.783C416.327 173.818 416.462 173.913 416.547 174.049C416.633 174.184 416.661 174.348 416.626 174.504C416.591 174.66 416.496 174.796 416.361 174.881L390.432 191.375C390.336 191.435 390.226 191.466 390.113 191.466V191.466Z" fill="#2B3A4F"/>
<path d="M394.851 198.946C394.722 198.946 394.595 198.904 394.492 198.825C394.388 198.747 394.312 198.638 394.275 198.513C394.239 198.388 394.243 198.255 394.289 198.133C394.334 198.011 394.417 197.907 394.526 197.836L431.935 174.036C432.002 173.994 432.077 173.965 432.154 173.952C432.232 173.938 432.312 173.94 432.389 173.958C432.466 173.975 432.539 174.007 432.604 174.053C432.669 174.099 432.724 174.157 432.766 174.223C432.808 174.29 432.837 174.365 432.851 174.443C432.864 174.521 432.862 174.601 432.845 174.678C432.827 174.756 432.795 174.829 432.75 174.894C432.704 174.958 432.646 175.014 432.579 175.056L395.171 198.856C395.075 198.915 394.964 198.947 394.851 198.946Z" fill="#2B3A4F"/>
<path d="M380.637 227.368C380.506 227.369 380.377 227.328 380.271 227.249C380.166 227.171 380.088 227.06 380.051 226.933C380.015 226.807 380.02 226.671 380.067 226.548C380.114 226.425 380.2 226.321 380.312 226.251L440.682 187.846C440.748 187.795 440.824 187.758 440.905 187.738C440.987 187.718 441.071 187.715 441.154 187.729C441.236 187.744 441.314 187.775 441.384 187.822C441.454 187.868 441.513 187.929 441.558 187.999C441.603 188.07 441.632 188.149 441.645 188.232C441.658 188.315 441.653 188.4 441.631 188.481C441.609 188.562 441.571 188.637 441.518 188.702C441.466 188.768 441.4 188.821 441.326 188.86L380.956 227.271C380.861 227.333 380.751 227.366 380.637 227.368Z" fill="#2B3A4F"/>
<path d="M385.376 234.842C385.246 234.842 385.12 234.799 385.016 234.721C384.912 234.643 384.836 234.533 384.8 234.409C384.763 234.284 384.768 234.15 384.813 234.028C384.858 233.907 384.942 233.802 385.051 233.732L426.884 207.109C426.951 207.066 427.026 207.038 427.104 207.024C427.182 207.01 427.261 207.012 427.339 207.03C427.416 207.047 427.489 207.08 427.553 207.125C427.618 207.171 427.673 207.229 427.715 207.296C427.758 207.363 427.786 207.437 427.8 207.515C427.813 207.593 427.811 207.673 427.794 207.751C427.777 207.828 427.744 207.901 427.699 207.966C427.653 208.031 427.595 208.086 427.529 208.128L385.689 234.751C385.595 234.81 385.486 234.841 385.376 234.842Z" fill="#2B3A4F"/>
<path d="M390.113 242.323C389.983 242.323 389.857 242.28 389.753 242.202C389.649 242.124 389.574 242.014 389.537 241.89C389.501 241.765 389.505 241.632 389.55 241.51C389.596 241.388 389.679 241.284 389.788 241.213L450.158 202.802C450.224 202.759 450.299 202.73 450.377 202.717C450.455 202.703 450.535 202.705 450.612 202.723C450.689 202.74 450.762 202.772 450.826 202.818C450.891 202.864 450.946 202.922 450.988 202.989C451.031 203.056 451.059 203.13 451.073 203.208C451.087 203.286 451.085 203.366 451.067 203.444C451.05 203.521 451.018 203.594 450.972 203.659C450.926 203.724 450.869 203.779 450.802 203.821L390.432 242.233C390.336 242.292 390.226 242.323 390.113 242.323V242.323Z" fill="#2B3A4F"/>
<path d="M398.86 256.132C398.728 256.134 398.6 256.092 398.494 256.014C398.388 255.936 398.311 255.825 398.274 255.698C398.237 255.571 398.243 255.436 398.29 255.313C398.337 255.19 398.423 255.086 398.535 255.016L458.905 216.611C458.971 216.568 459.046 216.54 459.124 216.526C459.202 216.512 459.282 216.514 459.359 216.532C459.436 216.549 459.509 216.582 459.573 216.627C459.638 216.673 459.693 216.731 459.735 216.798C459.778 216.865 459.806 216.939 459.82 217.017C459.833 217.095 459.831 217.175 459.814 217.253C459.797 217.33 459.764 217.403 459.719 217.468C459.673 217.533 459.616 217.588 459.549 217.63L399.191 256.036C399.093 256.102 398.978 256.135 398.86 256.132Z" fill="#2B3A4F"/>
<path d="M403.598 263.637C403.467 263.639 403.338 263.598 403.232 263.519C403.127 263.441 403.049 263.33 403.012 263.203C402.976 263.077 402.981 262.941 403.028 262.818C403.075 262.695 403.161 262.591 403.273 262.521L445.113 235.886C445.248 235.8 445.411 235.772 445.567 235.807C445.723 235.842 445.858 235.938 445.944 236.073C446.029 236.208 446.058 236.372 446.023 236.528C445.988 236.684 445.892 236.82 445.757 236.906L403.917 263.523C403.825 263.593 403.714 263.633 403.598 263.637V263.637Z" fill="#2B3A4F"/>
<path d="M408.336 271.088C408.206 271.088 408.08 271.045 407.976 270.967C407.872 270.889 407.796 270.779 407.76 270.654C407.723 270.53 407.728 270.396 407.773 270.274C407.818 270.152 407.902 270.048 408.011 269.978L468.38 231.566C468.515 231.48 468.679 231.451 468.835 231.485C468.992 231.52 469.128 231.615 469.214 231.75C469.3 231.886 469.329 232.05 469.295 232.206C469.261 232.363 469.165 232.5 469.031 232.586L408.655 270.997C408.559 271.057 408.449 271.088 408.336 271.088Z" fill="#2B3A4F"/>
</g>
<defs>
<clipPath id="clip0_233_28818">
<rect width="500" height="500" fill="white" transform="translate(0.660156)"/>
</clipPath>
</defs>
</svg>
