<svg width="501" height="500" viewBox="0 0 501 500" fill="none" xmlns="http://www.w3.org/2000/svg">
<g clip-path="url(#clip0_233_29502)">
<path d="M105.275 465.931C105.115 465.931 104.962 465.867 104.849 465.754C104.735 465.641 104.672 465.488 104.672 465.328V356.692C104.672 356.532 104.735 356.379 104.849 356.265C104.962 356.152 105.115 356.089 105.275 356.089C105.435 356.089 105.589 356.152 105.702 356.265C105.815 356.379 105.879 356.532 105.879 356.692V465.328C105.879 465.488 105.815 465.641 105.702 465.754C105.589 465.867 105.435 465.931 105.275 465.931Z" fill="#2B3A4F"/>
<path d="M199.006 375.019H87.2139L104.056 356.691H215.848L199.006 375.019Z" fill="#DFEDFF"/>
<path d="M155.74 422.034H44.4062L60.7835 403.706H172.576L155.74 422.034Z" fill="#DFEDFF"/>
<path d="M113.156 469.053H1.36328L18.2051 450.719H129.997L113.156 469.053Z" fill="#DFEDFF"/>
<path d="M112.245 470.398C112.104 470.398 111.967 470.349 111.859 470.259C111.741 470.152 111.67 470.002 111.662 469.843C111.654 469.684 111.71 469.528 111.817 469.409L215.33 356.36L215.402 356.282C215.476 356.202 215.57 356.144 215.674 356.113C215.794 356.077 215.922 356.077 216.042 356.113H216.199C216.275 356.168 216.337 356.241 216.38 356.325C216.423 356.409 216.445 356.501 216.446 356.595C216.609 392.63 216.609 429.184 216.446 465.237C216.446 465.397 216.383 465.55 216.269 465.664C216.156 465.777 216.003 465.84 215.843 465.84C215.683 465.84 215.529 465.777 215.416 465.664C215.303 465.55 215.239 465.397 215.239 465.237C215.396 429.702 215.402 393.679 215.239 358.151L112.655 470.121C112.61 470.193 112.551 470.256 112.48 470.303C112.409 470.351 112.329 470.383 112.245 470.398V470.398Z" fill="#2B3A4F"/>
<path d="M1.42996 470.458C1.27885 470.456 1.13332 470.401 1.01963 470.301C0.960635 470.248 0.912866 470.183 0.879082 470.111C0.845299 470.039 0.82617 469.96 0.822804 469.881C0.819437 469.801 0.831898 469.722 0.859467 469.647C0.887037 469.572 0.929167 469.504 0.983422 469.445C20.6494 448.085 40.3455 426.248 59.3959 405.146C73.824 389.145 88.747 372.59 103.61 356.312C103.663 356.253 103.728 356.206 103.799 356.172C103.871 356.138 103.949 356.119 104.028 356.115C104.108 356.112 104.187 356.124 104.262 356.151C104.336 356.178 104.405 356.219 104.463 356.272C104.522 356.326 104.57 356.39 104.603 356.462C104.637 356.534 104.656 356.612 104.66 356.691C104.664 356.77 104.652 356.849 104.625 356.924C104.598 356.998 104.556 357.067 104.503 357.126C89.6401 373.404 74.7171 389.959 60.289 405.96C41.2567 427.049 21.5424 448.898 1.87651 470.259C1.82009 470.322 1.75121 470.371 1.67431 470.406C1.5974 470.44 1.51417 470.458 1.42996 470.458V470.458Z" fill="#2B3A4F"/>
<path d="M416.165 446.559H133.22C125.652 446.55 118.396 443.542 113.044 438.195C107.692 432.847 104.681 425.598 104.672 418.036V28.523C104.68 20.9607 107.69 13.7104 113.042 8.36301C118.395 3.01564 125.651 0.00797967 133.22 0L416.165 0C423.733 0.00957513 430.988 3.01794 436.339 8.36514C441.69 13.7123 444.699 20.9617 444.707 28.523V418.036C444.699 425.598 441.69 432.847 436.339 438.194C430.988 443.541 423.733 446.55 416.165 446.559ZM133.22 1.20579C125.971 1.21377 119.022 4.09439 113.896 9.21564C108.77 14.3369 105.887 21.2805 105.879 28.523V418.036C105.888 425.278 108.772 432.221 113.898 437.342C119.023 442.463 125.972 445.344 133.22 445.353H416.165C423.413 445.344 430.361 442.463 435.486 437.342C440.61 432.22 443.492 425.278 443.5 418.036V28.523C443.494 21.281 440.612 14.3374 435.487 9.21601C430.363 4.09459 423.413 1.21377 416.165 1.20579H133.22Z" fill="#2B3A4F"/>
<path d="M294.959 16.1096H242.255C242.095 16.1096 241.941 16.0461 241.828 15.933C241.715 15.82 241.651 15.6666 241.651 15.5067C241.651 15.3468 241.715 15.1935 241.828 15.0804C241.941 14.9673 242.095 14.9038 242.255 14.9038H294.959C295.119 14.9038 295.272 14.9673 295.385 15.0804C295.499 15.1935 295.562 15.3468 295.562 15.5067C295.562 15.6666 295.499 15.82 295.385 15.933C295.272 16.0461 295.119 16.1096 294.959 16.1096V16.1096Z" fill="#2B3A4F"/>
<path d="M208.209 39.8633H123.378V124.618H208.209V39.8633Z" fill="white"/>
<path d="M208.209 125.222H123.378C123.218 125.222 123.064 125.158 122.951 125.045C122.838 124.932 122.774 124.779 122.774 124.619V39.8636C122.774 39.7037 122.838 39.5504 122.951 39.4373C123.064 39.3243 123.218 39.2607 123.378 39.2607H208.209C208.369 39.2607 208.522 39.3243 208.635 39.4373C208.749 39.5504 208.812 39.7037 208.812 39.8636V124.619C208.812 124.779 208.749 124.932 208.635 125.045C208.522 125.158 208.369 125.222 208.209 125.222ZM123.981 124.016H207.605V40.4665H123.981V124.016Z" fill="#2B3A4F"/>
<path d="M151.323 93.0269H180.288C185.28 93.0269 190.067 95.008 193.596 98.5345C197.126 102.061 199.109 106.844 199.109 111.831V113.821H132.502V111.831C132.502 106.844 134.485 102.061 138.015 98.5345C141.544 95.008 146.331 93.0269 151.323 93.0269V93.0269Z" fill="#4891FF"/>
<path d="M174.417 81.8327C179.177 77.0767 179.177 69.3657 174.417 64.6097C169.657 59.8537 161.939 59.8537 157.179 64.6097C152.419 69.3657 152.419 77.0767 157.179 81.8327C161.939 86.5887 169.657 86.5887 174.417 81.8327Z" fill="#4891FF"/>
<path d="M338.243 175.117H137.553V184.311H338.243V175.117Z" fill="#DFEDFF"/>
<path d="M338.243 195.851H137.553V205.045H338.243V195.851Z" fill="#DFEDFF"/>
<path d="M338.243 216.584H137.553V225.779H338.243V216.584Z" fill="#DFEDFF"/>
<path d="M237.898 237.312H137.553V246.506H237.898V237.312Z" fill="#DFEDFF"/>
<path d="M410.378 284.88H137.553V294.075H410.378V284.88Z" fill="white" fill-opacity="0.28"/>
<path d="M410.378 305.614H137.553V314.808H410.378V305.614Z" fill="white" fill-opacity="0.28"/>
<path d="M410.378 326.348H137.553V335.542H410.378V326.348Z" fill="white" fill-opacity="0.28"/>
<path d="M273.965 347.075H137.553V356.269H273.965V347.075Z" fill="white" fill-opacity="0.28"/>
<path d="M393.97 40.4727H235.84V56.4072H393.97V40.4727Z" fill="#FFC14F"/>
<path d="M314.902 74.1504H235.84V83.3446H314.902V74.1504Z" fill="#FFC14F"/>
<path d="M411.222 74.1504H323.477V83.3446H411.222V74.1504Z" fill="#FFC14F"/>
<path d="M362.09 94.3535H235.84V103.548H362.09V94.3535Z" fill="#FFC14F"/>
<path d="M411.223 94.3535H370.666V103.548H411.223V94.3535Z" fill="#FFC14F"/>
<path d="M287.94 114.562H235.84V123.757H287.94V114.562Z" fill="#FFC14F"/>
<path d="M411.217 114.562H296.51V123.757H411.217V114.562Z" fill="#FFC14F"/>
<path d="M107.447 80.8243C105.83 80.8243 104.562 78.9674 104.562 76.6041C104.562 74.2407 105.83 72.3838 107.447 72.3838C109.064 72.3838 110.325 74.2407 110.325 76.6041C110.325 78.9674 109.058 80.8243 107.447 80.8243ZM107.447 73.5896C106.65 73.5896 105.769 74.8315 105.769 76.6041C105.769 78.3766 106.65 79.6185 107.447 79.6185C108.243 79.6185 109.118 78.3766 109.118 76.6041C109.118 74.8315 108.237 73.5534 107.447 73.5534V73.5896Z" fill="#2B3A4F"/>
<path d="M106.681 75.4164C106.681 81.6925 105.082 88.7223 99.2707 88.7223C93.4596 88.7223 85.6572 81.6925 85.6572 75.4164C85.6572 69.1402 90.364 64.0518 96.1691 64.0518C101.974 64.0518 106.681 69.1402 106.681 75.4164Z" fill="#FFDEA4"/>
<path d="M98.9271 75.4165H86.8584V95.3302H98.9271V75.4165Z" fill="#FFDEA4"/>
<path d="M98.9267 95.9331C98.7666 95.9331 98.6131 95.8695 98.5 95.7565C98.3868 95.6434 98.3232 95.4901 98.3232 95.3302V85.0809C98.3232 84.921 98.3868 84.7677 98.5 84.6546C98.6131 84.5415 98.7666 84.478 98.9267 84.478C99.0867 84.478 99.2402 84.5415 99.3534 84.6546C99.4665 84.7677 99.5301 84.921 99.5301 85.0809V95.3302C99.5301 95.4901 99.4665 95.6434 99.3534 95.7565C99.2402 95.8695 99.0867 95.9331 98.9267 95.9331Z" fill="#2B3A4F"/>
<path d="M101.516 73.481C101.516 78.5694 98.782 86.5759 92.289 86.5759C84.3297 86.5759 83.0625 78.5694 83.0625 73.481C83.0625 71.0361 84.0346 68.6914 85.7649 66.9627C87.4952 65.2339 89.842 64.2627 92.289 64.2627C94.736 64.2627 97.0828 65.2339 98.8132 66.9627C100.543 68.6914 101.516 71.0361 101.516 73.481V73.481Z" fill="#2B3A4F"/>
<path d="M100.822 72.5949C105.988 72.5949 110.175 69.9199 110.175 66.6202C110.175 63.3205 105.988 60.6455 100.822 60.6455C95.6563 60.6455 91.4688 63.3205 91.4688 66.6202C91.4688 69.9199 95.6563 72.5949 100.822 72.5949Z" fill="#2B3A4F"/>
<path d="M109.722 77.1706H109.674L99.639 76.435C99.5597 76.4291 99.4824 76.4076 99.4115 76.3718C99.3406 76.336 99.2774 76.2867 99.2255 76.2265C99.1209 76.1049 99.0688 75.9468 99.0808 75.7869C99.0928 75.627 99.1679 75.4784 99.2895 75.3738C99.4112 75.2693 99.5694 75.2172 99.7295 75.2292L109.765 75.9648C109.925 75.9704 110.076 76.0393 110.185 76.1563C110.294 76.2733 110.353 76.4289 110.347 76.5888C110.341 76.7487 110.272 76.8998 110.155 77.0089C110.038 77.118 109.882 77.1762 109.722 77.1706Z" fill="#2B3A4F"/>
<path d="M103.526 77.0559C104.31 78.8646 103.737 80.824 102.246 81.4752C100.756 82.1263 98.9093 81.2099 98.1248 79.4193C97.3404 77.6287 97.9136 75.6512 99.4041 75.0001C100.895 74.3489 102.741 75.2653 103.526 77.0559Z" fill="#FFDEA4"/>
<path d="M127.053 318.794L145.892 273.516L173.324 286.334L156.47 327.825L127.053 318.794Z" fill="#2B3A4F"/>
<path d="M127.053 318.793L132.369 306.018L164.731 308.11L156.47 327.825L127.053 318.793Z" fill="white"/>
<path d="M156.47 328.428C156.41 328.437 156.349 328.437 156.289 328.428L126.872 319.384C126.792 319.359 126.718 319.318 126.654 319.263C126.591 319.208 126.54 319.141 126.504 319.065C126.47 318.988 126.452 318.905 126.452 318.82C126.452 318.736 126.47 318.653 126.504 318.576L131.82 305.795C131.869 305.678 131.954 305.58 132.062 305.513C132.171 305.447 132.297 305.417 132.424 305.427L164.786 307.519C164.882 307.525 164.976 307.554 165.059 307.603C165.142 307.653 165.212 307.722 165.263 307.804C165.314 307.886 165.344 307.979 165.351 308.075C165.359 308.172 165.343 308.268 165.305 308.357L157.044 328.066C156.995 328.177 156.915 328.27 156.813 328.335C156.71 328.399 156.591 328.432 156.47 328.428V328.428ZM127.862 318.414L156.126 327.089L163.85 308.683L132.761 306.669L127.862 318.414Z" fill="#2B3A4F"/>
<path d="M201.77 347.823V341.794C201.78 339.606 200.995 337.489 199.562 335.835C198.128 334.181 196.143 333.102 193.974 332.799L181.483 331.038C179.499 330.758 177.617 329.985 176.01 328.789L173.168 326.836C169.402 324.183 166.584 320.398 165.124 316.032H124.531L121.918 347.383L201.77 347.823Z" fill="#FFC14F"/>
<path d="M121.688 347.202C121.154 347.202 120.641 347.414 120.263 347.792C119.885 348.17 119.673 348.682 119.673 349.216V357.518C119.674 358.098 119.906 358.653 120.316 359.063C120.727 359.474 121.283 359.705 121.863 359.706H201.77C202.683 359.706 203.558 359.344 204.204 358.7C204.85 358.056 205.214 357.182 205.216 356.27V350.639C205.214 349.727 204.85 348.853 204.204 348.208C203.558 347.564 202.683 347.202 201.77 347.202H121.688Z" fill="#2D3E54"/>
<path d="M201.77 347.805C201.616 347.796 201.472 347.728 201.367 347.616C201.261 347.504 201.203 347.356 201.203 347.202L201.456 342.777C201.588 340.64 200.912 338.532 199.562 336.869C198.212 335.207 196.287 334.111 194.167 333.799L179.165 331.521C179.126 331.515 179.085 331.521 179.048 331.538C179.012 331.555 178.981 331.583 178.96 331.617L171.218 343.373C171.13 343.506 170.993 343.597 170.837 343.629C170.681 343.661 170.518 343.63 170.385 343.542C170.252 343.455 170.159 343.318 170.126 343.162C170.093 343.006 170.124 342.844 170.21 342.71L177.953 330.954C178.103 330.731 178.314 330.556 178.561 330.449C178.808 330.342 179.081 330.308 179.346 330.351L194.348 332.624C196.767 332.982 198.963 334.233 200.503 336.131C202.043 338.029 202.813 340.435 202.663 342.873L202.404 347.292C202.381 347.441 202.304 347.577 202.187 347.672C202.069 347.766 201.921 347.814 201.77 347.805Z" fill="#2D3E54"/>
<path d="M165.124 333.203C165.018 333.202 164.915 333.174 164.824 333.121C164.733 333.068 164.657 332.993 164.605 332.901C164.525 332.764 164.504 332.6 164.545 332.447C164.585 332.293 164.685 332.162 164.822 332.081L173.016 327.301C173.085 327.26 173.161 327.234 173.239 327.223C173.318 327.213 173.398 327.217 173.475 327.238C173.552 327.258 173.624 327.293 173.687 327.341C173.75 327.389 173.803 327.449 173.843 327.518C173.883 327.586 173.91 327.662 173.92 327.74C173.931 327.819 173.926 327.899 173.906 327.976C173.886 328.052 173.851 328.124 173.803 328.187C173.755 328.251 173.695 328.304 173.626 328.344L165.431 333.118C165.339 333.175 165.232 333.205 165.124 333.203V333.203Z" fill="#2D3E54"/>
<path d="M137.202 347.6C136.357 343.925 134.651 340.502 132.223 337.615C129.796 334.727 126.716 332.456 123.239 330.99L121.785 347.268C121.338 347.268 137.202 347.6 137.202 347.6Z" fill="#304056"/>
<path d="M33.5391 364.577L62.2746 321.778L87.9085 340.63L62.0031 379.927L33.5391 364.577Z" fill="#2B3A4F"/>
<path d="M33.5391 364.577L46.0241 345.978L71.8029 365.06L62.0031 379.927L33.5391 364.577Z" fill="white"/>
<path d="M61.9969 380.53C61.8978 380.53 61.8004 380.505 61.7133 380.458L33.2492 365.108C33.1769 365.066 33.1136 365.011 33.0629 364.945C33.0121 364.878 32.975 364.803 32.9536 364.722C32.9331 364.64 32.93 364.555 32.9446 364.472C32.9591 364.389 32.991 364.31 33.038 364.24L45.5231 345.647C45.5685 345.579 45.6271 345.521 45.6956 345.476C45.7641 345.432 45.8409 345.401 45.9214 345.387C46.0021 345.373 46.085 345.375 46.1649 345.394C46.2448 345.412 46.32 345.447 46.386 345.496L72.1587 364.571C72.2837 364.663 72.3686 364.8 72.3955 364.952C72.4225 365.105 72.3896 365.262 72.3035 365.391L62.5038 380.259C62.4485 380.343 62.3732 380.411 62.2847 380.459C62.1962 380.506 62.0973 380.531 61.9969 380.53ZM34.4078 364.36L61.7736 379.131L70.9579 365.205L46.1748 346.84L34.4078 364.36Z" fill="#2B3A4F"/>
<path d="M40.7316 347.823L19.2734 363.98L50.7848 398.743C52.1874 400.291 53.8989 401.529 55.8091 402.376C57.7193 403.224 59.7859 403.662 61.8759 403.663H87.6426C87.6426 389.911 78.2833 386.957 73.4257 386.348C71.4361 386.1 69.5971 385.161 68.2301 383.695L69.1654 375.743L40.7316 347.823Z" fill="#FFC14F"/>
<path d="M87.6423 404.266C87.4822 404.266 87.3288 404.203 87.2156 404.09C87.1024 403.977 87.0388 403.823 87.0388 403.663C87.0388 394.138 82.2476 388.501 73.1598 387.385C72.4586 387.3 71.7699 387.132 71.1082 386.885C71.0297 386.86 70.957 386.82 70.8946 386.767C70.8322 386.714 70.7814 386.648 70.7452 386.574C70.709 386.501 70.6883 386.42 70.6843 386.338C70.6803 386.256 70.6931 386.174 70.7219 386.098C70.7507 386.021 70.7949 385.951 70.8518 385.891C70.9087 385.832 70.9771 385.785 71.0528 385.753C71.1285 385.721 71.21 385.705 71.2921 385.706C71.3743 385.707 71.4554 385.724 71.5306 385.757C72.1155 385.971 72.7229 386.116 73.3409 386.191C80.1416 387.042 88.2518 390.767 88.2518 403.675C88.2486 403.834 88.1828 403.985 88.0687 404.096C87.9545 404.207 87.8013 404.268 87.6423 404.266Z" fill="#2D3E54"/>
<path d="M87.6428 403.663H61.8762C59.7862 403.662 57.7195 403.224 55.8093 402.376C53.8991 401.529 52.1876 400.292 50.785 398.744L19.2737 363.981L18.8271 363.492C18.359 363.014 17.7315 362.725 17.0639 362.68C16.3963 362.634 15.7353 362.835 15.2065 363.245L11.1937 366.778C10.8986 367.011 10.655 367.302 10.4782 367.633C10.3014 367.964 10.1952 368.329 10.1663 368.703C10.1374 369.078 10.1864 369.454 10.3102 369.808C10.4341 370.163 10.6301 370.488 10.8859 370.763L45.1067 407.648C47.13 409.831 49.5831 411.573 52.3121 412.764C55.0411 413.955 57.987 414.57 60.965 414.57H87.673C88.3692 414.57 89.0368 414.293 89.5291 413.801C90.0214 413.31 90.2979 412.643 90.2979 411.947V406.286C90.298 405.939 90.2291 405.595 90.0953 405.275C89.9615 404.955 89.7654 404.665 89.5185 404.421C89.2715 404.177 88.9786 403.984 88.6566 403.854C88.3346 403.724 87.9901 403.659 87.6428 403.663V403.663Z" fill="#304056"/>
<path d="M28.337 373.983C30.7588 371.431 32.3836 368.23 33.0127 364.77C33.6418 361.31 33.2479 357.742 31.8792 354.503L19.2734 363.98L28.337 373.983Z" fill="#304056"/>
<path d="M58.6963 396.591C58.5707 396.591 58.4483 396.551 58.3462 396.478C58.2441 396.405 58.1675 396.302 58.127 396.183C58.0865 396.064 58.0841 395.935 58.1201 395.815C58.1562 395.695 58.2289 395.589 58.3282 395.512L70.9279 385.866C70.9899 385.811 71.0623 385.77 71.1407 385.745C71.2192 385.72 71.3019 385.711 71.3839 385.719C71.4659 385.727 71.5454 385.752 71.6175 385.792C71.6896 385.831 71.7527 385.886 71.8031 385.951C71.8534 386.016 71.8899 386.091 71.9102 386.17C71.9305 386.25 71.9343 386.333 71.9213 386.414C71.9083 386.496 71.8787 386.573 71.8345 386.643C71.7903 386.712 71.7323 386.772 71.6641 386.818L59.0644 396.465C58.9591 396.546 58.8296 396.591 58.6963 396.591V396.591Z" fill="#2D3E54"/>
<path d="M55.4128 388.265C55.2738 388.265 55.1392 388.217 55.0317 388.129C54.9241 388.041 54.8503 387.919 54.8226 387.782C54.795 387.646 54.8152 387.505 54.8798 387.382C54.9445 387.259 55.0496 387.162 55.1775 387.108L62.7265 383.937C62.8745 383.875 63.0409 383.875 63.1892 383.936C63.3374 383.997 63.4553 384.114 63.517 384.262C63.5786 384.41 63.5789 384.576 63.5177 384.724C63.4566 384.873 63.3391 384.99 63.1911 385.052L55.6421 388.265C55.5664 388.28 55.4886 388.28 55.4128 388.265Z" fill="#2D3E54"/>
<path d="M203.997 222.74L201.486 229.637L113.868 224.88C104.808 224.388 96.1232 221.103 89.0078 215.479C81.8923 209.854 76.6954 202.165 74.1316 193.47L68.9541 175.907L177.765 182.792C182.4 183.075 186.904 184.434 190.92 186.762C194.936 189.089 198.354 192.32 200.9 196.199C203.447 200.078 205.053 204.496 205.591 209.104C206.128 213.711 205.582 218.38 203.997 222.74V222.74Z" fill="#4891FF"/>
<path d="M204.34 221.635L161.669 206.244L129.659 294.833L172.33 310.223L204.34 221.635Z" fill="#4891FF"/>
<path d="M172.334 310.829C172.265 310.829 172.195 310.817 172.129 310.793L129.46 295.419C129.31 295.365 129.187 295.253 129.12 295.108C129.052 294.964 129.044 294.798 129.098 294.648L153.55 226.979C153.607 226.833 153.719 226.715 153.863 226.65C154.006 226.586 154.169 226.579 154.316 226.633C154.464 226.686 154.585 226.795 154.654 226.936C154.722 227.077 154.733 227.24 154.684 227.389L130.438 294.491L171.972 309.473L203.773 221.45C203.799 221.374 203.839 221.303 203.892 221.242C203.945 221.181 204.01 221.132 204.083 221.097C204.155 221.062 204.234 221.041 204.315 221.037C204.395 221.033 204.476 221.045 204.552 221.072C204.628 221.099 204.697 221.142 204.756 221.197C204.816 221.251 204.863 221.317 204.896 221.391C204.93 221.464 204.948 221.544 204.95 221.624C204.952 221.705 204.937 221.785 204.908 221.86L172.926 310.45C172.872 310.598 172.761 310.719 172.618 310.787C172.529 310.825 172.431 310.84 172.334 310.829V310.829Z" fill="#2B3A4F"/>
<path d="M118.098 260.09L105.619 164.711L60.6392 170.584L73.7458 270.785L42.1982 341.27L83.6421 359.706L113.21 293.653C117.899 283.127 119.59 271.514 118.098 260.09V260.09Z" fill="#4891FF"/>
<path d="M125.556 168.564H68.9541V195.857H125.556V168.564Z" fill="#4891FF"/>
<path d="M125.562 173.755L62.7086 186.114L60.2285 168.564H125.562V173.755Z" fill="#2B3A4F"/>
<path d="M182.792 229.221H182.756L113.838 225.483C113.759 225.479 113.681 225.459 113.609 225.424C113.538 225.39 113.474 225.342 113.421 225.283C113.368 225.224 113.327 225.155 113.301 225.08C113.274 225.005 113.263 224.926 113.268 224.847C113.272 224.768 113.292 224.69 113.326 224.619C113.361 224.547 113.409 224.483 113.468 224.43C113.527 224.378 113.596 224.337 113.671 224.31C113.746 224.284 113.825 224.273 113.904 224.277L182.822 228.015C182.982 228.019 183.134 228.087 183.245 228.202C183.355 228.318 183.415 228.473 183.411 228.633C183.407 228.793 183.339 228.945 183.223 229.055C183.107 229.165 182.952 229.225 182.792 229.221Z" fill="#2B3A4F"/>
<path d="M113.868 225.483H113.838C107.53 225.152 101.367 223.472 95.7648 220.557C95.6886 220.525 95.6201 220.476 95.5634 220.416C95.5068 220.356 95.4632 220.284 95.4353 220.206C95.4075 220.128 95.3961 220.045 95.4018 219.962C95.4075 219.88 95.4302 219.799 95.4684 219.726C95.5066 219.652 95.5596 219.587 95.624 219.535C95.6885 219.483 95.7629 219.445 95.8428 219.423C95.9227 219.401 96.0063 219.395 96.0884 219.407C96.1705 219.418 96.2493 219.447 96.3199 219.49C101.772 222.321 107.768 223.953 113.904 224.277C113.983 224.28 114.061 224.298 114.134 224.33C114.206 224.363 114.271 224.409 114.325 224.467C114.38 224.524 114.422 224.592 114.45 224.666C114.478 224.74 114.492 224.819 114.489 224.898C114.487 224.977 114.469 225.055 114.436 225.128C114.404 225.2 114.358 225.265 114.3 225.319C114.242 225.374 114.174 225.416 114.1 225.444C114.026 225.472 113.947 225.485 113.868 225.483V225.483Z" fill="#2B3A4F"/>
<path d="M153.833 227.063L178.791 228.401L142.344 259.752L153.833 227.063Z" fill="#2B3A4F"/>
<path d="M87.9077 274.119H87.7931L73.6304 271.388C73.4704 271.358 73.329 271.265 73.2373 271.13C73.1457 270.996 73.1112 270.83 73.1417 270.671C73.1721 270.511 73.2648 270.369 73.3995 270.278C73.5341 270.186 73.6997 270.152 73.8597 270.182L88.0224 272.919C88.1824 272.935 88.3298 273.013 88.4323 273.136C88.5347 273.26 88.5837 273.42 88.5685 273.579C88.5533 273.739 88.4751 273.887 88.3512 273.989C88.2273 274.091 88.0677 274.14 87.9077 274.125V274.119Z" fill="#2B3A4F"/>
<path d="M172.335 310.829C172.265 310.829 172.195 310.817 172.13 310.793C171.979 310.738 171.857 310.627 171.789 310.482C171.721 310.337 171.713 310.171 171.768 310.021L200.889 229.426C200.911 229.362 200.943 229.303 200.986 229.251L203.43 222.535C204.986 218.263 205.522 213.687 204.997 209.171C204.471 204.655 202.898 200.324 200.403 196.522C197.907 192.721 194.558 189.553 190.622 187.272C186.686 184.991 182.271 183.659 177.729 183.383L117.072 179.542C116.993 179.538 116.915 179.517 116.844 179.483C116.773 179.448 116.709 179.4 116.656 179.34C116.603 179.281 116.563 179.212 116.537 179.137C116.511 179.062 116.5 178.982 116.505 178.903C116.51 178.824 116.53 178.747 116.565 178.675C116.6 178.604 116.648 178.54 116.707 178.488C116.767 178.435 116.836 178.394 116.911 178.369C116.986 178.343 117.065 178.332 117.145 178.337L177.802 182.177C182.531 182.465 187.127 183.852 191.225 186.227C195.323 188.601 198.81 191.899 201.408 195.856C204.007 199.814 205.645 204.323 206.193 209.025C206.741 213.726 206.183 218.49 204.564 222.939L202.054 229.836C202.031 229.897 201.998 229.954 201.957 230.005L172.902 310.431C172.86 310.548 172.783 310.648 172.681 310.72C172.58 310.791 172.459 310.829 172.335 310.829V310.829Z" fill="#2B3A4F"/>
<path d="M127.711 95.9327C128.061 95.4444 130.994 93.2197 131.416 88.7583L131.585 86.9858C131.772 85.0022 131.066 84.5259 131.253 82.5545L132.025 74.4093C132.078 73.838 131.901 73.2693 131.535 72.8276C131.168 72.3859 130.642 72.107 130.07 72.052H129.907C129.336 71.9983 128.767 72.1731 128.325 72.5382C127.882 72.9033 127.603 73.4288 127.548 73.9994L125.49 95.7338L127.711 95.9327Z" fill="#FFDEA4"/>
<path d="M126.208 92.3396L120.704 83.7061C119.304 81.5119 118.683 78.9103 118.942 76.3207C119.443 71.3046 119.829 69.0497 119.323 65.4685L119.25 64.9681C119.204 64.6512 119.231 64.3279 119.328 64.0227C119.425 63.7175 119.59 63.4382 119.811 63.206C120.031 62.9738 120.302 62.7947 120.602 62.6822C120.902 62.5697 121.224 62.5267 121.543 62.5565H121.724C122.197 62.6019 122.642 62.8049 122.985 63.133C123.329 63.461 123.552 63.8951 123.619 64.3652C124.057 66.718 124.175 69.1192 123.969 71.5035L123.704 74.307C123.472 76.8878 124.109 79.472 125.514 81.6503L127.022 84.0016L126.208 92.3396Z" fill="#FFDEA4"/>
<path d="M113.325 89.1686L114.574 74.9824C114.706 73.4747 115.161 72.0128 115.908 70.6958L116.409 69.8096C116.836 69.0562 117.545 68.5028 118.379 68.2711C119.214 68.0393 120.107 68.1482 120.862 68.5737C121.002 68.6514 121.125 68.7563 121.225 68.8821C121.324 69.0079 121.397 69.1522 121.439 69.3066C121.482 69.4609 121.494 69.6222 121.473 69.781C121.453 69.9398 121.401 70.093 121.321 70.2316L120.554 71.5821C119.636 73.2079 119.075 75.0103 118.907 76.8695L117.754 89.5846L113.325 89.1686Z" fill="#FFDEA4"/>
<path d="M110.283 92.1827C109.366 90.2419 108.979 88.0934 109.161 85.9548L109.535 81.3909C109.67 79.8837 110.125 78.4225 110.869 77.1043L111.375 76.2181C111.806 75.4702 112.516 74.9234 113.35 74.6974C114.183 74.4714 115.073 74.5846 115.823 75.0123C115.963 75.09 116.086 75.1949 116.185 75.3207C116.284 75.4465 116.357 75.5908 116.4 75.7452C116.443 75.8995 116.454 76.0608 116.434 76.2196C116.413 76.3784 116.362 76.5316 116.281 76.6702L114.121 80.4866L112.564 97.1446L110.283 92.1827Z" fill="#FFDEA4"/>
<path d="M111.587 105.181L114.67 74.6807L119.619 76.8511L128.658 85.7137L126.534 106.242L111.587 105.181Z" fill="#FFDEA4"/>
<path d="M117.482 86.6966C117.416 86.6951 117.351 86.6829 117.289 86.6604C117.138 86.6095 117.014 86.5011 116.943 86.3588C116.871 86.2165 116.859 86.0519 116.909 85.9007L117.036 85.527C117.435 84.3557 117.694 83.1415 117.808 81.9096C117.959 80.336 118.146 78.2922 118.176 78.0209C118.309 76.5559 118.436 75.3018 118.557 74.1925C118.937 70.5389 119.16 68.5253 118.725 65.5711L118.653 65.0707C118.595 64.6643 118.629 64.2499 118.754 63.8588C118.879 63.4677 119.092 63.1101 119.375 62.8129C119.659 62.5157 120.006 62.2866 120.391 62.143C120.776 61.9994 121.189 61.945 121.598 61.9839H121.779C122.383 62.0464 122.948 62.3088 123.386 62.7294C123.823 63.15 124.107 63.7046 124.193 64.305L124.253 64.7391C124.656 67.0008 124.756 69.3061 124.549 71.594L124.283 74.3915C124.056 76.8496 124.657 79.3131 125.991 81.3911L127.143 83.1998C127.23 83.3342 127.259 83.4972 127.225 83.6532C127.191 83.8091 127.097 83.9453 126.962 84.0318C126.895 84.0741 126.821 84.1029 126.743 84.1164C126.665 84.13 126.585 84.128 126.507 84.1107C126.43 84.0933 126.357 84.0609 126.292 84.0153C126.227 83.9697 126.172 83.9118 126.13 83.8449L124.977 82.0362C123.508 79.7428 122.849 77.0239 123.106 74.3131L123.372 71.5156C123.568 69.322 123.47 67.112 123.082 64.9441L123.022 64.516C122.974 64.1795 122.814 63.869 122.568 63.6348C122.321 63.4006 122.003 63.2565 121.664 63.2258H121.489C121.261 63.2033 121.031 63.2329 120.816 63.3125C120.601 63.392 120.407 63.5195 120.249 63.6851C120.091 63.8507 119.973 64.0502 119.903 64.2683C119.834 64.4864 119.815 64.7176 119.848 64.9441L119.92 65.4445C120.367 68.5434 120.138 70.7319 119.757 74.3613C119.637 75.4646 119.51 76.7126 119.377 78.1716C119.347 78.461 119.16 80.4867 119.009 82.0663C118.882 83.3877 118.605 84.6903 118.182 85.949L118.056 86.3228C118.009 86.4358 117.93 86.532 117.827 86.5987C117.725 86.6655 117.605 86.6996 117.482 86.6966Z" fill="#2D3E54"/>
<path d="M113.12 86.2804C113.056 86.2822 112.992 86.272 112.932 86.2503C112.78 86.2006 112.654 86.0927 112.582 85.9503C112.51 85.8078 112.497 85.6425 112.546 85.4906L112.691 85.0384C113.064 83.8814 113.307 82.6863 113.415 81.4753L113.97 74.9339C114.109 73.3388 114.591 71.7924 115.382 70.4001L115.883 69.5139C116.25 68.8667 116.796 68.3385 117.455 67.9922C118.114 67.6459 118.859 67.4961 119.6 67.5605C119.76 67.5749 119.908 67.6522 120.011 67.7754C120.114 67.8987 120.164 68.0577 120.15 68.2176C120.135 68.3775 120.058 68.5252 119.934 68.6281C119.811 68.7309 119.652 68.7807 119.492 68.7663C118.982 68.7212 118.47 68.8233 118.016 69.0606C117.562 69.2978 117.187 69.6602 116.933 70.1047L116.432 70.997C115.728 72.2376 115.3 73.6154 115.177 75.0364L114.616 81.5778C114.501 82.8786 114.242 84.1627 113.844 85.4062L113.693 85.8644C113.653 85.9853 113.577 86.0906 113.474 86.1653C113.371 86.24 113.247 86.2803 113.12 86.2804Z" fill="#2D3E54"/>
<path d="M111.587 105.784H111.49C111.333 105.758 111.192 105.67 111.1 105.54C111.007 105.41 110.969 105.248 110.996 105.091C111.05 104.753 111.146 104.301 111.255 103.77C111.696 101.654 112.51 97.7415 111.72 96.0956C109.824 93.6267 108.678 90.6656 108.419 87.5646V87.4802C108.455 86.9617 108.479 86.4131 108.509 85.8464C108.745 81.2945 109.065 75.0606 114.544 74.0055C114.623 73.9901 114.705 73.9904 114.784 74.0064C114.863 74.0224 114.938 74.0539 115.005 74.0989C115.072 74.144 115.129 74.2018 115.174 74.2691C115.219 74.3363 115.249 74.4117 115.265 74.4908C115.28 74.57 115.28 74.6514 115.264 74.7305C115.248 74.8096 115.216 74.8847 115.171 74.9516C115.126 75.0185 115.068 75.0758 115.001 75.1204C114.934 75.165 114.858 75.1959 114.779 75.2113C110.247 76.0855 109.952 81.5417 109.74 85.9248C109.74 86.4855 109.686 87.0281 109.65 87.5405C109.903 90.4198 110.98 93.1655 112.752 95.4505L112.8 95.5289C113.814 97.5185 112.999 101.443 112.462 104.036C112.353 104.542 112.263 104.982 112.209 105.308C112.179 105.448 112.1 105.573 111.986 105.66C111.872 105.748 111.73 105.792 111.587 105.784Z" fill="#2D3E54"/>
<path d="M126.54 106.839H126.498C126.339 106.829 126.19 106.755 126.085 106.636C125.98 106.516 125.927 106.359 125.937 106.2C125.937 105.82 125.985 105.308 126.015 104.717C126.142 102.209 126.335 98.4109 126.812 96.6866C127.159 95.6442 127.785 94.7165 128.622 94.0037C129.302 93.4273 129.82 92.6833 130.125 91.8454C131.368 87.3056 131.235 82.9346 131.084 78.3043C131.036 76.7308 130.987 75.1029 130.993 73.4811C131.005 73.3677 130.98 73.2537 130.922 73.1552C130.865 73.0567 130.778 72.9788 130.674 72.9325C130.362 72.7651 130.015 72.6744 129.661 72.6681C129.308 72.6618 128.957 72.7401 128.64 72.8963C128.223 73.3303 127.962 73.89 127.898 74.488C127.632 78.238 127.331 82.4884 126.987 86.4374C126.972 86.5973 126.895 86.7449 126.772 86.8478C126.648 86.9507 126.489 87.0004 126.329 86.986C126.169 86.9716 126.021 86.8943 125.918 86.7711C125.815 86.6478 125.765 86.4888 125.78 86.3289C126.13 82.3919 126.431 78.1476 126.697 74.4096C126.778 73.4679 127.208 72.5905 127.904 71.9498L128 71.8774C128.512 71.5994 129.086 71.4568 129.668 71.4631C130.25 71.4694 130.82 71.6245 131.325 71.9136C131.608 72.0732 131.841 72.3084 131.998 72.5927C132.154 72.877 132.229 73.1992 132.212 73.5233C132.212 75.0969 132.255 76.7127 132.303 78.2742C132.454 83.0009 132.593 87.4623 131.295 92.177C130.948 93.2193 130.322 94.1471 129.485 94.8598C128.803 95.4338 128.287 96.1788 127.988 97.0182C127.548 98.6159 127.349 102.48 127.234 104.79C127.204 105.392 127.174 105.905 127.15 106.291C127.136 106.442 127.066 106.583 126.953 106.684C126.84 106.786 126.692 106.842 126.54 106.839V106.839Z" fill="#2D3E54"/>
<path d="M190.764 72.3112C190.686 71.6721 189.081 68.0306 191.018 63.5933L191.79 61.8328C192.647 59.8613 193.564 59.783 194.421 57.8236L197.951 49.7267C198.201 49.1593 198.666 48.7139 199.244 48.488C199.822 48.262 200.465 48.2738 201.035 48.5209L201.197 48.5932C201.479 48.7157 201.734 48.8925 201.947 49.1133C202.16 49.3342 202.327 49.5949 202.439 49.8805C202.551 50.1661 202.606 50.471 202.6 50.7777C202.594 51.0844 202.527 51.387 202.404 51.668L192.973 73.2758L190.764 72.3112Z" fill="#FFDEA4"/>
<path d="M194.064 69.7011L203.78 64.4257C206.247 63.0909 208.195 60.9681 209.313 58.3968C211.468 53.3927 212.282 51.0595 214.623 47.9667L214.955 47.5265C215.173 47.2505 215.325 46.9279 215.397 46.5838C215.47 46.2397 215.461 45.8835 215.373 45.5431C215.285 45.2027 215.119 44.8873 214.888 44.6217C214.658 44.356 214.369 44.1472 214.044 44.0117L213.869 43.9333C213.398 43.728 212.872 43.6872 212.375 43.8173C211.878 43.9475 211.439 44.2411 211.13 44.6507C209.481 46.6563 208.111 48.8749 207.056 51.2464L205.85 54.0258C204.734 56.5947 202.79 58.717 200.328 60.0547L197.667 61.4896L194.064 69.7011Z" fill="#FFDEA4"/>
<path d="M207.895 73.4386L214.14 59.379C214.806 57.8864 215.141 56.2681 215.124 54.6342V53.5309C215.114 52.5966 214.734 51.7042 214.066 51.0497C213.399 50.3952 212.499 50.0321 211.564 50.0402C211.215 50.0449 210.883 50.187 210.639 50.4354C210.395 50.6838 210.259 51.0184 210.26 51.3665V53.0426C210.279 55.0575 209.867 57.0531 209.053 58.8967L203.478 71.5153L207.895 73.4386Z" fill="#FFDEA4"/>
<path d="M209.192 77.8701C211.074 76.5194 212.565 74.6952 213.513 72.5827L215.547 68.067C216.209 66.5736 216.545 64.9558 216.53 63.3222V62.2189C216.526 61.7565 216.431 61.2995 216.25 60.8738C216.07 60.4481 215.807 60.0622 215.477 59.7381C215.147 59.4139 214.756 59.1579 214.327 58.9846C213.898 58.8113 213.439 58.7242 212.976 58.7282C212.628 58.7329 212.295 58.875 212.051 59.1234C211.807 59.3718 211.671 59.7064 211.673 60.0545L211.715 64.7873L204.474 81.3488L209.192 77.8701Z" fill="#FFDEA4"/>
<path d="M201.155 89.476L214.213 59.0478L208.396 58.5112L195.217 62.1588L186.479 82.6633L201.155 89.476Z" fill="#FFDEA4"/>
<path d="M205.578 68.9593H205.469C205.391 68.9448 205.316 68.9151 205.25 68.8718C205.183 68.8284 205.126 68.7724 205.081 68.7068C205.036 68.6413 205.005 68.5676 204.988 68.4898C204.972 68.4121 204.971 68.3319 204.986 68.2539L205.059 67.8379C205.317 66.432 205.736 65.0604 206.308 63.7503C206.99 62.1767 207.871 60.1329 207.997 59.8797C208.637 58.4267 209.168 57.1787 209.639 56.0754C211.171 52.4581 212.101 50.2695 214.14 47.5746L214.472 47.1405C214.625 46.9372 214.729 46.7022 214.778 46.453C214.827 46.2037 214.819 45.9467 214.754 45.701C214.69 45.4553 214.571 45.2272 214.406 45.0339C214.241 44.8405 214.035 44.6868 213.802 44.5842L213.627 44.5119C213.281 44.3596 212.894 44.3286 212.528 44.4238C212.162 44.519 211.84 44.7349 211.612 45.0364L211.328 45.4102C209.822 47.2579 208.572 49.3 207.611 51.4814L206.404 54.2607C205.228 56.946 203.19 59.1629 200.611 60.561L198.584 61.6583C198.443 61.733 198.278 61.749 198.125 61.7027C197.973 61.6563 197.845 61.5515 197.769 61.4111C197.694 61.271 197.677 61.1069 197.722 60.9545C197.767 60.802 197.871 60.6736 198.01 60.5972L200.038 59.4999C202.378 58.2302 204.228 56.2168 205.294 53.7784L206.501 50.999C207.5 48.7315 208.797 46.6068 210.357 44.6807L210.64 44.3069C211.032 43.7893 211.587 43.4185 212.215 43.2545C212.844 43.0904 213.509 43.1426 214.104 43.4026L214.279 43.4809C214.68 43.655 215.037 43.9178 215.321 44.2498C215.606 44.5817 215.811 44.9739 215.921 45.3967C216.032 45.8195 216.045 46.2619 215.959 46.6904C215.873 47.1189 215.691 47.5223 215.426 47.87L215.1 48.3041C213.151 50.8785 212.294 52.8921 210.743 56.5457C210.272 57.655 209.741 58.9091 209.096 60.362L207.406 64.2326C206.873 65.4581 206.482 66.7406 206.241 68.055L206.163 68.471C206.137 68.6073 206.064 68.7303 205.957 68.8192C205.851 68.9082 205.716 68.9577 205.578 68.9593V68.9593Z" fill="#2D3E54"/>
<path d="M209.917 70.8522H209.802C209.645 70.8215 209.507 70.7301 209.418 70.5979C209.328 70.4657 209.295 70.3034 209.325 70.1468L209.422 69.6343C209.693 68.2541 210.12 66.909 210.695 65.6251L213.592 59.15C214.224 57.7358 214.541 56.2011 214.521 54.6523V53.537C214.515 52.9752 214.347 52.427 214.038 51.9578C213.729 51.4885 213.291 51.118 212.777 50.8903C212.704 50.8582 212.639 50.8122 212.584 50.7548C212.53 50.6975 212.487 50.6299 212.458 50.556C212.43 50.4821 212.416 50.4033 212.418 50.3241C212.42 50.2449 212.437 50.1669 212.469 50.0944C212.501 50.022 212.547 49.9566 212.605 49.9019C212.662 49.8473 212.73 49.8044 212.804 49.7759C212.878 49.7473 212.957 49.7336 213.036 49.7355C213.115 49.7374 213.193 49.7549 213.266 49.787C213.991 50.1097 214.608 50.6333 215.044 51.2958C215.481 51.9583 215.718 52.7319 215.728 53.5249V54.6282C215.747 56.3489 215.395 58.0536 214.696 59.6262L211.799 66.1013C211.254 67.301 210.849 68.5592 210.593 69.8514L210.49 70.3638C210.464 70.4981 210.393 70.6196 210.289 70.7084C210.185 70.7971 210.053 70.8478 209.917 70.8522Z" fill="#2D3E54"/>
<path d="M200.714 93.5393C200.646 93.5385 200.579 93.5263 200.515 93.5031C200.365 93.4498 200.242 93.3394 200.173 93.196C200.104 93.0526 200.094 92.8877 200.147 92.7374C200.303 92.2973 200.539 91.399 200.81 90.356C202.102 85.4303 203.405 80.9086 205.125 79.745L205.209 79.6968C208.42 78.1835 210.677 76.3145 212.306 73.8306C212.541 73.3241 212.795 72.7996 213.066 72.251C215.154 67.9765 217.749 62.6529 213.899 59.4394C213.776 59.3363 213.698 59.1885 213.684 59.0285C213.67 58.8685 213.72 58.7095 213.823 58.5863C213.927 58.4632 214.075 58.3861 214.235 58.372C214.395 58.3578 214.554 58.4078 214.677 58.511C219.251 62.3394 216.301 68.3744 214.146 72.7815C213.875 73.3362 213.615 73.8668 213.38 74.3732L213.338 74.4516C211.588 77.1405 209.18 79.1481 205.771 80.7639C204.292 81.837 202.79 87.5706 201.975 90.6634C201.685 91.7728 201.456 92.647 201.287 93.1353C201.246 93.2539 201.168 93.3566 201.065 93.4291C200.962 93.5015 200.84 93.54 200.714 93.5393V93.5393Z" fill="#2D3E54"/>
<path d="M184.94 86.003C184.85 86.0038 184.761 85.9831 184.681 85.9427C184.536 85.8747 184.424 85.7521 184.37 85.6017C184.315 85.4513 184.323 85.2856 184.391 85.1409C184.62 84.6646 185.055 83.8085 185.598 82.7293C187.101 79.763 189.617 74.7952 190.009 73.1734C190.169 72.216 190.069 71.2333 189.719 70.3277C189.311 69.224 189.208 68.0302 189.424 66.8731C190.661 61.7485 193.129 57.6126 195.742 53.2296C196.605 51.7766 197.498 50.2754 198.337 48.75C198.49 48.4533 198.724 48.205 199.01 48.0326C199.297 47.8602 199.625 47.7704 199.96 47.7734C200.576 47.7642 201.184 47.9122 201.727 48.2033C202.269 48.4945 202.729 48.9193 203.061 49.4373L203.11 49.5459C203.429 50.4973 203.381 51.5334 202.977 52.4518C201.269 56.1235 199.356 60.2895 197.6 64.2023C197.568 64.2748 197.522 64.3402 197.465 64.3949C197.407 64.4496 197.34 64.4924 197.266 64.521C197.192 64.5495 197.113 64.5632 197.034 64.5613C196.954 64.5594 196.876 64.5419 196.804 64.5098C196.731 64.4777 196.666 64.4317 196.611 64.3744C196.556 64.317 196.513 64.2495 196.485 64.1756C196.456 64.1017 196.443 64.0229 196.444 63.9436C196.446 63.8644 196.464 63.7864 196.496 63.7139C198.24 59.7891 200.177 55.6231 201.885 51.9454C202.146 51.3357 202.193 50.6557 202.018 50.0161C201.797 49.6925 201.501 49.4273 201.155 49.2435C200.809 49.0597 200.424 48.9627 200.032 48.9611C199.91 48.9544 199.788 48.9826 199.681 49.0423C199.575 49.1021 199.487 49.191 199.429 49.2987C198.56 50.8783 197.661 52.3915 196.792 53.8505C194.227 58.1552 191.807 62.2187 190.607 67.1625C190.45 68.12 190.55 69.1019 190.896 70.0082C191.307 71.1113 191.411 72.3051 191.198 73.4628C190.769 75.2232 188.313 80.0946 186.684 83.2839C186.159 84.3209 185.731 85.165 185.508 85.6352C185.461 85.7461 185.381 85.8404 185.28 85.906C185.179 85.9715 185.061 86.0053 184.94 86.003V86.003Z" fill="#2D3E54"/>
<path d="M200.714 92.9366L184.94 85.4004L188.446 78.5938L203.037 85.093L200.714 92.9366Z" fill="#2B3A4F"/>
<path d="M182.69 147.041L150.75 138.311L173.928 89.9221C174.946 87.7993 176.767 86.1674 178.989 85.3851C181.212 84.6028 183.654 84.734 185.779 85.7501L199.23 92.183C200.283 92.6857 201.227 93.3909 202.007 94.2582C202.787 95.1255 203.389 96.1379 203.777 97.2376C204.165 98.3372 204.333 99.5026 204.27 100.667C204.208 101.831 203.916 102.972 203.412 104.024L182.69 147.041Z" fill="#FFC14F"/>
<path d="M182.69 147.643C182.638 147.649 182.585 147.649 182.533 147.643L150.587 138.913C150.502 138.89 150.423 138.847 150.356 138.79C150.289 138.732 150.236 138.661 150.2 138.58C150.163 138.5 150.145 138.412 150.147 138.324C150.148 138.236 150.169 138.149 150.207 138.069L173.409 89.6629C173.948 88.5383 174.703 87.5309 175.631 86.6983C176.56 85.8656 177.644 85.224 178.821 84.8102C179.998 84.3964 181.245 84.2185 182.491 84.2866C183.736 84.3548 184.957 84.6677 186.081 85.2075L199.49 91.6404C200.615 92.1785 201.624 92.9329 202.457 93.8605C203.291 94.7881 203.933 95.8707 204.348 97.0464C204.763 98.2222 204.941 99.468 204.874 100.713C204.807 101.958 204.494 103.177 203.955 104.301L183.233 147.324C183.181 147.422 183.103 147.504 183.007 147.56C182.911 147.616 182.801 147.645 182.69 147.643ZM151.607 137.919L182.382 146.359L202.899 103.789C203.844 101.809 203.964 99.5353 203.233 97.467C202.502 95.3987 200.98 93.7044 199.001 92.7557L185.55 86.3228C183.568 85.3772 181.291 85.2562 179.219 85.9864C177.148 86.7166 175.451 88.2384 174.501 90.2175L151.607 137.919Z" fill="#2B3A4F"/>
<path d="M92.893 107.641C100.062 107.641 105.873 103.738 105.873 98.9235C105.873 94.1087 100.062 90.2056 92.893 90.2056C85.7244 90.2056 79.9131 94.1087 79.9131 98.9235C79.9131 103.738 85.7244 107.641 92.893 107.641Z" fill="#FCB503"/>
<path d="M139.242 102.535C133.022 97.7583 125.394 95.1759 117.549 95.1915L72.5566 95.3C55.8355 95.3362 43.2357 111.018 47.3934 127.205C47.4839 127.549 47.5744 127.887 47.677 128.23L59.0216 165.32V173.761H129.811V136.49L151.824 153.413C154.277 155.298 157.121 156.612 160.147 157.26C163.173 157.908 166.306 157.873 169.317 157.159C172.328 156.444 175.142 155.068 177.553 153.13C179.965 151.192 181.913 148.741 183.257 145.955L186.63 138.962L139.242 102.535Z" fill="#FFC14F"/>
<path d="M173.795 129.701C173.664 129.699 173.537 129.655 173.433 129.574L138.875 103.047C132.758 98.3538 125.261 95.8105 117.549 95.8122L105.275 95.8424C105.115 95.8424 104.962 95.7789 104.849 95.6658C104.735 95.5527 104.672 95.3994 104.672 95.2395C104.672 95.0796 104.735 94.9262 104.849 94.8132C104.962 94.7001 105.115 94.6366 105.275 94.6366L117.549 94.6064C125.523 94.6122 133.275 97.2298 139.617 102.058L174.169 128.622C174.269 128.699 174.341 128.805 174.378 128.925C174.414 129.045 174.411 129.174 174.371 129.293C174.33 129.411 174.254 129.515 174.151 129.588C174.049 129.661 173.927 129.701 173.801 129.701H173.795Z" fill="#2B3A4F"/>
<path d="M164.478 158.333C159.765 158.33 155.186 156.768 151.456 153.889L129.443 136.966C129.374 136.92 129.316 136.86 129.272 136.791C129.228 136.721 129.198 136.644 129.185 136.562C129.172 136.481 129.176 136.398 129.196 136.318C129.217 136.239 129.253 136.164 129.304 136.099C129.354 136.034 129.417 135.979 129.489 135.94C129.561 135.9 129.641 135.875 129.723 135.867C129.805 135.859 129.887 135.868 129.966 135.893C130.044 135.918 130.117 135.959 130.179 136.014L152.192 152.931C154.574 154.762 157.334 156.039 160.273 156.67C163.211 157.3 166.253 157.267 169.177 156.574C172.101 155.881 174.834 154.545 177.175 152.663C179.517 150.781 181.409 148.401 182.714 145.696L186.081 138.696C186.116 138.625 186.164 138.561 186.224 138.509C186.283 138.456 186.352 138.416 186.428 138.39C186.503 138.364 186.582 138.354 186.661 138.359C186.741 138.364 186.818 138.384 186.89 138.419C187.033 138.488 187.144 138.611 187.197 138.762C187.25 138.912 187.242 139.077 187.173 139.221L183.8 146.221C182.046 149.848 179.304 152.909 175.888 155.051C172.473 157.193 168.523 158.331 164.49 158.333H164.478Z" fill="#2B3A4F"/>
<path d="M59.0214 165.923C58.8614 165.923 58.7079 165.859 58.5947 165.746C58.4815 165.633 58.418 165.48 58.418 165.32V116.962C58.418 116.802 58.4815 116.649 58.5947 116.535C58.7079 116.422 58.8614 116.359 59.0214 116.359C59.1814 116.359 59.3349 116.422 59.4481 116.535C59.5613 116.649 59.6248 116.802 59.6248 116.962V165.35C59.6171 165.505 59.5501 165.651 59.4378 165.757C59.3254 165.864 59.1764 165.923 59.0214 165.923Z" fill="#2B3A4F"/>
<path d="M129.81 137.093C129.65 137.093 129.497 137.029 129.384 136.916C129.271 136.803 129.207 136.65 129.207 136.49V113.037C129.207 112.877 129.271 112.724 129.384 112.611C129.497 112.498 129.65 112.434 129.81 112.434C129.971 112.434 130.124 112.498 130.237 112.611C130.35 112.724 130.414 112.877 130.414 113.037V136.49C130.414 136.65 130.35 136.803 130.237 136.916C130.124 137.029 129.971 137.093 129.81 137.093Z" fill="#2B3A4F"/>
<path d="M151.824 153.413L129.811 136.49V122.46L151.824 153.413Z" fill="#2B3A4F"/>
<path d="M365.736 381.368H337.067L329.481 304.264H373.321L365.736 381.368Z" fill="#955B50"/>
<path d="M371.855 319.179L332.746 337.429L329.481 304.264H373.321L371.855 319.179Z" fill="#2B3A4F"/>
<path d="M360.323 472.646H338.364L336.994 380.578L365.748 380.898L360.323 472.646Z" fill="#955B50"/>
<path d="M374.956 457.797H372.971C371.991 457.797 371.041 457.465 370.274 456.857C369.507 456.248 368.969 455.398 368.747 454.445L367.54 449.182H334.641L333.09 473.943H385.546V468.366C385.546 466.977 385.271 465.602 384.738 464.319C384.206 463.037 383.426 461.871 382.442 460.89C381.459 459.909 380.291 459.13 379.007 458.6C377.723 458.069 376.346 457.796 374.956 457.797V457.797Z" fill="#4891FF"/>
<path d="M333.09 473.949H347.252C346.374 470.546 344.728 467.39 342.439 464.722C340.15 462.054 337.28 459.945 334.049 458.557L333.09 473.949Z" fill="#304056"/>
<path d="M385.547 473.949V468.372C385.553 467.153 385.348 465.941 384.943 464.791C384.459 463.483 383.584 462.354 382.437 461.56C381.289 460.765 379.925 460.342 378.529 460.348H371.378C368.571 460.348 365.879 461.462 363.894 463.445C361.909 465.428 360.794 468.118 360.794 470.923V473.937L385.547 473.949Z" fill="white"/>
<path d="M331.249 472.918V483.644H346.926V479.845H354.499V483.644H388.328V472.918H331.249Z" fill="#2D3E54"/>
<path d="M386.15 474.552H332.444L334.074 448.585H367.999L369.338 454.312C369.526 455.132 369.986 455.864 370.643 456.389C371.301 456.913 372.117 457.2 372.959 457.2H374.956C377.922 457.204 380.766 458.382 382.864 460.478C384.961 462.573 386.141 465.415 386.144 468.378L386.15 474.552ZM333.73 473.346H384.943V468.372C384.94 465.727 383.887 463.192 382.014 461.322C380.142 459.453 377.603 458.402 374.956 458.4H372.971C371.852 458.406 370.765 458.031 369.888 457.337C369.011 456.644 368.395 455.673 368.144 454.584L367.021 449.761H335.208L333.73 473.346Z" fill="#2D3E54"/>
<path d="M373.955 458.4H361.633C361.473 458.4 361.319 458.337 361.206 458.224C361.093 458.11 361.029 457.957 361.029 457.797C361.029 457.637 361.093 457.484 361.206 457.371C361.319 457.258 361.473 457.194 361.633 457.194H373.955C374.115 457.194 374.268 457.258 374.382 457.371C374.495 457.484 374.558 457.637 374.558 457.797C374.558 457.957 374.495 458.11 374.382 458.224C374.268 458.337 374.115 458.4 373.955 458.4V458.4Z" fill="#2D3E54"/>
<path d="M306.346 383.876L264.775 452.908L245.525 436.708L278.419 377.407L288.46 300.58L331.171 310.474L306.346 383.876Z" fill="#955B50"/>
<path d="M264.775 453.511C264.633 453.509 264.497 453.458 264.389 453.366L245.139 437.172C245.032 437.082 244.96 436.958 244.935 436.82C244.909 436.683 244.933 436.541 245.001 436.418L277.833 377.214L287.863 300.501C287.874 300.418 287.902 300.338 287.945 300.267C287.989 300.195 288.047 300.133 288.116 300.085C288.185 300.036 288.264 300.002 288.347 299.986C288.43 299.969 288.516 299.97 288.599 299.989L331.304 309.889C331.386 309.908 331.464 309.944 331.531 309.995C331.599 310.045 331.655 310.11 331.696 310.184C331.737 310.258 331.762 310.34 331.769 310.424C331.776 310.508 331.766 310.593 331.738 310.672L306.919 384.045L306.865 384.159L265.294 453.191C265.249 453.267 265.188 453.333 265.115 453.383C265.042 453.433 264.959 453.466 264.872 453.48L264.775 453.511ZM246.292 436.569L264.624 451.991L305.797 383.617L330.387 310.907L288.973 301.315L279.01 377.479C279.002 377.556 278.977 377.63 278.938 377.696L246.292 436.569Z" fill="#2B3A4F"/>
<path d="M328.884 317.226L325.637 326.522L285.334 325.033L287.518 305.988L328.884 317.226Z" fill="#2B3A4F"/>
<path d="M275.582 450.297C275.631 450.659 275.691 451.225 275.757 451.913C276.311 457.275 278.728 462.273 282.588 466.039L283.095 466.539L291.477 474.003C292.928 475.295 293.863 477.068 294.11 478.994C294.357 480.92 293.9 482.871 292.823 484.487L288.906 489.913L229.866 450.58L245.767 430.468L275.582 450.297Z" fill="#4891FF"/>
<path d="M291.476 474.027L283.234 466.708L274.236 480.189L288.894 489.95L292.804 484.524C293.887 482.908 294.349 480.956 294.105 479.027C293.861 477.098 292.928 475.323 291.476 474.027Z" fill="white"/>
<path d="M228.261 447.301L222.281 456.212L239.902 467.95L242.014 464.785L255.102 473.509L252.996 476.668L288.013 500L293.969 491.077L228.261 447.301Z" fill="#2D3E54"/>
<path d="M290.155 489.136C290.025 489.136 289.898 489.093 289.793 489.015C289.73 488.968 289.676 488.908 289.636 488.84C289.596 488.772 289.569 488.696 289.558 488.618C289.547 488.54 289.551 488.46 289.571 488.383C289.59 488.306 289.625 488.234 289.672 488.171L292.05 485.018C293.192 483.512 293.726 481.633 293.547 479.752C293.367 477.872 292.486 476.127 291.078 474.865L281.092 465.773C281.073 465.762 281.051 465.756 281.028 465.756C281.006 465.756 280.984 465.762 280.965 465.773L269.421 470.663C269.273 470.725 269.106 470.726 268.958 470.666C268.809 470.605 268.69 470.488 268.628 470.34C268.565 470.193 268.564 470.026 268.625 469.877C268.685 469.729 268.802 469.61 268.95 469.548L280.494 464.658C280.728 464.561 280.985 464.533 281.235 464.575C281.485 464.618 281.717 464.73 281.906 464.899L291.893 473.991C293.52 475.459 294.536 477.483 294.74 479.663C294.945 481.844 294.323 484.021 292.997 485.766L290.62 488.913C290.564 488.982 290.493 489.038 290.413 489.076C290.332 489.115 290.244 489.135 290.155 489.136V489.136Z" fill="#2D3E54"/>
<path d="M277.646 460.788H277.61L269.162 460.281C269.083 460.276 269.005 460.256 268.934 460.221C268.863 460.187 268.799 460.138 268.746 460.079C268.693 460.02 268.653 459.95 268.627 459.875C268.601 459.801 268.59 459.721 268.595 459.642C268.6 459.563 268.62 459.485 268.655 459.414C268.689 459.343 268.738 459.279 268.797 459.226C268.857 459.174 268.926 459.133 269.001 459.107C269.076 459.081 269.155 459.071 269.234 459.075L277.683 459.582C277.762 459.586 277.839 459.607 277.911 459.641C277.982 459.676 278.046 459.724 278.099 459.784C278.152 459.843 278.192 459.912 278.218 459.987C278.244 460.062 278.255 460.142 278.25 460.221C278.241 460.374 278.173 460.519 278.061 460.624C277.949 460.729 277.8 460.788 277.646 460.788Z" fill="#2D3E54"/>
<path d="M242.128 456.996C243.313 453.857 243.736 450.483 243.364 447.149C242.992 443.816 241.834 440.618 239.986 437.817L230.886 449.122C230.554 448.875 242.128 456.996 242.128 456.996Z" fill="#304056"/>
<path d="M387.929 319.179H306.737V231.042H365.983L387.929 319.179Z" fill="#FFC14F"/>
<path d="M361.258 231.042H351.404V319.179H361.258V231.042Z" fill="#2B3A4F"/>
<path d="M350.487 335.005L273.657 308.773L301.699 231.042H361.252L350.487 335.005Z" fill="#FFC14F"/>
<path d="M387.929 319.782H352.683C352.523 319.782 352.369 319.719 352.256 319.606C352.143 319.493 352.079 319.339 352.079 319.18C352.079 319.02 352.143 318.866 352.256 318.753C352.369 318.64 352.523 318.577 352.683 318.577H387.157L365.512 231.645H306.767C306.607 231.645 306.454 231.582 306.341 231.468C306.228 231.355 306.164 231.202 306.164 231.042C306.164 230.882 306.228 230.729 306.341 230.616C306.454 230.503 306.607 230.439 306.767 230.439H366.013C366.15 230.435 366.284 230.477 366.394 230.56C366.504 230.642 366.582 230.759 366.616 230.891L388.563 319.035C388.585 319.123 388.586 319.215 388.567 319.304C388.549 319.392 388.51 319.476 388.454 319.547C388.393 319.627 388.314 319.69 388.222 319.731C388.13 319.773 388.03 319.79 387.929 319.782Z" fill="#2B3A4F"/>
<path d="M350.486 335.608C350.423 335.62 350.357 335.62 350.293 335.608L273.458 309.34C273.382 309.315 273.312 309.274 273.252 309.221C273.192 309.169 273.143 309.104 273.108 309.033C273.077 308.959 273.062 308.88 273.062 308.8C273.062 308.721 273.077 308.642 273.108 308.568L301.156 230.837C301.198 230.72 301.275 230.62 301.376 230.548C301.478 230.477 301.599 230.439 301.723 230.439H361.276C361.361 230.438 361.446 230.456 361.524 230.49C361.602 230.524 361.671 230.575 361.728 230.638C361.785 230.701 361.827 230.774 361.853 230.854C361.879 230.934 361.888 231.019 361.879 231.102L351.084 335.072C351.075 335.162 351.046 335.248 350.999 335.326C350.952 335.403 350.888 335.469 350.812 335.518C350.715 335.578 350.602 335.61 350.486 335.608ZM274.454 308.399L349.986 334.191L360.606 231.645H302.127L274.454 308.399Z" fill="#2B3A4F"/>
<path d="M401.749 233.695C399.982 235.049 397.965 236.042 395.813 236.618C393.662 237.193 391.418 237.339 389.21 237.047C387.002 236.755 384.873 236.032 382.945 234.917C381.017 233.803 379.328 232.32 377.974 230.554L341.937 183.576L374.16 162.963L404.893 209.941C406.248 211.706 407.241 213.722 407.816 215.871C408.392 218.021 408.537 220.262 408.246 222.468C407.954 224.674 407.23 226.801 406.115 228.727C405 230.653 403.517 232.341 401.749 233.695Z" fill="#4891FF"/>
<path d="M267.213 237.421C268.981 238.774 270.998 239.767 273.149 240.342C275.301 240.916 277.544 241.062 279.752 240.77C281.96 240.479 284.088 239.755 286.016 238.642C287.944 237.528 289.634 236.046 290.988 234.28L328.558 185.306L298.212 162.963L264.063 213.666C262.709 215.433 261.716 217.448 261.141 219.598C260.566 221.748 260.421 223.99 260.713 226.195C261.006 228.401 261.73 230.528 262.846 232.454C263.961 234.38 265.445 236.068 267.213 237.421V237.421Z" fill="#4891FF"/>
<path d="M277.507 241.514C274.231 241.513 271.021 240.597 268.239 238.868C265.457 237.139 263.216 234.666 261.767 231.731C260.319 228.795 259.721 225.513 260.043 222.255C260.364 218.998 261.592 215.895 263.586 213.299L297.71 162.656C297.756 162.588 297.814 162.53 297.883 162.485C297.951 162.44 298.028 162.41 298.108 162.396C298.188 162.383 298.27 162.385 298.349 162.404C298.428 162.423 298.502 162.457 298.567 162.505L328.914 184.842C328.978 184.89 329.032 184.949 329.073 185.018C329.114 185.087 329.141 185.163 329.152 185.242C329.163 185.321 329.159 185.402 329.139 185.479C329.118 185.556 329.083 185.629 329.035 185.692L291.465 234.647C289.824 236.788 287.711 238.521 285.29 239.712C282.869 240.903 280.206 241.52 277.507 241.514V241.514ZM298.356 163.825L264.564 214.004C263.256 215.706 262.297 217.649 261.741 219.722C261.185 221.794 261.043 223.956 261.323 226.084C261.603 228.211 262.3 230.262 263.374 232.121C264.447 233.979 265.877 235.608 267.581 236.914C269.284 238.221 271.229 239.179 273.304 239.734C275.378 240.29 277.542 240.432 279.671 240.152C281.8 239.872 283.853 239.176 285.713 238.103C287.573 237.03 289.204 235.602 290.511 233.9L327.707 185.415L298.356 163.825Z" fill="#2B3A4F"/>
<path d="M374.159 162.963H298.211V231.53H374.159V162.963Z" fill="#4891FF"/>
<path d="M374.159 232.115H298.211C298.051 232.115 297.897 232.052 297.784 231.939C297.671 231.826 297.607 231.672 297.607 231.512V182.979C297.607 182.819 297.671 182.666 297.784 182.553C297.897 182.44 298.051 182.376 298.211 182.376C298.371 182.376 298.524 182.44 298.638 182.553C298.751 182.666 298.814 182.819 298.814 182.979V230.91H373.556V177.463C373.556 177.303 373.619 177.15 373.732 177.036C373.846 176.923 373.999 176.86 374.159 176.86C374.319 176.86 374.473 176.923 374.586 177.036C374.699 177.15 374.763 177.303 374.763 177.463V231.512C374.763 231.672 374.699 231.826 374.586 231.939C374.473 232.052 374.319 232.115 374.159 232.115Z" fill="#2B3A4F"/>
<path d="M294.808 243.245L275.606 240.833L276.687 214.094L294.79 211.773C299.536 211.172 304.336 212.378 308.233 215.152C312.13 217.926 314.838 222.064 315.819 226.743L294.808 243.245Z" fill="#4891FF"/>
<path d="M294.807 243.848H294.729L275.534 241.436C275.374 241.416 275.228 241.333 275.129 241.206C275.03 241.079 274.986 240.918 275.006 240.758C275.026 240.598 275.108 240.453 275.236 240.354C275.363 240.255 275.524 240.21 275.685 240.23L294.88 242.642C295.04 242.651 295.19 242.724 295.296 242.844C295.402 242.964 295.457 243.121 295.447 243.281C295.437 243.441 295.365 243.59 295.245 243.697C295.125 243.803 294.967 243.857 294.807 243.848V243.848Z" fill="#2B3A4F"/>
<path d="M315.819 227.346C315.678 227.349 315.54 227.302 315.43 227.214C315.32 227.126 315.244 227.002 315.216 226.864C314.251 222.333 311.621 218.328 307.845 215.64C304.069 212.952 299.421 211.777 294.82 212.346L276.717 214.667C276.557 214.687 276.395 214.643 276.268 214.544C276.141 214.445 276.058 214.299 276.038 214.14C276.018 213.98 276.062 213.818 276.161 213.691C276.26 213.564 276.406 213.481 276.566 213.461L294.669 211.146C299.57 210.542 304.519 211.795 308.541 214.657C312.562 217.52 315.364 221.785 316.393 226.61C316.409 226.688 316.41 226.769 316.396 226.847C316.381 226.926 316.351 227.001 316.307 227.067C316.263 227.134 316.207 227.192 316.141 227.236C316.075 227.281 316 227.312 315.922 227.328L315.819 227.346Z" fill="#2B3A4F"/>
<path d="M401.272 234.038L380.2 206.57L412.369 178.662C414.774 176.576 417.903 175.518 421.082 175.715C424.26 175.913 427.234 177.35 429.362 179.717L437.876 189.189C438.991 190.428 439.837 191.884 440.363 193.465C440.889 195.046 441.084 196.718 440.934 198.377C440.785 200.036 440.295 201.647 439.494 203.108C438.694 204.57 437.601 205.851 436.283 206.872L401.272 234.038Z" fill="#4891FF"/>
<path d="M380.2 207.173C380.113 207.173 380.029 207.153 379.95 207.117C379.872 207.08 379.803 207.028 379.747 206.962C379.642 206.842 379.59 206.684 379.601 206.525C379.612 206.365 379.687 206.217 379.807 206.112L394.869 193.066C394.928 193.011 394.998 192.969 395.074 192.941C395.15 192.914 395.231 192.902 395.312 192.907C395.393 192.911 395.471 192.932 395.544 192.967C395.617 193.003 395.681 193.053 395.734 193.114C395.787 193.175 395.827 193.246 395.852 193.322C395.877 193.399 395.887 193.48 395.88 193.561C395.873 193.641 395.85 193.719 395.812 193.791C395.774 193.862 395.722 193.925 395.66 193.976L380.616 207.023C380.501 207.124 380.353 207.178 380.2 207.173Z" fill="#2B3A4F"/>
<path d="M344.404 158.562H326.15V167.557H344.404V158.562Z" fill="#5571FF"/>
<path d="M219.445 334.137C218.091 332.889 217.288 331.154 217.214 329.315C217.139 327.476 217.798 325.682 219.046 324.328L380.767 149.217L405.888 132.251L390.947 158.628L229.257 333.739C228.639 334.41 227.895 334.952 227.067 335.335C226.24 335.717 225.345 335.933 224.433 335.97C223.522 336.007 222.612 335.864 221.756 335.55C220.9 335.235 220.115 334.755 219.445 334.137Z" fill="white"/>
<path d="M224.146 336.579C222.677 336.581 221.24 336.154 220.011 335.352C218.782 334.549 217.813 333.406 217.225 332.061C216.637 330.717 216.454 329.23 216.7 327.784C216.945 326.337 217.608 324.994 218.606 323.918L380.327 148.807C380.356 148.772 380.391 148.742 380.429 148.716L405.55 131.745C405.663 131.669 405.798 131.633 405.933 131.644C406.069 131.654 406.197 131.71 406.297 131.802C406.396 131.894 406.462 132.017 406.483 132.151C406.505 132.285 406.48 132.422 406.413 132.541L391.472 158.923C391.449 158.964 391.423 159.002 391.394 159.038L229.703 334.149C229.032 334.877 228.223 335.465 227.323 335.879C226.423 336.293 225.45 336.525 224.459 336.561L224.146 336.579ZM381.135 149.681L219.493 324.738C218.352 325.973 217.749 327.611 217.816 329.29C217.884 330.97 218.616 332.554 219.852 333.694C221.089 334.834 222.728 335.437 224.409 335.37C226.09 335.302 227.675 334.571 228.816 333.335L390.458 158.272L404.072 134.157L381.135 149.681Z" fill="#2B3A4F"/>
<path d="M315.252 218.598L322.409 224.989C323.91 226.328 325.007 228.059 325.577 229.987L326.73 233.906C326.822 234.212 326.852 234.533 326.819 234.851C326.786 235.169 326.69 235.477 326.537 235.757C326.384 236.038 326.176 236.285 325.927 236.485C325.677 236.684 325.39 236.832 325.082 236.92L324.575 237.071C324.269 237.163 323.948 237.194 323.629 237.161C323.311 237.128 323.003 237.032 322.722 236.879C322.441 236.725 322.194 236.518 321.994 236.268C321.794 236.019 321.646 235.732 321.558 235.425L319.573 230.409L311.3 223.023L315.252 218.598Z" fill="#955B50"/>
<path d="M308.904 220.129L318.39 228.6C319.475 229.567 320.264 230.821 320.665 232.217L322.041 236.878C322.136 237.196 322.166 237.53 322.132 237.86C322.097 238.19 321.997 238.51 321.839 238.802C321.68 239.094 321.466 239.351 321.207 239.56C320.949 239.769 320.652 239.925 320.333 240.019L319.995 240.115C319.677 240.21 319.344 240.24 319.014 240.206C318.683 240.171 318.364 240.071 318.072 239.913C317.781 239.754 317.523 239.54 317.315 239.282C317.106 239.024 316.951 238.727 316.858 238.409L315.283 233.092L305.302 224.187L308.904 220.129Z" fill="#955B50"/>
<path d="M304.463 222.897L314.118 231.524C315.082 232.383 315.786 233.494 316.152 234.732L317.618 239.718C317.71 240.023 317.741 240.344 317.708 240.662C317.676 240.979 317.58 241.287 317.428 241.568C317.275 241.848 317.068 242.095 316.819 242.295C316.57 242.495 316.284 242.644 315.977 242.732L315.452 242.889C315.145 242.981 314.824 243.012 314.506 242.979C314.188 242.946 313.879 242.85 313.598 242.697C313.318 242.543 313.07 242.336 312.87 242.087C312.671 241.837 312.522 241.55 312.434 241.243L310.835 235.817L300.854 226.906L304.463 222.897Z" fill="#955B50"/>
<path d="M299.937 225.61L309.671 234.31C310.586 235.125 311.255 236.179 311.602 237.354L312.459 240.254C312.655 240.923 312.578 241.643 312.245 242.256C311.911 242.868 311.348 243.324 310.679 243.522L310.54 243.564C309.87 243.76 309.15 243.684 308.537 243.35C307.924 243.017 307.468 242.454 307.269 241.786L306.316 238.548L296.335 229.643L299.937 225.61Z" fill="#955B50"/>
<path d="M317.672 220.757L314.933 218.309C312.914 216.509 310.263 215.584 307.562 215.736C304.861 215.889 302.331 217.107 300.529 219.123L293.438 227.051L301.217 233.996L317.672 220.757Z" fill="#955B50"/>
<path d="M292.792 227.72L299.913 219.816L309.447 227.816L294.808 243.244L293.547 242.111C292.551 241.216 291.742 240.133 291.165 238.925C290.589 237.717 290.256 236.408 290.186 235.072C290.116 233.735 290.31 232.398 290.757 231.137C291.204 229.875 291.896 228.714 292.792 227.72V227.72Z" fill="#955B50"/>
<path d="M302.604 235.039L294.808 243.244L293.547 242.111L299.545 232.489L302.604 235.039Z" fill="#2D3E54"/>
<path d="M310.63 219.249L318.909 226.858L331.243 220.986C331.588 220.822 331.896 220.593 332.152 220.31C332.407 220.027 332.604 219.697 332.731 219.338C332.858 218.979 332.913 218.598 332.893 218.218C332.873 217.837 332.778 217.465 332.613 217.121L332.541 216.971C332.377 216.626 332.147 216.318 331.864 216.063C331.581 215.808 331.25 215.611 330.891 215.484C330.532 215.357 330.151 215.302 329.77 215.322C329.389 215.342 329.016 215.437 328.673 215.602L325.438 217.139C323.171 218.224 320.708 218.84 318.197 218.948L310.63 219.249Z" fill="#955B50"/>
<path d="M322.638 225.688C322.502 225.687 322.37 225.641 322.263 225.555C322.157 225.47 322.083 225.351 322.053 225.218C322.023 225.086 322.039 224.946 322.098 224.824C322.157 224.701 322.256 224.602 322.378 224.543L330.983 220.443C331.533 220.18 331.956 219.71 332.159 219.136C332.363 218.562 332.33 217.931 332.069 217.38L331.997 217.23C331.734 216.681 331.263 216.258 330.689 216.055C330.114 215.851 329.482 215.884 328.932 216.144L325.697 217.688C323.359 218.801 320.82 219.43 318.233 219.539L315.861 219.635C315.701 219.635 315.548 219.572 315.435 219.459C315.321 219.345 315.258 219.192 315.258 219.032C315.258 218.872 315.321 218.719 315.435 218.606C315.548 218.493 315.701 218.429 315.861 218.429L318.227 218.333C320.655 218.233 323.039 217.643 325.233 216.597L328.467 215.053C328.883 214.855 329.333 214.741 329.793 214.717C330.253 214.693 330.713 214.76 331.147 214.914C331.581 215.068 331.98 215.306 332.321 215.614C332.663 215.923 332.94 216.295 333.138 216.711L333.21 216.862C333.609 217.7 333.66 218.662 333.35 219.537C333.04 220.412 332.395 221.128 331.557 221.528L322.952 225.628C322.855 225.678 322.746 225.699 322.638 225.688V225.688Z" fill="#2D3E54"/>
<path d="M321.998 236.896C321.908 236.896 321.819 236.876 321.738 236.838C321.656 236.799 321.584 236.743 321.528 236.673C321.401 236.519 321.29 236.354 321.196 236.179C321.12 236.037 321.105 235.871 321.152 235.718C321.198 235.565 321.304 235.437 321.446 235.362C321.588 235.286 321.753 235.271 321.907 235.317C322.06 235.364 322.189 235.47 322.264 235.612C322.32 235.718 322.387 235.819 322.463 235.913C322.563 236.037 322.61 236.195 322.594 236.353C322.579 236.511 322.501 236.656 322.378 236.757C322.271 236.846 322.137 236.895 321.998 236.896Z" fill="#2D3E54"/>
<path d="M319.283 240.797C318.477 240.796 317.702 240.488 317.117 239.935C317.001 239.824 316.933 239.672 316.929 239.512C316.925 239.352 316.985 239.197 317.096 239.081C317.206 238.966 317.358 238.898 317.518 238.894C317.678 238.89 317.834 238.95 317.95 239.06C318.194 239.295 318.497 239.46 318.827 239.539C319.156 239.619 319.501 239.61 319.826 239.513L320.158 239.416C320.403 239.345 320.632 239.226 320.83 239.066C321.029 238.905 321.194 238.707 321.315 238.483C321.436 238.259 321.512 238.012 321.537 237.758C321.562 237.505 321.536 237.248 321.462 237.005L320.086 232.338C319.711 231.059 318.986 229.911 317.992 229.022L313.768 225.278C313.704 225.227 313.651 225.163 313.613 225.091C313.574 225.019 313.551 224.939 313.544 224.858C313.537 224.776 313.547 224.694 313.573 224.617C313.599 224.539 313.641 224.468 313.695 224.406C313.75 224.345 313.816 224.296 313.89 224.262C313.965 224.227 314.045 224.208 314.127 224.205C314.209 224.203 314.29 224.217 314.367 224.247C314.443 224.277 314.512 224.322 314.57 224.38L318.764 228.124C319.926 229.163 320.774 230.506 321.214 232L322.59 236.661C322.824 237.457 322.732 238.314 322.335 239.043C321.938 239.772 321.268 240.313 320.472 240.55L320.14 240.646C319.863 240.735 319.574 240.786 319.283 240.797V240.797Z" fill="#2D3E54"/>
<path d="M314.763 243.57C314.165 243.571 313.579 243.393 313.082 243.06C312.584 242.728 312.197 242.254 311.97 241.701C311.909 241.554 311.91 241.389 311.971 241.242C312.032 241.095 312.149 240.979 312.295 240.917C312.369 240.887 312.447 240.871 312.527 240.871C312.606 240.87 312.685 240.886 312.758 240.916C312.832 240.946 312.899 240.991 312.955 241.047C313.011 241.103 313.055 241.17 313.086 241.243C313.256 241.661 313.576 242 313.984 242.194C314.391 242.388 314.856 242.423 315.288 242.292L315.807 242.135C316.036 242.066 316.249 241.953 316.434 241.801C316.618 241.65 316.771 241.464 316.883 241.253C316.995 241.042 317.065 240.811 317.087 240.574C317.11 240.336 317.085 240.096 317.014 239.868L315.548 234.882C315.213 233.754 314.571 232.74 313.695 231.952L309.109 227.865C309.049 227.812 309.001 227.748 308.966 227.676C308.931 227.604 308.911 227.526 308.906 227.447C308.902 227.367 308.913 227.287 308.94 227.212C308.966 227.137 309.007 227.068 309.061 227.008C309.168 226.89 309.318 226.82 309.478 226.812C309.637 226.804 309.793 226.859 309.912 226.966L314.498 231.054C315.547 231.988 316.312 233.198 316.706 234.545L318.173 239.525C318.288 239.907 318.327 240.308 318.286 240.705C318.245 241.102 318.126 241.486 317.935 241.837C317.744 242.187 317.486 242.497 317.174 242.747C316.863 242.996 316.505 243.182 316.121 243.293L315.602 243.449C315.33 243.528 315.047 243.569 314.763 243.57V243.57Z" fill="#2D3E54"/>
<path d="M294.042 243.16C293.893 243.162 293.749 243.108 293.637 243.01L293.142 242.557C292.084 241.609 291.224 240.461 290.611 239.18C289.998 237.899 289.644 236.509 289.57 235.091C289.495 233.673 289.701 232.254 290.177 230.916C290.652 229.577 291.387 228.346 292.34 227.292L300.335 218.387C302.179 216.336 304.762 215.098 307.517 214.946C310.272 214.793 312.976 215.738 315.035 217.573L322.813 224.513C324.398 225.928 325.555 227.757 326.156 229.794L327.309 233.713C327.425 234.096 327.464 234.498 327.423 234.896C327.383 235.294 327.263 235.679 327.071 236.031C326.88 236.382 326.62 236.692 326.308 236.942C325.995 237.192 325.636 237.377 325.251 237.487L324.744 237.638C324.17 237.811 323.558 237.809 322.985 237.633C322.413 237.457 321.905 237.114 321.528 236.649C321.428 236.526 321.381 236.368 321.396 236.21C321.412 236.052 321.49 235.906 321.612 235.805C321.673 235.754 321.744 235.716 321.82 235.692C321.895 235.669 321.975 235.66 322.054 235.668C322.133 235.675 322.21 235.698 322.28 235.735C322.35 235.772 322.413 235.822 322.463 235.883C322.689 236.166 322.994 236.374 323.339 236.481C323.685 236.589 324.054 236.59 324.4 236.486L324.913 236.335C325.145 236.269 325.361 236.157 325.548 236.005C325.736 235.854 325.891 235.667 326.005 235.455C326.121 235.244 326.193 235.013 326.218 234.773C326.243 234.534 326.22 234.293 326.15 234.063L324.998 230.138C324.454 228.315 323.409 226.681 321.981 225.423L314.202 218.478C312.381 216.856 309.991 216.021 307.555 216.156C305.119 216.29 302.836 217.383 301.204 219.195L293.209 228.106C291.507 229.996 290.626 232.485 290.759 235.024C290.893 237.563 292.03 239.945 293.921 241.647L294.416 242.093C294.534 242.2 294.605 242.35 294.613 242.509C294.62 242.669 294.565 242.825 294.458 242.943C294.407 243.005 294.343 243.057 294.272 243.094C294.2 243.131 294.122 243.154 294.042 243.16Z" fill="#2D3E54"/>
<path d="M309.786 244.276C309.089 244.271 308.412 244.043 307.855 243.625C307.297 243.207 306.889 242.622 306.69 241.954L305.779 238.886L298.091 232.025C298.032 231.972 297.984 231.908 297.95 231.836C297.915 231.764 297.896 231.687 297.891 231.608C297.887 231.528 297.899 231.449 297.925 231.374C297.952 231.3 297.993 231.231 298.046 231.172C298.099 231.113 298.163 231.065 298.235 231.031C298.306 230.996 298.384 230.977 298.463 230.972C298.543 230.968 298.622 230.98 298.697 231.006C298.772 231.033 298.841 231.073 298.9 231.126L306.841 238.217L307.842 241.617C307.918 241.872 308.043 242.11 308.211 242.317C308.379 242.524 308.586 242.696 308.82 242.823C309.059 242.949 309.321 243.026 309.59 243.051C309.859 243.076 310.131 243.047 310.389 242.967L310.528 242.925C311.042 242.77 311.475 242.418 311.731 241.947C311.988 241.475 312.048 240.921 311.898 240.405L311.023 237.541C310.706 236.475 310.1 235.518 309.273 234.774L304.403 230.427C304.343 230.374 304.294 230.31 304.259 230.238C304.225 230.167 304.204 230.089 304.2 230.009C304.195 229.93 304.207 229.85 304.233 229.775C304.26 229.699 304.301 229.63 304.355 229.571C304.462 229.453 304.612 229.382 304.771 229.374C304.931 229.366 305.087 229.422 305.205 229.529L310.075 233.876C311.074 234.76 311.81 235.904 312.199 237.18L313.056 240.079C313.298 240.903 313.203 241.788 312.792 242.542C312.382 243.296 311.689 243.856 310.866 244.101L310.733 244.137C310.426 244.229 310.106 244.276 309.786 244.276V244.276Z" fill="#2D3E54"/>
<path d="M418.687 184.944L436.687 169.824C436.422 168.229 436.612 166.592 437.234 165.099C437.856 163.607 438.886 162.319 440.205 161.383C441.285 160.563 443.663 159.062 445.678 157.82C447.971 156.407 450.067 154.698 451.912 152.738L454.006 150.483C454.516 149.938 455.218 149.612 455.963 149.572C456.709 149.533 457.441 149.784 458.006 150.272L458.26 150.489C458.831 150.984 459.186 151.683 459.249 152.437C459.313 153.19 459.079 153.939 458.598 154.522L452.147 162.36L456.733 164.132C459.083 165.043 461.64 165.283 464.119 164.826L474.166 163.162C474.974 163.027 475.802 163.19 476.499 163.618C477.196 164.047 477.713 164.714 477.956 165.495L478.04 165.772L483.339 164.349C484.096 164.15 484.902 164.253 485.585 164.637C486.268 165.021 486.775 165.655 486.998 166.405C487.222 167.155 487.144 167.963 486.782 168.657C486.42 169.352 485.802 169.878 485.058 170.125L452.515 181.851L431.504 198.594L418.687 184.944Z" fill="#955B50"/>
<path d="M486.965 166.442C486.754 165.689 486.259 165.047 485.583 164.652C484.908 164.257 484.105 164.14 483.345 164.325L478.047 165.748L477.962 165.471C477.719 164.69 477.202 164.023 476.505 163.595C475.808 163.166 474.98 163.003 474.172 163.138L464.125 164.802C461.647 165.259 459.089 165.019 456.739 164.108L452.153 162.336L458.604 154.498C459.085 153.915 459.319 153.166 459.256 152.413C459.193 151.659 458.837 150.96 458.266 150.465L458.013 150.248C457.448 149.76 456.715 149.509 455.97 149.548C455.224 149.588 454.522 149.914 454.012 150.459L451.894 152.708C450.049 154.668 447.953 156.377 445.66 157.79C443.645 159.032 441.267 160.533 440.187 161.353C439.183 162.072 438.342 162.993 437.718 164.058C437.095 165.123 436.702 166.307 436.566 167.533H487.02C487.067 167.169 487.049 166.799 486.965 166.442V166.442Z" fill="white"/>
<path d="M500.223 96.3369H426.556V167.557H500.223V96.3369Z" fill="white"/>
<path d="M431.504 199.197C431.421 199.198 431.34 199.181 431.264 199.149C431.188 199.117 431.12 199.07 431.063 199.01L418.246 185.361C418.137 185.238 418.078 185.079 418.083 184.915C418.088 184.832 418.11 184.752 418.147 184.678C418.185 184.604 418.237 184.539 418.301 184.486L436.029 169.589C435.817 167.931 436.06 166.248 436.732 164.717C437.404 163.187 438.479 161.868 439.843 160.901C440.742 160.214 442.601 159.002 445.359 157.284C447.607 155.898 449.663 154.222 451.471 152.298L453.589 150.049C454.207 149.394 455.054 149.003 455.953 148.957C456.853 148.911 457.735 149.213 458.417 149.802L458.664 150.019C459.352 150.618 459.779 151.461 459.855 152.369C459.932 153.277 459.652 154.179 459.075 154.884L453.155 162.053L456.963 163.53C459.209 164.401 461.654 164.629 464.023 164.187L474.082 162.523C474.984 162.378 475.908 162.544 476.703 162.994C477.497 163.445 478.114 164.153 478.451 165.001L483.194 163.723C484.114 163.447 485.106 163.548 485.952 164.003C486.798 164.458 487.429 165.23 487.705 166.149C487.981 167.069 487.88 168.06 487.424 168.905C486.969 169.75 486.196 170.38 485.276 170.656L452.829 182.34L431.872 199.052C431.768 199.138 431.639 199.189 431.504 199.197V199.197ZM419.562 184.999L431.564 197.78L452.195 181.357C452.244 181.314 452.302 181.281 452.364 181.261L484.908 169.535C485.521 169.352 486.038 168.934 486.343 168.371C486.648 167.809 486.716 167.148 486.534 166.535C486.352 165.922 485.933 165.406 485.37 165.102C484.807 164.797 484.146 164.728 483.532 164.91L478.252 166.333C478.101 166.373 477.942 166.353 477.806 166.278C477.67 166.202 477.568 166.078 477.522 165.929L477.437 165.652C477.237 165.011 476.811 164.464 476.239 164.112C475.667 163.76 474.987 163.626 474.323 163.735L464.264 165.393C461.679 165.872 459.011 165.624 456.558 164.675L451.972 162.897C451.883 162.863 451.803 162.807 451.739 162.736C451.675 162.665 451.628 162.579 451.604 162.487C451.58 162.394 451.579 162.297 451.6 162.204C451.621 162.111 451.664 162.024 451.725 161.95L458.176 154.113C458.552 153.65 458.735 153.059 458.685 152.464C458.636 151.87 458.358 151.318 457.91 150.923L457.626 150.724C457.18 150.335 456.601 150.135 456.009 150.165C455.418 150.196 454.862 150.455 454.458 150.887L452.352 153.136C450.471 155.137 448.332 156.881 445.992 158.321C443.307 159.979 441.43 161.197 440.561 161.854C436.283 165.115 437.218 169.498 437.26 169.691C437.287 169.8 437.282 169.915 437.247 170.021C437.212 170.128 437.147 170.222 437.061 170.294L419.562 184.999Z" fill="#2B3A4F"/>
<path d="M500.826 168.16H425.952V95.7339H500.826V168.16ZM427.159 166.954H499.619V96.9397H427.159V166.954Z" fill="#2D3E54"/>
<path d="M455.569 171.675L458.273 170.517C459.991 169.777 461.458 168.557 462.497 167.002L468.169 158.49C468.556 157.921 469.146 157.522 469.818 157.373C470.49 157.225 471.193 157.339 471.784 157.692C472.374 158.045 472.808 158.61 472.995 159.271C473.182 159.933 473.109 160.641 472.791 161.251L467.36 171.349C466.925 172.167 466.33 172.888 465.61 173.472L461.73 176.607L455.569 171.675Z" fill="#955B50"/>
<path d="M462.611 168.359L465.472 167.659C467.287 167.215 468.935 166.254 470.215 164.892L477.22 157.434C477.689 156.912 478.343 156.594 479.043 156.547C479.743 156.5 480.434 156.728 480.968 157.182C481.503 157.637 481.838 158.282 481.903 158.98C481.969 159.678 481.759 160.374 481.318 160.919L474.318 169.962C473.752 170.699 473.044 171.314 472.236 171.771L467.885 174.237L462.611 168.359Z" fill="#955B50"/>
<path d="M472.236 172.392C472.102 172.392 471.973 172.347 471.868 172.266C471.763 172.185 471.687 172.071 471.654 171.942C471.62 171.813 471.63 171.677 471.681 171.555C471.733 171.432 471.824 171.33 471.94 171.265C472.677 170.851 473.324 170.294 473.841 169.625L480.84 160.551C481.156 160.125 481.297 159.596 481.237 159.069C481.176 158.543 480.918 158.059 480.514 157.715C480.111 157.372 479.592 157.194 479.062 157.218C478.532 157.242 478.031 157.466 477.66 157.844L472.302 163.596C472.19 163.7 472.043 163.758 471.89 163.759C471.737 163.759 471.59 163.701 471.478 163.597C471.366 163.493 471.298 163.35 471.288 163.198C471.277 163.045 471.325 162.895 471.421 162.776L476.779 157.024C477.357 156.401 478.153 156.024 479.001 155.974C479.85 155.923 480.685 156.202 481.333 156.752C481.981 157.303 482.39 158.082 482.476 158.927C482.562 159.772 482.317 160.618 481.794 161.287L474.794 170.36C474.182 171.16 473.412 171.825 472.531 172.314C472.441 172.365 472.339 172.392 472.236 172.392V172.392Z" fill="#2D3E54"/>
<path d="M464.264 175.829C464.174 175.828 464.084 175.808 464.003 175.768C463.921 175.728 463.85 175.671 463.794 175.6C463.695 175.475 463.65 175.316 463.668 175.158C463.686 175 463.766 174.855 463.89 174.756C465.527 173.448 466.863 171.803 467.807 169.933L472.272 160.998C472.544 160.525 472.62 159.965 472.483 159.437C472.347 158.909 472.009 158.455 471.542 158.173C471.075 157.891 470.516 157.803 469.985 157.927C469.454 158.052 468.992 158.379 468.7 158.839L463.021 167.352C461.921 169.006 460.363 170.304 458.538 171.09L452.763 173.031C452.687 173.061 452.606 173.074 452.525 173.071C452.444 173.069 452.365 173.05 452.291 173.015C452.218 172.981 452.152 172.933 452.097 172.872C452.043 172.812 452.002 172.742 451.975 172.665C451.949 172.588 451.938 172.507 451.944 172.426C451.95 172.346 451.972 172.267 452.008 172.195C452.045 172.122 452.096 172.058 452.159 172.006C452.221 171.954 452.293 171.915 452.371 171.892L458.073 169.933C459.668 169.24 461.028 168.101 461.989 166.653L467.662 158.14C468.136 157.445 468.858 156.957 469.68 156.777C470.502 156.596 471.362 156.736 472.085 157.168C472.807 157.6 473.337 158.292 473.565 159.101C473.794 159.91 473.705 160.776 473.316 161.522L468.856 170.439C467.844 172.472 466.403 174.261 464.632 175.684C464.53 175.772 464.4 175.823 464.264 175.829Z" fill="#2D3E54"/>
<path d="M450.295 165.194C450.18 165.194 450.068 165.161 449.971 165.1C449.874 165.039 449.796 164.951 449.748 164.847C449.699 164.743 449.681 164.628 449.695 164.514C449.71 164.4 449.757 164.293 449.83 164.205L451.803 161.848C451.906 161.725 452.053 161.647 452.213 161.632C452.372 161.618 452.531 161.667 452.654 161.769C452.778 161.872 452.855 162.019 452.87 162.178C452.884 162.338 452.835 162.496 452.733 162.619L450.759 164.977C450.703 165.045 450.632 165.099 450.551 165.137C450.471 165.175 450.383 165.194 450.295 165.194Z" fill="#2D3E54"/>
<path d="M463.378 152.852L438.528 122.719L445.311 117.137L462.43 137.894L482.295 106.399L489.736 111.083L463.378 152.852Z" fill="#DFEDFF"/>
<path d="M329.433 142.262C333.059 141.209 335.144 137.418 334.09 133.796C333.035 130.173 329.242 128.09 325.616 129.143C321.99 130.197 319.905 133.987 320.959 137.61C322.013 141.232 325.807 143.315 329.433 142.262Z" fill="#2D3E54"/>
<path d="M312.893 131.07C312.188 131.907 311.747 132.933 311.626 134.021C311.506 135.108 311.711 136.206 312.215 137.177C312.72 138.148 313.501 138.947 314.46 139.474C315.42 140.001 316.514 140.232 317.605 140.138C318.695 140.043 319.733 139.627 320.588 138.943C321.442 138.259 322.074 137.337 322.403 136.294C322.733 135.251 322.745 134.134 322.439 133.083C322.133 132.033 321.522 131.097 320.683 130.394C319.56 129.453 318.109 128.995 316.648 129.122C315.187 129.248 313.837 129.949 312.893 131.07V131.07Z" fill="#2D3E54"/>
<path d="M305.441 135.917C304.738 136.753 304.3 137.779 304.181 138.864C304.062 139.95 304.268 141.046 304.772 142.014C305.277 142.983 306.057 143.78 307.015 144.306C307.972 144.831 309.065 145.062 310.153 144.967C311.242 144.873 312.278 144.459 313.131 143.776C313.984 143.094 314.615 142.174 314.945 141.133C315.275 140.092 315.289 138.977 314.985 137.929C314.681 136.88 314.073 135.945 313.237 135.242C312.681 134.773 312.039 134.419 311.345 134.199C310.652 133.979 309.923 133.898 309.198 133.961C308.474 134.024 307.769 134.229 307.124 134.565C306.479 134.9 305.907 135.36 305.441 135.917V135.917Z" fill="#2D3E54"/>
<path d="M301.778 143.682C301.177 144.402 300.803 145.284 300.704 146.215C300.604 147.147 300.783 148.088 301.219 148.918C301.654 149.748 302.326 150.431 303.15 150.879C303.974 151.328 304.912 151.522 305.846 151.438C306.781 151.353 307.669 150.994 308.399 150.406C309.129 149.817 309.668 149.025 309.947 148.13C310.227 147.236 310.235 146.278 309.969 145.379C309.704 144.48 309.178 143.68 308.458 143.079C307.492 142.274 306.246 141.886 304.993 141.999C303.74 142.112 302.584 142.717 301.778 143.682V143.682Z" fill="#2D3E54"/>
<path d="M300.287 151.731C299.75 152.37 299.414 153.154 299.323 153.984C299.232 154.814 299.389 155.652 299.774 156.393C300.16 157.133 300.757 157.743 301.489 158.145C302.221 158.547 303.057 158.722 303.889 158.65C304.721 158.577 305.513 158.26 306.165 157.737C306.817 157.215 307.299 156.511 307.55 155.715C307.802 154.919 307.811 154.066 307.577 153.265C307.344 152.463 306.877 151.749 306.237 151.213C305.379 150.493 304.271 150.144 303.155 150.241C302.039 150.338 301.008 150.874 300.287 151.731V151.731Z" fill="#2D3E54"/>
<path d="M329.512 158.664H340.784L340.826 147.288L329.554 148.24L329.512 158.664Z" fill="#955B50"/>
<path d="M329.535 152.533V148.27L340.807 147.318V156.964C338.957 157.492 337 157.521 335.135 157.049C332.033 156.066 330.072 153.262 329.535 152.533Z" fill="#2D3E54"/>
<path d="M337.859 156.455C342.818 156.059 346.483 151.298 346.044 145.82C345.606 140.343 341.23 136.224 336.271 136.62C331.312 137.017 327.648 141.778 328.086 147.256C328.525 152.733 332.9 156.852 337.859 156.455Z" fill="#955B50"/>
<path d="M335.962 155.083C333.784 155.083 331.998 154.516 329.838 152.515C329.72 152.407 329.651 152.256 329.644 152.097C329.637 151.938 329.694 151.782 329.801 151.665C329.855 151.606 329.92 151.558 329.992 151.524C330.064 151.49 330.143 151.471 330.222 151.468C330.302 151.465 330.381 151.477 330.456 151.505C330.531 151.532 330.6 151.574 330.658 151.628C332.975 153.769 334.641 154.04 337.296 153.811C338.41 153.708 339.491 153.371 340.465 152.821C341.44 152.272 342.287 151.522 342.95 150.622C344.383 148.662 345.059 146.251 344.854 143.832C344.649 141.414 343.576 139.151 341.834 137.46C341.03 136.684 340.071 136.086 339.019 135.706C337.968 135.325 336.848 135.171 335.733 135.254C334.248 135.407 332.833 135.962 331.641 136.86C330.449 137.758 329.525 138.964 328.969 140.348C328.937 140.421 328.891 140.487 328.834 140.543C328.777 140.598 328.71 140.641 328.636 140.67C328.562 140.7 328.483 140.714 328.403 140.712C328.323 140.711 328.245 140.694 328.172 140.662C328.099 140.63 328.034 140.584 327.979 140.526C327.925 140.469 327.882 140.401 327.853 140.328C327.824 140.254 327.811 140.175 327.813 140.096C327.815 140.016 327.832 139.938 327.864 139.866C328.516 138.289 329.582 136.917 330.949 135.894C332.315 134.871 333.933 134.236 335.631 134.054C336.915 133.952 338.207 134.124 339.42 134.558C340.633 134.993 341.739 135.68 342.667 136.574C344.622 138.469 345.825 141.006 346.053 143.718C346.282 146.43 345.52 149.132 343.91 151.327C343.146 152.363 342.17 153.226 341.048 153.858C339.925 154.49 338.682 154.876 337.399 154.993C336.898 155.059 336.421 155.083 335.962 155.083Z" fill="#2D3E54"/>
<path d="M335.673 134.657C330.731 135.073 327.098 139.836 327.563 145.292C327.603 145.775 327.676 146.254 327.78 146.727L335.286 138.702L344.845 140.981C343.397 136.996 339.722 134.313 335.673 134.657Z" fill="#2D3E54"/>
<path d="M335.057 150.507C335.827 150.811 336.662 150.912 337.483 150.8C338.303 150.688 339.081 150.368 339.742 149.869C340.403 149.37 340.924 148.709 341.255 147.951C341.586 147.193 341.717 146.362 341.634 145.539L335.057 150.507Z" fill="white"/>
<path d="M306.393 165.097C305.79 168.998 300.305 173.158 300.305 173.158C300.305 173.158 296.395 167.515 297.01 163.614C297.626 159.713 300.329 156.729 302.918 157.139C305.506 157.549 307.009 161.19 306.393 165.097Z" fill="#2D3E54"/>
</g>
<defs>
<clipPath id="clip0_233_29502">
<rect width="500" height="500" fill="white" transform="translate(0.826172)"/>
</clipPath>
</defs>
</svg>
