<svg width="161" height="31" viewBox="0 0 161 31" fill="none" xmlns="http://www.w3.org/2000/svg">
<circle cx="155.598" cy="25.0778" r="5.399" fill="#FFCE73"/>
<path d="M2.56561 23.7902C2.56561 28.727 5.32558 30.4763 9.4461 30.4763H12.8669V25.8893H10.3402C8.62977 25.8893 8.04668 25.2673 8.04668 23.829V13.4111H12.8669V8.94075H8.04668V3.61517H2.56561V8.94075H0V13.4111H2.56561V23.7902Z" fill="#4891FF"/>
<path d="M15.3818 19.6308C15.3818 26.3558 19.7356 30.8262 25.1778 30.8262C28.5986 30.8262 31.0475 29.1935 32.3304 27.3276V30.4763H37.8114V8.94075H32.3304V12.0117C31.0475 10.2236 28.6763 8.5909 25.2166 8.5909C19.7356 8.5909 15.3818 12.9058 15.3818 19.6308ZM32.3304 19.7085C32.3304 23.7902 29.6093 26.0448 26.616 26.0448C23.7006 26.0448 20.9406 23.7124 20.9406 19.6308C20.9406 15.5491 23.7006 13.3723 26.616 13.3723C29.6093 13.3723 32.3304 15.6269 32.3304 19.7085Z" fill="#4891FF"/>
<path d="M43.1267 30.4763H48.5689V1.71041H43.1267V30.4763Z" fill="#4891FF"/>
<path d="M63.1975 13.0613C65.9963 13.0613 68.251 14.8494 68.3287 17.6871H58.1052C58.5328 14.7328 60.593 13.0613 63.1975 13.0613ZM73.4211 23.7124H67.5513C66.8516 25.1507 65.5687 26.3169 63.2364 26.3169C60.5153 26.3169 58.3384 24.5288 58.0663 21.3412H73.8098C73.9264 20.6415 73.9653 19.9418 73.9653 19.2421C73.9653 12.828 69.5726 8.5909 63.353 8.5909C56.9779 8.5909 52.5463 12.9058 52.5463 19.7085C52.5463 26.4724 57.0945 30.8262 63.353 30.8262C68.6786 30.8262 72.2549 27.6775 73.4211 23.7124Z" fill="#4891FF"/>
<path d="M93.0203 30.4763H98.4625V17.8426C98.4625 11.8951 94.8862 8.62977 89.8716 8.62977C87.1116 8.62977 84.7792 9.79595 83.3798 11.623V8.94075H77.9376V30.4763H83.3798V18.5812C83.3798 15.1215 85.2846 13.2556 88.2389 13.2556C91.1155 13.2556 93.0203 15.1215 93.0203 18.5812V30.4763Z" fill="#4891FF"/>
<path d="M103.638 30.4763H109.08V1.71041H103.638V30.4763Z" fill="#4891FF"/>
<path d="M114.457 30.4763H119.899V8.94075H114.457V30.4763ZM117.217 6.37515C119.122 6.37515 120.56 4.97572 120.56 3.18757C120.56 1.39942 119.122 0 117.217 0C115.273 0 113.874 1.39942 113.874 3.18757C113.874 4.97572 115.273 6.37515 117.217 6.37515Z" fill="#4891FF"/>
<path d="M146.073 19.7085C146.073 12.9058 141.214 8.5909 134.994 8.5909C128.774 8.5909 123.915 12.9058 123.915 19.7085C123.915 26.4724 128.619 30.8262 134.839 30.8262C141.097 30.8262 146.073 26.4724 146.073 19.7085ZM129.435 19.7085C129.435 15.3936 132.04 13.3334 134.916 13.3334C137.793 13.3334 140.475 15.3936 140.475 19.7085C140.475 23.9845 137.715 26.0837 134.839 26.0837C131.923 26.0837 129.435 23.9845 129.435 19.7085Z" fill="#4891FF"/>
</svg>
